<svg id="Layer_1" data-name="Layer 1" xmlns="http://www.w3.org/2000/svg" width="164" height="28" viewBox="0 0 164 28"><defs><style>.cls-1{fill:#1452f5;}.cls-1,.cls-2{fill-rule:evenodd;}.cls-2{fill:#aab4c0;}.cls-3{fill:#202a36;}</style></defs><title>coinbase-wallet</title><path class="cls-1" d="M49.58.55H46.63V20.14a14.83,14.83,0,0,0,4.91.86c4.88,0,7.71-2.85,7.71-7.08a6.28,6.28,0,0,0-6.67-6.65,7.17,7.17,0,0,0-3,.66Zm-21,1.18a1.85,1.85,0,0,0-1.85,1.81,1.85,1.85,0,1,0,3.69,0A1.84,1.84,0,0,0,28.56,1.73ZM10.33,18a5.63,5.63,0,0,1-2.06.38,4.07,4.07,0,0,1-4.34-4.27A4,4,0,0,1,8.15,9.88a5.32,5.32,0,0,1,2,.39,8.23,8.23,0,0,1,1.25-2.11,7.09,7.09,0,0,0-3.55-.89A6.62,6.62,0,0,0,1,14.15C1,18.36,3.87,21,7.89,21a7.71,7.71,0,0,0,3.77-.92A7.8,7.8,0,0,1,10.33,18ZM18.41,7.27a6.56,6.56,0,0,1,6.81,6.88A6.55,6.55,0,0,1,18.41,21a6.55,6.55,0,0,1-6.79-6.85A6.56,6.56,0,0,1,18.41,7.27ZM14.6,14.15c0-2.67,1.61-4.36,3.81-4.36s3.84,1.69,3.84,4.36-1.58,4.33-3.84,4.33S14.6,16.79,14.6,14.15ZM27.1,20.7H30V7.57H27.1ZM32.62,8.4a17.71,17.71,0,0,1,6-1.13c3.36,0,5.5,1.28,5.5,5V20.7H41.25V12.52c0-1.89-1.19-2.58-2.83-2.58a10.19,10.19,0,0,0-2.86.39V20.7H32.62Zm17,9.81a7.07,7.07,0,0,0,2.05.27c2.71,0,4.64-1.48,4.64-4.51a3.87,3.87,0,0,0-4.05-4.06,5.41,5.41,0,0,0-2.64.63ZM65.23,9.82c1.46,0,2.53.66,2.53,2.08V13H66.3c-3.81,0-6.1,1.3-6.1,4,0,3,2.5,4,5.92,4a20,20,0,0,0,4.52-.53V11.75c0-3.29-2-4.48-4.93-4.48a8.84,8.84,0,0,0-4.29,1.07v2.55A7.47,7.47,0,0,1,65.23,9.82ZM67.76,15H66.51c-2.05,0-3.39.6-3.39,1.93s1.25,1.9,3,1.9a10.72,10.72,0,0,0,1.61-.15Zm9,3.68a6.92,6.92,0,0,1-4-1.48v2.78A7.69,7.69,0,0,0,76.87,21c2.85,0,5-1.24,5-4,0-2.37-1.31-3.5-4.32-4.15-1.52-.42-2.08-.86-2.08-1.72s.68-1.48,2-1.48A6.11,6.11,0,0,1,81.09,11V8.28a6.86,6.86,0,0,0-3.78-1c-2.68,0-4.7,1.3-4.7,4,0,2.28,1.16,3.38,3.9,4,1.7.44,2.47.83,2.47,1.9S78.12,18.63,76.8,18.63Zm9.07-3.83v.06a4,4,0,0,0,4.25,3.62,7.52,7.52,0,0,0,4.44-1.27v2.58A8.5,8.5,0,0,1,89.91,21c-4.1,0-6.9-2.61-6.9-6.76s2.74-7,6.37-7c3.84,0,5.65,2.47,5.65,6.05V14.8Zm3.42-5.06c1.91,0,2.92,1.12,3,3.17H86C86.34,10.92,87.59,9.74,89.29,9.74Z"/><path class="cls-2" d="M105.54.48A.48.48,0,0,1,106,0a.47.47,0,0,1,.48.48V27.07a.48.48,0,0,1-.48.48.49.49,0,0,1-.48-.48Z"/><path class="cls-3" d="M123.76,7.61l-3,11.86L117.73,7.61h-1.42l3.57,13.12h1.82l2.84-11.56,2.84,11.56h1.81l3.57-13.12h-1.35l-3.1,11.86L125.38,7.61Zm14.61,7.55h-1.09c-2.95,0-4.7,1-4.7,2.89s1.75,2.85,4.37,2.85a11.21,11.21,0,0,0,2.75-.35V13.9c0-2.16-1.26-3-3.21-3a6.31,6.31,0,0,0-3,.76v1.25a5.85,5.85,0,0,1,2.84-.77,1.79,1.79,0,0,1,2,1.88v1.17Zm0,4.51a7.32,7.32,0,0,1-1.35.13c-1.78,0-3.11-.46-3.11-1.75s1.47-1.81,3.46-1.81h1Zm4.76-14H141.8v15h1.33Zm3.59,0h-1.33v15h1.33ZM156.89,16v-.91c0-2.74-1.62-4.2-4.06-4.2a4.73,4.73,0,0,0-4.59,5,4.73,4.73,0,0,0,4.93,5,5.68,5.68,0,0,0,3.3-.93V18.69a5.07,5.07,0,0,1-3.3,1.09,3.56,3.56,0,0,1-3.6-3.76v0Zm-7.23-1.11a3.18,3.18,0,0,1,3.11-2.82c1.62,0,2.7.81,2.79,2.82Zm7.49-2.65h1.48v6c0,2,1,2.72,2.44,2.72a4.54,4.54,0,0,0,2.09-.49V19.29a3.93,3.93,0,0,1-1.8.53c-.91,0-1.4-.48-1.4-1.72V12.22h2.73V11.1H160V8.75h-1.33V11.1h-1.48Z"/></svg>