<svg id="Layer_1" data-name="Layer 1" xmlns="http://www.w3.org/2000/svg" width="331.5" height="160" viewBox="0 0 331.5 160"><defs><style>.cls-1,.cls-2{fill:#3375bb;}.cls-1{fill-rule:evenodd;}</style></defs><title>trustwallet-export</title><path class="cls-1" d="M149.35,46.24a5.87,5.87,0,0,1,7.21,0c22.62,17.59,48.46,17.45,58.22,17.4h1.34a5.91,5.91,0,0,1,5.88,6c-.46,28.3-1.68,48.87-4,64.25s-6,26.05-11.46,34.22-12.67,13.39-20.92,18.34c-2.75,1.66-5.59,3.27-8.56,5-6.15,3.49-12.9,7.33-20.81,12.61a5.85,5.85,0,0,1-6.51,0c-7.9-5.27-14.63-9.11-20.77-12.6-3-1.69-5.83-3.31-8.59-5-8.24-5-15.35-10.11-20.88-18.35S90.39,149.26,88,133.87s-3.57-35.94-4-64.24a5.91,5.91,0,0,1,5.88-6h1.33C100.89,63.69,126.73,63.84,149.35,46.24ZM95.87,75.44c.53,25,1.71,43.14,3.79,56.63,2.23,14.55,5.42,23.28,9.55,29.42s9.43,10.16,17.18,14.82c2.35,1.41,5,2.91,7.83,4.54C139.69,184,146,187.56,153,192c6.95-4.49,13.29-8.09,18.77-11.21,2.85-1.62,5.46-3.11,7.81-4.52,7.76-4.66,13.12-8.74,17.21-14.82s7.34-14.88,9.58-29.42c2.08-13.5,3.27-31.6,3.8-56.63-12-.17-35.44-2-57.17-17.21C131.24,73.42,107.82,75.27,95.87,75.44Z" transform="translate(-84 -45)"/><path class="cls-2" d="M273.9,90.45H261.71v32.43h-8.19V90.45h-12V84h32.4Zm19.42,18.18h-6.53v14.25H278.6V84h14.77q7,0,10.88,3.07a10.51,10.51,0,0,1,3.82,8.69,11.73,11.73,0,0,1-1.78,6.66A11.92,11.92,0,0,1,301,106.6l8.6,15.9v.38h-8.79Zm-6.53-6.5h6.61a6.93,6.93,0,0,0,4.78-1.52,5.51,5.51,0,0,0,1.7-4.26A5.77,5.77,0,0,0,298.26,92q-1.58-1.58-4.89-1.57h-6.58ZM344.43,84v25.64q0,6.39-4.1,10.11t-11.15,3.71q-7,0-11.06-3.61t-4.18-9.92V84h8.2v25.69c0,2.55.62,4.42,1.85,5.59a7.37,7.37,0,0,0,5.19,1.74q6.92,0,7-7.11V84Zm27.34,28.71a4,4,0,0,0-1.64-3.47,21.09,21.09,0,0,0-5.9-2.57,43.75,43.75,0,0,1-6.75-2.67q-6.76-3.58-6.77-9.65a9.27,9.27,0,0,1,1.8-5.62,11.89,11.89,0,0,1,5.22-3.88,20.24,20.24,0,0,1,7.65-1.39A18,18,0,0,1,373,84.94a11.92,11.92,0,0,1,5.17,4.25A11,11,0,0,1,380,95.44H371.8a5.17,5.17,0,0,0-1.72-4.14,7.14,7.14,0,0,0-4.84-1.5,7.6,7.6,0,0,0-4.67,1.26,3.87,3.87,0,0,0-1.67,3.26,3.74,3.74,0,0,0,1.94,3.18,22.52,22.52,0,0,0,5.77,2.41q7,2.06,10.19,5.11a10.05,10.05,0,0,1,3.19,7.59,9.33,9.33,0,0,1-3.9,7.94q-3.91,2.86-10.52,2.86a20.78,20.78,0,0,1-8.36-1.63,13.32,13.32,0,0,1-5.76-4.52,11.4,11.4,0,0,1-2-6.63h8.22q0,6.45,7.87,6.45a7.88,7.88,0,0,0,4.56-1.15A3.81,3.81,0,0,0,371.77,112.66ZM415.5,90.45H403.32v32.43h-8.19V90.45h-12V84H415.5Z" transform="translate(-84 -45)"/><path class="cls-2" d="M256.05,159.91l1,4.82,1.17-4.6L265,137.28h2.37L274,160.13l1.16,4.64,1-4.86,5.63-22.63h2.69l-8,31H274L266.94,144l-.79-3.07-.77,3.07-7.23,24.25h-2.52l-8-31h2.7Zm49.38-.32H291.29l-3.2,8.69h-2.76l11.78-31h2.5l11.78,31h-2.73Zm-13.32-2.23h12.48l-6.24-16.88Zm26.53,8.71H334v2.21H316v-31h2.65Zm23.1,0h15.37v2.21h-18v-31h2.65Zm37.63-12.65H364.81v12.65h16.75v2.21H362.18v-31h19.27v2.24H364.81v11.69h14.56Zm29.3-13.9H398v28.76h-2.63V139.52H384.72v-2.24h23.95Z" transform="translate(-84 -45)"/></svg>