<svg width="32" height="32" viewBox="0 0 32 32" fill="none" xmlns="http://www.w3.org/2000/svg">
<g clip-path="url(#clip0_21_108)">
<rect width="1024" height="1024" fill="url(#paint0_linear_21_108)"/>
<g opacity="0.8">
<mask id="mask0_21_108" style="mask-type:alpha" maskUnits="userSpaceOnUse" x="-8" y="-13" width="55" height="55">
<ellipse cx="19.4788" cy="14.3467" rx="26.9121" ry="26.8732" transform="rotate(21.5205 19.4788 14.3467)" fill="url(#paint1_radial_21_108)"/>
</mask>
<g mask="url(#mask0_21_108)">
<g filter="url(#filter0_d_21_108)">
<path fill-rule="evenodd" clip-rule="evenodd" d="M-0.6875 -0.612793V-0.42962H40.6698V-0.612793H-0.6875ZM-0.6875 0.669433V0.486259H40.6698V0.669433H-0.6875ZM-0.6875 1.58528V1.76846H40.6698V1.58528H-0.6875ZM-0.6875 2.86749V2.68432H40.6698V2.86749H-0.6875ZM-0.6875 3.78336V3.96653H40.6698V3.78336H-0.6875ZM-0.6875 5.0656V4.88243H40.6698V5.0656H-0.6875ZM-0.6875 5.98146V6.16464H40.6698V5.98146H-0.6875ZM-0.6875 7.26367V7.0805H40.6698V7.26367H-0.6875ZM-0.6875 8.17943V8.3626H40.6698V8.17943H-0.6875ZM-0.6875 9.46165V9.27848H40.6698V9.46165H-0.6875ZM-0.6875 10.3775V10.5607H40.6698V10.3775H-0.6875ZM-0.6875 11.6598V11.4766H40.6698V11.6598H-0.6875ZM-0.6875 12.7588V12.5756H40.6698V12.7588H-0.6875ZM-0.6875 13.6747V13.8578H40.6698V13.6747H-0.6875ZM-0.6875 14.9569V14.7737H40.6698V14.9569H-0.6875ZM-0.6875 15.8727V16.0559H40.6698V15.8727H-0.6875ZM-0.6875 17.155V16.9718H40.6698V17.155H-0.6875ZM-0.6875 18.0708V18.254H40.6698V18.0708H-0.6875ZM-0.6875 19.353V19.1698H40.6698V19.353H-0.6875ZM-0.6875 20.2689V20.4521H40.6698V20.2689H-0.6875ZM-0.6875 21.5511V21.3679H40.6698V21.5511H-0.6875ZM-0.6875 22.467V22.6501H40.6698V22.467H-0.6875ZM-0.6875 23.7492V23.566H40.6698V23.7492H-0.6875ZM-0.6875 24.665V24.8482H40.6698V24.665H-0.6875ZM-0.6875 25.9473V25.7641H40.6698V25.9473H-0.6875ZM-0.6875 26.8631V27.0463H40.6698V26.8631H-0.6875ZM-0.6875 28.1453V27.9622H40.6698V28.1453H-0.6875ZM-0.6875 29.0612V29.2444H40.6698V29.0612H-0.6875ZM-0.6875 30.3434V30.1602H40.6698V30.3434H-0.6875ZM-0.6875 31.2593V31.4425H40.6698V31.2593H-0.6875ZM-0.6875 32.5415V32.3583H40.6698V32.5415H-0.6875ZM-0.6875 33.4574V33.6405H40.6698V33.4574H-0.6875ZM-0.6875 34.7395V34.5564H40.6698V34.7395H-0.6875ZM-0.6875 35.6554V35.8386H40.6698V35.6554H-0.6875ZM-0.6875 36.9376V36.7544H40.6698V36.9376H-0.6875Z" fill="url(#paint2_linear_21_108)"/>
</g>
</g>
</g>
<path fill-rule="evenodd" clip-rule="evenodd" d="M14.3219 7.5498C13.2544 7.5498 12.3906 8.41161 12.3906 9.47267C12.3906 10.5337 13.2544 11.3955 14.3219 11.3955C15.3894 11.3955 16.2531 10.5337 16.2531 9.47267C16.2531 8.41161 15.3894 7.5498 14.3219 7.5498ZM11.8906 9.47267C11.8906 8.13365 12.98 7.0498 14.3219 7.0498C15.6637 7.0498 16.7531 8.13365 16.7531 9.47267C16.7531 10.8117 15.6637 11.8955 14.3219 11.8955C12.98 11.8955 11.8906 10.8117 11.8906 9.47267Z" fill="#9CB2FF"/>
<path fill-rule="evenodd" clip-rule="evenodd" d="M7.42757 7.54932C6.71362 7.54932 6.13672 8.12527 6.13672 8.83346C6.13672 9.54164 6.71362 10.1176 7.42757 10.1176C8.14152 10.1176 8.71843 9.54164 8.71843 8.83346C8.71843 8.12527 8.14152 7.54932 7.42757 7.54932ZM5.63672 8.83346C5.63672 7.84708 6.43954 7.04932 7.42757 7.04932C8.4156 7.04932 9.21843 7.84708 9.21843 8.83346C9.21843 9.81984 8.4156 10.6176 7.42757 10.6176C6.43954 10.6176 5.63672 9.81984 5.63672 8.83346Z" fill="#9CB2FF"/>
<path fill-rule="evenodd" clip-rule="evenodd" d="M11.4922 12.5991C10.0674 12.5991 8.91406 13.7492 8.91406 15.1657C8.91406 16.5822 10.0674 17.7323 11.4922 17.7323C12.9171 17.7323 14.0704 16.5822 14.0704 15.1657C14.0704 13.7492 12.9171 12.5991 11.4922 12.5991ZM8.41406 15.1657C8.41406 13.4711 9.79317 12.0991 11.4922 12.0991C13.1913 12.0991 14.5704 13.4711 14.5704 15.1657C14.5704 16.8603 13.1913 18.2323 11.4922 18.2323C9.79317 18.2323 8.41406 16.8603 8.41406 15.1657Z" fill="#9CB2FF"/>
<path d="M44.4108 25.3287C43.8879 33.608 37.4616 40.1129 29.4716 41.0472C28.455 41.1675 27.4295 41.1966 26.4076 41.134C17.1797 40.5556 10.1452 32.7349 10.5223 23.5826C10.5092 23.4531 10.5544 22.4859 10.6439 22.1559C10.8898 21.242 11.4572 20.4465 12.2428 19.9145C13.0284 19.3824 13.9799 19.1493 14.9237 19.2575C15.8675 19.3656 16.7409 19.808 17.3845 20.5039C18.0282 21.1998 18.3993 22.1028 18.4302 23.0484C18.4321 23.0948 18.0866 26.738 19.7849 29.3067C20.3769 30.2021 21.1037 31.1215 22.8851 32.1499C24.1108 32.8575 25.4849 33.2715 26.8989 33.3592C31.9414 33.6771 36.2862 29.861 36.6036 24.8395C36.6979 23.3403 36.4186 21.8411 35.7906 20.4753C35.1626 19.1095 34.2053 17.9195 33.0038 17.0111C31.8024 16.1028 30.3941 15.5042 28.9043 15.2688C27.4145 15.0334 25.8893 15.1683 24.4645 15.6617C24.1649 15.7652 22.8995 16.1639 22.5336 16.1639C21.4836 16.1639 20.4767 15.7485 19.7342 15.0092C18.9918 14.2698 18.5747 13.2671 18.5747 12.2215C18.5747 10.5469 19.5684 9.29511 21.1037 8.54831C21.1037 8.54831 23.0029 7.6957 25.2518 7.51236C26.3416 7.36966 27.4428 7.33204 28.5399 7.40004C37.8941 7.98671 45 16.0135 44.4108 25.3287Z" fill="url(#paint3_linear_21_108)"/>
<path fill-rule="evenodd" clip-rule="evenodd" d="M29.4136 40.5506C37.1695 39.6436 43.4045 33.3292 43.9118 25.2972C44.4834 16.2596 37.5891 8.46856 28.5086 7.89906C27.4436 7.83307 26.3747 7.8696 25.3167 8.00813L25.3046 8.00972L25.2924 8.01071C24.2162 8.09844 23.2171 8.34725 22.4834 8.57636C22.1178 8.69056 21.8208 8.79899 21.6166 8.87831C21.5145 8.91795 21.4358 8.95025 21.3834 8.97227C21.3572 8.98328 21.3376 8.99171 21.325 8.9972C21.3207 8.99907 21.3172 9.0006 21.3145 9.00177C19.9102 9.68745 19.0747 10.7871 19.0747 12.2215C19.0747 13.1338 19.4386 14.0092 20.0871 14.6549C20.7356 15.3007 21.6156 15.6639 22.5336 15.6639C22.5636 15.6639 22.6622 15.6513 22.8386 15.612C23.0008 15.5758 23.1929 15.5254 23.3882 15.4703C23.7794 15.3601 24.1614 15.2374 24.3013 15.1891C25.8036 14.669 27.4116 14.5267 28.9824 14.7749C30.5532 15.0232 32.0383 15.6543 33.3054 16.6123C34.5725 17.5703 35.5823 18.8255 36.2449 20.2664C36.9074 21.7073 37.2021 23.2891 37.1026 24.8709L37.1026 24.8711C36.7676 30.1696 32.1841 34.1932 26.8679 33.8583C25.3769 33.7658 23.9278 33.3292 22.6352 32.5829C20.7742 31.5086 19.9939 30.5295 19.3678 29.5824C18.4549 28.2016 18.1039 26.5567 17.974 25.2824C17.849 24.0565 17.9265 22.9664 17.9306 23.0685L17.9306 23.0666L17.9305 23.0647C17.9035 22.2396 17.5797 21.4512 17.0175 20.8434C16.4553 20.2356 15.692 19.8488 14.8668 19.7542C14.0415 19.6596 13.2097 19.8635 12.5232 20.3285C11.8367 20.7934 11.3413 21.4882 11.1268 22.2858L11.1266 22.2862L11.1265 22.2867C11.0967 22.3968 11.0648 22.6722 11.0434 22.9792C11.0334 23.1232 11.0265 23.2605 11.0229 23.3681C11.0201 23.4541 11.02 23.5036 11.02 23.5233C11.02 23.532 11.02 23.5349 11.0198 23.5325L11.0233 23.5678L11.0219 23.6032C10.6561 32.4825 17.481 40.0732 26.4382 40.6349C27.4303 40.6957 28.4258 40.6675 29.4128 40.5506L29.4136 40.5506ZM26.4076 41.134C17.1797 40.5556 10.1452 32.7349 10.5223 23.5826C10.5092 23.4531 10.5544 22.4859 10.6439 22.1559C10.8898 21.242 11.4572 20.4465 12.2428 19.9145C13.0284 19.3824 13.9799 19.1493 14.9237 19.2575C15.8675 19.3656 16.7409 19.808 17.3845 20.5039C18.0282 21.1998 18.3993 22.1028 18.4302 23.0484C18.4303 23.0507 18.4296 23.0617 18.4283 23.0809C18.403 23.4511 18.1703 26.8645 19.7849 29.3067C20.3769 30.2021 21.1037 31.1215 22.8851 32.1499C24.1108 32.8575 25.4849 33.2715 26.8989 33.3592C31.9414 33.6771 36.2862 29.861 36.6036 24.8395C36.6979 23.3403 36.4186 21.8411 35.7906 20.4753C35.1626 19.1095 34.2053 17.9195 33.0038 17.0111C31.8024 16.1028 30.3941 15.5042 28.9043 15.2688C27.4145 15.0334 25.8893 15.1683 24.4645 15.6617C24.1649 15.7652 22.8995 16.1639 22.5336 16.1639C21.4836 16.1639 20.4767 15.7485 19.7342 15.0092C18.9918 14.2698 18.5747 13.2671 18.5747 12.2215C18.5747 10.5469 19.5684 9.29511 21.1037 8.54831C21.1037 8.54831 23.0029 7.6957 25.2518 7.51236C26.3416 7.36966 27.4428 7.33204 28.5399 7.40004C37.8941 7.98671 45 16.0135 44.4108 25.3287C43.8879 33.608 37.4616 40.1129 29.4716 41.0472C28.455 41.1675 27.4295 41.1966 26.4076 41.134Z" fill="url(#paint4_linear_21_108)"/>
</g>
<defs>
<filter id="filter0_d_21_108" x="-8.6875" y="-8.61279" width="57.3555" height="53.5503" filterUnits="userSpaceOnUse" color-interpolation-filters="sRGB">
<feFlood flood-opacity="0" result="BackgroundImageFix"/>
<feColorMatrix in="SourceAlpha" type="matrix" values="0 0 0 0 0 0 0 0 0 0 0 0 0 0 0 0 0 0 127 0" result="hardAlpha"/>
<feOffset/>
<feGaussianBlur stdDeviation="4"/>
<feColorMatrix type="matrix" values="0 0 0 0 0.411169 0 0 0 0 0.125938 0 0 0 0 0.975 0 0 0 1 0"/>
<feBlend mode="normal" in2="BackgroundImageFix" result="effect1_dropShadow_21_108"/>
<feBlend mode="normal" in="SourceGraphic" in2="effect1_dropShadow_21_108" result="shape"/>
</filter>
<linearGradient id="paint0_linear_21_108" x1="-1.39934e-05" y1="9.81334" x2="512" y2="1024" gradientUnits="userSpaceOnUse">
<stop stop-color="#040404"/>
<stop offset="1" stop-color="#02050C"/>
</linearGradient>
<radialGradient id="paint1_radial_21_108" cx="0" cy="0" r="1" gradientUnits="userSpaceOnUse" gradientTransform="translate(34.6773 23.4835) rotate(97.3297) scale(37.5174 73.3908)">
<stop offset="0.136962" stop-opacity="0.2"/>
<stop offset="0.28496" stop-opacity="0.6"/>
<stop offset="0.43256" stop-opacity="0"/>
</radialGradient>
<linearGradient id="paint2_linear_21_108" x1="0.351627" y1="10.2168" x2="39.5267" y2="10.2168" gradientUnits="userSpaceOnUse">
<stop offset="0.15213" stop-color="#8363FF"/>
<stop offset="0.343355" stop-color="#9039FF"/>
<stop offset="0.762706" stop-color="#8363FF"/>
</linearGradient>
<linearGradient id="paint3_linear_21_108" x1="0.285312" y1="-0.620612" x2="27.4764" y2="41.1661" gradientUnits="userSpaceOnUse">
<stop offset="0.298702" stop-color="#9CB2FF"/>
<stop offset="0.685129" stop-color="#8363FF"/>
</linearGradient>
<linearGradient id="paint4_linear_21_108" x1="27.4764" y1="7.36719" x2="27.4764" y2="41.166" gradientUnits="userSpaceOnUse">
<stop offset="0.43" stop-color="#9CB2FF"/>
<stop offset="1" stop-color="#8363FF"/>
</linearGradient>
<clipPath id="clip0_21_108">
<rect width="32" height="32" fill="white"/>
</clipPath>
</defs>
</svg>
