<svg width="32" height="32" viewBox="0 0 32 32" fill="none" xmlns="http://www.w3.org/2000/svg">
<path d="M30.999 21.8271C30.999 22.5884 30.7983 23.3362 30.417 23.9951C30.0357 24.6539 29.4874 25.2006 28.8273 25.5799L18.656 31.4246C17.9998 31.8016 17.2563 32 16.4995 32C15.7428 32 14.9992 31.8016 14.3431 31.4246L4.17172 25.5799C3.51164 25.2006 2.96327 24.654 2.58195 23.9951C2.20062 23.3362 1.99982 22.5884 1.99981 21.8271V10.1729C1.9998 9.41163 2.20056 8.66383 2.58185 8.00494C2.96314 7.34606 3.51147 6.79939 4.17151 6.42009L14.3429 0.575449C14.999 0.198413 15.7425 0 16.4993 0C17.2561 0 17.9996 0.198413 18.6557 0.575449L28.8271 6.42009C29.4872 6.79936 30.0356 7.34602 30.4169 8.00491C30.7982 8.6638 30.999 9.41161 30.999 10.1729V21.8271Z" fill="#1D86CC"/>
<path d="M15.2454 2.20276L5.20393 8.00261C4.82217 8.22301 4.50515 8.54006 4.28481 8.92186C4.06447 9.30365 3.94857 9.73673 3.94873 10.1775L3.95502 21.79C3.9553 22.2301 4.07129 22.6625 4.29137 23.0436C4.51144 23.4248 4.82786 23.7414 5.2089 23.9617L15.2621 29.7732C15.6438 29.9935 16.0766 30.1095 16.5173 30.1095C16.9579 30.1095 17.3908 29.9935 17.7725 29.7732L27.814 23.9751C28.1958 23.7547 28.5127 23.4377 28.7331 23.0559C28.9534 22.6741 29.0693 22.241 29.0692 21.8002L29.0629 10.1877C29.0626 9.74762 28.9466 9.31533 28.7265 8.93421C28.5064 8.55308 28.19 8.23652 27.809 8.01624L17.7558 2.20449C17.3742 1.98416 16.9413 1.86816 16.5006 1.86816C16.06 1.86816 15.6271 1.98416 15.2454 2.20449V2.20276Z" fill="white"/>
<path d="M11.9312 25.8482C11.9466 25.7725 11.9805 25.7019 12.0298 25.6424C15.0336 20.5455 18.0379 15.4488 21.0428 10.3523C21.0845 10.2815 21.1232 10.2088 21.1587 10.1454C21.1323 10.0993 21.1023 10.1088 21.0767 10.1088C19.793 10.1133 18.5092 10.1216 17.2246 10.12C17.1697 10.1191 17.1158 10.1349 17.0702 10.1655C17.0246 10.1961 16.9894 10.2399 16.9694 10.291C16.0011 11.8925 15.0314 13.4935 14.0606 15.0941C12.004 18.4873 9.94714 21.8804 7.89007 25.2734C7.87189 25.3035 7.85283 25.3329 7.8366 25.3639C7.80024 25.434 7.75892 25.445 7.68512 25.4022C7.36591 25.2137 7.04325 25.0313 6.70414 24.8363L15.8584 10.1545C15.8387 10.0947 15.7982 10.1097 15.767 10.1086C15.2764 10.0939 14.7856 10.0727 14.2955 10.0683C13.6069 10.0479 12.9206 10.1585 12.2733 10.3942C11.6837 10.6125 11.1827 11.0193 10.848 11.5514C9.17541 14.1602 7.4965 16.7649 5.81122 19.3656C5.78482 19.4067 5.7567 19.447 5.72944 19.4877C5.63292 19.4877 5.64717 19.408 5.6383 19.3524C5.62976 19.2686 5.62777 19.1844 5.63227 19.1003C5.63227 16.2237 5.64222 13.3472 5.6234 10.4709C5.60828 10.223 5.66785 9.97633 5.79448 9.76273C5.9211 9.54914 6.10896 9.37847 6.33366 9.2728C8.5456 8.01176 10.7433 6.72477 12.9481 5.45097C13.9321 4.88245 14.9192 4.31934 15.896 3.73893C16.0798 3.61564 16.296 3.5498 16.5173 3.5498C16.7386 3.5498 16.9549 3.61564 17.1387 3.73893C18.9349 4.79307 20.7471 5.82275 22.5526 6.86196C23.9144 7.6461 25.2769 8.42886 26.64 9.21025C26.7376 9.26587 26.8326 9.32538 26.9306 9.38013C27.09 9.46484 27.2218 9.5934 27.3105 9.75063C27.3992 9.90787 27.441 10.0872 27.431 10.2674C27.4336 13.3965 27.4336 16.5255 27.431 19.6545C27.4373 19.7315 27.429 19.809 27.4063 19.8828C27.2981 19.9873 27.259 19.8701 27.2196 19.8144C27.0573 19.5861 26.9116 19.3457 26.7608 19.1094C25.5529 17.2187 24.341 15.3305 23.125 13.4448C22.7164 12.8075 22.3027 12.1727 21.8984 11.5328C21.8041 11.3835 21.787 11.3813 21.6926 11.5417C21.0826 12.5738 20.473 13.6062 19.8637 14.6387C19.8303 14.6961 19.8159 14.7626 19.8226 14.8287C19.8293 14.8948 19.8567 14.9571 19.9009 15.0066C20.4033 15.8172 20.9047 16.6283 21.4052 17.44L23.9712 21.5908C24.3175 22.1517 24.6643 22.7121 25.0117 23.2721C25.0762 23.3471 25.1125 23.4423 25.1143 23.5413C25.0449 23.6793 24.9 23.7181 24.7795 23.7808C24.5817 23.9237 24.3643 24.0372 24.134 24.1178C24.0097 24.0868 23.9658 23.9747 23.9069 23.883C23.1125 22.6438 22.3282 21.3984 21.539 20.1562C20.7272 18.8793 19.9194 17.5977 19.1041 16.3222C18.9996 16.1586 18.9829 16.1575 18.8847 16.3222C18.1755 17.5153 17.476 18.714 16.7651 19.9058C16.7288 19.9616 16.7109 20.0275 16.714 20.0941C16.7172 20.1606 16.7412 20.2245 16.7827 20.2767C17.7403 21.7526 18.6758 23.2415 19.6233 24.7248C19.8875 25.1382 20.1537 25.55 20.4132 25.9664C20.4638 26.0473 20.5331 26.128 20.4872 26.2375C20.2385 26.4311 19.9701 26.5979 19.6865 26.7353C18.8015 27.2502 17.9161 27.7644 17.0303 28.2779C16.8884 28.3695 16.723 28.4182 16.5541 28.4182C16.3852 28.4182 16.2199 28.3695 16.078 28.2779C14.7732 27.523 13.466 26.7716 12.1564 26.0235C12.0662 25.9877 11.9881 25.9269 11.9312 25.8482V25.8482Z" fill="#2D374B"/>
<path d="M27.3677 19.9141C27.3696 19.8369 27.3735 19.7598 27.3735 19.6828C27.3735 16.5608 27.3745 13.439 27.3766 10.3174C27.3877 10.128 27.3432 9.9396 27.2487 9.77518C27.1542 9.61075 27.0138 9.47748 26.8446 9.39175C23.5664 7.51243 20.2906 5.62885 17.0171 3.74102C16.8697 3.64512 16.6978 3.59386 16.5219 3.5934C16.3461 3.59294 16.1739 3.6433 16.026 3.73843C14.2081 4.79495 12.3879 5.84874 10.5654 6.89978C9.1032 7.74624 7.6411 8.59291 6.17902 9.43981C6.02286 9.52081 5.8934 9.64517 5.80621 9.79796C5.71903 9.95075 5.67783 10.1255 5.68755 10.3011C5.69505 13.2967 5.69927 16.2923 5.70028 19.2878C5.70028 19.3545 5.67324 19.4287 5.73145 19.4876C5.38519 20.0641 5.00475 20.6181 4.64009 21.1823C4.45744 21.4648 4.27407 21.7468 4.08998 22.0283C4.06054 22.0733 4.02656 22.1148 3.96835 22.1951C3.96402 22.1008 3.95947 22.0486 3.95947 21.9967C3.95947 18.0463 3.9602 14.0959 3.96164 10.1455C3.95199 9.70708 4.06331 9.27445 4.28335 8.8951C4.50339 8.51576 4.82364 8.20434 5.20902 7.99503C6.48022 7.24019 7.76831 6.51348 9.04796 5.77206C10.1276 5.14684 11.2036 4.51686 12.2827 3.89056C13.289 3.30625 14.2851 2.70441 15.3085 2.15191C15.7005 1.93365 16.1439 1.82465 16.5924 1.83629C17.0409 1.84794 17.478 1.97981 17.8581 2.21813C18.6804 2.68472 19.4994 3.15996 20.3193 3.6313C21.0906 4.07524 21.8619 4.51946 22.633 4.96397C23.3437 5.37313 24.0546 5.78186 24.7658 6.19015C25.4708 6.59513 26.176 6.9999 26.8812 7.40445C27.1911 7.58255 27.5007 7.76087 27.8087 7.94223C28.1487 8.13458 28.441 8.40103 28.6639 8.72181C28.8869 9.04258 29.0347 9.40943 29.0964 9.79515C29.1109 9.90655 29.1154 10.019 29.1098 10.1312C29.1098 14.0184 29.1103 17.9057 29.1113 21.793C29.1133 22.1624 29.0336 22.5276 28.8779 22.8626C28.7222 23.1975 28.4943 23.4938 28.2106 23.7304C28.0487 23.8538 27.8747 23.9605 27.6912 24.0487C26.638 24.6632 25.5833 25.2751 24.5271 25.8845C23.4048 26.5338 22.2819 27.1819 21.1586 27.829C20.0793 28.4543 19.0011 29.0819 17.9241 29.7118C17.656 29.8922 17.3542 30.0166 17.0368 30.0777C16.5096 30.1806 15.9633 30.1111 15.4787 29.8795C14.9415 29.5914 14.4183 29.2789 13.8887 28.9755C13.1776 28.5675 12.4668 28.1587 11.7564 27.7491C11.5557 27.6337 11.3548 27.5189 11.1539 27.4048C11.0801 27.3628 11.0297 27.3202 11.0872 27.2239C11.353 26.7787 11.6146 26.331 11.8791 25.885C11.8884 25.8687 11.9122 25.8611 11.9293 25.8492C12.1757 25.9644 12.4143 26.0956 12.6434 26.242C13.8038 26.9057 14.9624 27.5726 16.1192 28.2428C16.2529 28.3273 16.4081 28.3713 16.5662 28.3696C16.7243 28.368 16.8786 28.3206 17.0104 28.2332C18.1091 27.5886 19.2135 26.9532 20.3154 26.3145C20.37 26.2829 20.4258 26.2542 20.4812 26.2243C20.5851 26.0915 20.7239 25.9903 20.882 25.9319C21.8775 25.3614 22.8656 24.7797 23.8609 24.2108C23.944 24.1634 24.0189 24.0902 24.1271 24.1026L25.1023 23.5377C25.1618 23.4131 25.2888 23.3728 25.3953 23.3114C25.8859 23.0281 26.372 22.737 26.8669 22.4628C27.0102 22.3874 27.1285 22.2723 27.208 22.1313C27.2874 21.9903 27.3244 21.8293 27.3146 21.6677C27.3196 21.1713 27.3146 20.6746 27.317 20.1779C27.2998 20.0868 27.3179 19.9925 27.3677 19.9141V19.9141Z" fill="#96BEDC"/>
<path d="M27.3684 19.9144C27.371 20.5307 27.3846 21.1479 27.3707 21.7634C27.3746 21.9076 27.3384 22.05 27.2662 22.1749C27.1941 22.2998 27.0888 22.4023 26.9619 22.471C26.3413 22.8225 25.7318 23.1939 25.1055 23.5358C24.8564 23.0813 24.5688 22.6485 24.2966 22.207C22.8827 19.9154 21.4673 17.625 20.0502 15.3359C19.9654 15.1987 19.8876 15.0563 19.7928 14.9267C19.762 14.8895 19.7451 14.8427 19.7451 14.7944C19.7451 14.746 19.762 14.6992 19.7928 14.662C20.1311 14.0963 20.4638 13.5274 20.7985 12.9593L21.7278 11.383C21.7443 11.3455 21.7733 11.3149 21.8098 11.2964C21.9715 11.5455 22.1344 11.7967 22.2972 12.0482C23.2748 13.5703 24.2522 15.0924 25.2293 16.6145C25.892 17.6472 26.5546 18.68 27.2171 19.7129C27.2534 19.7895 27.3049 19.8581 27.3684 19.9144V19.9144Z" fill="#28A0F0"/>
<path d="M24.1308 24.1002C23.7271 24.3651 23.2991 24.5904 22.8832 24.836C22.129 25.2795 21.37 25.7147 20.6132 26.1531C20.5699 26.1776 20.5266 26.2005 20.4849 26.2241C20.4753 26.1541 20.4452 26.0885 20.3983 26.0356C19.7244 24.9765 19.0504 23.9176 18.3764 22.8589C17.8225 21.9895 17.267 21.1209 16.71 20.2533C16.6723 20.2083 16.6504 20.1521 16.6477 20.0935C16.6451 20.0348 16.6618 19.9769 16.6953 19.9287C17.4399 18.6746 18.1814 17.4187 18.9198 16.1609C18.9373 16.1319 18.9514 16.0982 18.9949 16.0889C19.0555 16.1025 19.0702 16.1631 19.099 16.2083C20.4407 18.3218 21.7825 20.4354 23.1242 22.5492C23.4097 22.9991 23.6938 23.4501 23.981 23.8992C24.0176 23.9752 24.0682 24.0436 24.1303 24.1007L24.1308 24.1002Z" fill="#28A0F0"/>
</svg>
