<svg width="32" height="32" viewBox="0 0 32 32" fill="none" xmlns="http://www.w3.org/2000/svg">
<g clip-path="url(#clip0_811_5392)">
<path d="M15.8435 0L7.3403 4.88832L10.4623 6.69576L15.8435 3.61489L21.2248 6.69576L24.3467 4.88832L15.8435 0Z" fill="#F0B90B"/>
<path d="M21.2248 9.28362L24.3467 11.0911V14.706L18.9655 17.7868V23.9486L15.8435 25.756L12.7216 23.9486V17.7868L7.3403 14.706V11.0911L10.4623 9.28362L15.8435 12.3645L21.2248 9.28362Z" fill="#F0B90B"/>
<path d="M24.3469 17.2937V20.9086L21.2249 22.716V19.1011L24.3469 17.2937Z" fill="#F0B90B"/>
<path d="M21.1837 25.2632L26.565 22.1823V16.0206L29.687 14.2131V24.0308L21.1837 28.9192V25.2632Z" fill="#F0B90B"/>
<path d="M26.5646 9.81798L23.4427 8.01054L26.5646 6.20309L29.6866 8.01054V11.6254L26.5646 13.4329V9.81798Z" fill="#F0B90B"/>
<path d="M12.721 30.1929V26.578L15.8429 28.3855L18.9649 26.578V30.1929L15.8429 32.0003L12.721 30.1929Z" fill="#F0B90B"/>
<path d="M10.4623 22.716L7.3403 20.9086V17.2937L10.4623 19.1011V22.716Z" fill="#F0B90B"/>
<path d="M15.8429 9.81798L12.721 8.01054L15.8429 6.20309L18.9649 8.01054L15.8429 9.81798Z" fill="#F0B90B"/>
<path d="M8.2439 8.01054L5.12195 9.81798V13.4329L2 11.6254V8.01054L5.12195 6.20309L8.2439 8.01054Z" fill="#F0B90B"/>
<path d="M2 14.1719L5.12195 15.9794V22.1411L10.5032 25.222V28.8369L2 23.9486V14.1719Z" fill="#F0B90B"/>
</g>
<defs>
<clipPath id="clip0_811_5392">
<rect width="32" height="32" fill="white"/>
</clipPath>
</defs>
</svg>
