<svg width="32" height="32" viewBox="0 0 32 32" fill="none" xmlns="http://www.w3.org/2000/svg">
<g clip-path="url(#clip0_705_4510)">
<path d="M31.4869 19.9017C29.35 28.4732 20.6685 33.6897 12.0959 31.5522C3.52701 29.4153 -1.68944 20.7332 0.448415 12.1624C2.58439 3.58995 11.2659 -1.62689 19.8358 0.510025C28.4077 2.64694 33.6239 11.33 31.4867 19.9019L31.4869 19.9017H31.4869Z" fill="#F7931A"/>
<path d="M23.05 13.7395C23.3685 11.6102 21.7474 10.4657 19.5307 9.70216L20.2498 6.8179L18.4941 6.38041L17.7941 9.18873C17.3325 9.07361 16.8585 8.96514 16.3874 8.8576L17.0925 6.03075L15.3378 5.59326L14.6183 8.47658C14.2364 8.38962 13.8612 8.30367 13.4972 8.2131L13.4993 8.20403L11.0781 7.59942L10.611 9.47465C10.611 9.47465 11.9136 9.77324 11.8862 9.79162C12.5971 9.96907 12.7257 10.4397 12.7044 10.8128L11.8852 14.0986C11.9342 14.111 11.9977 14.129 12.0678 14.1572C12.0092 14.1426 11.9469 14.1268 11.8822 14.1113L10.734 18.7143C10.6471 18.9303 10.4266 19.2545 9.92952 19.1314C9.94712 19.1569 8.65343 18.8129 8.65343 18.8129L7.78174 20.8227L10.0665 21.3922C10.4916 21.4988 10.9081 21.6104 11.3183 21.7152L10.5918 24.6326L12.3455 25.0701L13.065 22.1837C13.5441 22.3137 14.009 22.4337 14.4642 22.5468L13.7471 25.4196L15.5029 25.857L16.2294 22.9452C19.2233 23.5118 21.4744 23.2833 22.422 20.5754C23.1855 18.3951 22.384 17.1376 20.8089 16.3175C21.9561 16.0529 22.8202 15.2984 23.0506 13.7397L23.0501 13.7393L23.05 13.7395ZM19.0386 19.3646C18.496 21.5448 14.8251 20.3662 13.6349 20.0707L14.5991 16.2057C15.7891 16.5028 19.6056 17.0908 19.0386 19.3646H19.0386ZM19.5815 13.7079C19.0866 15.6911 16.0313 14.6835 15.0402 14.4365L15.9143 10.9312C16.9054 11.1782 20.0972 11.6393 19.5817 13.7079H19.5815Z" fill="white"/>
</g>
<defs>
<clipPath id="clip0_705_4510">
<rect width="32" height="32" fill="white"/>
</clipPath>
</defs>
</svg>
