<svg width="32" height="32" viewBox="0 0 32 32" fill="none" xmlns="http://www.w3.org/2000/svg">
<path d="M12.6316 28.6316C17.7482 28.6316 21.8947 24.485 21.8947 19.3684C21.8947 14.2518 17.7482 10.1052 12.6316 10.1052C7.51495 10.1052 3.36842 14.2518 3.36842 19.3684C3.36842 24.485 7.51495 28.6316 12.6316 28.6316ZM12.6316 32C5.65558 32 0 26.3444 0 19.3684C0 12.3924 5.65558 6.73682 12.6316 6.73682C19.6076 6.73682 25.2632 12.3924 25.2632 19.3684C25.2632 26.3444 19.6076 32 12.6316 32Z" fill="#FBCC5C"/>
<path d="M19.3684 21.8947C24.485 21.8947 28.6316 17.7482 28.6316 12.6316C28.6316 7.51495 24.485 3.36842 19.3684 3.36842C14.2518 3.36842 10.1052 7.51495 10.1052 12.6316C10.1052 17.7482 14.2518 21.8947 19.3684 21.8947ZM19.3684 25.2632C12.3924 25.2632 6.73682 19.6076 6.73682 12.6316C6.73682 5.65558 12.3924 0 19.3684 0C26.3444 0 32 5.65558 32 12.6316C32 19.6076 26.3444 25.2632 19.3684 25.2632Z" fill="#35D07F"/>
<path d="M19.7861 25.2631C20.6619 24.2021 21.2884 22.9591 21.6219 21.6219C22.9558 21.2884 24.1987 20.6619 25.2631 19.7861C25.216 21.3322 24.8825 22.8547 24.2796 24.2829C22.8547 24.8825 21.3322 25.216 19.7861 25.2631ZM10.3781 10.3781C9.04419 10.7116 7.80124 11.3381 6.73682 12.2139C6.78397 10.6678 7.11745 9.14524 7.7204 7.7204C9.14524 7.12082 10.6711 6.78734 12.2139 6.73682C11.3381 7.79787 10.7116 9.04082 10.3781 10.3781Z" fill="#5EA33B"/>
</svg>
