<svg width="32" height="32" viewBox="0 0 32 32" fill="none" xmlns="http://www.w3.org/2000/svg">
<path d="M16 32C24.8366 32 32 24.8366 32 16C32 7.16344 24.8366 0 16 0C7.16344 0 0 7.16344 0 16C0 24.8366 7.16344 32 16 32Z" fill="#ECEFF0"/>
<path d="M15.9964 2L15.8086 2.63808V21.1521L15.9964 21.3395L24.5903 16.2596L15.9964 2Z" fill="#343434"/>
<path d="M16.0081 2L7.41406 16.2596L16.0081 21.3395V12.3533V2Z" fill="#8C8C8C"/>
<path d="M15.9965 22.964L15.8906 23.0931V29.6881L15.9965 29.9971L24.5956 17.8867L15.9965 22.964Z" fill="#3C3C3B"/>
<path d="M16.0081 29.9971V22.964L7.41406 17.8867L16.0081 29.9971Z" fill="#8C8C8C"/>
<path d="M16 21.3495L24.5938 16.2696L16 12.3633V21.3495Z" fill="#141414"/>
<path d="M7.41406 16.2696L16.0081 21.3495V12.3633L7.41406 16.2696Z" fill="#393939"/>
</svg>
