<svg width="32" height="32" viewBox="0 0 32 32" fill="none" xmlns="http://www.w3.org/2000/svg">
<path d="M16 32C24.8366 32 32 24.8366 32 16C32 7.16344 24.8366 0 16 0C7.16344 0 0 7.16344 0 16C0 24.8366 7.16344 32 16 32Z" fill="#1969FF"/>
<path d="M16.0527 4.71387C15.4677 4.71387 11.4815 6.80762 9.15774 8.05512L8.92773 8.18012V23.7501L9.14523 23.8751C10.5202 24.6751 15.064 27.2851 15.9277 27.2851C16.7915 27.2851 21.4277 24.7251 22.829 23.9401L23.0527 23.8151V8.25012L22.829 8.12512C20.0465 6.56637 16.6115 4.71387 16.0527 4.71387ZM9.80273 9.71387C11.0927 10.4326 13.2902 11.6264 14.7315 12.2489L9.80273 14.8751V9.71387ZM15.5527 12.8039V18.7776C14.5127 18.3789 12.064 17.1064 9.82024 15.8464L15.5527 12.8039ZM16.4277 12.8676L22.1577 15.8476C19.9077 17.1089 17.464 18.3814 16.4277 18.7776V12.8676ZM22.1777 14.8676L17.1852 12.2714C18.6265 11.6576 20.869 10.4389 22.1777 9.71012V14.8676ZM16.0527 5.58387C16.579 5.72262 19.479 7.24762 22.1427 8.72762C19.4602 10.2351 16.489 11.7551 15.9927 11.7764C15.4927 11.7551 12.4927 10.2214 9.80399 8.70762V8.69262C12.5365 7.24012 15.5202 5.72887 16.0515 5.59387L16.0527 5.58387ZM15.9352 26.4014C15.444 26.3626 12.474 24.7851 9.80399 23.2376V16.8451C11.6077 17.8451 15.1877 19.7864 15.9915 19.7864C16.7952 19.7864 20.3752 17.8501 22.179 16.8451V23.3039C19.444 24.8251 16.4127 26.3751 15.934 26.4114L15.9352 26.4014Z" fill="white"/>
<path d="M24.4897 7.25023C24.0622 6.53648 23.0497 6.01523 22.936 5.95898L22.5435 6.74148C22.7935 6.86648 23.4872 7.27899 23.7397 7.70024C23.9785 8.09899 23.9597 8.71148 23.9322 8.91273L24.7972 9.03773C24.8122 8.93023 24.9322 7.98523 24.4897 7.25023Z" fill="white"/>
<path d="M8.26023 24.2499C8.02148 23.8511 8.04023 23.2374 8.06773 23.0361L7.20273 22.9111C7.18773 23.0161 7.06773 23.9611 7.51023 24.6986C7.93773 25.4124 8.95023 25.9324 9.06398 25.9899L9.45649 25.2074C9.20899 25.0824 8.51273 24.6686 8.26023 24.2499Z" fill="white"/>
</svg>
