<svg width="32" height="32" viewBox="0 0 32 32" fill="none" xmlns="http://www.w3.org/2000/svg">
<path d="M9.41811 18.2106C10.3407 18.2133 11.2378 17.9074 11.9664 17.3414L6.13523 11.5116C5.5662 12.2385 5.2605 13.1368 5.2681 14.0599C5.26668 14.6053 5.37305 15.1456 5.58109 15.6498C5.78914 16.154 6.09476 16.6121 6.4804 16.9978C6.86604 17.3835 7.32409 17.6892 7.82824 17.8973C8.33239 18.1055 8.8727 18.2119 9.41811 18.2106Z" fill="#EFEFEF"/>
<path d="M26.7683 14.0464C26.7712 13.1243 26.4655 12.2277 25.8998 11.4995L20.0673 17.3286C20.7938 17.8986 21.6922 18.2053 22.6156 18.1985C23.1613 18.2001 23.702 18.0938 24.2065 17.8857C24.711 17.6776 25.1694 17.3718 25.5553 16.986C25.9412 16.6001 26.2471 16.1418 26.4552 15.6373C26.6634 15.1328 26.7698 14.5922 26.7683 14.0464Z" fill="#EFEFEF"/>
<path d="M29.7087 7.71546L27.1235 10.2994C28.0667 11.4259 28.5538 12.8648 28.4888 14.3326C28.4238 15.8004 27.8115 17.1907 26.7724 18.2294C25.7333 19.2681 24.3429 19.88 22.875 19.9445C21.4072 20.0091 19.9685 19.5215 18.8423 18.5779L16.0121 21.4033L13.182 18.5779C12.0559 19.5223 10.6169 20.0106 9.14854 19.9465C7.68023 19.8824 6.28922 19.2705 5.24977 18.2315C4.21031 17.1924 3.59785 15.8017 3.53313 14.3334C3.4684 12.8651 3.95612 11.4258 4.90012 10.2994L2.31552 7.71546C0.796747 10.2138 -0.00439766 13.0823 1.81563e-05 16.0061C1.81563e-05 24.8483 7.16652 32 16 32C24.8335 32 31.9993 24.8362 31.9993 16.0061C32.0274 13.0825 31.2337 10.2099 29.7087 7.71546Z" fill="#EFEFEF"/>
<path d="M27.589 4.95999C26.0955 3.3926 24.2993 2.1448 22.3093 1.29221C20.3192 0.439618 18.1768 0 16.0118 0C13.8468 0 11.7044 0.439618 9.71431 1.29221C7.72427 2.1448 5.92807 3.3926 4.4346 4.95999C4.04307 5.3764 3.66298 5.81703 3.30779 6.27045L16 18.9573L28.6916 6.25632C28.3585 5.79603 27.9899 5.36259 27.589 4.95999ZM16.0108 2.08545C19.7592 2.08545 23.2385 3.53046 25.8486 6.16349L16.0108 15.994L6.17425 6.16012C8.79652 3.52709 12.263 2.08545 16.0108 2.08545Z" fill="#EFEFEF"/>
</svg>
