<svg width="187" height="187" viewBox="0 0 187 187" fill="none" xmlns="http://www.w3.org/2000/svg">
<path opacity="0.25" d="M160.286 0H26.7143C11.9604 0 0 11.9604 0 26.7143V160.286C0 175.04 11.9604 187 26.7143 187H160.286C175.04 187 187 175.04 187 160.286V26.7143C187 11.9604 175.04 0 160.286 0Z" fill="white"/>
<path d="M141.175 46.2658C139.775 44.8699 138.113 43.7626 136.284 43.0071C134.455 42.2516 132.494 41.8628 130.514 41.8628C128.534 41.8628 126.574 42.2516 124.745 43.0071C122.915 43.7626 121.253 44.8699 119.854 46.2658L83.1406 82.8644C81.7404 84.2598 80.6297 85.9166 79.8718 87.74C79.114 89.5635 78.7236 91.5179 78.7236 93.4916C78.7236 95.4654 79.114 97.4198 79.8718 99.2433C80.6297 101.067 81.7404 102.723 83.1406 104.119L119.854 140.717C121.253 142.113 122.915 143.221 124.745 143.976C126.574 144.732 128.534 145.12 130.514 145.12C132.494 145.12 134.455 144.732 136.284 143.976C138.113 143.221 139.775 142.113 141.175 140.717V140.717C142.575 139.322 143.686 137.665 144.444 135.842C145.201 134.018 145.592 132.064 145.592 130.09C145.592 128.116 145.201 126.162 144.444 124.339C143.686 122.515 142.575 120.858 141.175 119.463L118.665 97.0396C118.196 96.5743 117.824 96.0213 117.571 95.4125C117.317 94.8036 117.187 94.1509 117.187 93.4916C117.187 92.8324 117.317 92.1796 117.571 91.5708C117.824 90.962 118.196 90.409 118.665 89.9436L141.175 67.5204C142.575 66.1249 143.686 64.4682 144.444 62.6447C145.201 60.8213 145.592 58.8668 145.592 56.893C145.592 54.9193 145.201 52.9649 144.444 51.1414C143.686 49.318 142.575 47.6612 141.175 46.2658Z" fill="#04795B"/>
<path d="M119.848 140.713C125.735 146.581 135.279 146.581 141.166 140.713C147.052 134.845 147.052 125.33 141.166 119.462L104.452 82.8627C98.5652 76.9943 89.021 76.9943 83.1343 82.8627C77.2476 88.731 77.2476 98.2454 83.1343 104.114L119.848 140.713Z" fill="#0DB50A"/>
<path d="M104.462 82.8644L67.7488 46.2658C66.349 44.8699 64.6871 43.7626 62.8579 43.0071C61.0287 42.2516 59.0682 41.8628 57.0883 41.8628C55.1083 41.8628 53.1474 42.2516 51.3182 43.0071C49.4891 43.7626 47.8271 44.8699 46.4273 46.2658C45.0271 47.6612 43.9164 49.318 43.1585 51.1414C42.4007 52.9649 42.0107 54.9193 42.0107 56.893C42.0107 58.8668 42.4007 60.8213 43.1585 62.6447C43.9164 64.4682 45.0271 66.1249 46.4273 67.5204L68.9211 89.9436C69.3896 90.409 69.7609 90.962 70.0145 91.5708C70.2681 92.1796 70.3989 92.8324 70.3989 93.4916C70.3989 94.1509 70.2681 94.8036 70.0145 95.4125C69.7609 96.0213 69.3896 96.5743 68.9211 97.0396L46.4273 119.463C45.0271 120.858 43.9164 122.515 43.1585 124.339C42.4007 126.162 42.0107 128.116 42.0107 130.09C42.0107 132.064 42.4007 134.018 43.1585 135.842C43.9164 137.665 45.0271 139.322 46.4273 140.717C47.8271 142.113 49.4891 143.221 51.3182 143.976C53.1474 144.732 55.1083 145.12 57.0883 145.12C59.0682 145.12 61.0287 144.732 62.8579 143.976C64.6871 143.221 66.349 142.113 67.7488 140.717L93.7927 114.738L104.462 104.119C105.862 102.723 106.973 101.067 107.731 99.2433C108.488 97.4198 108.878 95.4654 108.878 93.4916C108.878 91.5179 108.488 89.5635 107.731 87.74C106.973 85.9166 105.862 84.2598 104.462 82.8644Z" fill="#0AE33A"/>
<path d="M130.506 71.9282C138.831 71.9282 145.58 65.2005 145.58 56.9014C145.58 48.6024 138.831 41.8746 130.506 41.8746C122.181 41.8746 115.432 48.6024 115.432 56.9014C115.432 65.2005 122.181 71.9282 130.506 71.9282Z" fill="#0AE33A"/>
</svg>
