<svg width="32" height="32" viewBox="0 0 32 32" fill="none" xmlns="http://www.w3.org/2000/svg">
<path d="M16 32C24.8366 32 32 24.8366 32 16C32 7.16344 24.8366 0 16 0C7.16344 0 0 7.16344 0 16C0 24.8366 7.16344 32 16 32Z" fill="#8247E5"/>
<path d="M21.296 12.5765C20.9123 12.3532 20.4134 12.3532 19.9913 12.5765L16.9979 14.2881L14.9639 15.4044L11.9706 17.116C11.5868 17.3392 11.0879 17.3392 10.6658 17.116L8.28644 15.7765C7.90269 15.5532 7.63407 15.1439 7.63407 14.6974V12.0555C7.63407 11.609 7.86432 11.1997 8.28644 10.9765L10.6274 9.67411C11.0112 9.45086 11.5101 9.45086 11.9322 9.67411L14.2732 10.9765C14.6569 11.1997 14.9256 11.609 14.9256 12.0555V13.7671L16.9595 12.6136V10.902C16.9595 10.4555 16.7293 10.0462 16.3071 9.82296L11.9706 7.36714C11.5868 7.14389 11.0879 7.14389 10.6658 7.36714L6.2525 9.82296C5.83035 10.0462 5.6001 10.4555 5.6001 10.902V15.8509C5.6001 16.2974 5.83035 16.7067 6.2525 16.9299L10.6658 19.3857C11.0496 19.609 11.5484 19.609 11.9706 19.3857L14.9639 17.7113L16.9979 16.5578L19.9913 14.8834C20.375 14.6602 20.8739 14.6602 21.296 14.8834L23.637 16.1857C24.0208 16.409 24.2894 16.8183 24.2894 17.2648V19.9067C24.2894 20.3532 24.0591 20.7625 23.637 20.9857L21.296 22.3253C20.9123 22.5486 20.4134 22.5486 19.9913 22.3253L17.6503 21.023C17.2665 20.7997 16.9979 20.3904 16.9979 19.9439V18.2323L14.9639 19.3857V21.0974C14.9639 21.5439 15.1942 21.9532 15.6163 22.1765L20.0296 24.6323C20.4134 24.8555 20.9123 24.8555 21.3344 24.6323L25.7477 22.1765C26.1315 21.9532 26.4001 21.5439 26.4001 21.0974V16.1486C26.4001 15.702 26.1699 15.2927 25.7477 15.0695L21.296 12.5765Z" fill="white"/>
</svg>
