<svg width="32" height="32" viewBox="0 0 32 32" fill="none" xmlns="http://www.w3.org/2000/svg">
<path d="M16 32C24.8366 32 32 24.8366 32 16C32 7.16344 24.8366 0 16 0C7.16344 0 0 7.16344 0 16C0 24.8366 7.16344 32 16 32Z" fill="#6ED24B"/>
<path d="M22.2214 24.5174H9.80737C9.14774 24.5176 8.49901 24.3491 7.92286 24.0279C7.34671 23.7068 6.86229 23.2435 6.51563 22.6823C6.16897 22.1212 5.97161 21.4806 5.9423 20.8216C5.91299 20.1627 6.05271 19.5071 6.34817 18.9174L12.527 6.57778C12.8459 5.93993 13.3361 5.4035 13.9428 5.02858C14.5494 4.65366 15.2484 4.45508 15.9616 4.45508C16.6747 4.45508 17.3737 4.65366 17.9804 5.02858C18.587 5.4035 19.0772 5.93993 19.3962 6.57778L25.6214 19.0134C25.9115 19.5931 26.0487 20.2373 26.0198 20.8849C25.9909 21.5325 25.7969 22.162 25.4562 22.7135C25.1155 23.265 24.6395 23.7203 24.0733 24.036C23.5071 24.3517 22.8696 24.5174 22.2214 24.5174ZM15.9614 6.05618C15.5442 6.05162 15.1343 6.16578 14.7796 6.38533C14.4248 6.60488 14.1398 6.92078 13.9578 7.29618L7.77977 19.635C7.60677 19.9807 7.52502 20.3649 7.54229 20.7511C7.55955 21.1373 7.67526 21.5126 7.87841 21.8415C8.08157 22.1704 8.36544 22.4419 8.70304 22.6302C9.04065 22.8185 9.42079 22.9174 9.80737 22.9174H22.2214C22.597 22.918 22.9665 22.8223 23.2947 22.6396C23.6229 22.4569 23.8989 22.1932 24.0963 21.8736C24.2938 21.5541 24.4061 21.1893 24.4226 20.814C24.4391 20.4387 24.3592 20.0655 24.1906 19.7298L17.9654 7.29418C17.783 6.91909 17.4978 6.60357 17.143 6.38437C16.7882 6.16518 16.3784 6.05136 15.9614 6.05618V6.05618Z" fill="#FDFFFC"/>
</svg>
