<svg width="32" height="32" viewBox="0 0 32 32" fill="none" xmlns="http://www.w3.org/2000/svg">
<path d="M16 32C24.8366 32 32 24.8366 32 16C32 7.16344 24.8366 0 16 0C7.16344 0 0 7.16344 0 16C0 24.8366 7.16344 32 16 32Z" fill="white"/>
<path d="M22.0266 7.02109L17.8535 13.2142C17.565 13.636 18.1198 14.1465 18.5194 13.7914L22.6259 10.2175C22.737 10.1287 22.8923 10.1953 22.8923 10.3507V21.5161C22.8923 21.6715 22.6926 21.7381 22.6038 21.6271L10.1731 6.75472C9.77359 6.26637 9.19645 6 8.55273 6H8.10877C6.9545 6 6 6.9545 6 8.13096V23.8469C6 25.0233 6.9545 25.9778 8.13096 25.9778C8.86349 25.9778 9.55162 25.6004 9.95117 24.9568L14.1243 18.7636C14.4129 18.3419 13.8579 17.8313 13.4584 18.1865L9.35184 21.7381C9.24084 21.8268 9.08547 21.7603 9.08547 21.6049V10.4617C9.08547 10.3063 9.28524 10.2397 9.37403 10.3507L21.8047 25.2231C22.2042 25.7114 22.8035 25.9778 23.4251 25.9778H23.8691C25.0456 25.9778 26 25.0233 26 23.8469V8.13096C25.9778 6.9545 25.0233 6 23.8469 6C23.1143 6 22.4262 6.37736 22.0266 7.02109V7.02109Z" fill="black"/>
</svg>
