<svg width="32" height="32" viewBox="0 0 32 32" fill="none" xmlns="http://www.w3.org/2000/svg">
<path d="M31.0174 0H15.9359C15.4079 0 14.9781 0.416427 14.9558 0.938667H14.9533V13.5407L1.67818 0.24576L1.65597 0.267947C1.47995 0.1024 1.24326 0 0.982644 0C0.440053 0 0 0.439467 0 0.981333V31.0187C0 31.5605 0.440053 32 0.982644 32H15.9359C16.4785 32 16.9186 31.5605 16.9186 31.0187C16.9186 31.0042 16.9168 30.9905 16.916 30.976H16.9186V18.2886L30.2791 31.6689L30.2808 31.6672C30.4611 31.8711 30.7234 32 31.0174 32C31.5599 32 32 31.5605 32 31.0187V0.981333C32 0.439467 31.5599 0 31.0174 0ZM14.9533 30.0373H3.30766L14.9533 18.374V30.0373ZM1.96529 3.31264L13.6109 14.976H1.96529V3.31264ZM1.96529 16.9387H13.6109L1.96529 28.602V16.9387ZM30.0347 28.6447L18.3464 16.9387H30.0347V28.6447ZM30.0347 14.976H18.3464L30.0347 3.26997V14.976ZM16.9186 13.626V1.96267H28.5642L16.9186 13.626Z" fill="#CF00E4"/>
</svg>
