<svg width="32" height="32" viewBox="0 0 32 32" fill="none" xmlns="http://www.w3.org/2000/svg">
<path d="M16 32C24.8366 32 32 24.8366 32 16C32 7.16344 24.8366 0 16 0C7.16344 0 0 7.16344 0 16C0 24.8366 7.16344 32 16 32Z" fill="#FF0420"/>
<path d="M11.3361 20.2528C10.3834 20.2528 9.60287 20.0286 8.99442 19.5803C8.39397 19.1239 8.09375 18.4755 8.09375 17.6349C8.09375 17.4587 8.11378 17.2425 8.15378 16.9863C8.25791 16.41 8.40601 15.7174 8.59813 14.9088C9.14252 12.7072 10.5476 11.6064 12.8132 11.6064C13.4297 11.6064 13.9821 11.7105 14.4704 11.9186C14.9588 12.1188 15.3431 12.423 15.6233 12.8313C15.9035 13.2316 16.0436 13.712 16.0436 14.2724C16.0436 14.4405 16.0236 14.6527 15.9835 14.9088C15.8635 15.6214 15.7193 16.3139 15.5512 16.9863C15.271 18.0832 14.7867 18.9038 14.0982 19.4482C13.4096 19.9846 12.489 20.2528 11.3361 20.2528ZM11.5042 18.5235C11.9526 18.5235 12.3328 18.3914 12.6451 18.1272C12.9654 17.863 13.1935 17.4587 13.3296 16.9143C13.5137 16.1618 13.6539 15.5053 13.7499 14.9449C13.7819 14.7767 13.7979 14.6047 13.7979 14.4285C13.7979 13.6999 13.4176 13.3357 12.6571 13.3357C12.2088 13.3357 11.8245 13.4678 11.5042 13.7319C11.192 13.9962 10.9679 14.4005 10.8318 14.9449C10.6877 15.4813 10.5435 16.1378 10.3995 16.9143C10.3674 17.0744 10.3514 17.2425 10.3514 17.4187C10.3514 18.1552 10.7357 18.5235 11.5042 18.5235Z" fill="white"/>
<path d="M16.5957 20.1323C16.5076 20.1323 16.4395 20.1043 16.3915 20.0482C16.3515 19.9841 16.3395 19.9121 16.3555 19.8321L18.0127 12.0263C18.0287 11.9382 18.0727 11.8662 18.1448 11.8101C18.2169 11.7541 18.2929 11.7261 18.373 11.7261H21.5673C22.456 11.7261 23.1685 11.9102 23.7049 12.2785C24.2493 12.6468 24.5215 13.1791 24.5215 13.8756C24.5215 14.0758 24.4975 14.284 24.4495 14.5001C24.2493 15.4208 23.845 16.1013 23.2366 16.5416C22.6361 16.9819 21.8115 17.2021 20.7627 17.2021H19.1415L18.5892 19.8321C18.5731 19.9201 18.5291 19.9921 18.4571 20.0482C18.385 20.1043 18.3089 20.1323 18.2289 20.1323H16.5957ZM20.8468 15.5449C21.183 15.5449 21.4752 15.4528 21.7234 15.2687C21.9796 15.0845 22.1478 14.8203 22.2278 14.4761C22.2518 14.34 22.2639 14.2199 22.2639 14.1158C22.2639 13.8836 22.1958 13.7075 22.0597 13.5875C21.9236 13.4593 21.6914 13.3953 21.3632 13.3953H19.9221L19.4658 15.5449H20.8468Z" fill="white"/>
</svg>
