<svg width="26" height="32" viewBox="0 0 26 32" fill="none" xmlns="http://www.w3.org/2000/svg">
<path d="M23.0203 0H2.66567C1.19334 0 0 1.19334 0 2.66567V22.0639C0 22.8865 0.40018 23.658 1.07275 24.132L11.7834 31.682C12.3828 32.1044 13.1831 32.1062 13.7843 31.6856L24.6054 24.1158C25.2821 23.6424 25.6853 22.8685 25.6853 22.0423V2.66567C25.6859 1.19334 24.4926 0 23.0203 0Z" fill="#0071F0"/>
<path d="M21.8391 11.7972V5.10154C21.8391 3.9286 20.9637 2.97705 19.8838 2.97705H4.9553C3.87536 2.97705 3 3.928 3 5.10154V20.5586C3 21.2143 3.29339 21.8287 3.78656 22.2067L9.65967 26.7041V15.517H13.2499C14.3154 15.517 15.1794 16.381 15.1794 17.4465V26.6537L21.0471 22.1941C21.5433 21.8167 21.8391 21.1999 21.8391 20.5418V16.237C21.8391 14.9771 19.6192 14.0177 19.6192 14.0177C19.6192 14.0177 21.8391 13.4771 21.8391 11.7972ZM15.1794 10.1077C15.1794 11.1732 14.3154 12.0372 13.2499 12.0372H9.65967V5.9175H15.1794V10.1077Z" fill="white"/>
</svg>
