<svg width="32" height="32" viewBox="0 0 32 32" fill="none" xmlns="http://www.w3.org/2000/svg">
<g clip-path="url(#clip0_811_5385)">
<path d="M7.52703 11.0811H14.7568C14.7777 11.0795 14.7975 11.0705 14.8124 11.0556C14.8272 11.0407 14.8363 11.021 14.8378 11V8.66216C14.8363 8.64118 14.8272 8.62145 14.8124 8.60657C14.7975 8.59169 14.7777 8.58264 14.7568 8.58108H7.52703C7.50604 8.58264 7.48631 8.59169 7.47143 8.60657C7.45655 8.62145 7.44751 8.64118 7.44595 8.66216V11C7.44557 11.0107 7.44741 11.0215 7.45135 11.0315C7.45529 11.0415 7.46125 11.0506 7.46885 11.0582C7.47646 11.0658 7.48555 11.0717 7.49556 11.0757C7.50557 11.0796 7.51628 11.0815 7.52703 11.0811ZM12.4189 6.7973H14.7568C14.7777 6.79574 14.7975 6.78669 14.8124 6.77181C14.8272 6.75693 14.8363 6.7372 14.8378 6.71622V4.37838C14.8363 4.35739 14.8272 4.33766 14.8124 4.32278C14.7975 4.3079 14.7777 4.29886 14.7568 4.2973H12.4189C12.3979 4.29886 12.3782 4.3079 12.3633 4.32278C12.3484 4.33766 12.3394 4.35739 12.3378 4.37838V6.71622C12.3394 6.7372 12.3484 6.75693 12.3633 6.77181C12.3782 6.78669 12.3979 6.79574 12.4189 6.7973ZM2.41892 17.1622H0.0810811C0.0600946 17.1637 0.0403659 17.1728 0.0254852 17.1876C0.0106045 17.2025 0.00156084 17.2223 0 17.2432V19.5811C0.00156084 19.6021 0.0106045 19.6218 0.0254852 19.6367C0.0403659 19.6516 0.0600946 19.6606 0.0810811 19.6622H2.41892C2.43991 19.6606 2.45963 19.6516 2.47451 19.6367C2.4894 19.6218 2.49844 19.6021 2.5 19.5811V17.2432C2.49844 17.2223 2.4894 17.2025 2.47451 17.1876C2.45963 17.1728 2.43991 17.1637 2.41892 17.1622ZM11 17.1622H8.66216C8.64118 17.1637 8.62145 17.1728 8.60657 17.1876C8.59169 17.2025 8.58264 17.2223 8.58108 17.2432V24.473C8.58264 24.494 8.59169 24.5137 8.60657 24.5286C8.62145 24.5434 8.64118 24.5525 8.66216 24.5541H11C11.021 24.5525 11.0407 24.5434 11.0556 24.5286C11.0705 24.5137 11.0795 24.494 11.0811 24.473V17.2432C11.0795 17.2223 11.0705 17.2025 11.0556 17.1876C11.0407 17.1728 11.021 17.1637 11 17.1622ZM25.2973 14.8243H27.6351C27.6561 14.8228 27.6758 14.8137 27.6907 14.7988C27.7056 14.784 27.7147 14.7642 27.7162 14.7432V12.4054C27.7147 12.3844 27.7056 12.3647 27.6907 12.3498C27.6758 12.3349 27.6561 12.3259 27.6351 12.3243H25.2973C25.2763 12.3259 25.2566 12.3349 25.2417 12.3498C25.2268 12.3647 25.2178 12.3844 25.2162 12.4054V14.7432C25.2146 14.7543 25.2156 14.7655 25.2192 14.7761C25.2227 14.7866 25.2286 14.7962 25.2365 14.8041C25.2443 14.8119 25.2539 14.8179 25.2645 14.8214C25.275 14.8249 25.2863 14.8259 25.2973 14.8243ZM21 14.8243H23.3378C23.3588 14.8228 23.3786 14.8137 23.3934 14.7988C23.4083 14.784 23.4174 14.7642 23.4189 14.7432V7.51351C23.4174 7.49253 23.4083 7.4728 23.3934 7.45792C23.3786 7.44304 23.3588 7.43399 23.3378 7.43243H21C20.979 7.43399 20.9593 7.44304 20.9444 7.45792C20.9295 7.4728 20.9205 7.49253 20.9189 7.51351V14.7432C20.9185 14.754 20.9204 14.7647 20.9243 14.7747C20.9283 14.7847 20.9342 14.7938 20.9418 14.8014C20.9494 14.809 20.9585 14.815 20.9685 14.8189C20.9785 14.8229 20.9892 14.8247 21 14.8243ZM12.4189 2.5H14.7568C14.7777 2.49844 14.7975 2.4894 14.8124 2.47451C14.8272 2.45963 14.8363 2.43991 14.8378 2.41892V0.0810811C14.8363 0.0600946 14.8272 0.0403659 14.8124 0.0254852C14.7975 0.0106045 14.7777 0.00156084 14.7568 0H12.4189C12.3979 0.00156084 12.3782 0.0106045 12.3633 0.0254852C12.3484 0.0403659 12.3394 0.0600946 12.3378 0.0810811V2.41892C12.3375 2.42967 12.3393 2.44038 12.3432 2.45039C12.3472 2.4604 12.3531 2.46949 12.3607 2.47709C12.3684 2.4847 12.3774 2.49066 12.3874 2.4946C12.3975 2.49854 12.4082 2.50038 12.4189 2.5ZM6.71622 17.1622H4.37838C4.35739 17.1637 4.33766 17.1728 4.32278 17.1876C4.3079 17.2025 4.29886 17.2223 4.2973 17.2432V19.5811C4.29886 19.6021 4.3079 19.6218 4.32278 19.6367C4.33766 19.6516 4.35739 19.6606 4.37838 19.6622H6.71622C6.7372 19.6606 6.75693 19.6516 6.77181 19.6367C6.78669 19.6218 6.79574 19.6021 6.7973 19.5811V17.2432C6.79373 17.223 6.78404 17.2044 6.76953 17.1899C6.75503 17.1754 6.73641 17.1657 6.71622 17.1622ZM24.4865 20.9189H17.2568C17.2358 20.9205 17.216 20.9295 17.2012 20.9444C17.1863 20.9593 17.1772 20.979 17.1757 21V23.3378C17.1772 23.3588 17.1863 23.3786 17.2012 23.3934C17.216 23.4083 17.2358 23.4174 17.2568 23.4189H24.4865C24.5075 23.4174 24.5272 23.4083 24.5421 23.3934C24.557 23.3786 24.566 23.3588 24.5676 23.3378V21C24.5663 20.9789 24.5573 20.959 24.5424 20.9441C24.5275 20.9292 24.5076 20.9202 24.4865 20.9189ZM29.4189 16.6622H19.1757C19.1547 16.6637 19.135 16.6728 19.1201 16.6876C19.1052 16.7025 19.0962 16.7223 19.0946 16.7432V19.0135C19.0962 19.0345 19.1052 19.0542 19.1201 19.0691C19.135 19.084 19.1547 19.093 19.1757 19.0946H29.4189C29.4399 19.093 29.4596 19.084 29.4745 19.0691C29.4894 19.0542 29.4984 19.0345 29.5 19.0135V16.7432C29.5004 16.7325 29.4985 16.7218 29.4946 16.7118C29.4907 16.7018 29.4847 16.6927 29.4771 16.6851C29.4695 16.6775 29.4604 16.6715 29.4504 16.6676C29.4404 16.6636 29.4297 16.6618 29.4189 16.6622ZM19.5811 25.2027H17.2432C17.2223 25.2043 17.2025 25.2133 17.1876 25.2282C17.1728 25.2431 17.1637 25.2628 17.1622 25.2838V27.6216C17.1637 27.6426 17.1728 27.6623 17.1876 27.6772C17.2025 27.6921 17.2223 27.7011 17.2432 27.7027H19.5811C19.6021 27.7011 19.6218 27.6921 19.6367 27.6772C19.6516 27.6623 19.6606 27.6426 19.6622 27.6216V25.2838C19.6625 25.273 19.6607 25.2623 19.6568 25.2523C19.6528 25.2423 19.6469 25.2332 19.6393 25.2256C19.6316 25.218 19.6226 25.212 19.6125 25.2081C19.6025 25.2042 19.5918 25.2023 19.5811 25.2027ZM12.9054 12.9865C12.9038 12.9655 12.8948 12.9458 12.8799 12.9309C12.865 12.916 12.8453 12.907 12.8243 12.9054H2.58108C2.56009 12.907 2.54037 12.916 2.52549 12.9309C2.5106 12.9458 2.50156 12.9655 2.5 12.9865V15.2568C2.50156 15.2777 2.5106 15.2975 2.52549 15.3124C2.54037 15.3272 2.56009 15.3363 2.58108 15.3378H12.8243C12.8453 15.3363 12.865 15.3272 12.8799 15.3124C12.8948 15.2975 12.9038 15.2777 12.9054 15.2568V12.9865ZM31.9189 12.3378H29.5811C29.5601 12.3394 29.5404 12.3484 29.5255 12.3633C29.5106 12.3782 29.5016 12.3979 29.5 12.4189V14.7568C29.5016 14.7777 29.5106 14.7975 29.5255 14.8124C29.5404 14.8272 29.5601 14.8363 29.5811 14.8378H31.9189C31.9399 14.8363 31.9596 14.8272 31.9745 14.8124C31.9894 14.7975 31.9984 14.7777 32 14.7568V12.4189C32.0016 12.4079 32.0006 12.3967 31.9971 12.3861C31.9935 12.3756 31.9876 12.366 31.9797 12.3581C31.9719 12.3502 31.9623 12.3443 31.9517 12.3408C31.9412 12.3373 31.9299 12.3363 31.9189 12.3378ZM15.2568 19.0946H12.9865C12.9655 19.0962 12.9458 19.1052 12.9309 19.1201C12.916 19.135 12.907 19.1547 12.9054 19.1757V29.4189C12.907 29.4399 12.916 29.4596 12.9309 29.4745C12.9458 29.4894 12.9655 29.4984 12.9865 29.5H15.2568C15.2777 29.4984 15.2975 29.4894 15.3124 29.4745C15.3272 29.4596 15.3363 29.4399 15.3378 29.4189V19.1757C15.3363 19.1547 15.3272 19.135 15.3124 19.1201C15.2975 19.1052 15.2777 19.0962 15.2568 19.0946ZM19.0946 12.8378V2.58108C19.093 2.56009 19.084 2.54037 19.0691 2.52549C19.0542 2.5106 19.0345 2.50156 19.0135 2.5H16.7432C16.7223 2.50156 16.7025 2.5106 16.6876 2.52549C16.6728 2.54037 16.6637 2.56009 16.6622 2.58108V12.8378C16.6637 12.8588 16.6728 12.8786 16.6876 12.8934C16.7025 12.9083 16.7223 12.9174 16.7432 12.9189H19.0135C19.0345 12.9174 19.0542 12.9083 19.0691 12.8934C19.084 12.8786 19.093 12.8588 19.0946 12.8378ZM19.5811 29.5H17.2432C17.2223 29.5016 17.2025 29.5106 17.1876 29.5255C17.1728 29.5404 17.1637 29.5601 17.1622 29.5811V31.9189C17.1637 31.9399 17.1728 31.9596 17.1876 31.9745C17.2025 31.9894 17.2223 31.9984 17.2432 32H19.5811C19.6021 31.9984 19.6218 31.9894 19.6367 31.9745C19.6516 31.9596 19.6606 31.9399 19.6622 31.9189V29.5811C19.6637 29.5701 19.6627 29.5588 19.6592 29.5483C19.6557 29.5377 19.6498 29.5281 19.6419 29.5202C19.634 29.5124 19.6244 29.5065 19.6139 29.5029C19.6033 29.4994 19.5921 29.4984 19.5811 29.5Z" fill="#149DD9"/>
</g>
<defs>
<clipPath id="clip0_811_5385">
<rect width="32" height="32" fill="white"/>
</clipPath>
</defs>
</svg>
