<svg width="32" height="32" viewBox="0 0 32 32" fill="none" xmlns="http://www.w3.org/2000/svg">
<defs>
    <radialGradient id="paint0_radial_811_5420" cx="0" cy="0" r="1" gradientUnits="userSpaceOnUse" gradientTransform="translate(-1.4198 21.8696) rotate(-21.1644) scale(49.2736)">
        <stop offset="0.2" stop-color="#A46EF2"/>
        <stop offset="0.43" stop-color="#6D4AB8"/>
        <stop offset="0.59" stop-color="#3A297D"/>
        <stop offset="0.65" stop-color="#432F85"/>
        <stop offset="0.78" stop-color="#7952BB"/>
    </radialGradient>
    <clipPath id="clip0_811_5420">
        <rect width="32" height="32" fill="white"/>
    </clipPath>
</defs>
<g clip-path="url(#clip0_811_5420)">
<path d="M16 32C19.1645 32 22.2579 31.0616 24.8891 29.3035C27.5203 27.5454 29.5711 25.0466 30.7821 22.1229C31.9931 19.1993 32.3099 15.9823 31.6926 12.8786C31.0752 9.77487 29.5513 6.92394 27.3137 4.6863C25.0761 2.44866 22.2251 0.924806 19.1214 0.307443C16.0177 -0.309921 12.8007 0.0069325 9.87706 1.21793C6.95345 2.42894 4.45459 4.4797 2.69649 7.11088C0.938384 9.74207 0 12.8355 0 16C0 20.2435 1.68571 24.3131 4.68629 27.3137C7.68687 30.3143 11.7565 32 16 32Z" fill="url(#paint0_radial_811_5420)"/>
<path fill-rule="evenodd" clip-rule="evenodd" d="M17.4198 7.46978C17.5387 7.27761 17.7103 7.12363 17.9142 7.02613C18.118 6.92863 18.3456 6.89172 18.5698 6.91978C19.212 7.01339 19.8615 7.04687 20.5098 7.01978H20.7098C21.023 7.00373 21.3367 7.00373 21.6498 7.01978C21.8188 7.04362 21.9837 7.09073 22.1398 7.15978C22.2867 7.22648 22.4152 7.3277 22.5144 7.45481C22.6137 7.58193 22.6807 7.73116 22.7098 7.88978C22.7389 8.06189 22.7389 8.23767 22.7098 8.40978C22.7098 8.54978 22.6398 8.68978 22.5998 8.82978C22.5598 8.96978 22.3898 9.44978 22.2798 9.75978C22.1698 10.0698 22.0598 10.3698 21.9798 10.6198C21.8998 10.8698 21.9098 10.8498 21.8898 10.9298C21.8928 10.9597 21.8928 10.9899 21.8898 11.0198C21.9598 11.1698 22.0498 11.3698 22.1698 11.6098C22.4098 12.0998 22.7398 12.7098 23.0798 13.3198C23.4198 13.9298 23.7598 14.5398 24.0798 14.9998L24.4098 15.5698C24.4547 15.6334 24.4948 15.7002 24.5298 15.7698V15.7698C24.6174 15.8852 24.6788 16.0183 24.7098 16.1598C24.7185 16.2429 24.7185 16.3267 24.7098 16.4098C24.7198 16.5629 24.7198 16.7166 24.7098 16.8698C24.6722 17.251 24.6054 17.6288 24.5098 17.9998C24.4298 18.3698 24.3298 18.7698 24.2198 19.1098C24.1218 19.4659 23.9665 19.8036 23.7598 20.1098C23.6105 20.2894 23.4225 20.433 23.2098 20.5298C23.0357 20.6062 22.8549 20.6664 22.6698 20.7098C22.3698 20.7798 22.0298 20.8198 21.7398 20.8598H21.6498C21.3904 20.8901 21.1333 20.9368 20.8798 20.9998V20.9998C20.3352 21.9151 19.5455 22.6598 18.5998 23.1498C17.5766 23.7183 16.4933 24.1711 15.3698 24.4998C14.3882 24.7986 13.3853 25.0226 12.3698 25.1698C12.0126 25.2279 11.6517 25.2614 11.2898 25.2698C11.1467 25.2797 11.003 25.2797 10.8598 25.2698L10.6098 25.2098C10.4692 25.1653 10.3419 25.0862 10.2398 24.9798C10.0333 24.7533 9.86758 24.4928 9.74982 24.2098C9.60982 23.9198 9.45982 23.5498 9.30982 23.1398C8.97203 22.1593 8.70141 21.157 8.49982 20.1398C8.26183 19.0225 8.15112 17.8819 8.16982 16.7398C8.16136 15.7873 8.38442 14.847 8.81982 13.9998C8.76982 13.8498 8.68982 13.6598 8.58982 13.4098C8.48982 13.1698 8.35982 12.8798 8.26982 12.5898C8.14658 12.2703 8.07893 11.9321 8.06982 11.5898C8.07746 11.3587 8.1391 11.1327 8.24982 10.9298C8.33899 10.765 8.44632 10.6107 8.56982 10.4698C8.80754 10.179 9.07203 9.91113 9.35982 9.66978C9.75982 9.30978 10.2298 8.93978 10.4898 8.72978L10.6798 8.58978C10.7711 8.50578 10.8806 8.44416 10.9998 8.40978H11.1598H11.4398H12.1098C12.6298 8.40978 13.2998 8.40978 13.9798 8.40978H15.9798H16.9798C17.0411 8.32293 17.0915 8.22889 17.1298 8.12978V8.05978C17.2158 7.85804 17.3126 7.66108 17.4198 7.46978V7.46978ZM18.1898 9.50978C18.0579 9.67568 17.8908 9.81018 17.7006 9.90358C17.5104 9.99697 17.3017 10.0469 17.0898 10.0498H15.8898H13.8898C13.2198 10.0498 12.5698 10.0498 12.0798 10.0498H11.5298L11.3698 10.1698C11.1098 10.3798 10.7698 10.6398 10.4198 10.9598C10.1993 11.1452 9.9952 11.3493 9.80982 11.5698L9.68982 11.7198C9.71461 11.842 9.74803 11.9623 9.78982 12.0798C9.86982 12.2998 9.96982 12.5398 10.0798 12.7998C10.1798 13.0298 10.2898 13.2998 10.3698 13.5398C10.4161 13.6792 10.4463 13.8235 10.4598 13.9698C10.4893 14.1916 10.4546 14.4171 10.3598 14.6198V14.6798C9.99119 15.3128 9.8108 16.0378 9.83982 16.7698C9.83308 17.7776 9.93365 18.7833 10.1398 19.7698C10.3211 20.7071 10.5718 21.6296 10.8898 22.5298C11.0298 22.9098 11.1498 23.2198 11.2598 23.4498L11.3298 23.5798C11.5198 23.5798 11.7998 23.5798 12.1398 23.4998C13.0661 23.3551 13.9815 23.1479 14.8798 22.8798C15.8827 22.5916 16.849 22.1889 17.7598 21.6798C18.4409 21.3463 19.0131 20.8261 19.4098 20.1798C19.5081 19.9483 19.6713 19.7503 19.8798 19.6098C20.0469 19.5035 20.2289 19.4226 20.4198 19.3698C20.7475 19.2795 21.0819 19.216 21.4198 19.1798H21.4998C21.8098 19.1298 22.0698 19.0998 22.2898 19.0498L22.4798 18.9898V18.9198C22.53 18.8126 22.5734 18.7024 22.6098 18.5898C22.7053 18.2873 22.7854 17.9803 22.8498 17.6698C22.9103 17.386 22.9537 17.0988 22.9798 16.8098C22.9841 16.7632 22.9841 16.7163 22.9798 16.6698L22.8798 16.4998L22.5298 15.9098C22.2498 15.4298 21.8998 14.8198 21.5298 14.1998C21.1598 13.5798 20.8498 12.9398 20.5898 12.4198C20.4598 12.1598 20.3498 11.9198 20.2698 11.7298C20.1898 11.5398 20.1898 11.5298 20.1598 11.4298C20.1176 11.3039 20.094 11.1725 20.0898 11.0398C20.0973 10.8851 20.1174 10.7312 20.1498 10.5798C20.1498 10.4498 20.2298 10.2998 20.2798 10.1498C20.3298 9.99978 20.4798 9.55978 20.5898 9.25978L20.7898 8.70978H20.4198C19.8123 8.71883 19.2048 8.69547 18.5998 8.63978V8.69978L18.5398 8.81978C18.4489 9.06194 18.3315 9.29334 18.1898 9.50978V9.50978Z" fill="white"/>
</g>
</svg>
