<svg width="32" height="32" viewBox="0 0 32 32" fill="none" xmlns="http://www.w3.org/2000/svg">
<g filter="url(#filter0_i_1401_529)">
<path d="M16 32C24.8366 32 32 24.8366 32 16C32 7.16344 24.8366 0 16 0C7.16344 0 0 7.16344 0 16C0 24.8366 7.16344 32 16 32Z" fill="url(#paint0_radial_1401_529)"/>
</g>
<path fill-rule="evenodd" clip-rule="evenodd" d="M17.4233 7.47471C17.5495 7.28694 17.9227 6.81648 18.5686 6.92397C19.1877 7.02702 19.8738 7.02561 20.5133 7.0243C20.58 7.02416 20.6462 7.02403 20.7118 7.02401C21.0323 7.02393 21.3761 7.02653 21.6487 7.06347C21.7803 7.08131 21.9656 7.1153 22.1424 7.19968C22.3208 7.28481 22.6372 7.49806 22.7087 7.92795C22.7447 8.14437 22.7029 8.35543 22.682 8.45461C22.654 8.58728 22.6131 8.73167 22.5693 8.87216C22.4815 9.15385 22.3605 9.48859 22.2461 9.80394L22.2325 9.84135C22.1196 10.1527 22.0129 10.4467 21.9328 10.6951C21.8912 10.8239 21.8608 10.9281 21.8415 11.0075C21.84 11.014 21.8385 11.0201 21.8372 11.0258C21.8466 11.0507 21.8585 11.0811 21.8735 11.1173C21.9353 11.2661 22.0292 11.4677 22.1504 11.712C22.3914 12.1982 22.7187 12.8102 23.0564 13.4223C23.3933 14.0327 23.7362 14.6355 24.0064 15.1007C24.1416 15.3335 24.2575 15.53 24.3446 15.6747C24.4082 15.7802 24.4459 15.8403 24.4629 15.8675C24.4728 15.8833 24.4757 15.8879 24.4726 15.8838C24.5882 16.0374 24.6305 16.1949 24.648 16.2717C24.6688 16.3632 24.6776 16.4511 24.6818 16.5232C24.6902 16.668 24.6837 16.8267 24.6712 16.9793C24.6456 17.2893 24.5874 17.6622 24.5107 18.0328C24.4338 18.4046 24.3341 18.7952 24.2195 19.1399C24.1147 19.4554 23.9667 19.8307 23.7603 20.0957C23.5925 20.3109 23.378 20.4397 23.2066 20.5192C23.0303 20.601 22.8434 20.6562 22.6736 20.6965C22.3726 20.768 22.0272 20.814 21.7355 20.8528C21.7048 20.8569 21.6747 20.8609 21.6453 20.8649C21.3039 20.9108 21.0511 20.9497 20.8756 21.0024C20.8695 21.0043 20.8638 21.006 20.8584 21.0077C20.3853 21.9165 19.5093 22.6209 18.5769 23.1608C17.591 23.7317 16.438 24.178 15.3452 24.5091C14.2494 24.8412 13.1841 25.0664 12.3575 25.1843C11.9466 25.243 11.577 25.2777 11.2833 25.2824C11.1391 25.2847 10.9886 25.2803 10.8503 25.2604C10.7815 25.2505 10.6943 25.2339 10.6029 25.2026C10.5238 25.1755 10.3682 25.1133 10.2272 24.9722C10.0276 24.7723 9.86409 24.4663 9.7395 24.2044C9.59866 23.9083 9.44979 23.5402 9.30285 23.1261C9.00858 22.2966 8.70776 21.2416 8.48777 20.1293C8.26849 19.0206 8.1238 17.8263 8.15735 16.7268C8.18697 15.7563 8.35765 14.7655 8.8229 13.9768C8.77389 13.8293 8.69404 13.6411 8.5873 13.3922L8.58167 13.3791C8.47738 13.1359 8.35287 12.8455 8.25554 12.5603C8.15983 12.2798 8.06396 11.9316 8.06396 11.5843C8.06396 11.3112 8.16016 11.0788 8.24327 10.9212C8.33158 10.7538 8.44479 10.5971 8.55801 10.4587C8.78455 10.1818 9.07382 9.90268 9.35032 9.65619C9.74565 9.30377 10.2205 8.93026 10.4843 8.72278C10.5716 8.65406 10.6358 8.60355 10.6663 8.57805C10.7969 8.46887 10.9305 8.42376 10.9755 8.40899C11.0391 8.38816 11.0982 8.37534 11.1422 8.36711C11.2312 8.35044 11.328 8.33989 11.4181 8.3324C11.6024 8.31709 11.8364 8.30851 12.0935 8.30393C12.6116 8.29469 13.2806 8.30089 13.9564 8.31285C14.6771 8.32561 15.3957 8.34452 15.9718 8.35968C16.3939 8.37079 16.7396 8.37988 16.9535 8.38307C16.9903 8.32536 17.0372 8.2362 17.1015 8.09777C17.1112 8.07689 17.1221 8.05311 17.1339 8.02709C17.2028 7.87595 17.3062 7.64914 17.4233 7.47471ZM21.81 10.9444C21.8102 10.9446 21.8112 10.9481 21.8126 10.9545C21.8106 10.9475 21.8098 10.9443 21.81 10.9444ZM18.1859 9.51084C17.9674 9.76984 17.6068 10.0483 17.088 10.0483C16.897 10.0483 16.4491 10.0366 15.8872 10.022C15.3034 10.0068 14.5966 9.98844 13.9269 9.97659C13.2552 9.9647 12.6105 9.95898 12.1232 9.96766C11.8841 9.97192 11.6963 9.97946 11.5665 9.98982C11.5184 10.028 11.4663 10.0688 11.4109 10.1123C11.1496 10.3173 10.8138 10.5808 10.4576 10.8983C10.2061 11.1225 9.99138 11.3346 9.84592 11.5124C9.79281 11.5773 9.75728 11.6276 9.73488 11.6635C9.74666 11.7429 9.77495 11.8604 9.83039 12.0229C9.9053 12.2425 10.006 12.4785 10.1166 12.7364C10.1199 12.7441 10.1232 12.7519 10.1266 12.7596C10.2269 12.9935 10.3426 13.2633 10.4182 13.5019C10.4576 13.6264 10.4977 13.7771 10.5138 13.9344C10.5285 14.0786 10.5344 14.3271 10.4085 14.5796L10.3787 14.6393L10.3398 14.6935C10.0348 15.1183 9.84969 15.8234 9.82058 16.7775C9.79213 17.7099 9.91544 18.7714 10.1202 19.8065C10.3242 20.8381 10.6033 21.815 10.8711 22.5697C11.0051 22.9475 11.1328 23.2596 11.2422 23.4896C11.2656 23.5389 11.2868 23.5813 11.3055 23.6174C11.502 23.6113 11.7789 23.5861 12.1224 23.537C12.8639 23.4312 13.8465 23.2245 14.8627 22.9166C15.8819 22.6078 16.905 22.2061 17.7431 21.7208C18.5793 21.2366 19.1376 20.7229 19.3917 20.2212C19.497 19.9483 19.6891 19.7666 19.8566 19.6536C20.0366 19.5321 20.233 19.458 20.397 19.4088C20.7211 19.3114 21.1086 19.2581 21.4236 19.2157C21.4494 19.2123 21.4749 19.2088 21.5001 19.2055C21.8137 19.1634 22.0745 19.1285 22.2892 19.0775C22.3766 19.0568 22.4374 19.0375 22.4772 19.022C22.4871 19.0033 22.4993 18.9788 22.5134 18.9476C22.5526 18.8616 22.5957 18.7499 22.6404 18.6153C22.7299 18.3459 22.8141 18.0203 22.8812 17.6958C22.9486 17.3701 22.9943 17.0668 23.0128 16.8427C23.0176 16.7847 23.02 16.7375 23.0211 16.7003C22.9876 16.6464 22.9526 16.5886 22.919 16.5329C22.8259 16.3783 22.7053 16.1737 22.5675 15.9365C22.2917 15.4616 21.9427 14.8481 21.5995 14.2262C21.2572 13.6059 20.9165 12.9694 20.6596 12.4512C20.5317 12.1934 20.4191 11.9539 20.3366 11.7551C20.2957 11.6563 20.2571 11.5558 20.2275 11.4614C20.2051 11.3896 20.16 11.2387 20.16 11.0713C20.16 10.9039 20.1952 10.7355 20.2246 10.6144C20.2576 10.4788 20.3017 10.3313 20.3492 10.1842C20.4388 9.90629 20.5548 9.58655 20.6638 9.28629L20.6818 9.23655C20.7525 9.04172 20.8193 8.85676 20.8775 8.68848C20.8256 8.68814 20.7706 8.688 20.7122 8.68801C20.6483 8.68803 20.5814 8.68823 20.5119 8.68845C19.9978 8.69005 19.3399 8.69209 18.6933 8.62014C18.6847 8.6387 18.6755 8.65868 18.6655 8.68024C18.6493 8.71548 18.631 8.75493 18.6104 8.79929C18.5242 8.98466 18.388 9.27129 18.1859 9.51084ZM18.8142 8.38921C18.8142 8.38931 18.813 8.391 18.8106 8.39399C18.813 8.3906 18.8142 8.38911 18.8142 8.38921ZM21.0614 8.06721C21.0615 8.06707 21.0612 8.07013 21.0602 8.07677C21.0607 8.07066 21.0612 8.06734 21.0614 8.06721ZM22.5226 19.0013C22.5227 19.0013 22.5216 19.002 22.5193 19.0033C22.5214 19.0019 22.5226 19.0013 22.5226 19.0013ZM11.0873 23.6134C11.0861 23.6132 11.0855 23.6131 11.0856 23.6131C11.0856 23.6131 11.0861 23.6132 11.0871 23.6134C11.0872 23.6134 11.0872 23.6134 11.0873 23.6134ZM9.7073 11.714C9.70719 11.7141 9.70789 11.7122 9.70972 11.7082C9.70833 11.712 9.70741 11.714 9.7073 11.714Z" fill="white"/>
<defs>
<filter id="filter0_i_1401_529" x="0" y="0" width="32" height="32" filterUnits="userSpaceOnUse" color-interpolation-filters="sRGB">
<feFlood flood-opacity="0" result="BackgroundImageFix"/>
<feBlend mode="normal" in="SourceGraphic" in2="BackgroundImageFix" result="shape"/>
<feColorMatrix in="SourceAlpha" type="matrix" values="0 0 0 0 0 0 0 0 0 0 0 0 0 0 0 0 0 0 127 0" result="hardAlpha"/>
<feOffset/>
<feGaussianBlur stdDeviation="4"/>
<feComposite in2="hardAlpha" operator="arithmetic" k2="-1" k3="1"/>
<feColorMatrix type="matrix" values="0 0 0 0 0.658824 0 0 0 0 0.443137 0 0 0 0 0.960784 0 0 0 1 0"/>
<feBlend mode="normal" in2="shape" result="effect1_innerShadow_1401_529"/>
</filter>
<radialGradient id="paint0_radial_1401_529" cx="0" cy="0" r="1" gradientUnits="userSpaceOnUse" gradientTransform="translate(-3.392 22.08) rotate(-21.1657) scale(49.2762)">
<stop offset="0.200362" stop-color="#A46EF2"/>
<stop offset="0.427211" stop-color="#6D4AB8"/>
<stop offset="0.593852" stop-color="#3A297D"/>
<stop offset="0.650349" stop-color="#432F85"/>
<stop offset="0.776421" stop-color="#7952BB"/>
</radialGradient>
</defs>
</svg>
