<svg width="32" height="32" viewBox="0 0 32 32" fill="none" xmlns="http://www.w3.org/2000/svg">
<path d="M16 32C24.8366 32 32 24.8366 32 16C32 7.16344 24.8366 0 16 0C7.16344 0 0 7.16344 0 16C0 24.8366 7.16344 32 16 32Z" fill="#504960"/>
<path fill-rule="evenodd" clip-rule="evenodd" d="M16.491 10.6816C15.224 10.5218 13.5588 10.6949 11.8118 11.2694C10.0647 11.8439 8.62483 12.692 7.7045 13.5707C6.74672 14.4852 6.5092 15.2621 6.67566 15.762C6.67573 15.7622 6.67579 15.7624 6.67586 15.7626L6.67628 15.7625L6.68372 15.7851C6.86319 16.2786 7.52296 16.7501 8.82134 16.9139C10.0884 17.0737 11.7535 16.9006 13.5005 16.3261C15.2476 15.7516 16.6875 14.9035 17.6079 14.0248C18.5656 13.1103 18.8032 12.3334 18.6367 11.8335C18.4696 11.3318 17.8097 10.848 16.491 10.6816ZM5.50122 16.1907C5.49729 16.1795 5.49345 16.1682 5.48968 16.1569C5.08198 14.9325 5.79619 13.6645 6.84129 12.6666C7.92384 11.633 9.53796 10.7013 11.4213 10.082C13.3048 9.46259 15.1591 9.25372 16.6475 9.44148C18.0842 9.62272 19.4156 10.2161 19.8227 11.4386C19.8234 11.4408 19.8241 11.443 19.8249 11.4452L19.8359 11.4416L20.4135 13.2019C21.98 13.2998 23.3885 13.5673 24.4518 13.9587C25.0343 14.1731 25.5473 14.437 25.9263 14.7572C26.2633 15.0419 26.5508 15.4225 26.6064 15.893C26.6185 15.9417 26.625 15.9926 26.625 16.045V18.729C26.625 19.3203 26.2594 19.7805 25.8391 20.1065C25.4106 20.4389 24.8296 20.7111 24.1674 20.9284C22.8362 21.3652 21.0364 21.625 19.0759 21.625C16.7415 21.625 14.6164 21.2553 13.2363 20.6452C11.9025 20.9307 10.6325 21.0027 9.55445 20.8666C8.11759 20.6851 6.78581 20.0912 6.37963 18.8677L6.37895 18.8656L5.50122 16.1907ZM15.3875 20.0122C16.4274 20.238 17.6936 20.375 19.0759 20.375C20.9411 20.375 22.6032 20.1261 23.7777 19.7407C24.3683 19.5469 24.801 19.3298 25.073 19.1188C25.3533 18.9014 25.375 18.7644 25.375 18.729V17.7362C25.0221 17.9366 24.6091 18.1099 24.1585 18.2577C22.8273 18.6945 21.0275 18.9543 19.067 18.9543C18.5949 18.9543 18.1301 18.9403 17.6789 18.9097C16.9939 19.3243 16.2216 19.6985 15.3875 20.0122ZM19.3018 17.703C21.0714 17.6831 22.6438 17.4391 23.7688 17.07C24.3594 16.8762 24.7921 16.6591 25.0641 16.4481C25.3444 16.2307 25.3661 16.0937 25.3661 16.0583C25.3661 16.0246 25.3485 15.9054 25.1196 15.712C24.894 15.5214 24.5293 15.3192 24.0201 15.1318C23.1988 14.8295 22.0893 14.5973 20.8087 14.4849C21.0004 15.6051 20.3189 16.7363 19.3656 17.643C19.3445 17.6631 19.3233 17.683 19.3018 17.703ZM19.3331 13.9188C19.0947 14.2756 18.7992 14.6156 18.4711 14.9289C17.3885 15.9625 15.7744 16.8942 13.891 17.5136C12.0076 18.1329 10.1533 18.3418 8.6649 18.154C8.21157 18.0969 7.76873 17.9986 7.36211 17.8526L7.56596 18.4738C7.56606 18.4742 7.56616 18.4745 7.56627 18.4748C7.73339 18.9763 8.39306 19.4599 9.71107 19.6264C10.9782 19.7864 12.6435 19.6134 14.39 19.0386C16.1372 18.4636 17.5804 17.6159 18.5041 16.7373C19.4658 15.8226 19.705 15.0462 19.5392 14.5468L19.5385 14.5448L19.3331 13.9188Z" fill="white"/>
</svg>
