<svg width="32" height="32" viewBox="0 0 32 32" fill="none" xmlns="http://www.w3.org/2000/svg">
<path fill-rule="evenodd" clip-rule="evenodd" d="M25.4998 11.1228V20.8866C25.5 21.0929 25.3833 21.2828 25.1955 21.3813L25.1697 21.3949L16.3508 26.3871C16.253 26.458 16.1315 26.5 15.9997 26.5V26.4955C15.896 26.496 15.7941 26.4694 15.7047 26.4187L6.79028 21.3746C6.61047 21.2733 6.49994 21.0875 6.5 20.8866V11.1056C6.49994 10.9034 6.61197 10.7165 6.79372 10.6158C6.80803 10.6079 6.82259 10.6006 6.83737 10.5939L15.705 5.57626C15.8876 5.47458 16.1124 5.47458 16.295 5.57626L25.1634 10.5943C25.1778 10.6009 25.1921 10.608 25.2061 10.6158C25.3771 10.7106 25.4863 10.8815 25.4986 11.0698C25.4995 11.0826 25.5 11.0954 25.5 11.1083C25.5 11.1131 25.4999 11.118 25.4998 11.1228ZM16.5853 16.476V24.9459L24.3293 20.5614V12.0942L16.5853 16.476ZM23.7553 11.1068L16 6.71926L8.2446 11.1068L15.9999 15.495L23.7553 11.1068ZM7.67049 12.0941V20.5636L15.4145 24.9459V16.4759L7.67049 12.0941Z" fill="white"/>
</svg>
