<?xml version="1.0" encoding="UTF-8" standalone="no"?> <!-- Created with Vectornator for iOS (http://vectornator.io/) --><!DOCTYPE svg PUBLIC "-//W3C//DTD SVG 1.1//EN" "http://www.w3.org/Graphics/SVG/1.1/DTD/svg11.dtd">
<svg height="100%" style="fill-rule:nonzero;clip-rule:evenodd;stroke-linecap:round;stroke-linejoin:round;" xmlns:xlink="http://www.w3.org/1999/xlink" xmlns="http://www.w3.org/2000/svg" xml:space="preserve" width="100%" xmlns:vectornator="http://vectornator.io" version="1.1" viewBox="0 0 32 32">
<metadata>
</metadata>
<defs>
<linearGradient y1="101" id="LinearGradient" x1="0" y2="0" x2="0" gradientUnits="userSpaceOnUse" gradientTransform="matrix(0.452881 0 0 0.452881 -4.38332 -2.55041)">
<stop stop-color="#fdac42" offset="0"/>
<stop stop-color="#fdd341" offset="1"/>
</linearGradient>
</defs>
<g id="Layer 1">
<path d="M12.9258+30.4796C10.1524+28.8148+4.78707+25.5957+3.99906+25.1211C2.4099+24.0618+2.4099+22.3716+2.4099+22.3716L2.41035+9.65701C2.41035+9.65701+2.4099+7.81785+4.0131+6.89488L12.9254+1.545C15.9963-0.296873+15.9963-0.296873+19.0723+1.54862L27.9719+6.89081C29.5828+7.86495+29.5814+9.65384+29.5814+9.65384L29.5814+22.3726C29.5814+22.3726+29.5828+24.1429+27.9719+25.1338L19.0691+30.4778C15.9963+32.3237+15.9963+32.3237+12.9258+30.4796Z" opacity="1" fill="url(#LinearGradient)"/>
<path d="M23.2216+9.81506L17.9573+16.2795L23.218+22.7389L19.2956+22.7389L15.9963+18.6875L12.6971+22.7389L8.77469+22.7389L14.0354+16.2795L8.77152+9.81506L12.6935+9.81506L15.9963+13.8715L19.2992+9.81506C19.2992+9.81506+23.2216+9.81506+23.2216+9.81506Z" opacity="1" fill="#ffffff"/>
</g>
</svg>
