<svg width="32" height="32" viewBox="0 0 32 32" fill="none" xmlns="http://www.w3.org/2000/svg">
<path d="M16 32C24.8366 32 32 24.8366 32 16C32 7.16344 24.8366 0 16 0C7.16344 0 0 7.16344 0 16C0 24.8366 7.16344 32 16 32Z" fill="#E84142"/>
<path d="M21.644 16.416C22.1983 15.4585 23.0928 15.4585 23.6471 16.416L27.0991 22.4758C27.6534 23.4333 27.1999 24.2144 26.0912 24.2144H19.1369C18.0408 24.2144 17.5873 23.4333 18.129 22.4758L21.644 16.416ZM14.9668 4.74985C15.5211 3.79237 16.403 3.79237 16.9573 4.74985L17.7258 6.13568L19.54 9.32308C19.981 10.2302 19.981 11.301 19.54 12.2081L13.455 22.753C12.9006 23.6097 11.981 24.1514 10.9605 24.2144H5.90852C4.79986 24.2144 4.34632 23.4459 4.90065 22.4758L14.9668 4.74985Z" fill="white"/>
</svg>
