<svg width="32" height="32" viewBox="0 0 32 32" fill="none" xmlns="http://www.w3.org/2000/svg">
<path d="M9.78534 13.4467L16 7.232L22.2176 13.4493L25.8336 9.83334L16 0L6.1696 9.8304L9.78547 13.4464L9.78534 13.4467ZM0 16L3.61613 12.3834L7.232 15.9992L3.61587 19.6154L0 16ZM9.78534 18.5537L16 24.768L22.2175 18.5508L25.8354 22.1649L25.8336 22.1668L16 32L6.1696 22.1696L6.16448 22.1645L9.78573 18.5533L9.78534 18.5537ZM24.768 16.0015L28.3841 12.3854L32 16.0013L28.384 19.6174L24.768 16.0015Z" fill="#F3BA2F"/>
<path d="M19.6677 15.9984H19.6693L16.0003 12.3291L13.2883 15.0403L12.9768 15.352L12.3342 15.9946L12.3291 15.9996L12.3342 16.0049L16.0003 19.6715L19.6695 16.0022L19.6713 16.0002L19.668 15.9984" fill="#F3BA2F"/>
</svg>
