<svg width="32" height="32" viewBox="0 0 32 32" fill="none" xmlns="http://www.w3.org/2000/svg">
<path d="M31.5177 19.8705C29.3808 28.442 20.6992 33.6584 12.1267 31.521C3.55778 29.3841 -1.65868 20.702 0.479176 12.1312C2.61515 3.5587 11.2967 -1.65814 19.8666 0.478775C28.4385 2.61569 33.6546 11.2987 31.5175 19.8706L31.5176 19.8705H31.5177Z" fill="#F7931A"/>
<path d="M23.0808 13.7082C23.3992 11.579 21.7782 10.4344 19.5615 9.67091L20.2806 6.78665L18.5248 6.34916L17.8248 9.15748C17.3632 9.04236 16.8892 8.93389 16.4181 8.82635L17.1232 5.9995L15.3686 5.56201L14.6491 8.44533C14.2671 8.35837 13.892 8.27242 13.528 8.18185L13.53 8.17278L11.1088 7.56817L10.6418 9.4434C10.6418 9.4434 11.9444 9.74199 11.9169 9.76037C12.6279 9.93782 12.7565 10.4085 12.7351 10.7815L11.916 14.0674C11.965 14.0798 12.0285 14.0978 12.0985 14.1259C12.04 14.1114 11.9776 14.0955 11.9129 14.08L10.7648 18.683C10.6779 18.899 10.4574 19.2232 9.96029 19.1001C9.97788 19.1256 8.68419 18.7817 8.68419 18.7817L7.8125 20.7914L10.0973 21.361C10.5224 21.4676 10.9389 21.5791 11.3491 21.684L10.6225 24.6013L12.3762 25.0388L13.0957 22.1524C13.5748 22.2825 14.0398 22.4025 14.4949 22.5155L13.7779 25.3883L15.5337 25.8258L16.2601 22.9139C19.254 23.4805 21.5052 23.2521 22.4528 20.5441C23.2163 18.3639 22.4148 17.1063 20.8397 16.2862C21.9869 16.0217 22.851 15.2671 23.0814 13.7085L23.0808 13.7081L23.0808 13.7082ZM19.0693 19.3333C18.5267 21.5136 14.8559 20.335 13.6657 20.0394L14.6298 16.1745C15.8199 16.4716 19.6364 17.0595 19.0694 19.3333H19.0693ZM19.6123 13.6766C19.1173 15.6598 16.062 14.6523 15.0709 14.4052L15.945 10.8999C16.9362 11.147 20.1279 11.6081 19.6125 13.6766H19.6123Z" fill="white"/>
</svg>
