<svg width="32" height="32" viewBox="0 0 32 32" fill="none" xmlns="http://www.w3.org/2000/svg">
<path fill-rule="evenodd" clip-rule="evenodd" d="M24 16C28.4229 16 32 12.4229 32 8.00001C32 3.57709 28.4052 0 24 0C19.5947 0 16.0353 3.55947 16 7.94715C15.9647 3.55947 12.4053 0 8 0C3.57709 0 0 3.57709 0 8.00001C0 12.4053 3.55947 15.9824 7.96475 16C3.55947 16.0176 0 19.5948 0 24C0 28.423 3.57709 32 8 32C12.4229 32 16 28.423 16 24C16 19.5948 12.4405 16.0176 8.03524 16C12.4229 15.9824 15.9647 12.4405 16 8.05288C16.0176 12.4405 19.5947 16 24 16Z" fill="#06E594"/>
<path d="M23.9995 32.0001C28.4178 32.0001 31.9995 28.4183 31.9995 24C31.9995 19.5818 28.4178 16 23.9995 16C19.5812 16 15.9995 19.5818 15.9995 24C15.9995 28.4183 19.5812 32.0001 23.9995 32.0001Z" fill="#06E594"/>
</svg>
