<svg width="32" height="32" viewBox="0 0 32 32" fill="none" xmlns="http://www.w3.org/2000/svg">
<path d="M6 17.427C9.48169 19.2757 13.1148 21.2108 15.9208 22.7081L25.7604 17.427C22.1976 22.7188 19.2291 27.1243 15.9208 32C12.6066 27.1351 8.94651 21.767 6 17.427ZM6.37843 15.9674L15.9315 10.8707L25.3603 15.9301L15.9369 21.0324L6.37843 15.9674ZM15.9208 9.23777L6 14.4594L15.8775 0L25.7604 14.4918L15.9208 9.23777Z" fill="#3AB83A"/>
<path d="M15.9207 22.7081L25.7603 17.427C22.1976 22.7188 15.9207 32 15.9207 32V22.7081ZM15.9315 10.8707L25.3602 15.9301L15.9369 21.0324L15.9315 10.8707ZM15.9207 9.23816L15.8774 0L25.7603 14.4918L15.9207 9.23816Z" fill="#0B8311"/>
<path d="M6.37842 15.9675L15.932 16.7513L25.3608 15.9351L15.9369 21.0377L6.37842 15.9675Z" fill="#0B8311"/>
<path d="M15.9316 16.7513L25.3604 15.9351L15.937 21.0377L15.9316 16.7513Z" fill="#146714"/>
</svg>
