<svg width="32" height="32" viewBox="0 0 32 32" fill="none" xmlns="http://www.w3.org/2000/svg">
<path d="M15.7973 1C15.0197 1 9.72152 3.78285 6.63297 5.44094L6.32727 5.60708V26.3015L6.61635 26.4677C8.44389 27.531 14.4831 31 15.6311 31C16.7792 31 22.9413 27.5974 24.8038 26.5541L25.1011 26.3879V5.70012L24.8038 5.53397C21.1055 3.4622 16.5399 1 15.7973 1ZM7.49025 7.64562C9.20482 8.60093 12.1256 10.1876 14.0412 11.0149L7.49025 14.5056V7.64562ZM15.1327 11.7526V19.6925C13.7504 19.1625 10.4957 17.4712 7.51351 15.7965L15.1327 11.7526ZM16.2957 11.8373L23.9116 15.7981C20.9211 17.4745 17.673 19.1658 16.2957 19.6925V11.8373ZM23.9382 14.4956L17.3025 11.0449C19.2181 10.2291 22.1987 8.60924 23.9382 7.64064V14.4956ZM15.7973 2.15634C16.4967 2.34075 20.3512 4.36767 23.8916 6.33477C20.3263 8.33843 16.3771 10.3587 15.7175 10.3869C15.053 10.3587 11.0656 8.32015 7.49191 6.30819V6.28825C11.1237 4.3577 15.0895 2.34906 15.7956 2.16963L15.7973 2.15634ZM15.6411 29.8254C14.9882 29.7739 11.0407 27.6772 7.49191 25.6204V17.1239C9.88932 18.4531 14.6476 21.0332 15.7159 21.0332C16.7842 21.0332 21.5424 18.4597 23.9398 17.1239V25.7084C20.3047 27.7304 16.2758 29.7905 15.6394 29.8387L15.6411 29.8254Z" fill="white"/>
<path d="M27.0111 4.37115C26.4429 3.42249 25.0971 2.72968 24.9459 2.65492L24.4243 3.69495C24.7565 3.8611 25.6786 4.40936 26.0142 4.96925C26.3316 5.49924 26.3066 6.31333 26.2701 6.58082L27.4198 6.74696C27.4397 6.60408 27.5992 5.34805 27.0111 4.37115Z" fill="white"/>
<path d="M5.44007 26.9658C5.12274 26.4358 5.14766 25.6201 5.18421 25.3526L4.03452 25.1864C4.01458 25.326 3.85509 26.582 4.44323 27.5622C5.01143 28.5109 6.35717 29.202 6.50836 29.2785L7.03004 28.2384C6.70108 28.0723 5.77568 27.5224 5.44007 26.9658Z" fill="white"/>
</svg>
