<svg width="32" height="32" viewBox="0 0 32 32" fill="none" xmlns="http://www.w3.org/2000/svg">
    <defs>
        <linearGradient id="paint0_linear_858_4707" x1="16.344" y1="1.02153" x2="16.344" y2="31.7745"
                        gradientUnits="userSpaceOnUse">
            <stop stop-color="#B3F9BA"/>
            <stop offset="1" stop-color="#F6FB8C"/>
        </linearGradient>
        <linearGradient id="paint1_linear_858_4707" x1="16.3846" y1="1.04552" x2="16.3846" y2="31.0672"
                        gradientUnits="userSpaceOnUse">
            <stop stop-color="#B1FFBF"/>
            <stop offset="1" stop-color="#FFF16D"/>
        </linearGradient>
        <linearGradient id="paint2_linear_858_4707" x1="16.3846" y1="0" x2="16.3846" y2="31.1538"
                        gradientUnits="userSpaceOnUse">
            <stop stop-color="#B3F9BA"/>
            <stop offset="1" stop-color="#F6FB8C"/>
        </linearGradient>
    </defs>
    <mask id="mask0_858_4707" style="mask-type:alpha" maskUnits="userSpaceOnUse" x="1" y="20" width="31" height="12">
        <path d="M1 20.0586H31.688V31.7742H1V20.0586Z" fill="white"/>
    </mask>
    <g mask="url(#mask0_858_4707)">
        <path fill-rule="evenodd" clip-rule="evenodd"
              d="M16.3142 26.0215C15.2329 26.0215 14.228 25.7948 13.4078 25.3659L4.57582 20.7482L1.9293 22.3386C0.671325 23.0943 0.693299 24.2528 1.97832 24.9248L14.1938 31.3119C14.7871 31.6219 15.5456 31.7745 16.3142 31.7745C17.2118 31.7745 18.1224 31.5668 18.8002 31.1597L30.7587 23.9731C32.0167 23.2171 31.9947 22.0586 30.7097 21.387L28.1701 20.0586L19.6736 25.1649C18.7541 25.717 17.5612 26.0215 16.3142 26.0215Z"
              fill="url(#paint0_linear_858_4707)"/>
    </g>
    <path fill-rule="evenodd" clip-rule="evenodd"
          d="M30.7883 13.7404L28.6678 12.6152L23.7298 15.6261L22.8821 16.1429L22.0347 16.6597L19.7231 18.0693C18.8012 18.6319 17.6047 18.9412 16.3548 18.9412C15.2707 18.9412 14.2631 18.7106 13.4408 18.2747L10.7924 16.8693L9.91577 16.4047L9.03918 15.9397L4.15924 13.3502L1.93196 14.7085C0.670665 15.4777 0.692273 16.6558 1.98068 17.3395L4.52742 18.6905L5.40401 19.1555L6.28018 19.6205L14.2288 23.8374C14.8232 24.1527 15.5842 24.3075 16.3548 24.3075C17.2543 24.3075 18.1678 24.0966 18.8469 23.6825L26.4888 19.0229L27.3366 18.5061L28.184 17.9893L30.8375 16.3714C32.0988 15.6026 32.0767 14.424 30.7883 13.7404Z"
          fill="url(#paint1_linear_858_4707)"/>
    <path fill-rule="evenodd" clip-rule="evenodd"
          d="M30.7883 6.84691L18.5402 0.462402C17.9458 0.152172 17.1853 0 16.4142 0C15.5147 0 14.6012 0.20766 13.9221 0.614574L1.93196 7.79861C0.670665 8.55401 0.692273 9.7117 1.98068 10.3834L4.1012 11.489L4.97779 11.9459L5.85438 12.4029L10.7343 14.9469L11.6109 15.4034L12.4875 15.8608L14.2288 16.7688C14.8232 17.0786 15.5842 17.2308 16.3548 17.2308C17.2543 17.2308 18.1678 17.0231 18.8469 16.6162L20.2815 15.7565L21.1293 15.2487L21.9766 14.7409L26.9146 11.7824L27.7624 11.2746L28.6098 10.7668L30.8375 9.43215C32.0988 8.67676 32.0767 7.51865 30.7883 6.84691Z"
          fill="url(#paint2_linear_858_4707)"/>
</svg>
