<svg width="32" height="32" viewBox="0 0 32 32" fill="none" xmlns="http://www.w3.org/2000/svg">
<g clip-path="url(#clip0_858_4737)">
<path d="M19.7573 9.84232C19.7573 5.25071 17.5199 1.29486 15.8062 -0.000208865C15.8062 -0.000208865 15.6872 -0.0708491 15.6872 0.117525C15.5444 8.99464 10.9982 11.42 8.47527 14.6459C2.69147 22.1337 8.07064 30.328 13.545 31.835C16.6154 32.6827 12.831 30.328 12.3549 25.3832C11.7837 19.3788 19.7573 14.8107 19.7573 9.84232" fill="white"/>
<path d="M22.7564 12.88C22.7326 12.8564 22.6849 12.8564 22.6373 12.88C22.6373 12.88 22.6373 12.88 22.6135 12.9035C22.5183 14.0102 21.2807 16.412 19.7335 18.6018C14.4734 26.0426 17.4724 29.6217 19.1623 31.5525C20.1382 32.6828 19.1623 31.5525 21.6139 30.3987C21.8043 30.3045 26.3742 27.9028 26.874 22.4635C27.3739 17.1655 23.9702 13.8454 22.7564 12.88" fill="#059BDC"/>
</g>
<defs>
<clipPath id="clip0_858_4737">
<rect width="20.9455" height="32" fill="white" transform="translate(6)"/>
</clipPath>
</defs>
</svg>
