<svg width="32" height="32" viewBox="0 0 32 32" fill="none" xmlns="http://www.w3.org/2000/svg">
<path d="M16 32C24.8366 32 32 24.8366 32 16C32 7.16344 24.8366 0 16 0C7.16344 0 0 7.16344 0 16C0 24.8366 7.16344 32 16 32Z" fill="#8247E5"/>
<path d="M21.2956 12.5765C20.9118 12.3532 20.4129 12.3532 19.9908 12.5765L16.9974 14.2881L14.9635 15.4044L11.9701 17.116C11.5863 17.3392 11.0875 17.3392 10.6653 17.116L8.28595 15.7765C7.9022 15.5532 7.63358 15.1439 7.63358 14.6974V12.0555C7.63358 11.609 7.86383 11.1997 8.28595 10.9765L10.6269 9.67411C11.0107 9.45086 11.5096 9.45086 11.9317 9.67411L14.2727 10.9765C14.6565 11.1997 14.9251 11.609 14.9251 12.0555V13.7671L16.959 12.6136V10.902C16.959 10.4555 16.7288 10.0462 16.3066 9.82296L11.9701 7.36714C11.5863 7.14389 11.0875 7.14389 10.6653 7.36714L6.25202 9.82296C5.82986 10.0462 5.59961 10.4555 5.59961 10.902V15.8509C5.59961 16.2974 5.82986 16.7067 6.25202 16.9299L10.6653 19.3857C11.0491 19.609 11.548 19.609 11.9701 19.3857L14.9635 17.7113L16.9974 16.5578L19.9908 14.8834C20.3745 14.6602 20.8734 14.6602 21.2956 14.8834L23.6365 16.1857C24.0203 16.409 24.2889 16.8183 24.2889 17.2648V19.9067C24.2889 20.3532 24.0586 20.7625 23.6365 20.9857L21.2956 22.3253C20.9118 22.5486 20.4129 22.5486 19.9908 22.3253L17.6498 21.023C17.266 20.7997 16.9974 20.3904 16.9974 19.9439V18.2323L14.9635 19.3857V21.0974C14.9635 21.5439 15.1937 21.9532 15.6159 22.1765L20.0291 24.6323C20.4129 24.8555 20.9118 24.8555 21.3339 24.6323L25.7472 22.1765C26.131 21.9532 26.3996 21.5439 26.3996 21.0974V16.1486C26.3996 15.702 26.1694 15.2927 25.7472 15.0695L21.2956 12.5765Z" fill="white"/>
</svg>
