<svg width="38" height="32" viewBox="0 0 38 32" fill="none" xmlns="http://www.w3.org/2000/svg">
<g clip-path="url(#clip0_859_4928)">
<path d="M22.1126 12.3244H32.9903C33.0653 12.3244 33.1404 12.3283 33.2154 12.3192C33.284 12.3108 33.3557 12.2982 33.4171 12.2688C33.6437 12.1603 33.7446 11.9687 33.7422 11.7237C33.7372 11.2085 33.717 10.6944 33.647 10.1828C33.5711 9.62747 33.4648 9.07815 33.3098 8.5398C33.2198 8.22807 33.1072 7.9231 33.0047 7.61512C32.8573 7.17312 32.6611 6.75183 32.4494 6.33939C32.1389 5.73504 31.7762 5.15902 31.3653 4.61791C30.7164 3.76117 29.9531 2.99747 29.0966 2.34817C28.5517 1.93455 27.971 1.57021 27.3615 1.25945C26.858 1.00235 26.3399 0.777975 25.8032 0.602225C25.2909 0.43458 24.7712 0.293349 24.2378 0.200596C23.6208 0.0932853 23.0032 0.0182426 22.3767 0.0036843C21.5113 -0.0149149 20.6464 0.062349 19.798 0.234065C19.2638 0.340926 18.7412 0.492813 18.227 0.674717C17.6946 0.863645 17.1771 1.09232 16.6789 1.35881C16.0841 1.67702 15.5182 2.0467 14.9879 2.46359C14.3705 2.94714 13.8027 3.49093 13.293 4.08691C12.8356 4.62249 12.4277 5.19843 12.0743 5.80764C11.7867 6.30488 11.5352 6.82216 11.3218 7.35547C11.1264 7.84226 10.9646 8.34186 10.8376 8.85077C10.7974 9.01076 10.7523 9.17031 10.725 9.33255C10.6387 9.84494 10.5362 10.3552 10.5194 10.8772C10.5102 11.157 10.4865 11.4366 10.4849 11.7164C10.4832 11.9786 10.5983 12.1857 10.8508 12.2814C10.9543 12.3208 11.0759 12.3223 11.1898 12.3224C14.8309 12.3247 18.4718 12.3254 22.1126 12.3244Z" fill="#E1147B"/>
<path d="M22.1212 14.4167H8.94796C8.85295 14.4167 8.7578 14.4158 8.66279 14.4212C8.3218 14.4408 8.07085 14.6613 8.00542 14.9962C7.93938 15.3336 8.1465 15.6909 8.47669 15.783C8.59946 15.8172 8.73288 15.8245 8.86136 15.8247C17.6786 15.8265 26.4958 15.827 35.3128 15.8263C35.3728 15.8263 35.4329 15.8317 35.4929 15.8248C35.5866 15.814 35.6825 15.8052 35.7718 15.7777C36.0482 15.6924 36.222 15.4458 36.2301 15.1419C36.2382 14.838 36.065 14.5716 35.7983 14.4677C35.6483 14.4093 35.4938 14.4168 35.3394 14.4168C30.9334 14.4165 26.5273 14.4165 22.1212 14.4167Z" fill="#E1147B"/>
<path d="M20.546 20.8815H8.90554C8.82059 20.8815 8.73534 20.8791 8.65039 20.8845C8.29604 20.9067 8.01013 21.1979 7.99512 21.5484C7.98252 21.855 8.212 22.2307 8.58045 22.2771C8.69507 22.2897 8.81036 22.2952 8.92565 22.2934C14.2907 22.2941 19.6559 22.2941 25.0212 22.2934C27.4114 22.2934 29.8015 22.2932 32.1915 22.2927C32.3014 22.2935 32.4112 22.287 32.5202 22.2732C32.8132 22.2334 33.0316 21.9614 33.0722 21.6929C33.121 21.3702 32.9622 21.0797 32.6868 20.9491C32.5454 20.882 32.3976 20.8799 32.2471 20.8799C28.3461 20.881 24.4457 20.8815 20.546 20.8815Z" fill="#E1147B"/>
<path d="M26.6246 25.5218H34.3643C35.0443 25.5218 35.7244 25.5182 36.4043 25.5233C36.6425 25.5251 36.8313 25.4382 36.982 25.2594C37.1559 25.0529 37.1885 24.8168 37.0987 24.5702C37.0036 24.3092 36.8136 24.1527 36.5301 24.1278C36.4357 24.1195 36.3402 24.1227 36.2449 24.1227H17.0154C16.9453 24.1227 16.8754 24.124 16.8053 24.1227C16.4784 24.1197 16.2117 24.3379 16.135 24.6789C16.0664 24.9828 16.241 25.308 16.5253 25.4515C16.6618 25.5204 16.804 25.5212 16.9491 25.5212L26.6246 25.5218Z" fill="#E1147B"/>
<path d="M13.0522 17.6585H3.46777C3.37772 17.6585 3.28767 17.6575 3.19762 17.6618C3.13308 17.6651 3.06614 17.6677 3.00506 17.686C2.75531 17.761 2.5548 18.0214 2.53499 18.2898C2.51383 18.5693 2.68312 18.8675 2.91876 18.9846C3.06989 19.0596 3.22913 19.0518 3.38838 19.0518C9.82815 19.0518 16.2678 19.0518 22.7074 19.0518C22.7824 19.0518 22.8575 19.0499 22.9325 19.0475C23.0901 19.0426 23.2213 18.9772 23.3341 18.8699C23.5375 18.6763 23.6207 18.3506 23.5142 18.0963C23.4003 17.8251 23.1991 17.6641 22.8921 17.6603C22.8072 17.6593 22.7222 17.6582 22.637 17.6582L13.0522 17.6585Z" fill="#E1147B"/>
<path d="M26.7824 27.3537H20.8888C20.8137 27.3537 20.7387 27.3522 20.6637 27.357C20.5203 27.3666 20.3882 27.4121 20.2811 27.5096C20.0665 27.7048 19.9857 27.9468 20.0605 28.2286C20.1352 28.5103 20.335 28.6748 20.6149 28.7346C20.7208 28.7575 20.8333 28.7561 20.9428 28.7561C24.837 28.7571 28.7311 28.7571 32.6252 28.7561C32.6702 28.7561 32.7152 28.7561 32.7603 28.7561C32.9253 28.7561 33.0763 28.7154 33.2116 28.6191C33.4389 28.4571 33.5494 28.2368 33.5117 27.9596C33.4753 27.6938 33.3373 27.4889 33.0747 27.401C32.9639 27.3641 32.8395 27.356 32.7214 27.356C30.7417 27.3531 28.7621 27.3523 26.7824 27.3537Z" fill="#E1147B"/>
<path d="M19.3941 30.5957H13.483C13.403 30.5957 13.3231 30.5984 13.2428 30.599C13.0584 30.6004 12.9163 30.6907 12.8025 30.8241C12.5107 31.1652 12.6305 31.7128 13.0336 31.9088C13.1864 31.9839 13.3472 32.0004 13.5139 32.0004C17.4296 31.9991 21.3453 31.9987 25.2609 31.9992C25.3009 31.9992 25.341 31.9992 25.3809 31.9983C25.721 31.9858 26.16 31.7235 26.1138 31.2056C26.0902 30.9421 25.8364 30.5969 25.5135 30.5992C25.4335 30.5992 25.3535 30.5962 25.2733 30.5962L19.3941 30.5957Z" fill="#E1147B"/>
<path d="M9.31904 24.1231H4.78901C4.71397 24.1231 4.63892 24.1176 4.56388 24.1276C4.48088 24.139 4.39218 24.1504 4.31909 24.1876C4.0656 24.3175 3.93893 24.5301 3.93848 24.818C3.93848 25.1023 4.07265 25.2998 4.31624 25.435C4.45807 25.5135 4.60936 25.5231 4.7665 25.5231C7.79642 25.522 10.8263 25.5217 13.8563 25.5222C13.8914 25.5222 13.9264 25.5204 13.9613 25.5222C14.1356 25.5302 14.2839 25.4613 14.4192 25.3619C14.666 25.1809 14.7344 24.8966 14.6577 24.6115C14.5827 24.3331 14.3322 24.127 14.0437 24.1257C13.9687 24.1257 13.8936 24.1239 13.8186 24.1239L9.31904 24.1231Z" fill="#E1147B"/>
<path d="M2.08839 25.5203C2.48836 25.5222 2.78689 25.2229 2.78689 24.8203C2.78689 24.4277 2.48972 24.1267 2.09859 24.124C1.70311 24.1212 1.39529 24.4283 1.39649 24.8243C1.39814 25.2423 1.75474 25.5393 2.08839 25.5203Z" fill="#E1147B"/>
<path d="M11.498 31.2864C11.5033 30.9218 11.1897 30.593 10.8043 30.5913C10.4189 30.5897 10.0999 30.912 10.105 31.2943C10.1104 31.7085 10.4373 31.995 10.8124 31.9961C11.1875 31.9971 11.4991 31.6688 11.498 31.2864Z" fill="#E1147B"/>
<path d="M6.84892 21.5923C6.87743 21.1917 6.52128 20.8824 6.15761 20.8833C5.77804 20.8842 5.46721 21.1985 5.46346 21.5838C5.46207 21.6764 5.47922 21.7685 5.51389 21.8544C5.54855 21.9404 5.60004 22.0185 5.66533 22.0843C5.73062 22.1501 5.8084 22.2022 5.89409 22.2375C5.97979 22.2729 6.07168 22.2907 6.16437 22.2901C6.58101 22.2913 6.88224 21.919 6.84892 21.5923Z" fill="#E1147B"/>
<path d="M0.705481 17.6607C0.325317 17.6343 0.00608699 17.9623 8.36016e-05 18.3406C-0.00591978 18.7337 0.31226 19.0475 0.677566 19.0538C1.0948 19.061 1.38551 18.7212 1.38942 18.3608C1.39377 17.9696 1.07274 17.6428 0.705481 17.6607Z" fill="#E1147B"/>
<path d="M6.84864 15.1195C6.87866 14.7459 6.53872 14.4133 6.1518 14.42C5.76774 14.4266 5.45737 14.7352 5.46397 15.1217C5.47057 15.5082 5.73607 15.8122 6.15436 15.821C6.56934 15.8305 6.87971 15.4773 6.84864 15.1195Z" fill="#E1147B"/>
<path d="M18.8867 28.0612C18.8876 27.6551 18.5922 27.3569 18.1946 27.354C17.8458 27.3516 17.5013 27.6417 17.5034 28.0504C17.5055 28.4493 17.8036 28.757 18.1985 28.7558C18.5934 28.7546 18.8859 28.4568 18.8867 28.0612Z" fill="#E1147B"/>
<path d="M22.113 12.3244C18.472 12.3244 14.8311 12.3239 11.1903 12.3229C11.0767 12.3229 10.9548 12.3213 10.8513 12.2819C10.5988 12.1862 10.4837 11.9791 10.4854 11.7169C10.487 11.4371 10.5107 11.1575 10.5199 10.8777C10.5367 10.3557 10.6392 9.84545 10.7255 9.33306C10.7528 9.17082 10.7978 9.01128 10.8381 8.85129C10.9651 8.34239 11.1269 7.84278 11.3223 7.356C11.5357 6.82269 11.7872 6.30541 12.0748 5.80817C12.4281 5.19881 12.836 4.62273 13.2933 4.087C13.8031 3.49102 14.3708 2.94724 14.9883 2.46369C15.5186 2.0468 16.0845 1.67713 16.6793 1.35891C17.177 1.09229 17.694 0.863416 18.2259 0.674224C18.7401 0.492322 19.2627 0.340436 19.7969 0.233576C20.6453 0.0618604 21.5102 -0.0154031 22.3757 0.00319601C23.0027 0.0182045 23.6203 0.0932468 24.2367 0.200107C24.7702 0.29286 25.2899 0.434089 25.8022 0.601734C26.3389 0.777483 26.857 1.00186 27.3605 1.25895C27.97 1.56972 28.5507 1.93405 29.0957 2.34767C29.9521 2.99697 30.7155 3.76066 31.3644 4.6174C31.7754 5.15829 32.1384 5.73411 32.449 6.33827C32.6613 6.75116 32.8574 7.17244 33.0044 7.61399C33.1069 7.92197 33.2197 8.22694 33.3095 8.53867C33.4645 9.07702 33.5708 9.62618 33.6467 10.1816C33.7167 10.6933 33.7368 11.2073 33.7419 11.7226C33.7443 11.9681 33.6434 12.1592 33.4168 12.2677C33.3554 12.2977 33.2837 12.3097 33.2151 12.3181C33.1411 12.3271 33.065 12.3232 32.9899 12.3232L22.113 12.3244Z" fill="#53CBC8"/>
<path d="M22.1212 14.4163C26.5272 14.4163 30.9333 14.4163 35.3394 14.4163C35.4938 14.4163 35.6486 14.4088 35.7983 14.4672C36.0652 14.5712 36.2384 14.8367 36.2301 15.1414C36.2219 15.446 36.0482 15.6919 35.7718 15.7771C35.6825 15.8046 35.5866 15.8134 35.4929 15.8242C35.4338 15.8311 35.3728 15.8257 35.3128 15.8257C26.4958 15.8257 17.6786 15.8252 8.86136 15.8241C8.73288 15.8241 8.59946 15.8166 8.47669 15.7823C8.1465 15.6903 7.93938 15.333 8.00542 14.9956C8.07085 14.6611 8.3218 14.4403 8.66279 14.4207C8.7575 14.4153 8.85265 14.4162 8.94796 14.4162L22.1212 14.4163Z" fill="#E1147B"/>
<path d="M20.546 20.8812C24.4461 20.8812 28.3462 20.8812 32.2465 20.8812C32.3965 20.8812 32.5448 20.8833 32.6862 20.9504C32.9616 21.081 33.1204 21.3715 33.0716 21.6942C33.0309 21.9626 32.8126 22.2344 32.5196 22.2744C32.4106 22.2882 32.3008 22.2947 32.1909 22.2939C29.8009 22.295 27.4108 22.2952 25.0206 22.2946C19.6554 22.2946 14.2902 22.2946 8.92505 22.2946C8.80993 22.2959 8.69484 22.29 8.58045 22.2769C8.212 22.2305 7.98252 21.8549 7.99512 21.5483C8.01013 21.1979 8.29529 20.9067 8.64994 20.8839C8.73474 20.8785 8.81999 20.8809 8.90509 20.8809L20.546 20.8812Z" fill="#E1147B"/>
<path d="M26.6246 25.5216H16.9501C16.805 25.5216 16.6629 25.5216 16.5263 25.452C16.2419 25.3085 16.0673 24.9833 16.1361 24.6794C16.2128 24.3384 16.4795 24.1201 16.8063 24.1231C16.8763 24.1231 16.9462 24.1231 17.0165 24.1231H36.2453C36.3403 24.1231 36.4357 24.12 36.5304 24.1283C36.8138 24.1532 37.004 24.3097 37.0991 24.5707C37.1892 24.8173 37.1563 25.0534 36.9823 25.2599C36.8323 25.4386 36.6429 25.5255 36.4047 25.5237C35.7248 25.5186 35.0448 25.5222 34.3647 25.5222L26.6246 25.5216Z" fill="#E1147B"/>
<path d="M13.0524 17.6582H22.637C22.7219 17.6582 22.8069 17.6593 22.8921 17.6603C23.1986 17.6641 23.4003 17.8254 23.5142 18.0963C23.6212 18.3506 23.5381 18.6763 23.3341 18.8699C23.2212 18.9772 23.0901 19.0426 22.9325 19.0474C22.8574 19.0498 22.7824 19.0518 22.7073 19.0518C16.2678 19.0518 9.82816 19.0518 3.38842 19.0518C3.22918 19.0518 3.06994 19.0596 2.9188 18.9845C2.68317 18.8675 2.51357 18.5692 2.53503 18.2898C2.55545 18.0214 2.75536 17.7607 3.0051 17.686C3.06618 17.6677 3.13312 17.6651 3.19766 17.6618C3.28771 17.6575 3.37776 17.6585 3.46781 17.6585L13.0524 17.6582Z" fill="#E1147B"/>
<path d="M26.7825 27.354C28.762 27.354 30.7415 27.3547 32.7211 27.356C32.8392 27.356 32.9636 27.3648 33.0744 27.401C33.337 27.489 33.475 27.6938 33.5114 27.9596C33.5494 28.2368 33.4389 28.4571 33.2113 28.6191C33.0762 28.7154 32.9243 28.7562 32.76 28.7561C32.7149 28.7561 32.6699 28.7561 32.6249 28.7561C28.7307 28.7561 24.8366 28.7561 20.9426 28.7561C20.833 28.7561 20.7206 28.7574 20.6146 28.7346C20.3347 28.6746 20.1356 28.5122 20.0602 28.2285C19.9849 27.9449 20.0662 27.7048 20.2808 27.5097C20.388 27.4121 20.5201 27.3666 20.6634 27.357C20.7385 27.3522 20.8135 27.3537 20.8885 27.3537L26.7825 27.354Z" fill="#E1147B"/>
<path d="M19.3944 30.5957H25.2754C25.3554 30.5957 25.4354 30.5993 25.5155 30.5987C25.8381 30.5964 26.0919 30.9416 26.1159 31.2052C26.1621 31.7232 25.7231 31.9857 25.383 31.998C25.3431 31.9995 25.303 31.9989 25.2629 31.9989C21.3473 31.9989 17.4316 31.9993 13.5159 32.0001C13.3484 32.0001 13.1876 31.983 13.0356 31.9086C12.6325 31.7125 12.5127 31.1648 12.8044 30.8237C12.9182 30.6907 13.0596 30.6003 13.2448 30.5985C13.3248 30.5985 13.4046 30.5952 13.4849 30.5952L19.3944 30.5957Z" fill="#E1147B"/>
<path d="M9.31934 24.1234H13.8186C13.8936 24.1234 13.9687 24.1249 14.0437 24.1252C14.3322 24.1265 14.5831 24.3326 14.6577 24.611C14.734 24.8961 14.666 25.1813 14.4192 25.3614C14.2842 25.4607 14.1356 25.5296 13.9613 25.5217C13.9264 25.52 13.8914 25.5217 13.8563 25.5217C10.8263 25.5217 7.79642 25.522 4.7665 25.5226C4.60966 25.5226 4.45837 25.5129 4.31624 25.4345C4.07265 25.2994 3.93803 25.1017 3.93848 24.8175C3.93848 24.5299 4.0656 24.3173 4.31909 24.1872C4.39219 24.1498 4.48089 24.1384 4.56388 24.1271C4.63773 24.1171 4.71397 24.1226 4.78901 24.1226L9.31934 24.1234Z" fill="#E1147B"/>
<path d="M2.08891 25.5203C1.75527 25.5393 1.39852 25.2423 1.39746 24.8243C1.39626 24.4283 1.70409 24.1212 2.09956 24.124C2.49069 24.1267 2.7874 24.4277 2.7874 24.8203C2.7874 25.2229 2.48889 25.5222 2.08891 25.5203Z" fill="#E1147B"/>
<path d="M11.498 31.2863C11.4991 31.6687 11.1872 31.9971 10.8124 31.9961C10.4376 31.995 10.1104 31.7085 10.105 31.2943C10.0999 30.912 10.4168 30.5889 10.8043 30.5913C11.1918 30.5937 11.5033 30.9223 11.498 31.2863Z" fill="#E1147B"/>
<path d="M6.84891 21.5923C6.88223 21.919 6.581 22.2912 6.16391 22.29C6.07126 22.2906 5.97942 22.2727 5.89378 22.2373C5.80814 22.202 5.73042 22.1499 5.66518 22.0841C5.59993 22.0183 5.54848 21.9402 5.51385 21.8543C5.47921 21.7683 5.46208 21.6763 5.46346 21.5837C5.46781 21.1979 5.77864 20.8842 6.15761 20.8833C6.52127 20.8824 6.87743 21.1917 6.84891 21.5923Z" fill="#E1147B"/>
<path d="M0.705335 17.6607C1.07259 17.6428 1.39363 17.9702 1.38942 18.3608C1.38552 18.721 1.09481 19.061 0.677569 19.0538C0.312261 19.0475 -0.00591982 18.7336 8.36021e-05 18.3406C0.00593693 17.9623 0.325919 17.6343 0.705335 17.6607Z" fill="#E1147B"/>
<path d="M6.84882 15.1195C6.87988 15.4773 6.56906 15.8305 6.15437 15.821C5.73623 15.8116 5.47088 15.5079 5.46398 15.1217C5.45708 14.7355 5.76775 14.4266 6.15182 14.42C6.53949 14.4133 6.87838 14.7459 6.84882 15.1195Z" fill="#E1147B"/>
<path d="M18.8867 28.0615C18.8867 28.4571 18.5914 28.7541 18.1985 28.7558C17.8056 28.7574 17.5055 28.4496 17.5034 28.0504C17.5013 27.6417 17.8458 27.3516 18.1946 27.354C18.5922 27.3572 18.8876 27.6554 18.8867 28.0615Z" fill="#E1147B"/>
</g>
<defs>
<clipPath id="clip0_859_4928">
<rect width="37.1469" height="32" fill="white"/>
</clipPath>
</defs>
</svg>
