<svg width="32" height="32" viewBox="0 0 32 32" fill="none" xmlns="http://www.w3.org/2000/svg">
<path d="M5.0405 24.5911C4.63174 24.5911 4.30078 24.2601 4.30078 23.8514V18.7539C4.30078 18.3451 4.63174 18.0142 5.0405 18.0142C5.44927 18.0142 5.78022 18.3451 5.78022 18.7539V23.8514C5.78022 24.2601 5.44872 24.5911 5.0405 24.5911Z" fill="#00CCC2"/>
<path d="M13.8623 24.1646C13.4535 24.1646 13.1226 23.8337 13.1226 23.4249V18.3159C13.1226 17.9071 13.4535 17.5762 13.8623 17.5762C14.271 17.5762 14.602 17.9071 14.602 18.3159V23.4249C14.602 23.8337 14.2705 24.1646 13.8623 24.1646Z" fill="#00CCC2"/>
<path d="M19.6704 29.0411C19.2616 29.0411 18.9307 28.7102 18.9307 28.3014V21.165C18.9307 20.7562 19.2616 20.4253 19.6704 20.4253C20.0791 20.4253 20.4101 20.7562 20.4101 21.165V28.3014C20.4101 28.7102 20.0786 29.0411 19.6704 29.0411Z" fill="#00CCC2"/>
<path d="M22.6294 28.2196C22.2206 28.2196 21.8896 27.8886 21.8896 27.4799V21.5073C21.8896 21.0985 22.2206 20.7676 22.6294 20.7676C23.0381 20.7676 23.3691 21.0985 23.3691 21.5073V27.4799C23.3691 27.8886 23.0376 28.2196 22.6294 28.2196Z" fill="#00CCC2"/>
<path d="M25.602 24.1096C25.1933 24.1096 24.8623 23.7786 24.8623 23.3698V20.7397C24.8623 20.331 25.1933 20 25.602 20C26.0108 20 26.3417 20.331 26.3417 20.7397V23.3698C26.3417 23.7786 26.0108 24.1096 25.602 24.1096Z" fill="#00CCC2"/>
<path d="M16.7666 22.0272C16.3578 22.0272 16.0269 21.6962 16.0269 21.2875V20.082C16.0269 19.6732 16.3578 19.3423 16.7666 19.3423C17.1753 19.3423 17.5063 19.6732 17.5063 20.082V21.2875C17.5063 21.6962 17.1748 22.0272 16.7666 22.0272Z" fill="#00CCC2"/>
<path d="M7.99949 25.0958C7.59072 25.0958 7.25977 24.7649 7.25977 24.3561V17.2329C7.25977 16.8241 7.59072 16.4932 7.99949 16.4932C8.40825 16.4932 8.73921 16.8241 8.73921 17.2329V24.3561C8.73921 24.7649 8.4077 25.0958 7.99949 25.0958Z" fill="#00CCC2"/>
<path d="M10.917 31.9997C10.5082 31.9997 10.1772 31.6688 10.1772 31.26V17.0683C10.1772 16.6596 10.5082 16.3286 10.917 16.3286C11.3257 16.3286 11.6567 16.6596 11.6567 17.0683V31.26C11.6567 31.6688 11.3257 31.9997 10.917 31.9997Z" fill="#00CCC2"/>
<path d="M21.6573 19.288C19.3269 19.288 17.0573 17.8118 14.5444 16.0283C13.1077 15.0091 11.1532 14.7949 9.76693 14.7949C6.76421 14.7949 4.26396 17.0436 4.2393 17.0666C3.93793 17.3417 3.46999 17.3209 3.19438 17.0201C2.91876 16.7192 2.93849 16.2524 3.23931 15.9762C3.35766 15.8672 6.17792 13.3154 9.76693 13.3154C11.3686 13.3154 13.6464 13.5768 15.4003 14.8217C17.6184 16.396 19.7658 17.8085 21.6573 17.8085C24.6792 17.8085 26.9213 16.0201 26.9438 16.002C27.2605 15.745 27.7263 15.7927 27.9838 16.1088C28.2413 16.425 28.1947 16.8897 27.8791 17.1477C27.7723 17.2354 25.2227 19.288 21.6573 19.288Z" fill="#00CCC2"/>
<path d="M15.5472 13.5889C17.0815 14.8492 19.4644 16.2191 21.557 16.2191C24.2195 16.2191 26.2145 15.0278 27.0912 14.3911C27.2474 13.6185 27.3296 12.8196 27.3296 12.001C27.3296 5.37311 21.9565 0 15.3291 0C8.70179 0 3.32812 5.37311 3.32812 12.001C3.32812 12.7818 3.40374 13.5451 3.54621 14.2843C4.47003 13.527 6.83714 11.7807 9.84863 11.7807C11.7664 11.7807 14.0168 12.332 15.5472 13.5889Z" fill="#FCB500"/>
</svg>
