<svg width="32" height="32" viewBox="0 0 32 32" fill="none" xmlns="http://www.w3.org/2000/svg">
<path d="M14.2782 14.1899C15.41 14.4654 16.5919 14.4654 17.7237 14.1899C18.04 12.9117 18.7023 11.7439 19.6388 10.8131C20.5754 9.88237 21.7504 9.22414 23.0366 8.90982C23.2972 7.85022 23.3122 6.7456 23.0804 5.67941C22.8485 4.61321 22.3759 3.61333 21.6982 2.75529C21.0205 1.89725 20.1554 1.20349 19.1684 0.726425C18.1814 0.249361 17.0981 0.00146484 16.0006 0.00146484C14.903 0.00146484 13.8198 0.249361 12.8327 0.726425C11.8457 1.20349 10.9807 1.89725 10.303 2.75529C9.62527 3.61333 9.15264 4.61321 8.92079 5.67941C8.68893 6.7456 8.7039 7.85022 8.96458 8.90982C10.251 9.22377 11.4263 9.88186 12.3631 10.8127C13.2998 11.7435 13.9621 12.9115 14.2782 14.1899V14.1899Z" fill="#7ABDF7"/>
<path d="M17.7234 17.6128C16.5916 17.3374 15.4097 17.3374 14.2779 17.6128C13.9616 18.891 13.2993 20.0588 12.3628 20.9896C11.4263 21.9204 10.2512 22.5786 8.96507 22.8929C8.70439 23.9525 8.68941 25.0572 8.92127 26.1233C9.15313 27.1895 9.62576 28.1894 10.3035 29.0475C10.9812 29.9055 11.8462 30.5993 12.8332 31.0763C13.8203 31.5534 14.9035 31.8013 16.0011 31.8013C17.0986 31.8013 18.1818 31.5534 19.1689 31.0763C20.1559 30.5993 21.021 29.9055 21.6987 29.0475C22.3764 28.1894 22.849 27.1895 23.0808 26.1233C23.3127 25.0572 23.2977 23.9525 23.037 22.8929C21.7506 22.579 20.5753 21.9209 19.6386 20.9901C18.7019 20.0593 18.0395 18.8913 17.7234 17.6128Z" fill="#0D74F5"/>
<path d="M24.7589 8.70276C24.1787 8.70268 23.6006 8.77197 23.037 8.90914C22.721 10.1873 22.0589 11.3551 21.1225 12.2858C20.1861 13.2164 19.011 13.8745 17.7249 14.1885C17.4478 15.3133 17.4478 16.4879 17.7249 17.6127C19.0111 17.927 20.1861 18.5852 21.1225 19.516C22.0589 20.4467 22.721 21.6146 23.037 22.8928C24.0318 23.1344 25.0669 23.1634 26.074 22.9782C27.081 22.793 28.037 22.3976 28.879 21.8182C29.721 21.2388 30.4297 20.4885 30.9586 19.6169C31.4874 18.7453 31.8242 17.7721 31.9468 16.7616C32.0694 15.7511 31.975 14.7263 31.6699 13.7547C31.3647 12.7832 30.8557 11.8869 30.1764 11.1252C29.4972 10.3635 28.6631 9.75361 27.7293 9.33577C26.7954 8.91792 25.7831 8.70163 24.7589 8.70117V8.70276Z" fill="#4494F7"/>
<path d="M14.2783 17.6127C14.5555 16.4879 14.5555 15.3132 14.2783 14.1884C12.9922 13.8744 11.8171 13.2164 10.8805 12.2857C9.94395 11.3551 9.28167 10.1873 8.96552 8.90911C7.89935 8.65003 6.78789 8.63515 5.71508 8.86558C4.64228 9.09601 3.6362 9.56573 2.77284 10.2393C1.90948 10.9128 1.21143 11.7725 0.731407 12.7534C0.251385 13.7344 0.00195313 14.8109 0.00195312 15.9018C0.00195313 16.9926 0.251385 18.0691 0.731407 19.0501C1.21143 20.031 1.90948 20.8907 2.77284 21.5643C3.6362 22.2378 4.64228 22.7075 5.71508 22.9379C6.78789 23.1684 7.89935 23.1535 8.96552 22.8944C9.28137 21.6158 9.94351 20.4476 10.8801 19.5165C11.8167 18.5854 12.9919 17.927 14.2783 17.6127V17.6127Z" fill="#005CF4"/>
<path d="M17.7236 14.1903C19.0098 13.8759 20.1848 13.2177 21.1214 12.2869C22.0579 11.3562 22.7202 10.1884 23.0365 8.91016C21.7503 9.22448 20.5753 9.88271 19.6387 10.8135C18.7022 11.7442 18.0399 12.912 17.7236 14.1903V14.1903Z" fill="#186EF9"/>
<path d="M17.7236 17.6128C18.0397 18.8911 18.7019 20.0591 19.6385 20.9899C20.575 21.9207 21.7502 22.5788 23.0365 22.8929C22.7202 21.6147 22.0579 20.4469 21.1214 19.5161C20.1848 18.5853 19.0098 17.9271 17.7236 17.6128V17.6128Z" fill="#0246F2"/>
<path d="M14.2782 14.1903C13.9619 12.912 13.2996 11.7442 12.3631 10.8135C11.4265 9.88271 10.2515 9.22448 8.96533 8.91016C9.28161 10.1884 9.94391 11.3562 10.8804 12.2869C11.817 13.2177 12.992 13.8759 14.2782 14.1903V14.1903Z" fill="#0046F8"/>
<path d="M14.2782 17.6128C12.992 17.9271 11.817 18.5853 10.8804 19.5161C9.94391 20.4469 9.28161 21.6147 8.96533 22.8929C10.2515 22.5786 11.4265 21.9203 12.3631 20.9896C13.2996 20.0588 13.9619 18.891 14.2782 17.6128V17.6128Z" fill="#0729F1"/>
<path d="M14.2782 14.1899C15.41 14.4654 16.5919 14.4654 17.7237 14.1899C18.04 12.9117 18.7023 11.7439 19.6388 10.8131C20.5754 9.88237 21.7504 9.22414 23.0366 8.90982C23.2972 7.85022 23.3122 6.7456 23.0804 5.67941C22.8485 4.61321 22.3759 3.61333 21.6982 2.75529C21.0205 1.89725 20.1554 1.20349 19.1684 0.726425C18.1814 0.249361 17.0981 0.00146484 16.0006 0.00146484C14.903 0.00146484 13.8198 0.249361 12.8327 0.726425C11.8457 1.20349 10.9807 1.89725 10.303 2.75529C9.62527 3.61333 9.15264 4.61321 8.92079 5.67941C8.68893 6.7456 8.7039 7.85022 8.96458 8.90982C10.251 9.22377 11.4263 9.88186 12.3631 10.8127C13.2998 11.7435 13.9621 12.9115 14.2782 14.1899V14.1899Z" fill="#7ABDF7"/>
<path d="M17.7234 17.6128C16.5916 17.3374 15.4097 17.3374 14.2779 17.6128C13.9616 18.891 13.2993 20.0588 12.3628 20.9896C11.4263 21.9204 10.2512 22.5786 8.96507 22.8929C8.70439 23.9525 8.68941 25.0572 8.92127 26.1233C9.15313 27.1895 9.62576 28.1894 10.3035 29.0475C10.9812 29.9055 11.8462 30.5993 12.8332 31.0763C13.8203 31.5534 14.9035 31.8013 16.0011 31.8013C17.0986 31.8013 18.1818 31.5534 19.1689 31.0763C20.1559 30.5993 21.021 29.9055 21.6987 29.0475C22.3764 28.1894 22.849 27.1895 23.0808 26.1233C23.3127 25.0572 23.2977 23.9525 23.037 22.8929C21.7506 22.579 20.5753 21.9209 19.6386 20.9901C18.7019 20.0593 18.0395 18.8913 17.7234 17.6128Z" fill="#0D74F5"/>
<path d="M24.7589 8.70276C24.1787 8.70268 23.6006 8.77197 23.037 8.90914C22.721 10.1873 22.0589 11.3551 21.1225 12.2858C20.1861 13.2164 19.011 13.8745 17.7249 14.1885C17.4478 15.3133 17.4478 16.4879 17.7249 17.6127C19.0111 17.927 20.1861 18.5852 21.1225 19.516C22.0589 20.4467 22.721 21.6146 23.037 22.8928C24.0318 23.1344 25.0669 23.1634 26.074 22.9782C27.081 22.793 28.037 22.3976 28.879 21.8182C29.721 21.2388 30.4297 20.4885 30.9586 19.6169C31.4874 18.7453 31.8242 17.7721 31.9468 16.7616C32.0694 15.7511 31.975 14.7263 31.6699 13.7547C31.3647 12.7832 30.8557 11.8869 30.1764 11.1252C29.4972 10.3635 28.6631 9.75361 27.7293 9.33577C26.7954 8.91792 25.7831 8.70163 24.7589 8.70117V8.70276Z" fill="#4494F7"/>
<path d="M14.2783 17.6127C14.5555 16.4879 14.5555 15.3132 14.2783 14.1884C12.9922 13.8744 11.8171 13.2164 10.8805 12.2857C9.94395 11.3551 9.28167 10.1873 8.96552 8.90911C7.89935 8.65003 6.78789 8.63515 5.71508 8.86558C4.64228 9.09601 3.6362 9.56573 2.77284 10.2393C1.90948 10.9128 1.21143 11.7725 0.731407 12.7534C0.251385 13.7344 0.00195313 14.8109 0.00195312 15.9018C0.00195313 16.9926 0.251385 18.0691 0.731407 19.0501C1.21143 20.031 1.90948 20.8907 2.77284 21.5643C3.6362 22.2378 4.64228 22.7075 5.71508 22.9379C6.78789 23.1684 7.89935 23.1535 8.96552 22.8944C9.28137 21.6158 9.94351 20.4476 10.8801 19.5165C11.8167 18.5854 12.9919 17.927 14.2783 17.6127V17.6127Z" fill="#005CF4"/>
<path d="M17.7236 14.1903C19.0098 13.8759 20.1848 13.2177 21.1214 12.2869C22.0579 11.3562 22.7202 10.1884 23.0365 8.91016C21.7503 9.22448 20.5753 9.88271 19.6387 10.8135C18.7022 11.7442 18.0399 12.912 17.7236 14.1903V14.1903Z" fill="#186EF9"/>
<path d="M17.7236 17.6128C18.0397 18.8911 18.7019 20.0591 19.6385 20.9899C20.575 21.9207 21.7502 22.5788 23.0365 22.8929C22.7202 21.6147 22.0579 20.4469 21.1214 19.5161C20.1848 18.5853 19.0098 17.9271 17.7236 17.6128V17.6128Z" fill="#0246F2"/>
<path d="M14.2782 14.1903C13.9619 12.912 13.2996 11.7442 12.3631 10.8135C11.4265 9.88271 10.2515 9.22448 8.96533 8.91016C9.28161 10.1884 9.94391 11.3562 10.8804 12.2869C11.817 13.2177 12.992 13.8759 14.2782 14.1903V14.1903Z" fill="#0046F8"/>
<path d="M14.2782 17.6128C12.992 17.9271 11.817 18.5853 10.8804 19.5161C9.94391 20.4469 9.28161 21.6147 8.96533 22.8929C10.2515 22.5786 11.4265 21.9203 12.3631 20.9896C13.2996 20.0588 13.9619 18.891 14.2782 17.6128V17.6128Z" fill="#0729F1"/>
</svg>
