<svg width="32" height="32" viewBox="0 0 32 32" fill="none" xmlns="http://www.w3.org/2000/svg">
<path d="M6.99962 5.62034C7.99935 5.62034 8.80979 4.8099 8.80979 3.81017C8.80979 2.81044 7.99935 2 6.99962 2C5.99989 2 5.18945 2.81044 5.18945 3.81017C5.18945 4.8099 5.99989 5.62034 6.99962 5.62034Z" fill="#CBAAFF"/>
<path d="M1.27924 4.5575C1.9852 4.5575 2.5575 3.9852 2.5575 3.27924C2.5575 2.57327 1.9852 2.00098 1.27924 2.00098C0.573273 2.00098 0.000976562 2.57327 0.000976562 3.27924C0.000976562 3.9852 0.573273 4.5575 1.27924 4.5575Z" fill="#CBAAFF"/>
<path d="M19.5745 30.1239C26.2046 29.3455 31.5375 23.9241 31.9717 17.0253C32.1022 14.9496 31.7715 12.8708 31.0032 10.9381C30.2348 9.00537 29.048 7.26682 27.528 5.8473C26.0079 4.42777 24.1923 3.36251 22.2116 2.72803C20.231 2.09355 18.1344 1.9056 16.0724 2.17768C14.888 2.28875 13.7274 2.5798 12.6307 3.04079C11.3562 3.66352 10.532 4.70673 10.532 6.10175C10.5318 6.97294 10.8776 7.80854 11.4935 8.42478C12.1093 9.04101 12.9446 9.38743 13.8158 9.38783C14.1211 9.38783 15.1696 9.0551 15.4184 8.96887C16.7611 8.50126 18.208 8.41999 19.5946 8.73432C20.9812 9.04866 22.2516 9.74597 23.2614 10.7469C24.2711 11.7478 24.9796 13.0121 25.3061 14.3958C25.6326 15.7796 25.5641 17.2272 25.1083 18.5739C24.6525 19.9206 23.8278 21.1123 22.728 22.0134C21.6282 22.9144 20.2976 23.4886 18.8875 23.6705C17.4774 23.8524 16.0446 23.6348 14.7521 23.0425C13.4596 22.4501 12.3594 21.5067 11.5768 20.3198C10.0604 18.3357 10.4114 15.1625 10.4099 15.1236C10.3809 14.3377 10.0712 13.5882 9.53703 13.0109C9.00285 12.4337 8.27952 12.067 7.49819 11.9773C6.71686 11.8876 5.92925 12.0808 5.27815 12.522C4.62705 12.9631 4.15556 13.6229 3.94917 14.3818C3.87286 14.6566 3.83775 15.4632 3.84844 15.5708C3.53555 23.2022 9.37281 29.7164 17.0309 30.1987C17.8793 30.2496 18.7306 30.2241 19.5745 30.1224V30.1239Z" fill="#CBAAFF"/>
<path d="M4.65232 10.9072C5.94834 10.9072 6.99898 9.85655 6.99898 8.56052C6.99898 7.2645 5.94834 6.21387 4.65232 6.21387C3.3563 6.21387 2.30566 7.2645 2.30566 8.56052C2.30566 9.85655 3.3563 10.9072 4.65232 10.9072Z" fill="#CBAAFF"/>
</svg>
