<svg width="32" height="32" viewBox="0 0 32 32" fill="none" xmlns="http://www.w3.org/2000/svg">
<path d="M5.50189 18.778H5.00227V20.2181C4.99737 20.4899 4.77335 20.7068 4.50151 20.7027H0.499624C0.22741 20.7064 0.00376507 20.4892 0 20.217C0 20.2166 0 20.2166 0 20.2162V11.5054H0.00301212C0.00301212 11.5005 0.00301212 11.496 0.00301212 11.4907C0.00602418 11.2193 0.228163 11.0017 0.499624 11.0039H5.50189C7.71086 11.0039 9.5019 12.7438 9.5019 14.8902C9.5019 17.0367 7.70898 18.778 5.50189 18.778Z" fill="white"/>
<path d="M15.5003 11.0039C18.2612 11.0039 20.4965 13.1745 20.4965 15.8525C20.4965 18.5306 18.2586 20.7004 15.5003 20.7004C12.742 20.7004 10.498 18.5299 10.498 15.8525C10.498 13.1752 12.7386 11.0039 15.5003 11.0039Z" fill="white"/>
<path d="M32.0001 20.394C31.9974 20.5619 31.8589 20.696 31.6909 20.693H20.3505C20.3374 20.6963 20.3242 20.699 20.3106 20.7005C20.1412 20.7027 20.0023 20.5668 20 20.3978C20.0019 20.3349 20.0241 20.2743 20.0633 20.225L20.0576 20.214L25.6887 11.2381H25.7007C25.7372 11.074 25.8999 10.9708 26.0637 11.0073C26.1789 11.033 26.2689 11.1229 26.2945 11.2381H26.3073L31.9989 20.2739L31.9794 20.2999C31.9914 20.33 31.9982 20.3616 32.0001 20.394Z" fill="white"/>
</svg>
