<svg width="32" height="32" viewBox="0 0 32 32" fill="none" xmlns="http://www.w3.org/2000/svg">
    <defs>
        <radialGradient id="paint0_radial_811_5420" cx="0" cy="0" r="1" gradientUnits="userSpaceOnUse"
                        gradientTransform="translate(-1.4198 21.8696) rotate(-21.1644) scale(49.2736)">
            <stop offset="0.2" stop-color="#A46EF2"/>
            <stop offset="0.43" stop-color="#6D4AB8"/>
            <stop offset="0.59" stop-color="#3A297D"/>
            <stop offset="0.65" stop-color="#432F85"/>
            <stop offset="0.78" stop-color="#7952BB"/>
        </radialGradient>
        <clipPath id="clip0_811_5420">
            <rect width="32" height="32" fill="white"/>
        </clipPath>
    </defs>
    <g clip-path="url(#clip0_811_5420)">
        <path d="M16 32C19.1645 32 22.2579 31.0616 24.8891 29.3035C27.5203 27.5454 29.5711 25.0466 30.7821 22.1229C31.9931 19.1993 32.3099 15.9823 31.6926 12.8786C31.0752 9.77487 29.5513 6.92394 27.3137 4.6863C25.0761 2.44866 22.2251 0.924806 19.1214 0.307443C16.0177 -0.309921 12.8007 0.0069325 9.87706 1.21793C6.95345 2.42894 4.45459 4.4797 2.69649 7.11088C0.938384 9.74207 0 12.8355 0 16C0 20.2435 1.68571 24.3131 4.68629 27.3137C7.68687 30.3143 11.7565 32 16 32Z"
              fill="url(#paint0_radial_811_5420)"/>
        <path fill-rule="evenodd" clip-rule="evenodd"
              d="M17.4203 7.46978C17.5392 7.27761 17.7108 7.12363 17.9147 7.02613C18.1185 6.92863 18.3461 6.89172 18.5703 6.91978C19.2125 7.01339 19.8619 7.04687 20.5103 7.01978H20.7103C21.0234 7.00373 21.3372 7.00373 21.6503 7.01978C21.8193 7.04362 21.9842 7.09073 22.1403 7.15978C22.2871 7.22648 22.4157 7.3277 22.5149 7.45481C22.6142 7.58193 22.6812 7.73116 22.7103 7.88978C22.7394 8.06189 22.7394 8.23767 22.7103 8.40978C22.7103 8.54978 22.6403 8.68978 22.6003 8.82978C22.5603 8.96978 22.3903 9.44978 22.2803 9.75978C22.1703 10.0698 22.0603 10.3698 21.9803 10.6198C21.9003 10.8698 21.9103 10.8498 21.8903 10.9298C21.8933 10.9597 21.8933 10.9899 21.8903 11.0198C21.9603 11.1698 22.0503 11.3698 22.1703 11.6098C22.4103 12.0998 22.7403 12.7098 23.0803 13.3198C23.4203 13.9298 23.7603 14.5398 24.0803 14.9998L24.4103 15.5698C24.4552 15.6334 24.4953 15.7002 24.5303 15.7698V15.7698C24.6179 15.8852 24.6793 16.0183 24.7103 16.1598C24.7189 16.2429 24.7189 16.3267 24.7103 16.4098C24.7203 16.5629 24.7203 16.7166 24.7103 16.8698C24.6727 17.251 24.6059 17.6288 24.5103 17.9998C24.4303 18.3698 24.3303 18.7698 24.2203 19.1098C24.1223 19.4659 23.9669 19.8036 23.7603 20.1098C23.611 20.2894 23.423 20.433 23.2103 20.5298C23.0362 20.6062 22.8554 20.6664 22.6703 20.7098C22.3703 20.7798 22.0303 20.8198 21.7403 20.8598H21.6503C21.3909 20.8901 21.1338 20.9368 20.8803 20.9998V20.9998C20.3357 21.9151 19.546 22.6598 18.6003 23.1498C17.5771 23.7183 16.4938 24.1711 15.3703 24.4998C14.3887 24.7986 13.3858 25.0226 12.3703 25.1698C12.013 25.2279 11.6522 25.2614 11.2903 25.2698C11.1472 25.2797 11.0035 25.2797 10.8603 25.2698L10.6103 25.2098C10.4697 25.1653 10.3424 25.0862 10.2403 24.9798C10.0338 24.7533 9.86806 24.4928 9.75031 24.2098C9.61031 23.9198 9.46031 23.5498 9.31031 23.1398C8.97252 22.1593 8.70189 21.157 8.50031 20.1398C8.26232 19.0225 8.15161 17.8819 8.17031 16.7398C8.16185 15.7873 8.38491 14.847 8.82031 13.9998C8.77031 13.8498 8.69031 13.6598 8.59031 13.4098C8.49031 13.1698 8.36031 12.8798 8.27031 12.5898C8.14706 12.2703 8.07942 11.9321 8.07031 11.5898C8.07795 11.3587 8.13959 11.1327 8.25031 10.9298C8.33948 10.765 8.44681 10.6107 8.57031 10.4698C8.80803 10.179 9.07252 9.91113 9.36031 9.66978C9.76031 9.30978 10.2303 8.93978 10.4903 8.72978L10.6803 8.58978C10.7716 8.50578 10.8811 8.44416 11.0003 8.40978H11.1603H11.4403H12.1103C12.6303 8.40978 13.3003 8.40978 13.9803 8.40978H15.9803H16.9803C17.0416 8.32293 17.0919 8.22889 17.1303 8.12978V8.05978C17.2163 7.85804 17.3131 7.66108 17.4203 7.46978V7.46978ZM18.1903 9.50978C18.0584 9.67568 17.8913 9.81018 17.7011 9.90358C17.5108 9.99697 17.3022 10.0469 17.0903 10.0498H15.8903H13.8903C13.2203 10.0498 12.5703 10.0498 12.0803 10.0498H11.5303L11.3703 10.1698C11.1103 10.3798 10.7703 10.6398 10.4203 10.9598C10.1998 11.1452 9.99569 11.3493 9.81031 11.5698L9.69031 11.7198C9.7151 11.842 9.74852 11.9623 9.79031 12.0798C9.87031 12.2998 9.97031 12.5398 10.0803 12.7998C10.1803 13.0298 10.2903 13.2998 10.3703 13.5398C10.4166 13.6792 10.4468 13.8235 10.4603 13.9698C10.4898 14.1916 10.4551 14.4171 10.3603 14.6198V14.6798C9.99168 15.3128 9.81129 16.0378 9.84031 16.7698C9.83357 17.7776 9.93414 18.7833 10.1403 19.7698C10.3216 20.7071 10.5723 21.6296 10.8903 22.5298C11.0303 22.9098 11.1503 23.2198 11.2603 23.4498L11.3303 23.5798C11.5203 23.5798 11.8003 23.5798 12.1403 23.4998C13.0666 23.3551 13.982 23.1479 14.8803 22.8798C15.8832 22.5916 16.8495 22.1889 17.7603 21.6798C18.4414 21.3463 19.0136 20.8261 19.4103 20.1798C19.5086 19.9483 19.6718 19.7503 19.8803 19.6098C20.0474 19.5035 20.2294 19.4226 20.4203 19.3698C20.748 19.2795 21.0824 19.216 21.4203 19.1798H21.5003C21.8103 19.1298 22.0703 19.0998 22.2903 19.0498L22.4803 18.9898V18.9198C22.5305 18.8126 22.5739 18.7024 22.6103 18.5898C22.7057 18.2873 22.7859 17.9803 22.8503 17.6698C22.9108 17.386 22.9542 17.0988 22.9803 16.8098C22.9846 16.7632 22.9846 16.7163 22.9803 16.6698L22.8803 16.4998L22.5303 15.9098C22.2503 15.4298 21.9003 14.8198 21.5303 14.1998C21.1603 13.5798 20.8503 12.9398 20.5903 12.4198C20.4603 12.1598 20.3503 11.9198 20.2703 11.7298C20.1903 11.5398 20.1903 11.5298 20.1603 11.4298C20.1181 11.3039 20.0945 11.1725 20.0903 11.0398C20.0978 10.8851 20.1179 10.7312 20.1503 10.5798C20.1503 10.4498 20.2303 10.2998 20.2803 10.1498C20.3303 9.99978 20.4803 9.55978 20.5903 9.25978L20.7903 8.70978H20.4203C19.8128 8.71883 19.2053 8.69547 18.6003 8.63978V8.69978L18.5403 8.81978C18.4494 9.06194 18.332 9.29334 18.1903 9.50978V9.50978Z"
              fill="white"/>
    </g>
</svg>
