<svg width="32" height="32" viewBox="0 0 32 32" fill="none" xmlns="http://www.w3.org/2000/svg">
<g clip-path="url(#clip0_811_5466)">
<path d="M16 32C19.1645 32 22.2579 31.0616 24.8891 29.3035C27.5203 27.5454 29.5711 25.0466 30.7821 22.1229C31.9931 19.1993 32.3099 15.9823 31.6926 12.8786C31.0752 9.77487 29.5513 6.92394 27.3137 4.6863C25.0761 2.44866 22.2251 0.924806 19.1214 0.307443C16.0177 -0.309921 12.8007 0.0069325 9.87706 1.21793C6.95345 2.42894 4.45459 4.4797 2.69649 7.11088C0.938384 9.74207 0 12.8355 0 16C0 20.2435 1.68571 24.3131 4.68629 27.3137C7.68687 30.3143 11.7565 32 16 32Z" fill="#504960"/>
<path fill-rule="evenodd" clip-rule="evenodd" d="M16.49 10.6801C14.9057 10.536 13.309 10.7373 11.81 11.2701C10.29 11.731 8.88788 12.5157 7.7 13.5701C6.7 14.4901 6.51 15.2601 6.7 15.7601C6.88 16.2501 7.54 16.7601 8.84 16.8801C10.4235 17.0217 12.019 16.824 13.52 16.3001C15.0314 15.8331 16.4258 15.049 17.61 14.0001C18.61 13.0901 18.8 12.3101 18.61 11.8101C18.42 11.3101 17.81 10.8501 16.49 10.6801ZM5.49 16.1901C5.08 14.9601 5.8 13.6901 6.84 12.7001C8.16086 11.515 9.72363 10.6312 11.42 10.1101C13.0968 9.52211 14.8809 9.30379 16.65 9.4701C18.08 9.6501 19.42 10.2501 19.82 11.4701L20.39 13.2301C21.7519 13.2982 23.098 13.5539 24.39 13.9901C24.9254 14.1702 25.426 14.4408 25.87 14.7901C26.23 15.0685 26.4726 15.4717 26.55 15.9201C26.5553 15.9733 26.5553 16.0269 26.55 16.0801V18.7601C26.5347 19.0346 26.4564 19.3018 26.3211 19.5412C26.1858 19.7805 25.9972 19.9854 25.77 20.1401C25.2613 20.5018 24.6973 20.7787 24.1 20.9601C22.4485 21.4484 20.7319 21.6811 19.01 21.6501C17.0169 21.6989 15.0333 21.3593 13.17 20.6501C11.9597 20.9202 10.7139 20.9945 9.48 20.8701C8.05 20.6901 6.72 20.0901 6.31 18.8701L5.49 16.1901ZM15.39 20.0001C16.6032 20.2549 17.8403 20.379 19.08 20.3701C20.6701 20.3973 22.255 20.1815 23.78 19.7301C24.2416 19.597 24.6777 19.3874 25.07 19.1101C25.35 18.8901 25.38 18.7501 25.38 18.7201V17.7201C24.9901 17.9305 24.5818 18.1046 24.16 18.2401C22.5074 18.7236 20.7916 18.9562 19.07 18.9301C18.59 18.9301 18.13 18.9301 17.68 18.9301C16.9498 19.3537 16.1834 19.7118 15.39 20.0001V20.0001ZM19.3 17.7001C20.8127 17.7091 22.3187 17.4968 23.77 17.0701C24.2316 16.937 24.6677 16.7274 25.06 16.4501C25.34 16.2301 25.37 16.0901 25.37 16.0601C25.37 16.0301 25.37 15.9101 25.12 15.7101C24.7869 15.4589 24.4155 15.263 24.02 15.1301C22.9809 14.7819 21.9027 14.5636 20.81 14.4801C20.8425 15.0839 20.7286 15.6866 20.4778 16.2368C20.2271 16.7871 19.847 17.2685 19.37 17.6401L19.3 17.7001ZM19.3 13.9201C19.0521 14.2849 18.7636 14.6204 18.44 14.9201C17.116 16.0986 15.554 16.9785 13.86 17.5001C12.1832 18.0881 10.3991 18.3064 8.63 18.1401C8.18624 18.0924 7.7498 17.9916 7.33 17.8401L7.54 18.4601C7.7 18.9701 8.36 19.4601 9.68 19.6201C11.2763 19.7526 12.8824 19.5412 14.39 19.0001C15.9085 18.5357 17.3099 17.7514 18.5 16.7001C19.5 15.7801 19.7 15.0101 19.5 14.5101L19.3 13.9201Z" fill="white"/>
</g>
<defs>
<clipPath id="clip0_811_5466">
<rect width="32" height="32" fill="white"/>
</clipPath>
</defs>
</svg>
