<svg width="32" height="32" viewBox="0 0 32 32" fill="none" xmlns="http://www.w3.org/2000/svg">
<g clip-path="url(#clip0_811_5427)">
<path opacity="0.25" d="M27.4278 3.20366e-07H4.57948C3.36726 3.20366e-07 2.20469 0.481555 1.34751 1.33873C0.490343 2.1959 0.00878938 3.35847 0.00878938 4.57069V27.4276C0.00856461 28.028 0.126623 28.6225 0.356221 29.1772C0.585819 29.732 0.922459 30.2361 1.34691 30.6607C1.77136 31.0853 2.27531 31.4221 2.82996 31.6519C3.38461 31.8817 3.97911 32 4.57948 32H27.4278C28.6405 32 29.8035 31.5183 30.661 30.6608C31.5185 29.8033 32.0002 28.6403 32.0002 27.4276V4.57069C32.0002 3.97032 31.882 3.37582 31.6521 2.82117C31.4223 2.26652 31.0855 1.76257 30.6609 1.33812C30.2363 0.91367 29.7322 0.57703 29.1775 0.347432C28.6227 0.117834 28.0282 -0.000224455 27.4278 3.20366e-07V3.20366e-07Z" fill="white"/>
<path d="M24.1581 7.91597C23.6738 7.4332 23.0178 7.16211 22.334 7.16211C21.6501 7.16211 20.9941 7.4332 20.5098 7.91597L14.2279 14.1825C13.9883 14.4214 13.7982 14.7052 13.6683 15.0176C13.4735 15.4874 13.4228 16.0045 13.5224 16.5033C13.622 17.002 13.8676 17.4599 14.2279 17.8189L20.5098 24.082C20.9941 24.5647 21.6501 24.8358 22.334 24.8358C23.0178 24.8358 23.6738 24.5647 24.1581 24.082V24.082C24.3974 23.8435 24.5873 23.5601 24.7168 23.2481C24.8464 22.9361 24.9131 22.6016 24.9131 22.2638C24.9131 21.9259 24.8464 21.5914 24.7168 21.2794C24.5873 20.9674 24.3974 20.6841 24.1581 20.4456L20.3061 16.6056C20.2262 16.5258 20.1628 16.431 20.1196 16.3267C20.0542 16.1698 20.037 15.9969 20.0702 15.8302C20.1035 15.6635 20.1856 15.5105 20.3061 15.3906L24.1581 11.554C24.3973 11.3148 24.5874 11.0311 24.7177 10.719C24.9128 10.2489 24.9638 9.73147 24.8642 9.23237C24.7645 8.73328 24.5188 8.27508 24.1581 7.91597Z" fill="#04795B"/>
<path d="M20.5086 24.0787C20.7474 24.3181 21.031 24.5082 21.3432 24.638C21.6554 24.7679 21.9902 24.835 22.3283 24.8354C22.6665 24.8359 23.0014 24.7698 23.314 24.6408C23.6266 24.5119 23.9107 24.3226 24.1501 24.0838C24.3896 23.8451 24.5796 23.5615 24.7095 23.2492C24.8393 22.937 24.9064 22.6023 24.9069 22.2641C24.9074 21.926 24.8412 21.5911 24.7123 21.2785C24.5833 20.9659 24.394 20.6818 24.1553 20.4423L17.8733 14.1826C17.3911 13.6988 16.7365 13.4264 16.0534 13.4253C15.3703 13.4242 14.7148 13.6944 14.231 14.1767C13.7472 14.6589 13.4748 15.3135 13.4736 15.9966C13.4725 16.6797 13.7428 17.3352 14.225 17.819L20.5086 24.0787Z" fill="#0DB50A"/>
<path d="M17.8755 14.1824L11.5953 7.91591C11.1105 7.43344 10.4543 7.1626 9.77031 7.1626C9.08631 7.1626 8.43013 7.43344 7.94528 7.91591C7.70572 8.15441 7.51563 8.43788 7.38593 8.75004C7.25622 9.0622 7.18945 9.39691 7.18945 9.73495C7.18945 10.073 7.25622 10.4077 7.38593 10.7199C7.51563 11.032 7.70572 11.3155 7.94528 11.554L11.7955 15.3906C11.9161 15.5104 11.9982 15.6634 12.0315 15.8302C12.0647 15.9969 12.0475 16.1697 11.9821 16.3266C11.9389 16.431 11.8755 16.5258 11.7955 16.6055L7.94528 20.4421C7.70578 20.6801 7.51613 20.9634 7.38742 21.2755C7.25774 21.5876 7.19098 21.9223 7.19098 22.2603C7.19098 22.5983 7.25774 22.933 7.38742 23.2451C7.51701 23.5576 7.7071 23.8413 7.94673 24.0801C8.18637 24.3188 8.47084 24.5079 8.78378 24.6363C9.25524 24.8308 9.77364 24.8816 10.2739 24.7823C10.7741 24.6831 11.2338 24.4382 11.5953 24.0785L16.0445 19.6293L17.8704 17.8119C18.1097 17.5735 18.2996 17.2901 18.4291 16.9781C18.5587 16.6661 18.6254 16.3316 18.6254 15.9938C18.6254 15.6559 18.5587 15.3214 18.4291 15.0094C18.2996 14.6974 18.1097 14.4141 17.8704 14.1756L17.8755 14.1824Z" fill="#0AE33A"/>
<path d="M22.3318 12.3002C22.8389 12.2978 23.334 12.1452 23.7545 11.8618C24.1751 11.5783 24.5022 11.1766 24.6947 10.7073C24.8871 10.2381 24.9362 9.72238 24.8358 9.22525C24.7354 8.72813 24.49 8.27188 24.1306 7.9141C23.7711 7.55631 23.3137 7.31303 22.8162 7.21496C22.3186 7.11688 21.8031 7.16841 21.3347 7.36303C20.8664 7.55766 20.4662 7.88666 20.1847 8.30851C19.9032 8.73037 19.7529 9.22616 19.7529 9.73332C19.7529 10.0714 19.8197 10.4062 19.9495 10.7184C20.0792 11.0306 20.2693 11.3141 20.509 11.5526C20.7486 11.7911 21.033 11.9799 21.3458 12.1082C21.6586 12.2365 21.9937 12.3017 22.3318 12.3002V12.3002Z" fill="#0AE33A"/>
</g>
<defs>
<clipPath id="clip0_811_5427">
<rect width="32" height="32" fill="white"/>
</clipPath>
</defs>
</svg>
