<?xml version="1.0" encoding="utf-8"?>
<!-- Generator: Adobe Illustrator 22.1.0, SVG Export Plug-In . SVG Version: 6.00 Build 0)  -->
<svg version="1.1" id="Layer_1" xmlns="http://www.w3.org/2000/svg" xmlns:xlink="http://www.w3.org/1999/xlink" x="0px" y="0px"
	 width="100px" height="100px" viewBox="0 0 100 100" enable-background="new 0 0 100 100" xml:space="preserve">
<g>
	<path fill="#FFFFFF" d="M34.075,64.695h43.016V52.792l-8.172-4.686l-1.41-0.609l-33.434,0.23V64.695z"/>
	<path fill="#F38020" d="M62.212,63.115c0.4-1.371,0.248-2.628-0.418-3.563c-0.609-0.857-1.639-1.353-2.876-1.41l-23.451-0.305
		c-0.152,0-0.284-0.077-0.362-0.191c-0.077-0.114-0.095-0.264-0.057-0.418c0.077-0.23,0.305-0.4,0.553-0.418l23.66-0.305
		c2.803-0.134,5.85-2.401,6.914-5.18l1.353-3.524c0.06-0.145,0.074-0.304,0.041-0.457c-1.523-6.896-7.678-12.039-15.031-12.039
		c-6.784,0-12.533,4.381-14.592,10.461c-1.335-0.991-3.047-1.523-4.859-1.353c-3.258,0.325-5.891,2.933-6.191,6.191
		c-0.079,0.81-0.021,1.628,0.171,2.419c-5.33,0.144-9.574,4.511-9.565,9.843c0,0.475,0.041,0.955,0.095,1.428
		c0.041,0.23,0.23,0.4,0.457,0.4h43.282c0.255-0.005,0.479-0.174,0.552-0.418L62.212,63.115z"/>
	<path fill="#FAAE40" d="M69.679,48.045l-0.65,0.02c-0.152,0-0.284,0.114-0.345,0.264l-0.914,3.181
		c-0.4,1.371-0.248,2.628,0.418,3.563c0.609,0.857,1.639,1.353,2.876,1.41l4.991,0.305c0.152,0,0.284,0.077,0.362,0.191
		s0.095,0.284,0.057,0.418c-0.077,0.23-0.305,0.4-0.552,0.418l-5.2,0.305c-2.819,0.134-5.85,2.401-6.914,5.18l-0.382,0.971
		c-0.077,0.191,0.057,0.382,0.264,0.382h17.869c0.213,0.003,0.401-0.138,0.457-0.343c0.317-1.127,0.48-2.291,0.485-3.461
		c-0.02-7.069-5.752-12.792-12.821-12.801"/>
</g>
</svg>
