<?xml version="1.0" encoding="utf-8"?>
<!-- Generator: Adobe Illustrator 22.1.0, SVG Export Plug-In . SVG Version: 6.00 Build 0)  -->
<svg version="1.1" id="Layer_1" xmlns="http://www.w3.org/2000/svg" xmlns:xlink="http://www.w3.org/1999/xlink" x="0px" y="0px"
	 width="100px" height="100px" viewBox="0 0 100 100" enable-background="new 0 0 100 100" xml:space="preserve">
<g id="surface1">
	<path fill="#FF9100" d="M50,25c-13.809,0-25,11.191-25,25c0,9.244,5.029,17.29,12.485,21.621l5.63-9.731
		C39.014,59.511,36.25,55.083,36.25,50c0-7.592,6.158-13.75,13.75-13.75S63.75,42.408,63.75,50c0,5.083-2.762,9.513-6.865,11.89
		l5.63,9.731C69.971,67.29,75,59.244,75,50C75,36.191,63.809,25,50,25z"/>
	<path fill="#1A237E" d="M57.5,50c0-4.141-3.36-7.5-7.5-7.5c-4.141,0-7.5,3.36-7.5,7.5c0.002,3.104,1.916,5.886,4.815,6.997
		l-3.199,17.275C46.041,74.749,48.017,74.993,50,75c2.031,0,3.994-0.269,5.884-0.722l-3.199-17.28
		C55.584,55.886,57.498,53.104,57.5,50z"/>
</g>
</svg>
