<?xml version="1.0" encoding="utf-8"?>
<!-- Generator: Adobe Illustrator 22.1.0, SVG Export Plug-In . SVG Version: 6.00 Build 0)  -->
<svg version="1.1" id="Layer_1" xmlns="http://www.w3.org/2000/svg" xmlns:xlink="http://www.w3.org/1999/xlink" x="0px" y="0px"
	 width="100px" height="100px" viewBox="0 0 100 100" enable-background="new 0 0 100 100" xml:space="preserve">
<title>logo-v-primary</title>
<g>
	<circle fill="#5F45BA" cx="30.871" cy="28.208" r="3.208"/>
	<circle fill="#5F45BA" cx="20.737" cy="27.265" r="2.265"/>
	<path fill="#5F45BA" d="M53.156,74.822c13.671-1.716,23.363-14.189,21.647-27.86S60.614,23.6,46.943,25.315l0,0
		c-2.098,0.196-4.153,0.712-6.095,1.528c-2.259,1.104-3.727,2.95-3.727,5.424c0,3.214,2.606,5.82,5.82,5.82
		c0.539,0,2.4-0.573,2.838-0.743c7.014-2.448,14.685,1.253,17.133,8.267c2.448,7.014-1.253,14.685-8.267,17.133
		c-5.816,2.03-12.268-0.15-15.661-5.292l0,0c-2.686-3.515-2.067-9.137-2.07-9.206c-0.109-3.216-2.805-5.734-6.02-5.624
		c-2.559,0.087-4.762,1.835-5.427,4.308c-0.123,0.695-0.182,1.399-0.178,2.104C24.711,62.786,35.388,74.4,49.138,74.978
		C50.479,75.034,51.823,74.982,53.156,74.822z"/>
	<circle fill="#5F45BA" cx="26.714" cy="36.623" r="4.157"/>
</g>
</svg>
