<?xml version="1.0" encoding="utf-8"?>
<!-- Generator: Adobe Illustrator 22.1.0, SVG Export Plug-In . SVG Version: 6.00 Build 0)  -->
<svg version="1.1" id="Layer_1" xmlns="http://www.w3.org/2000/svg" xmlns:xlink="http://www.w3.org/1999/xlink" x="0px" y="0px"
	 width="100px" height="100px" viewBox="0 0 100 100" enable-background="new 0 0 100 100" xml:space="preserve">
<g>
	<path fill="#FFFCDB" d="M45.176,27.928l5.669,2.352c0,1.442-0.117,5.838,0.784,7.135c9.427,12.142,7.841,36.481-1.909,37.105
		c-14.848,0-20.513-10.087-20.513-19.358c0-8.455,10.136-14.077,16.189-19.071c1.538-1.346,1.27-4.318-0.219-8.162L45.176,27.928z"
		/>
	
		<linearGradient id="SVGID_1_" gradientUnits="userSpaceOnUse" x1="-16.8527" y1="172.901" x2="-16.8527" y2="211.6786" gradientTransform="matrix(1.6132 0 0 -1.6132 87.8517 353.2553)">
		<stop  offset="0" style="stop-color:#482957"/>
		<stop  offset="1" style="stop-color:#C19ED3"/>
	</linearGradient>
	<path fill="url(#SVGID_1_)" d="M50.848,30.212l2.043,1.042c-0.192,1.344,0.098,4.325,1.442,5.092
		c5.957,3.7,11.577,7.733,13.787,11.769c7.878,14.221-5.525,27.381-17.102,26.133c6.292-4.66,8.118-14.221,5.767-24.642
		c-0.962-4.083-2.451-7.782-5.092-11.96c-1.147-2.051-0.745-4.596-0.842-7.43L50.848,30.212z"/>
	<path fill="#ABCD03" d="M53.13,14.855l-1.73,6.869c2.45-4.852,6.341-8.501,10.808-11.72c-3.266,3.795-6.246,7.591-8.07,11.375
		c3.074-4.324,7.205-6.725,11.865-8.311c-6.195,5.525-11.116,11.452-14.864,17.41l-2.978-1.297
		c0.528-4.756,2.326-9.628,4.966-14.335L53.13,14.855z"/>
	<path fill="#437202" d="M62.218,10c-2.221,2.371-6.066,6.532-8.128,10.168c-1.757,3.102-2.964,5.86-3.634,7.716
		c-0.429,1.188-2.166,1.175-1.666-0.788c0.005-0.02,0.012-0.034,0.017-0.054c0.67-1.58,1.684-3.788,2.704-5.728l1.611-6.462
		c-0.794,2.728-1.932,5.212-2.63,8.038c0.001,0-1.229,2.826-1.558,3.555c-0.102,0.244-0.203,0.479-0.286,0.699
		c-0.006,0.014-0.013,0.022-0.017,0.037c-0.139,0.31-0.234,0.65-0.305,0.949c-0.01,0.049-0.008,0.078-0.017,0.126
		c-0.091,0.425-0.144,0.752-0.144,0.752c0.501,0.432,2.972,1.503,2.972,1.503c3.748-5.957,8.679-11.893,14.876-17.418
		c-4.66,1.584-8.795,3.981-11.869,8.308c1.826-3.795,4.807-7.591,8.074-11.375L62.218,10z"/>
	<path fill="#153902" d="M50.599,30.091l0.538,0.406c3.748-5.957,8.679-11.893,14.876-17.418c-3.555,2.908-8.328,6.913-10.347,9.56
		c-2.554,3.346-1.051,0.203-1.051,0.203s1.353-3.5,3.735-5.696c-1.384,0.66-3.783,3.656-4.205,4.239c0,0-1.802,3.497-2.806,6.66
		c-0.27,0.848-0.741,2.046-0.741,2.046L50.599,30.091z"/>
	<path fill="#F3ECAA" d="M49.222,29.602v44.915h0.501c9.752-0.625,11.345-24.968,1.915-37.111c-0.901-1.297-0.788-5.683-0.788-7.125
		L49.222,29.602z"/>
	<path d="M49.864,29.843l4.227,0.577c-1.249,4.132,2.451,7.014,3.651,7.686c2.689,1.489,5.284,3.027,7.35,4.899
		c3.89,3.555,6.101,8.552,6.101,13.835c0,5.237-2.402,10.28-6.437,13.643C60.962,73.655,55.725,75,50.633,75
		c-3.171,0-6.005-0.144-9.08-1.153c-7.014-2.354-12.248-8.359-12.682-15.564c-0.386-5.62,0.863-9.896,5.237-14.364
		c2.258-2.354,6.821-5.044,9.943-7.206c1.538-1.056,3.171-4.035,0.048-9.656l0.625-0.48l4.627,3.1l-3.907-1.611
		c0.335,0.48,1.249,2.643,1.442,3.266c0.433,1.777,0.241,3.507-0.144,4.266c-1.97,3.555-5.332,4.515-7.782,6.534
		c-4.324,3.555-9.031,6.388-8.503,16.141c0.241,4.804,3.987,10.664,9.608,13.403c3.171,1.538,6.822,2.163,10.522,2.353
		c3.314,0.144,9.656-1.825,13.115-4.707c3.699-3.074,5.765-7.734,5.765-12.49c0-4.804-1.922-9.368-5.525-12.587
		c-2.066-1.874-5.476-4.132-7.59-5.332c-2.114-1.2-4.756-4.563-3.89-7.782L49.864,29.843z"/>
	<path d="M48.568,36.955c-0.433,2.21-0.914,6.197-2.834,7.686l-2.498,1.718c-3.458,2.354-6.916,4.563-8.503,10.232
		c-0.335,1.2-0.048,2.498,0.241,3.699c0.863,3.458,3.314,7.206,5.237,9.415c0,0.095,0.386,0.335,0.386,0.433
		c1.584,1.874,2.066,2.402,8.07,3.748l-0.144,0.672c-3.602-0.96-6.581-1.825-8.455-3.987c0-0.048-0.335-0.386-0.335-0.386
		c-2.018-2.305-4.469-6.149-5.381-9.752c-0.335-1.442-0.625-2.546-0.241-4.035c1.633-5.86,5.188-8.166,8.791-10.616
		c0.817-0.528,1.777-1.01,2.546-1.633c1.489-1.104,2.305-4.467,3.122-7.205L48.568,36.955z"/>
	<path d="M50.104,46.081c0.048,2.498-0.196,3.752,0.429,5.529c0.384,1.056,1.682,2.498,2.067,3.89
		c0.528,1.874,1.104,3.941,1.056,5.188c0,1.442-0.102,4.131-0.714,7.013c-0.477,2.382-1.574,4.425-3.419,5.584
		c-1.889-0.389-4.109-1.054-5.419-2.176c-2.546-2.21-4.801-5.905-5.078-9.123c-0.24-2.643,2.206-6.539,5.616-8.508
		c2.882-1.681,3.553-3.597,4.177-6.673c-0.863,2.691-1.676,4.946-4.463,6.386c-4.035,2.112-6.106,5.662-5.914,9.025
		c0.288,4.324,2.019,7.252,5.431,9.608c1.442,1.009,4.134,2.075,5.814,2.363v-0.219c1.275-0.24,2.925-2.333,3.758-5.166
		c0.711-2.546,1.016-5.804,0.957-7.871c-0.048-1.2-0.579-3.802-1.539-6.155c-0.528-1.297-1.341-2.594-1.869-3.507
		c-0.577-0.914-0.581-2.882-0.869-5.188L50.104,46.081z M49.817,55.5c0.048,1.681,0.723,3.835,1.012,6.046
		c0.241,1.633,0.136,3.274,0.088,4.716c-0.048,1.668-0.603,4.658-1.363,6.112c-0.716-0.329-0.995-0.704-1.463-1.308
		c-0.576-0.817-0.967-1.625-1.351-2.594c-0.288-0.711-0.625-1.546-0.77-2.507c-0.297-2.119,0.239-4.27,1.495-6.002
		c1.249-1.825,1.536-1.965,1.967-4.078c-0.577,1.874-1.016,2.065-2.352,3.649c-1.489,1.73-1.727,4.266-1.727,6.343
		c0,0.865,0.345,1.824,0.68,2.737c0.384,0.961,0.714,1.917,1.242,2.638c0.794,1.168,1.811,1.832,2.309,1.956
		c0.022,0.002,0.034,0.01,0.044,0.01v-0.055c0.932-1.039,1.493-2.072,1.682-3.111c0.241-1.249,0.305-2.5,0.44-3.991
		c0.144-1.249,0.041-2.931-0.297-4.672c-0.479-2.161-1.29-4.365-1.625-5.891L49.817,55.5z"/>
	<path d="M49.959,34.936c0.048,2.498,0.24,7.158,0.912,8.983c0.193,0.625,1.97,3.362,3.22,6.677
		c0.865,2.305,1.056,4.418,1.201,5.044c0.577,2.738-0.144,7.35-1.107,11.72c-0.479,2.353-2.112,5.284-3.986,6.437l-0.384,0.672
		c1.056-0.048,3.651-2.594,4.563-5.765c1.537-5.381,2.163-7.878,1.442-13.836c-0.095-0.577-0.335-2.545-1.249-4.66
		c-1.345-3.22-3.266-6.293-3.507-6.916c-0.432-1.009-1.009-5.38-1.104-8.359L49.959,34.936z"/>
	<path d="M50.861,31.521c-0.142,2.567-0.181,3.512,0.3,5.386c0.528,2.066,3.22,5.044,4.324,8.455
		c2.112,6.534,1.584,15.084,0.048,21.762c-0.577,2.353-3.315,5.765-6.053,6.87l2.018,0.48c1.105-0.049,3.939-2.689,5.044-5.718
		c1.777-4.756,2.112-10.424,1.393-16.382c-0.049-0.577-1.01-5.718-1.922-7.878c-1.297-3.22-3.602-6.101-3.843-6.725
		c-0.432-1.056-1.381-3.252-1.308-6.251L50.861,31.521z"/>
	<path d="M49.334,29.703c0.02-0.002,0.041,1.148,0.059,3.364l0.038,9.585l0.006,14.351L49.414,73.95h0.034l0.045-39.731l0.028-4.509
		c-0.122,0.002-0.187-0.003-0.187-0.008s0.064-0.01,0.201-0.007l0.028,4.466l0.023,9.869l0.02,30.08h-0.353l-0.022-17.016
		l0.006-14.409l0.038-9.614l0.059-3.369L49.334,29.703z"/>
</g>
</svg>
