<?xml version="1.0" encoding="utf-8"?>
<!-- Generator: Adobe Illustrator 22.1.0, SVG Export Plug-In . SVG Version: 6.00 Build 0)  -->
<svg version="1.1" id="Layer_1" xmlns="http://www.w3.org/2000/svg" xmlns:xlink="http://www.w3.org/1999/xlink" x="0px" y="0px"
	 width="100px" height="100px" viewBox="0 0 100 100" enable-background="new 0 0 100 100" xml:space="preserve">
<path fill="#88171A" d="M74.957,49.26c0,0,1.156-24.26-25.506-24.26c-23.58,0-24.316,23.272-24.316,23.272S21.666,75,49.994,75
	C77.163,75,74.957,49.26,74.957,49.26z M41.991,40.784c5.003-3.061,11.395-1.19,13.789,3.413c0.453,0.873,0.512,2.215,0.224,3.13
	c-0.992,3.159-3.336,4.931-6.552,5.684c0.948-0.812,1.703-1.732,1.943-3.004c0.253-1.219-0.022-2.488-0.757-3.493
	c-1.171-1.608-3.266-2.247-5.135-1.565c-1.98,0.752-3.065,2.559-2.87,4.781c0.181,2.062,1.748,3.401,4.677,3.909l-1.105,0.586
	c-1.342,0.734-2.509,1.75-3.424,2.978c-0.297,0.402-0.502,0.434-0.955,0.156c-5.891-3.594-6.268-12.641,0.156-16.575H41.991z
	 M37.583,63.039c-0.938,0.24-1.863,0.595-2.83,0.914c0.473-3.191,4.219-6.131,7.372-5.797c-0.916,1.262-1.45,2.759-1.541,4.316
	C39.534,62.666,38.552,62.795,37.583,63.039L37.583,63.039z M57.714,31.875c0.935,0.034,1.872,0.02,2.807,0.042
	c0.234,0.015,0.466,0.048,0.695,0.097c-0.209,0.312-0.445,0.625-0.706,0.906c-0.334,0.312-0.712,0.625-1.195,0.143
	c-0.116-0.114-0.391-0.088-0.591-0.091c-0.938-0.012-1.862-0.042-2.791-0.008c-0.806,0.026-1.609,0.108-2.404,0.245
	c-0.156,0.027-0.372,0.522-0.303,0.705c0.162,0.431,0.397,0.906,0.746,1.181c1.289,1.018,2.662,1.933,3.958,2.944
	c1.259,0.983,2.431,2.059,3.146,3.542c0.938,1.932,0.958,3.957,0.556,5.992c-0.67,3.396-2.389,6.211-5.172,8.254
	c-1.121,0.823-2.51,1.291-3.795,1.875c-1.13,0.52-2.292,0.969-3.425,1.484c-2.041,0.928-3.189,3.144-2.852,5.448
	c0.309,2.114,2.164,3.878,4.297,4.242c2.548,0.438,5.178-1.219,5.802-3.81c0.701-2.914-0.881-5.514-3.844-6.302l-0.534-0.137
	c0.792-0.354,1.484-0.606,2.109-0.953c1.103-0.607,2.185-1.249,3.247-1.927c0.313-0.2,0.481-0.2,0.748,0.031
	c2.038,1.762,3.253,3.953,3.594,6.641c0.564,4.448-1.541,8.533-5.512,10.627c-6.143,3.24-13.661-0.448-15.017-7.266
	c-1.163-5.834,2.955-11.125,7.91-12.147c2.131-0.439,4.08-1.327,5.595-2.969c0.977-1.059,1.452-1.969,1.612-2.377
	c0.301-0.768,0.454-1.587,0.453-2.412c-0.033-0.714-0.2-1.415-0.495-2.066c-0.517-1.172-2.5-3.047-2.99-3.451l-4.666-3.653
	c-0.156-0.135-0.35-0.125-0.752-0.098c-0.469,0.031-1.695,0.1-2.222-0.039c0.426-0.322,1.586-0.791,2.084-1.168
	c-1.513-1.022-3.238-0.652-4.823-0.958c0.367-0.683,2.188-1.732,3.203-1.848c-0.061-0.576-0.155-1.148-0.281-1.713
	c-0.062-0.232-0.322-0.457-0.547-0.589c-0.547-0.312-1.128-0.586-1.758-0.906c0.564-0.364,1.217-0.567,1.888-0.584
	c0.636-0.023,1.272,0.038,1.891,0.184c1.123,0.258,2.02,0.089,2.914-0.675c-0.703-0.284-1.406-0.542-2.09-0.848
	c-0.67-0.304-1.322-0.644-1.955-1.019c1.77,0.246,3.483,0.909,5.293,0.667c0.016-0.082,0.031-0.165,0.047-0.247l-4.219-0.972
	c2.508-0.229,4.84-0.267,7.051,0.809c0.622,0.303,1.273,0.547,1.869,0.898c0.291,0.169,0.487,0.502,0.725,0.76
	c0.189,0.205,0.341,0.48,0.574,0.605c0.883,0.469,1.855,0.488,2.846,0.465l0.022-0.332c0.997,0.312,2.119,1.461,2.109,2.301
	c-1.615,0-3.229-0.006-4.844,0.008c-0.172,0.002-0.344,0.127-0.516,0.195c0.156,0.095,0.323,0.266,0.491,0.273L57.714,31.875z
	 M55.631,29.484c-0.066,0.041-0.109,0.112-0.115,0.19c-0.006,0.078,0.025,0.154,0.084,0.205c0.049,0.086,0.131,0.15,0.227,0.176
	c0.095,0.026,0.198,0.012,0.284-0.039l0.496-0.261l-0.391-0.339c-0.219-0.181-0.402-0.067-0.578,0.068H55.631z"/>
</svg>
