<svg width="20" height="20" viewBox="0 0 20 20" fill="none" xmlns="http://www.w3.org/2000/svg">
<path fill-rule="evenodd" clip-rule="evenodd" d="M9.9915 1.6665C5.3915 1.6665 1.6665 5.39984 1.6665 9.99984C1.6665 14.5998 5.3915 18.3332 9.9915 18.3332C14.5998 18.3332 18.3332 14.5998 18.3332 9.99984C18.3332 5.39984 14.5998 1.6665 9.9915 1.6665ZM9.99984 16.6665C6.3165 16.6665 3.33317 13.6832 3.33317 9.99984C3.33317 6.3165 6.3165 3.33317 9.99984 3.33317C13.6832 3.33317 16.6665 6.3165 16.6665 9.99984C16.6665 13.6832 13.6832 16.6665 9.99984 16.6665ZM9.7665 5.83317H9.8165C10.1498 5.83317 10.4165 6.09984 10.4165 6.43317V10.2165L13.6415 12.1332C13.9332 12.2998 14.0248 12.6748 13.8498 12.9582C13.6832 13.2415 13.3165 13.3248 13.0332 13.1582L9.57484 11.0832C9.3165 10.9332 9.1665 10.6582 9.1665 10.3665V6.43317C9.1665 6.09984 9.43317 5.83317 9.7665 5.83317Z" fill="white"/>
</svg>
