<svg width="24" height="24" viewBox="0 0 24 24" fill="none" xmlns="http://www.w3.org/2000/svg">
<mask id="mask0" mask-type="alpha" maskUnits="userSpaceOnUse" x="2" y="4" width="20" height="16">
<path fill-rule="evenodd" clip-rule="evenodd" d="M8.69856 8.14748H8.99856V8.93748C8.99856 9.38748 9.53856 9.60748 9.84856 9.28748L11.6386 7.49748C11.8386 7.29748 11.8386 6.98748 11.6386 6.78748L9.84856 4.99748C9.53856 4.68748 8.99856 4.90748 8.99856 5.34748V6.14748H8.72856C5.42856 6.14748 2.47856 8.50748 2.05856 11.7875C1.53856 15.7475 4.63856 19.1475 8.49856 19.1475H10.9986C11.5486 19.1475 11.9986 18.6975 11.9986 18.1475C11.9986 17.5975 11.5486 17.1475 10.9986 17.1475H8.49856C5.86856 17.1475 3.75856 14.8775 4.01856 12.1975C4.24856 9.85748 6.34856 8.14748 8.69856 8.14748ZM14.9986 19.1475H20.9986C21.5486 19.1475 21.9986 18.6975 21.9986 18.1475C21.9986 17.5975 21.5486 17.1475 20.9986 17.1475H14.9986C14.4486 17.1475 13.9986 17.5975 13.9986 18.1475C13.9986 18.6975 14.4486 19.1475 14.9986 19.1475ZM14.9986 13.6475H20.9986C21.5486 13.6475 21.9986 13.1975 21.9986 12.6475C21.9986 12.0975 21.5486 11.6475 20.9986 11.6475H14.9986C14.4486 11.6475 13.9986 12.0975 13.9986 12.6475C13.9986 13.1975 14.4486 13.6475 14.9986 13.6475ZM20.9986 8.14748H14.9986C14.4486 8.14748 13.9986 7.69748 13.9986 7.14748C13.9986 6.59748 14.4486 6.14748 14.9986 6.14748H20.9986C21.5486 6.14748 21.9986 6.59748 21.9986 7.14748C21.9986 7.69748 21.5486 8.14748 20.9986 8.14748Z" fill="white"/>
</mask>
<g mask="url(#mask0)">
<rect width="24" height="24" transform="matrix(1 0 0 -1 0 24)" fill="#3A3149"/>
</g>
</svg>
