<svg width="40" height="40" viewBox="0 0 40 40" fill="none" xmlns="http://www.w3.org/2000/svg">
  <path d="M20 0C8.96 0 0 8.96 0 20C0 31.04 8.96 40 20 40C31.04 40 40 31.04 40 20C40 8.96 31.04 0 20 0ZM20 36C11.18 36 4 28.82 4 20C4 11.18 11.18 4 20 4C28.82 4 36 11.18 36 20C36 28.82 28.82 36 20 36ZM20.62 18.28C17.08 17.38 15.94 16.4 15.94 14.94C15.94 13.26 17.52 12.08 20.14 12.08C22.9 12.08 23.94 13.4 24.02 15.36H27.44C27.34 12.68 25.7 10.22 22.46 9.42V6H17.8V9.38C14.78 10.02 12.36 11.98 12.36 15C12.36 18.58 15.34 20.38 19.68 21.42C23.58 22.34 24.36 23.72 24.36 25.16C24.36 26.22 23.58 27.94 20.16 27.94C16.96 27.94 15.7 26.5 15.52 24.66H12.08C12.28 28.06 14.8 29.98 17.8 30.6V34H22.48V30.66C25.52 30.08 27.92 28.34 27.94 25.12C27.92 20.72 24.14 19.2 20.62 18.28Z" fill="white"/>
</svg>
