<svg width="40" height="40" viewBox="0 0 40 40" fill="none" xmlns="http://www.w3.org/2000/svg">
  <path fill-rule="evenodd" clip-rule="evenodd" d="M5.85982 34.1426C2.07975 30.3624 0 25.3405 0 19.999C0 8.97259 8.97188 0.00239099 19.9996 0C31.0273 0 40 8.971 40 19.9967C40 25.3365 37.9194 30.3576 34.1442 34.1346C33.9106 34.3665 33.6738 34.5929 33.4323 34.8104C33.0306 35.1755 32.3131 34.9946 31.8492 34.4287C31.3852 33.8636 31.0082 33.4053 31.0082 33.4053L27.5972 29.9942C26.9746 29.3717 26.9746 28.3627 27.5972 27.7403C28.2198 27.1178 29.229 27.1178 29.8515 27.7403L32.3259 30.2142C34.4184 27.6996 35.6699 24.6392 35.9473 21.3763H32.5889C31.7081 21.3763 30.9946 20.6622 30.9946 19.7823C30.9946 18.9024 31.7081 18.1883 32.5889 18.1883H35.9035C35.5384 14.97 34.2199 12.0418 32.2334 9.6883L29.9711 11.9494C29.6594 12.261 29.2521 12.4164 28.8439 12.4164C28.4358 12.4164 28.0285 12.261 27.7168 11.9494C27.0942 11.3269 27.0942 10.3179 27.7168 9.69547L29.9432 7.47025C27.5813 5.59173 24.6828 4.36197 21.5142 4.06309V7.27579C21.5142 8.15567 20.7999 8.86978 19.9199 8.86978C19.0398 8.86978 18.3256 8.15567 18.3256 7.27579V4.07505C15.0429 4.41696 12.0568 5.7599 9.66619 7.78587L11.9341 10.0525C12.5566 10.6758 12.5566 11.6848 11.9341 12.3072C11.6224 12.6189 11.2143 12.7743 10.8061 12.7743C10.398 12.7743 9.99063 12.6189 9.67895 12.308L7.45013 10.0804C5.60872 12.4053 4.38909 15.2434 4.06943 18.3493H7.40947C8.28952 18.3493 9.00377 19.0634 9.00377 19.9433C9.00377 20.8231 8.28952 21.5373 7.40947 21.5373H4.05907C4.3572 24.6822 5.56647 27.6311 7.55774 30.0787L10.0257 27.6104C10.6491 26.9879 11.6583 26.9879 12.2808 27.6104C12.9034 28.232 12.9034 29.2418 12.2808 29.8643L9.72279 32.4226L8.27119 34.1808C7.71079 34.8599 6.92879 35.142 6.54298 34.7921C6.31021 34.5817 6.08223 34.3641 5.85982 34.1426ZM17.4772 22.6137C18.8762 24.0125 21.1449 24.0133 22.5447 22.6137C23.9445 21.2142 27.0502 13.041 27.0502 13.041C27.0502 13.041 18.8762 16.1469 17.4772 17.5456C16.0775 18.9459 16.0775 21.2126 17.4772 22.6137ZM19.1 19.1221C19.6157 18.6057 20.4543 18.6057 20.9701 19.1221C21.485 19.6378 21.4866 20.4746 20.9701 20.9919C20.4543 21.5075 19.6157 21.5075 19.1 20.9919C18.5834 20.4746 18.5834 19.6386 19.1 19.1221Z" fill="white"/>
</svg>
