<svg width="39" height="26" viewBox="0 0 39 26" fill="none" xmlns="http://www.w3.org/2000/svg">
  <path d="M37.6471 22.1148C37.6471 21.4651 38.1738 20.9383 38.8235 20.9383C39.4733 20.9383 40 21.4651 40 22.1148V24.4677C40 25.1175 39.4733 25.6442 38.8235 25.6442C38.1738 25.6442 37.6471 25.1175 37.6471 24.4677H27.6471C27.6471 25.1175 27.1203 25.6442 26.4706 25.6442C25.8208 25.6442 25.2941 25.1175 25.2941 24.4677H14.7059C14.7059 25.1175 14.1792 25.6442 13.5294 25.6442C12.8797 25.6442 12.3529 25.1175 12.3529 24.4677H2.35294C2.35294 25.1175 1.82622 25.6442 1.17647 25.6442C0.526724 25.6442 0 25.1175 0 24.4677V22.1148C0 21.4651 0.526724 20.9383 1.17647 20.9383C1.82622 20.9383 2.35294 21.4651 2.35294 22.1148H12.3529C12.3529 21.4651 12.8797 20.9383 13.5294 20.9383C14.1792 20.9383 14.7059 21.4651 14.7059 22.1148H25.2941C25.2941 21.4651 25.8208 20.9383 26.4706 20.9383C27.1203 20.9383 27.6471 21.4651 27.6471 22.1148H37.6471ZM35.2941 16.2324C33.3449 16.2324 31.7647 14.6523 31.7647 12.703C31.7647 10.7538 33.3449 9.17363 35.2941 9.17363C37.2434 9.17363 38.8235 10.7538 38.8235 12.703C38.8235 14.6523 37.2434 16.2324 35.2941 16.2324ZM4.70588 16.2324C2.75664 16.2324 1.17647 14.6523 1.17647 12.703C1.17647 10.7538 2.75664 9.17363 4.70588 9.17363C6.65512 9.17363 8.23529 10.7538 8.23529 12.703C8.23529 14.6523 6.65512 16.2324 4.70588 16.2324ZM13.5294 7.40892C11.5802 7.40892 10 5.82875 10 3.87951C10 1.93027 11.5802 0.350098 13.5294 0.350098C15.4787 0.350098 17.0588 1.93027 17.0588 3.87951C17.0588 5.82875 15.4787 7.40892 13.5294 7.40892ZM26.4706 7.40892C24.5213 7.40892 22.9412 5.82875 22.9412 3.87951C22.9412 1.93027 24.5213 0.350098 26.4706 0.350098C28.4198 0.350098 30 1.93027 30 3.87951C30 5.82875 28.4198 7.40892 26.4706 7.40892Z" fill="white"/>
</svg>
