<?xml version="1.0" ?><!DOCTYPE svg  PUBLIC '-//W3C//DTD SVG 1.1//EN'  'http://www.w3.org/Graphics/SVG/1.1/DTD/svg11.dtd'><svg height="64px" id="Layer_1" style="enable-background:new 0 0 64 64;" version="1.1" viewBox="0 0 64 64" width="64px" xml:space="preserve" xmlns="http://www.w3.org/2000/svg" xmlns:xlink="http://www.w3.org/1999/xlink"><g><path d="M6.911,35.133c0,6.702,2.609,13.003,7.351,17.746c0.279,0.278,0.565,0.551,0.857,0.815   c0.484,0.439,1.465,0.085,2.168-0.767l1.821-2.206l3.209-3.21c0.781-0.781,0.781-2.048,0-2.828c-0.781-0.781-2.047-0.781-2.829,0   l-3.096,3.097c-2.498-3.071-4.015-6.771-4.389-10.717h4.203c1.104,0,2-0.896,2-2s-0.896-2-2-2h-4.19   c0.401-3.897,1.931-7.458,4.241-10.375l2.796,2.795c0.391,0.39,0.902,0.585,1.414,0.585s1.024-0.195,1.415-0.586   c0.781-0.781,0.781-2.047,0-2.829l-2.845-2.844c2.999-2.542,6.745-4.227,10.863-4.656v4.016c0,1.104,0.896,2,2,2   c1.104,0,2-0.896,2-2v-4.031c3.975,0.375,7.611,1.918,10.574,4.275l-2.793,2.792c-0.781,0.781-0.781,2.047,0,2.828   c0.391,0.391,0.902,0.586,1.414,0.586s1.023-0.195,1.414-0.586l2.838-2.837c2.492,2.953,4.146,6.627,4.604,10.665h-4.158   c-1.105,0-2,0.896-2,2s0.895,2,2,2h4.213c-0.348,4.094-1.918,7.934-4.543,11.089l-3.104-3.104c-0.781-0.781-2.047-0.781-2.828,0   s-0.781,2.047,0,2.828l4.279,4.28c0,0,0.473,0.575,1.055,1.284c0.582,0.71,1.482,0.937,1.986,0.479   c0.303-0.273,0.6-0.557,0.893-0.848c4.736-4.739,7.346-11.039,7.346-17.739c0-13.834-11.256-25.09-25.09-25.09   C18.166,10.043,6.911,21.298,6.911,35.133z"/><path d="M28.836,38.414c1.755,1.755,4.601,1.756,6.357,0s5.652-12.011,5.652-12.011S30.591,30.3,28.836,32.055   C27.08,33.812,27.08,36.656,28.836,38.414z M30.871,34.033c0.647-0.648,1.699-0.648,2.346,0c0.646,0.647,0.648,1.697,0,2.346   c-0.647,0.647-1.699,0.647-2.346,0C30.223,35.73,30.223,34.681,30.871,34.033z"/></g><g/><g/><g/><g/><g/><g/></svg>