<svg width="89" height="84" viewBox="0 0 89 84" fill="none" xmlns="http://www.w3.org/2000/svg">
  <path fill-rule="evenodd" clip-rule="evenodd" d="M41.3957 55.8662C41.3989 55.3895 40.9 55.001 40.2813 54.9985C39.6627 54.9961 39.1585 55.3805 39.1553 55.8572L38.9989 78.8984C38.9788 80.079 39.8814 81.1631 40.7588 81.8392C41.7474 82.6009 43.0951 83.0158 44.4994 83.0006C45.9036 83.0158 47.2513 82.6009 48.2399 81.8392C49.1173 81.1631 50.0199 80.079 49.9998 78.8984L49.8434 55.8572C49.8402 55.3805 49.336 54.9961 48.7174 54.9985C48.0987 55.001 47.5998 55.3895 47.603 55.8662L47.7594 78.9111L47.7595 78.9192L47.7595 78.9192C47.7695 79.4444 47.3199 80.1066 46.6557 80.6184C46.1023 81.0448 45.34 81.2835 44.5292 81.2743C44.5192 81.2742 44.5093 81.2742 44.4994 81.2743C44.4894 81.2742 44.4795 81.2742 44.4695 81.2743C43.6587 81.2835 42.8964 81.0448 42.343 80.6184C41.6788 80.1066 41.2292 79.4444 41.2392 78.9192L41.2392 78.9192L41.2393 78.9111L41.3957 55.8662Z" fill="#B88DFC"/>
  <path d="M67.3984 31.7774L80.4757 31.7774" stroke="#B88DFC" stroke-width="2" stroke-linecap="round" stroke-linejoin="round"/>
  <path d="M65.3863 21.8043L74.4398 21.8043" stroke="#B88DFC" stroke-width="2" stroke-linecap="round" stroke-linejoin="round"/>
  <path d="M66.3923 40.7536L73.9368 40.7536" stroke="#B88DFC" stroke-width="2" stroke-linecap="round" stroke-linejoin="round"/>
  <path d="M87.54 31.7264C87.5407 32.4168 87.3348 33.092 86.9484 33.6662C86.5619 34.2404 86.0123 34.6881 85.369 34.9524C84.7257 35.2168 84.0177 35.2859 83.3346 35.1512C82.6515 35.0165 82.0239 34.684 81.5314 34.1956C81.0388 33.7073 80.7034 33.0851 80.5675 32.4079C80.4317 31.7306 80.5014 31.0287 80.7681 30.391C81.0347 29.7532 81.4862 29.2083 82.0655 28.8252C82.6447 28.4421 83.3256 28.2379 84.022 28.2386C84.4841 28.2381 84.9416 28.328 85.3687 28.5032C85.7957 28.6783 86.1838 28.9352 86.5106 29.2592C86.8374 29.5832 87.0965 29.9679 87.2731 30.3913C87.4498 30.8147 87.5405 31.2683 87.54 31.7264Z" fill="#B88DFC" stroke="#B88DFC" stroke-width="2" stroke-linecap="round" stroke-linejoin="round"/>
  <path d="M81.5667 21.7536C81.5669 22.444 81.3605 23.119 80.9736 23.6931C80.5868 24.2672 80.037 24.7147 79.3936 24.979C78.7503 25.2433 78.0423 25.3125 77.3592 25.1778C76.6762 25.0431 76.0487 24.7107 75.5563 24.2225C75.0638 23.7343 74.7286 23.1122 74.5927 22.4351C74.4569 21.7579 74.5267 21.056 74.7933 20.4181C75.0598 19.7803 75.5112 19.2352 76.0903 18.8517C76.6694 18.4682 77.3502 18.2635 78.0466 18.2637C78.9801 18.2639 79.8753 18.6316 80.5355 19.2861C81.1956 19.9405 81.5666 20.8281 81.5667 21.7536Z" fill="#B88DFC" stroke="#B88DFC" stroke-width="2" stroke-linecap="round" stroke-linejoin="round"/>
  <path d="M75.8224 43.1712C77.1974 44.5344 79.4266 44.5344 80.8016 43.1712C82.1766 41.8081 82.1766 39.598 80.8016 38.2348C79.4266 36.8717 77.1974 36.8717 75.8224 38.2348C74.4475 39.598 74.4475 41.8081 75.8224 43.1712Z" fill="#B88DFC" stroke="#B88DFC" stroke-width="2" stroke-linecap="round" stroke-linejoin="round"/>
  <path d="M22.1309 31.7774L9.05364 31.7774" stroke="#B88DFC" stroke-width="2" stroke-linecap="round" stroke-linejoin="round"/>
  <path d="M24.1425 21.8043L15.089 21.8043" stroke="#B88DFC" stroke-width="2" stroke-linecap="round" stroke-linejoin="round"/>
  <path d="M23.1366 40.7534L15.089 40.7534" stroke="#B88DFC" stroke-width="2" stroke-linecap="round" stroke-linejoin="round"/>
  <path d="M2.48942 34.1957C3.86438 35.5588 6.09363 35.5588 7.46859 34.1957C8.84355 32.8325 8.84355 30.6224 7.46859 29.2592C6.09363 27.8961 3.86438 27.8961 2.48942 29.2592C1.11445 30.6224 1.11445 32.8325 2.48942 34.1957Z" fill="#B88DFC" stroke="#B88DFC" stroke-width="2" stroke-linecap="round" stroke-linejoin="round"/>
  <path d="M7.6488 21.7498C7.64839 22.4405 7.85468 23.116 8.24154 23.6906C8.62841 24.2653 9.17849 24.7133 9.82214 24.978C10.4658 25.2428 11.1741 25.3123 11.8574 25.1778C12.5408 25.0433 13.1684 24.7108 13.661 24.2225C14.1536 23.7341 14.4889 23.1119 14.6246 22.4344C14.7602 21.7569 14.6901 21.0548 14.423 20.4166C14.156 19.7785 13.7041 19.2331 13.1245 18.8496C12.5448 18.4661 11.8636 18.2615 11.1668 18.262C10.2344 18.2644 9.34101 18.6325 8.68183 19.2861C8.02265 19.9396 7.65124 20.8254 7.6488 21.7498Z" fill="#B88DFC" stroke="#B88DFC" stroke-width="2" stroke-linecap="round" stroke-linejoin="round"/>
  <path d="M8.52506 43.1712C9.90002 44.5344 12.1293 44.5344 13.5042 43.1713C14.8792 41.8081 14.8792 39.598 13.5042 38.2348C12.1293 36.8717 9.90001 36.8717 8.52504 38.2348C7.15007 39.598 7.1501 41.8081 8.52506 43.1712Z" fill="#B88DFC" stroke="#B88DFC" stroke-width="2" stroke-linecap="round" stroke-linejoin="round"/>
  <path d="M23.1368 40.7536C26.8711 49.1805 35.301 55.4722 44.8781 55.4683C49.4834 55.4215 53.9761 54.0442 57.8058 51.505C61.6356 48.9658 64.5885 44.9562 66.3925 40.7536" stroke="#B88DFC" stroke-width="2" stroke-linecap="round" stroke-linejoin="round"/>
  <mask id="mask0" mask-type="alpha" maskUnits="userSpaceOnUse" x="26" y="13" width="38" height="38">
    <ellipse cx="44.7648" cy="32.2764" rx="18.61" ry="18.4502" fill="#C4C4C4"/>
  </mask>
  <g mask="url(#mask0)">
    <path d="M31.1847 24.7963V16.8179L29.1729 19.0538" stroke="#97E3EE" stroke-linecap="round" stroke-linejoin="round"/>
    <path d="M39.2321 36.7641V28.7856L37.2202 31.0215" stroke="#97E3EE" stroke-linecap="round" stroke-linejoin="round"/>
    <path d="M39.2321 48.7319V40.7534L37.2202 42.9893" stroke="#97E3EE" stroke-linecap="round" stroke-linejoin="round"/>
    <path d="M33.1969 48.7319V40.7534L31.1851 42.9893" stroke="#97E3EE" stroke-linecap="round" stroke-linejoin="round"/>
    <path d="M37.222 24.7963C36.688 24.7963 36.1758 24.5604 35.7982 24.1404C35.4206 23.7205 35.2085 23.1509 35.2085 22.557V19.0537C35.2085 18.7598 35.2606 18.4687 35.3618 18.1972C35.4631 17.9257 35.6114 17.6791 35.7984 17.4715C35.9854 17.2638 36.2074 17.0992 36.4517 16.987C36.6959 16.8749 36.9577 16.8174 37.222 16.8179V16.8179C37.7552 16.8179 38.2665 17.0534 38.6435 17.4727C39.0205 17.892 39.2323 18.4607 39.2323 19.0537V22.5746C39.2289 23.1651 39.0156 23.7302 38.639 24.1464C38.2624 24.5627 37.753 24.7963 37.222 24.7963V24.7963Z" stroke="#97E3EE" stroke-linecap="round" stroke-linejoin="round"/>
    <path d="M45.2698 36.7641C44.7358 36.7641 44.2237 36.5281 43.8461 36.1082C43.4685 35.6882 43.2563 35.1187 43.2563 34.5248V31.0214C43.2563 30.7275 43.3085 30.4365 43.4097 30.165C43.5109 29.8935 43.6593 29.6469 43.8463 29.4392C44.0333 29.2316 44.2553 29.067 44.4995 28.9548C44.7438 28.8427 45.0056 28.7852 45.2698 28.7856V28.7856C45.803 28.7856 46.3143 29.0212 46.6913 29.4405C47.0683 29.8598 47.2801 30.4285 47.2801 31.0214V34.5424C47.2768 35.1329 47.0635 35.698 46.6868 36.1142C46.3102 36.5305 45.8008 36.7641 45.2698 36.7641V36.7641Z" stroke="#97E3EE" stroke-linecap="round" stroke-linejoin="round"/>
    <path d="M45.2698 48.7319C44.7358 48.7319 44.2237 48.4959 43.8461 48.076C43.4685 47.656 43.2563 47.0864 43.2563 46.4925V42.9892C43.2563 42.6953 43.3085 42.4043 43.4097 42.1328C43.5109 41.8613 43.6593 41.6147 43.8463 41.407C44.0333 41.1994 44.2553 41.0347 44.4995 40.9226C44.7438 40.8104 45.0056 40.753 45.2698 40.7534V40.7534C45.803 40.7534 46.3143 40.989 46.6913 41.4083C47.0683 41.8276 47.2801 42.3962 47.2801 42.9892V46.5101C47.2768 47.1007 47.0635 47.6657 46.6868 48.082C46.3102 48.4982 45.8008 48.7319 45.2698 48.7319V48.7319Z" stroke="#97E3EE" stroke-linecap="round" stroke-linejoin="round"/>
    <path d="M32.1922 36.7641C31.6582 36.7641 31.146 36.5281 30.7684 36.1082C30.3908 35.6882 30.1787 35.1187 30.1787 34.5248V31.0214C30.1787 30.7275 30.2308 30.4365 30.3321 30.165C30.4333 29.8935 30.5816 29.6469 30.7686 29.4392C30.9556 29.2316 31.1776 29.067 31.4219 28.9548C31.6662 28.8427 31.9279 28.7852 32.1922 28.7856V28.7856C32.7254 28.7856 33.2367 29.0212 33.6137 29.4405C33.9907 29.8598 34.2025 30.4285 34.2025 31.0214V34.5424C34.1991 35.1329 33.9859 35.698 33.6092 36.1142C33.2326 36.5305 32.7232 36.7641 32.1922 36.7641V36.7641Z" stroke="#97E3EE" stroke-linecap="round" stroke-linejoin="round"/>
    <path d="M45.2678 24.7963V16.8179L42.25 19.0538" stroke="#97E3EE" stroke-linecap="round" stroke-linejoin="round"/>
    <path d="M53.3157 36.7641V28.7856L50.2979 31.0215" stroke="#97E3EE" stroke-linecap="round" stroke-linejoin="round"/>
    <path d="M53.3157 48.7319V40.7534L50.2979 42.9893" stroke="#97E3EE" stroke-linecap="round" stroke-linejoin="round"/>
    <path d="M50.3028 24.7963C49.7679 24.7963 49.255 24.5604 48.8768 24.1404C48.4986 23.7205 48.2861 23.1509 48.2861 22.557V19.0537C48.2861 18.7598 48.3383 18.4687 48.4397 18.1972C48.5411 17.9257 48.6897 17.6791 48.877 17.4715C49.0643 17.2638 49.2866 17.0992 49.5313 16.987C49.7759 16.8749 50.0381 16.8174 50.3028 16.8179V16.8179C50.8357 16.8197 51.3462 17.0561 51.7224 17.4752C52.0987 17.8943 52.3099 18.4619 52.3099 19.0537V22.5746C52.3066 23.1639 52.0938 23.7279 51.718 24.144C51.3421 24.56 50.8335 24.7945 50.3028 24.7963V24.7963Z" stroke="#97E3EE" stroke-linecap="round" stroke-linejoin="round"/>
    <path d="M57.3443 24.7963C56.8094 24.7963 56.2965 24.5604 55.9183 24.1404C55.5401 23.7205 55.3276 23.1509 55.3276 22.557V19.0537C55.3276 18.7598 55.3798 18.4687 55.4812 18.1972C55.5826 17.9257 55.7312 17.6791 55.9185 17.4715C56.1058 17.2638 56.3281 17.0992 56.5728 16.987C56.8174 16.8749 57.0796 16.8174 57.3443 16.8179V16.8179C57.8772 16.8197 58.3877 17.0561 58.7639 17.4752C59.1402 17.8943 59.3514 18.4619 59.3514 19.0537V22.5746C59.3481 23.1639 59.1354 23.7279 58.7595 24.144C58.3836 24.56 57.875 24.7945 57.3443 24.7963V24.7963Z" stroke="#97E3EE" stroke-linecap="round" stroke-linejoin="round"/>
    <path d="M58.3501 36.7641C57.8153 36.7641 57.3024 36.5281 56.9242 36.1082C56.546 35.6882 56.3335 35.1187 56.3335 34.5248V31.0214C56.3335 30.7275 56.3857 30.4365 56.487 30.165C56.5884 29.8935 56.737 29.6469 56.9244 29.4392C57.1117 29.2316 57.334 29.067 57.5786 28.9548C57.8233 28.8427 58.0855 28.7852 58.3501 28.7856V28.7856C58.8831 28.7875 59.3936 29.0239 59.7698 29.443C60.146 29.8621 60.3573 30.4297 60.3573 31.0214V34.5424C60.3539 35.1317 60.1412 35.6957 59.7653 36.1118C59.3895 36.5278 58.8809 36.7623 58.3501 36.7641V36.7641Z" stroke="#97E3EE" stroke-linecap="round" stroke-linejoin="round"/>
    <path d="M58.3501 48.7319C57.8153 48.7319 57.3024 48.4959 56.9242 48.076C56.546 47.656 56.3335 47.0864 56.3335 46.4925V42.9892C56.3335 42.6953 56.3857 42.4043 56.487 42.1328C56.5884 41.8613 56.737 41.6147 56.9244 41.407C57.1117 41.1994 57.334 41.0347 57.5786 40.9226C57.8233 40.8104 58.0855 40.753 58.3501 40.7534V40.7534C58.8831 40.7553 59.3936 40.9917 59.7698 41.4108C60.146 41.8299 60.3573 42.3975 60.3573 42.9892V46.5101C60.3539 47.0995 60.1412 47.6635 59.7653 48.0795C59.3895 48.4956 58.8809 48.73 58.3501 48.7319V48.7319Z" stroke="#97E3EE" stroke-linecap="round" stroke-linejoin="round"/>
  </g>
  <path d="M62.3748 32.2764C62.3748 41.9057 54.4987 49.7266 44.7648 49.7266C35.0309 49.7266 27.1548 41.9057 27.1548 32.2764C27.1548 22.647 35.0309 14.8262 44.7648 14.8262C54.4987 14.8262 62.3748 22.647 62.3748 32.2764Z" stroke="#B88DFC" stroke-width="2"/>
  <path d="M24.1426 21.8047C22.7103 24.9578 22.1618 28.346 22.1307 31.7778" stroke="#B88DFC" stroke-width="2" stroke-linecap="round" stroke-linejoin="round"/>
  <path d="M63.3496 18.838C61.2141 16.015 58.0579 13.2671 54.8818 11.6835C51.7057 10.0999 48.2039 9.2688 44.6505 9.25535C41.0974 9.27162 37.596 10.1036 34.4195 11.6865C31.2429 13.2694 28.319 16.0177 26.1796 18.838" stroke="#B88DFC" stroke-width="2" stroke-linecap="round" stroke-linejoin="round"/>
  <path d="M67.3986 31.7778C67.4436 28.3475 66.7548 24.9268 65.3867 21.8047" stroke="#B88DFC" stroke-width="2" stroke-linecap="round" stroke-linejoin="round"/>
</svg>
