<svg width="375" height="432" viewBox="0 0 375 432" fill="none" xmlns="http://www.w3.org/2000/svg">
<path fill-rule="evenodd" clip-rule="evenodd" d="M67.9299 388.475C77.0339 388.475 84.4132 381.084 84.4132 371.968C84.4132 362.852 77.0339 355.461 67.9299 355.461C58.8283 355.461 51.449 362.852 51.449 371.968C51.449 381.084 58.8283 388.475 67.9299 388.475Z" stroke="#BCA9FF" stroke-width="0.463"/>
<path fill-rule="evenodd" clip-rule="evenodd" d="M74.5356 154.931C79.5041 154.931 83.5318 150.896 83.5318 145.92C83.5318 140.946 79.5041 136.909 74.5356 136.909C69.5695 136.909 65.5393 140.946 65.5393 145.92C65.5393 150.896 69.5695 154.931 74.5356 154.931Z" stroke="#BCA9FF" stroke-width="0.925"/>
<path d="M38.602 128.856V145.508H74.5355V174.527H36.8429L36.8429 195.22L36.6372 227.198" stroke="#BCA9FF" stroke-width="0.231" stroke-linecap="round" stroke-linejoin="round"/>
<path d="M38.3014 61.2111L38.6019 130.039" stroke="#BCA9FF" stroke-width="0.231" stroke-linecap="round" stroke-linejoin="round"/>
<path d="M36.8441 227.199L97.9292 227.198V257.261L36.6372 257.262L36.6372 371.968" stroke="#BCA9FF" stroke-width="0.231" stroke-linecap="round" stroke-linejoin="round"/>
<path fill-rule="evenodd" clip-rule="evenodd" d="M36.8434 211.882C45.9475 211.882 53.3268 204.491 53.3268 195.375C53.3268 186.259 45.9475 178.868 36.8434 178.868C27.7418 178.868 20.3625 186.259 20.3625 195.375C20.3625 204.491 27.7418 211.882 36.8434 211.882Z" stroke="#BCA9FF" stroke-width="0.463"/>
<path fill-rule="evenodd" clip-rule="evenodd" d="M37.9033 83.5125C50.3418 83.5125 60.4258 73.4125 60.4258 60.9543C60.4258 48.4936 50.3418 38.3936 37.9033 38.3936C25.4649 38.3936 15.3809 48.4936 15.3809 60.9543C15.3809 73.4125 25.4649 83.5125 37.9033 83.5125Z" stroke="#BCA9FF" stroke-width="0.463"/>
<path fill-rule="evenodd" clip-rule="evenodd" d="M74.5355 148.324C75.8609 148.324 76.934 147.249 76.934 145.921C76.934 144.594 75.8609 143.519 74.5355 143.519C73.2125 143.519 72.137 144.594 72.137 145.921C72.137 147.249 73.2125 148.324 74.5355 148.324Z" fill="#BCA9FF"/>
<path fill-rule="evenodd" clip-rule="evenodd" d="M36.8433 229.6C38.1688 229.6 39.2418 228.525 39.2418 227.198C39.2418 225.87 38.1688 224.795 36.8433 224.795C35.5204 224.795 34.4448 225.87 34.4448 227.198C34.4448 228.525 35.5204 229.6 36.8433 229.6Z" fill="#BCA9FF"/>
<path fill-rule="evenodd" clip-rule="evenodd" d="M35.9559 259.665C37.2789 259.665 38.3544 258.59 38.3544 257.262C38.3544 255.935 37.2789 254.86 35.9559 254.86C34.6305 254.86 33.5574 255.935 33.5574 257.262C33.5574 258.59 34.6305 259.665 35.9559 259.665Z" fill="#BCA9FF"/>
<path fill-rule="evenodd" clip-rule="evenodd" d="M36.8434 198.103C38.6 198.103 40.0234 196.677 40.0234 194.918C40.0234 193.158 38.6 191.733 36.8434 191.733C35.0867 191.733 33.6658 193.158 33.6658 194.918C33.6658 196.677 35.0867 198.103 36.8434 198.103Z" fill="#BCA9FF"/>
<path fill-rule="evenodd" clip-rule="evenodd" d="M130.54 417.226C131.479 418.164 132.995 418.164 133.933 417.226C134.869 416.287 134.869 414.765 133.933 413.828C132.995 412.888 131.479 412.888 130.54 413.828C129.604 414.765 129.604 416.287 130.54 417.226Z" fill="#A375FC"/>
<path fill-rule="evenodd" clip-rule="evenodd" d="M147 416C147 407.715 140.285 401 132.001 401C123.717 401 117 407.715 117 416C117 424.285 123.717 431 132.001 431C140.285 431 147 424.285 147 416Z" stroke="#B88DFC" stroke-opacity="0.6"/>
<path fill-rule="evenodd" clip-rule="evenodd" d="M257.038 416C257.038 407.715 250.323 401 242.039 401C233.755 401 227.038 407.715 227.038 416C227.038 424.285 233.755 431 242.039 431C250.323 431 257.038 424.285 257.038 416Z" stroke="#B88DFC" stroke-opacity="0.6"/>
<path fill-rule="evenodd" clip-rule="evenodd" d="M34.6875 373.624C35.6258 374.564 37.1424 374.564 38.0807 373.624C39.0166 372.687 39.0166 371.165 38.0807 370.228C37.1424 369.288 35.6258 369.288 34.6875 370.228C33.7516 371.165 33.7516 372.687 34.6875 373.624Z" fill="#A375FC"/>
<path d="M39.075 61.1955L95.7818 60.9533L95.7815 17" stroke="#BCA9FF" stroke-width="0.231" stroke-linecap="round" stroke-linejoin="round"/>
<path fill-rule="evenodd" clip-rule="evenodd" d="M95.7826 33.6284C104.884 33.6284 112.264 26.2374 112.264 17.1189C112.264 8.00526 104.884 0.614258 95.7826 0.614258C86.6786 0.614258 79.2993 8.00526 79.2993 17.1189C79.2993 26.2374 86.6786 33.6284 95.7826 33.6284Z" stroke="#8C61E1"/>
<path fill-rule="evenodd" clip-rule="evenodd" d="M279.483 33.6284C288.585 33.6284 295.964 26.2374 295.964 17.1189C295.964 8.00526 288.585 0.614258 279.483 0.614258C270.379 0.614258 263 8.00526 263 17.1189C263 26.2374 270.379 33.6284 279.483 33.6284Z" stroke="#8C61E1"/>
<path fill-rule="evenodd" clip-rule="evenodd" d="M130.383 63.3283C131.706 63.3283 132.782 62.2535 132.782 60.926C132.782 59.5985 131.706 58.5237 130.383 58.5237C129.058 58.5237 127.985 59.5985 127.985 60.926C127.985 62.2535 129.058 63.3283 130.383 63.3283Z" fill="#BCA9FF"/>
<path fill-rule="evenodd" clip-rule="evenodd" d="M95.4024 19.8007C96.7254 19.8007 97.8009 18.7259 97.8009 17.3984C97.8009 16.0709 96.7254 14.9961 95.4024 14.9961C94.077 14.9961 93.0039 16.0709 93.0039 17.3984C93.0039 18.7259 94.077 19.8007 95.4024 19.8007Z" fill="#BCA9FF"/>
<path fill-rule="evenodd" clip-rule="evenodd" d="M37.341 62.6523C38.2768 63.5896 39.7958 63.5896 40.7317 62.6523C41.67 61.7124 41.67 60.1935 40.7317 59.2537C39.7958 58.3163 38.2768 58.3163 37.341 59.2537C36.4026 60.1935 36.4026 61.7124 37.341 62.6523Z" fill="#A375FC"/>
<path fill-rule="evenodd" clip-rule="evenodd" d="M66.8102 300.731C67.7461 301.671 69.2651 301.671 70.2009 300.731C71.1393 299.794 71.1393 298.272 70.2009 297.335C69.2651 296.395 67.7461 296.395 66.8102 297.335C65.8719 298.272 65.8719 299.794 66.8102 300.731Z" fill="#A375FC"/>
<path fill-rule="evenodd" clip-rule="evenodd" d="M98.4323 300.731C99.3682 301.671 100.887 301.671 101.823 300.731C102.761 299.794 102.761 298.272 101.823 297.335C100.887 296.395 99.3682 296.395 98.4323 297.335C97.4939 298.272 97.4939 299.794 98.4323 300.731Z" fill="#A375FC"/>
<path d="M132.074 413.123V361.514H99.0732V298.557H67.5719V371.756H36.6372" stroke="#BCA9FF" stroke-width="0.231"/>
<path d="M130.006 61.1954H93.981" stroke="#BCA9FF" stroke-width="0.231" stroke-linecap="round" stroke-linejoin="round"/>
<path fill-rule="evenodd" clip-rule="evenodd" d="M307.07 388.475C297.966 388.475 290.587 381.084 290.587 371.968C290.587 362.852 297.966 355.461 307.07 355.461C316.172 355.461 323.551 362.852 323.551 371.968C323.551 381.084 316.172 388.475 307.07 388.475Z" stroke="#B88DFC" stroke-width="0.463"/>
<path fill-rule="evenodd" clip-rule="evenodd" d="M300.465 154.931C295.496 154.931 291.468 150.896 291.468 145.92C291.468 140.946 295.496 136.909 300.465 136.909C305.431 136.909 309.461 140.946 309.461 145.92C309.461 150.896 305.431 154.931 300.465 154.931Z" stroke="#B88DFC" stroke-width="0.925"/>
<path d="M336.398 128.856V145.508H300.465V174.527H338.157V195.22L338.363 227.198" stroke="#B88DFC" stroke-width="0.231" stroke-linecap="round" stroke-linejoin="round"/>
<path d="M336.699 61.2111L336.398 130.039" stroke="#B88DFC" stroke-width="0.231" stroke-linecap="round" stroke-linejoin="round"/>
<path d="M338.156 227.199L277.071 227.198V257.261L338.363 257.262L338.363 371.968" stroke="#B88DFC" stroke-width="0.231" stroke-linecap="round" stroke-linejoin="round"/>
<path fill-rule="evenodd" clip-rule="evenodd" d="M338.157 211.882C329.053 211.882 321.673 204.491 321.673 195.375C321.673 186.259 329.053 178.868 338.157 178.868C347.258 178.868 354.638 186.259 354.638 195.375C354.638 204.491 347.258 211.882 338.157 211.882Z" stroke="#B88DFC" stroke-width="0.463"/>
<path fill-rule="evenodd" clip-rule="evenodd" d="M337.097 83.5124C324.658 83.5124 314.574 73.4123 314.574 60.9541C314.574 48.4935 324.658 38.3934 337.097 38.3934C349.535 38.3934 359.619 48.4935 359.619 60.9541C359.619 73.4123 349.535 83.5124 337.097 83.5124Z" stroke="#B88DFC" stroke-width="0.463"/>
<path fill-rule="evenodd" clip-rule="evenodd" d="M300.465 148.324C299.139 148.324 298.066 147.249 298.066 145.921C298.066 144.594 299.139 143.519 300.465 143.519C301.788 143.519 302.863 144.594 302.863 145.921C302.863 147.249 301.788 148.324 300.465 148.324Z" fill="#BCA9FF"/>
<path fill-rule="evenodd" clip-rule="evenodd" d="M338.157 229.6C336.831 229.6 335.758 228.525 335.758 227.198C335.758 225.87 336.831 224.795 338.157 224.795C339.48 224.795 340.555 225.87 340.555 227.198C340.555 228.525 339.48 229.6 338.157 229.6Z" fill="#BCA9FF"/>
<path fill-rule="evenodd" clip-rule="evenodd" d="M339.044 259.665C337.721 259.665 336.646 258.59 336.646 257.262C336.646 255.935 337.721 254.86 339.044 254.86C340.37 254.86 341.443 255.935 341.443 257.262C341.443 258.59 340.37 259.665 339.044 259.665Z" fill="#BCA9FF"/>
<path fill-rule="evenodd" clip-rule="evenodd" d="M338.157 198.103C336.4 198.103 334.977 196.677 334.977 194.918C334.977 193.158 336.4 191.733 338.157 191.733C339.913 191.733 341.334 193.158 341.334 194.918C341.334 196.677 339.913 198.103 338.157 198.103Z" fill="#BCA9FF"/>
<path fill-rule="evenodd" clip-rule="evenodd" d="M244.46 417.226C243.522 418.164 242.005 418.164 241.067 417.226C240.131 416.287 240.131 414.765 241.067 413.828C242.005 412.888 243.522 412.888 244.46 413.828C245.396 414.765 245.396 416.287 244.46 417.226Z" fill="#A375FC"/>
<path fill-rule="evenodd" clip-rule="evenodd" d="M340.313 373.624C339.374 374.564 337.858 374.564 336.92 373.624C335.984 372.687 335.984 371.165 336.92 370.228C337.858 369.288 339.374 369.288 340.313 370.228C341.249 371.165 341.249 372.687 340.313 373.624Z" fill="#A375FC"/>
<path d="M335.925 61.1954L279.218 60.9532V17.4999" stroke="#B88DFC" stroke-width="0.231" stroke-linecap="round" stroke-linejoin="round"/>
<path fill-rule="evenodd" clip-rule="evenodd" d="M279.399 19.8045C278.076 19.8045 277 18.7297 277 17.4022C277 16.0747 278.076 14.9999 279.399 14.9999C280.724 14.9999 281.797 16.0747 281.797 17.4022C281.797 18.7297 280.724 19.8045 279.399 19.8045Z" fill="#BCA9FF"/>
<path fill-rule="evenodd" clip-rule="evenodd" d="M244.617 63.3283C243.294 63.3283 242.218 62.2535 242.218 60.926C242.218 59.5985 243.294 58.5237 244.617 58.5237C245.942 58.5237 247.015 59.5985 247.015 60.926C247.015 62.2535 245.942 63.3283 244.617 63.3283Z" fill="#BCA9FF"/>
<path fill-rule="evenodd" clip-rule="evenodd" d="M337.659 62.6523C336.723 63.5896 335.204 63.5896 334.269 62.6523C333.33 61.7124 333.33 60.1935 334.269 59.2537C335.204 58.3163 336.723 58.3163 337.659 59.2537C338.598 60.1935 338.598 61.7124 337.659 62.6523Z" fill="#A375FC"/>
<path fill-rule="evenodd" clip-rule="evenodd" d="M308.19 300.731C307.254 301.671 305.735 301.671 304.799 300.731C303.861 299.794 303.861 298.272 304.799 297.335C305.735 296.395 307.254 296.395 308.19 297.335C309.128 298.272 309.128 299.794 308.19 300.731Z" fill="#A375FC"/>
<path fill-rule="evenodd" clip-rule="evenodd" d="M276.568 300.731C275.632 301.671 274.113 301.671 273.177 300.731C272.239 299.794 272.239 298.272 273.177 297.335C274.113 296.395 275.632 296.395 276.568 297.335C277.506 298.272 277.506 299.794 276.568 300.731Z" fill="#A375FC"/>
<path d="M242.927 413.123V361.514H275.927V298.557H307.428V371.756H338.363" stroke="#B88DFC" stroke-width="0.231"/>
<path d="M244.994 61.1954H281.019" stroke="#B88DFC" stroke-width="0.231" stroke-linecap="round" stroke-linejoin="round"/>
</svg>
