<svg width="345" height="433" viewBox="0 0 345 433" fill="none" xmlns="http://www.w3.org/2000/svg">
<path fill-rule="evenodd" clip-rule="evenodd" d="M52.9289 389.929C62.0329 389.929 69.4122 382.538 69.4122 373.422C69.4122 364.306 62.0329 356.915 52.9289 356.915C43.8273 356.915 36.448 364.306 36.448 373.422C36.448 382.538 43.8273 389.929 52.9289 389.929Z" stroke="#BCA9FF" stroke-width="0.5"/>
<path fill-rule="evenodd" clip-rule="evenodd" d="M59.5347 156.384C64.5032 156.384 68.531 152.35 68.531 147.374C68.531 142.4 64.5032 138.363 59.5347 138.363C54.5686 138.363 50.5385 142.4 50.5385 147.374C50.5385 152.35 54.5686 156.384 59.5347 156.384Z" stroke="#BCA9FF" stroke-width="0.5"/>
<path d="M23.6012 130.309V146.961H59.5348V175.981H21.8421V196.674L21.6365 228.651" stroke="#B88DFC" stroke-width="0.231" stroke-linecap="round" stroke-linejoin="round"/>
<path d="M23.3006 62.6647L23.6012 131.493" stroke="#B88DFC" stroke-width="0.231" stroke-linecap="round" stroke-linejoin="round"/>
<path d="M21.8434 228.653L82.9285 228.651V258.715L21.6365 258.716L21.6365 373.422" stroke="#B88DFC" stroke-width="0.231" stroke-linecap="round" stroke-linejoin="round"/>
<path fill-rule="evenodd" clip-rule="evenodd" d="M21.8426 213.335C30.9466 213.335 38.3259 205.944 38.3259 196.828C38.3259 187.712 30.9466 180.321 21.8426 180.321C12.741 180.321 5.36169 187.712 5.36169 196.828C5.36169 205.944 12.741 213.335 21.8426 213.335Z" stroke="#BCA9FF" stroke-width="0.5"/>
<path fill-rule="evenodd" clip-rule="evenodd" d="M22.9025 84.9661C35.3409 84.9661 45.425 74.8661 45.425 62.4079C45.425 49.9472 35.3409 39.8472 22.9025 39.8472C10.464 39.8472 0.380005 49.9472 0.380005 62.4079C0.380005 74.8661 10.464 84.9661 22.9025 84.9661Z" stroke="#BCA9FF" stroke-width="0.5"/>
<path fill-rule="evenodd" clip-rule="evenodd" d="M59.5347 149.777C60.8602 149.777 61.9333 148.703 61.9333 147.375C61.9333 146.047 60.8602 144.973 59.5347 144.973C58.2118 144.973 57.1362 146.047 57.1362 147.375C57.1362 148.703 58.2118 149.777 59.5347 149.777Z" fill="#B88DFC"/>
<path fill-rule="evenodd" clip-rule="evenodd" d="M21.8426 231.054C23.168 231.054 24.2411 229.979 24.2411 228.651C24.2411 227.324 23.168 226.249 21.8426 226.249C20.5196 226.249 19.4441 227.324 19.4441 228.651C19.4441 229.979 20.5196 231.054 21.8426 231.054Z" fill="#B88DFC"/>
<path fill-rule="evenodd" clip-rule="evenodd" d="M20.955 261.118C22.278 261.118 23.3535 260.044 23.3535 258.716C23.3535 257.388 22.278 256.314 20.955 256.314C19.6296 256.314 18.5565 257.388 18.5565 258.716C18.5565 260.044 19.6296 261.118 20.955 261.118Z" fill="#B88DFC"/>
<path fill-rule="evenodd" clip-rule="evenodd" d="M21.8426 199.556C23.5993 199.556 25.0227 198.131 25.0227 196.371C25.0227 194.612 23.5993 193.186 21.8426 193.186C20.086 193.186 18.665 194.612 18.665 196.371C18.665 198.131 20.086 199.556 21.8426 199.556Z" fill="#B88DFC"/>
<path fill-rule="evenodd" clip-rule="evenodd" d="M116.98 431.981C125.265 431.981 131.98 425.266 131.98 416.982C131.98 408.698 125.265 401.981 116.98 401.981C108.696 401.981 101.98 408.698 101.98 416.982C101.98 425.266 108.696 431.981 116.98 431.981Z" stroke="#BCA9FF" stroke-width="0.5"/>
<path fill-rule="evenodd" clip-rule="evenodd" d="M115.539 418.68C116.478 419.617 117.994 419.617 118.933 418.68C119.869 417.74 119.869 416.219 118.933 415.281C117.994 414.342 116.478 414.342 115.539 415.281C114.604 416.219 114.604 417.74 115.539 418.68Z" fill="#B88DFC"/>
<path fill-rule="evenodd" clip-rule="evenodd" d="M19.6867 375.078C20.625 376.018 22.1415 376.018 23.0798 375.078C24.0157 374.14 24.0157 372.619 23.0798 371.682C22.1415 370.742 20.625 370.742 19.6867 371.682C18.7508 372.619 18.7508 374.14 19.6867 375.078Z" fill="#B88DFC"/>
<path d="M24.0741 62.649L78.7809 62.4068V15.8763" stroke="#B88DFC" stroke-width="0.231" stroke-linecap="round" stroke-linejoin="round"/>
<path fill-rule="evenodd" clip-rule="evenodd" d="M115.383 64.7819C116.706 64.7819 117.781 63.7071 117.781 62.3796C117.781 61.0521 116.706 59.9773 115.383 59.9773C114.057 59.9773 112.984 61.0521 112.984 62.3796C112.984 63.7071 114.057 64.7819 115.383 64.7819Z" fill="#B88DFC"/>
<path fill-rule="evenodd" clip-rule="evenodd" d="M22.3402 64.1059C23.2761 65.0433 24.7951 65.0433 25.731 64.1059C26.6693 63.1661 26.6693 61.6471 25.731 60.7073C24.7951 59.7699 23.2761 59.7699 22.3402 60.7073C21.4019 61.6471 21.4019 63.1661 22.3402 64.1059Z" fill="#B88DFC"/>
<path fill-rule="evenodd" clip-rule="evenodd" d="M78.7819 34.082C87.8835 34.082 95.2628 26.691 95.2628 17.5725C95.2628 8.45887 87.8835 1.06787 78.7819 1.06787C69.6779 1.06787 62.2986 8.45887 62.2986 17.5725C62.2986 26.691 69.6779 34.082 78.7819 34.082Z" stroke="#BCA9FF" stroke-width="0.5"/>
<path fill-rule="evenodd" clip-rule="evenodd" d="M78.7819 19.7486C80.1049 19.7486 81.1804 18.6738 81.1804 17.3463C81.1804 16.0188 80.1049 14.944 78.7819 14.944C77.4565 14.944 76.3834 16.0188 76.3834 17.3463C76.3834 18.6738 77.4565 19.7486 78.7819 19.7486Z" fill="#B88DFC"/>
<path fill-rule="evenodd" clip-rule="evenodd" d="M51.8093 302.185C52.7452 303.124 54.2642 303.124 55.2001 302.185C56.1384 301.247 56.1384 299.726 55.2001 298.788C54.2642 297.849 52.7452 297.849 51.8093 298.788C50.871 299.726 50.871 301.247 51.8093 302.185Z" fill="#B88DFC"/>
<path fill-rule="evenodd" clip-rule="evenodd" d="M72.4314 302.185C73.3673 303.124 74.8863 303.124 75.8222 302.185C76.7605 301.247 76.7605 299.726 75.8222 298.788C74.8863 297.849 73.3673 297.849 72.4314 298.788C71.4931 299.726 71.4931 301.247 72.4314 302.185Z" fill="#B88DFC"/>
<path d="M117.073 414.577V362.968H74.0725V300.011H52.5711V373.209H21.6365" stroke="#B88DFC" stroke-width="0.231"/>
<path d="M115.005 62.649H78.9803" stroke="#B88DFC" stroke-width="0.231" stroke-linecap="round" stroke-linejoin="round"/>
<path fill-rule="evenodd" clip-rule="evenodd" d="M292.07 389.929C282.966 389.929 275.586 382.538 275.586 373.422C275.586 364.306 282.966 356.915 292.07 356.915C301.171 356.915 308.551 364.306 308.551 373.422C308.551 382.538 301.171 389.929 292.07 389.929Z" stroke="#BCA9FF" stroke-width="0.5"/>
<path fill-rule="evenodd" clip-rule="evenodd" d="M285.464 156.384C280.495 156.384 276.468 152.35 276.468 147.374C276.468 142.4 280.495 138.363 285.464 138.363C290.43 138.363 294.46 142.4 294.46 147.374C294.46 152.35 290.43 156.384 285.464 156.384Z" stroke="#BCA9FF" stroke-width="0.5"/>
<path d="M321.397 130.309V146.961H285.464V175.981H323.157V196.674L323.362 228.651" stroke="#B88DFC" stroke-width="0.231" stroke-linecap="round" stroke-linejoin="round"/>
<path d="M321.698 62.6647L321.397 131.493" stroke="#B88DFC" stroke-width="0.231" stroke-linecap="round" stroke-linejoin="round"/>
<path d="M323.155 228.653L262.07 228.651V258.715L323.362 258.716L323.362 373.422" stroke="#B88DFC" stroke-width="0.231" stroke-linecap="round" stroke-linejoin="round"/>
<path fill-rule="evenodd" clip-rule="evenodd" d="M323.156 213.335C314.052 213.335 306.673 205.944 306.673 196.828C306.673 187.712 314.052 180.321 323.156 180.321C332.258 180.321 339.637 187.712 339.637 196.828C339.637 205.944 332.258 213.335 323.156 213.335Z" stroke="#BCA9FF" stroke-width="0.5"/>
<path fill-rule="evenodd" clip-rule="evenodd" d="M322.096 84.9661C309.658 84.9661 299.574 74.8661 299.574 62.4079C299.574 49.9472 309.658 39.8472 322.096 39.8472C334.535 39.8472 344.619 49.9472 344.619 62.4079C344.619 74.8661 334.535 84.9661 322.096 84.9661Z" stroke="#BCA9FF" stroke-width="0.5"/>
<path fill-rule="evenodd" clip-rule="evenodd" d="M285.464 149.777C284.138 149.777 283.065 148.703 283.065 147.375C283.065 146.047 284.138 144.973 285.464 144.973C286.787 144.973 287.862 146.047 287.862 147.375C287.862 148.703 286.787 149.777 285.464 149.777Z" fill="#B88DFC"/>
<path fill-rule="evenodd" clip-rule="evenodd" d="M323.156 231.054C321.831 231.054 320.758 229.979 320.758 228.651C320.758 227.324 321.831 226.249 323.156 226.249C324.479 226.249 325.555 227.324 325.555 228.651C325.555 229.979 324.479 231.054 323.156 231.054Z" fill="#B88DFC"/>
<path fill-rule="evenodd" clip-rule="evenodd" d="M324.044 261.118C322.721 261.118 321.645 260.044 321.645 258.716C321.645 257.388 322.721 256.314 324.044 256.314C325.369 256.314 326.442 257.388 326.442 258.716C326.442 260.044 325.369 261.118 324.044 261.118Z" fill="#B88DFC"/>
<path fill-rule="evenodd" clip-rule="evenodd" d="M323.156 199.556C321.399 199.556 319.976 198.131 319.976 196.371C319.976 194.612 321.399 193.186 323.156 193.186C324.913 193.186 326.334 194.612 326.334 196.371C326.334 198.131 324.913 199.556 323.156 199.556Z" fill="#B88DFC"/>
<path fill-rule="evenodd" clip-rule="evenodd" d="M227.018 431.981C218.734 431.981 212.018 425.266 212.018 416.982C212.018 408.698 218.734 401.981 227.018 401.981C235.303 401.981 242.018 408.698 242.018 416.982C242.018 425.266 235.303 431.981 227.018 431.981Z" stroke="#BCA9FF" stroke-width="0.5"/>
<path fill-rule="evenodd" clip-rule="evenodd" d="M229.459 418.68C228.521 419.617 227.004 419.617 226.066 418.68C225.13 417.74 225.13 416.219 226.066 415.281C227.004 414.342 228.521 414.342 229.459 415.281C230.395 416.219 230.395 417.74 229.459 418.68Z" fill="#B88DFC"/>
<path fill-rule="evenodd" clip-rule="evenodd" d="M325.312 375.078C324.374 376.018 322.857 376.018 321.919 375.078C320.983 374.14 320.983 372.619 321.919 371.682C322.857 370.742 324.374 370.742 325.312 371.682C326.248 372.619 326.248 374.14 325.312 375.078Z" fill="#B88DFC"/>
<path d="M320.925 62.649L266.218 62.4068V15.8763" stroke="#B88DFC" stroke-width="0.231" stroke-linecap="round" stroke-linejoin="round"/>
<path fill-rule="evenodd" clip-rule="evenodd" d="M229.616 64.7819C228.293 64.7819 227.218 63.7071 227.218 62.3796C227.218 61.0521 228.293 59.9773 229.616 59.9773C230.941 59.9773 232.015 61.0521 232.015 62.3796C232.015 63.7071 230.941 64.7819 229.616 64.7819Z" fill="#B88DFC"/>
<path fill-rule="evenodd" clip-rule="evenodd" d="M322.658 64.1059C321.723 65.0433 320.204 65.0433 319.268 64.1059C318.329 63.1661 318.329 61.6471 319.268 60.7073C320.204 59.7699 321.723 59.7699 322.658 60.7073C323.597 61.6471 323.597 63.1661 322.658 64.1059Z" fill="#B88DFC"/>
<path fill-rule="evenodd" clip-rule="evenodd" d="M266.217 34.082C257.115 34.082 249.736 26.691 249.736 17.5725C249.736 8.45887 257.115 1.06787 266.217 1.06787C275.321 1.06787 282.7 8.45887 282.7 17.5725C282.7 26.691 275.321 34.082 266.217 34.082Z" stroke="#BCA9FF" stroke-width="0.5"/>
<path fill-rule="evenodd" clip-rule="evenodd" d="M266.217 19.7486C264.894 19.7486 263.818 18.6738 263.818 17.3463C263.818 16.0188 264.894 14.944 266.217 14.944C267.542 14.944 268.615 16.0188 268.615 17.3463C268.615 18.6738 267.542 19.7486 266.217 19.7486Z" fill="#B88DFC"/>
<path fill-rule="evenodd" clip-rule="evenodd" d="M293.189 302.185C292.253 303.124 290.734 303.124 289.799 302.185C288.86 301.247 288.86 299.726 289.799 298.788C290.734 297.849 292.253 297.849 293.189 298.788C294.128 299.726 294.128 301.247 293.189 302.185Z" fill="#B88DFC"/>
<path fill-rule="evenodd" clip-rule="evenodd" d="M272.567 302.185C271.631 303.124 270.112 303.124 269.177 302.185C268.238 301.247 268.238 299.726 269.177 298.788C270.112 297.849 271.631 297.849 272.567 298.788C273.506 299.726 273.506 301.247 272.567 302.185Z" fill="#B88DFC"/>
<path d="M227.926 415.123V362.968H270.926V300.011H292.428V373.209H323.362" stroke="#B88DFC" stroke-width="0.231"/>
<path d="M229.993 62.649H266.018" stroke="#B88DFC" stroke-width="0.231" stroke-linecap="round" stroke-linejoin="round"/>
</svg>


