<svg width="22" height="22" viewBox="0 0 22 22" fill="none" xmlns="http://www.w3.org/2000/svg">
<path d="M11 0C4.92404 0 0 4.92404 0 11C0 15.0674 2.21276 18.6076 5.4934 20.5132L7.9706 16.2316C6.16616 15.1848 4.95 13.2365 4.95 11C4.95 7.65952 7.65952 4.95 11 4.95C14.3405 4.95 17.05 7.65952 17.05 11C17.05 13.2365 15.8347 15.1857 14.0294 16.2316L16.5066 20.5132C19.7872 18.6076 22 15.0674 22 11C22 4.92404 17.076 0 11 0Z" fill="#FF9100"/>
<path d="M14.3003 11C14.3003 9.17791 12.8219 7.69995 11.0003 7.69995C9.17828 7.69995 7.70032 9.17835 7.70032 11C7.7012 12.3657 8.54336 13.5898 9.81892 14.0786L8.41136 21.6796C9.25836 21.8895 10.1278 21.9969 11.0003 22C11.894 22 12.7577 21.8816 13.5893 21.6823L12.1817 14.0791C13.4573 13.5898 14.2994 12.3657 14.3003 11Z" fill="#3A3149"/>
</svg>
