<svg width="100" height="112" viewBox="0 0 100 112" fill="none" xmlns="http://www.w3.org/2000/svg">
    <defs>
        <linearGradient id="paint0_linear" x1="-10.5" y1="-13.5" x2="122.651" y2="142.371"
                        gradientUnits="userSpaceOnUse">
            <stop stop-color="#39C4DA"/>
            <stop offset="0.479167" stop-color="#B88DFC"/>
            <stop offset="1" stop-color="#FF67B9"/>
        </linearGradient>
    </defs>
    <path fill-rule="evenodd" clip-rule="evenodd"
          d="M9.75902 3.38241C9.75902 5.25047 8.24574 6.76483 6.37902 6.76483C4.51229 6.76483 2.99902 5.25047 2.99902 3.38241C2.99902 1.51436 4.51229 0 6.37902 0C8.24574 0 9.75902 1.51436 9.75902 3.38241ZM26.2121 4.78834C26.2121 7.43286 24.0675 9.57667 21.4221 9.57667C18.7766 9.57667 16.6321 7.43286 16.6321 4.78834C16.6321 2.14381 18.7766 0 21.4221 0C24.0675 0 26.2121 2.14381 26.2121 4.78834ZM54.7094 74.383C72.2488 72.3233 86.3569 57.9866 87.5056 39.7381C88.7986 19.2063 73.1986 1.51465 52.663 0.22193C50.2546 0.0719117 47.8373 0.155166 45.4449 0.470529C40.508 0.874504 36.3407 2.75392 36.3407 2.75392C32.9704 4.39965 30.7885 7.15786 30.7885 10.8496C30.7885 13.1543 31.7042 15.3645 33.3342 16.9942C34.9641 18.6238 37.1748 19.5394 39.4799 19.5394C40.283 19.5394 43.0629 18.6606 43.7193 18.4319C47.2706 17.1953 51.0978 16.9804 54.7652 17.8116C58.4327 18.6427 61.7931 20.4866 64.464 23.1333C67.1349 25.7799 69.0091 29.1231 69.8731 32.7823C70.7372 36.4415 70.5565 40.2698 69.3515 43.8314C68.1466 47.3929 65.9658 50.5448 63.0574 52.9281C60.149 55.3115 56.6298 56.8307 52.9004 57.3128C49.1709 57.7948 45.381 57.2205 41.962 55.655C38.543 54.0895 35.6322 51.5958 33.5609 48.4577C29.7504 43.4717 30.3974 35.648 30.4683 34.7911L30.4726 34.7382C30.4736 34.7255 30.4741 34.7177 30.474 34.7151C30.3984 32.6356 29.5799 30.652 28.1669 29.1241C26.754 27.5962 24.8401 26.6252 22.7725 26.3872C20.7048 26.1492 18.6203 26.6599 16.8971 27.8269C15.1738 28.9938 13.9259 30.7395 13.3796 32.7475C13.1832 33.4746 13.0837 35.6064 13.1123 35.8923C12.2843 56.0686 27.7277 73.3065 47.986 74.5806C50.2296 74.7188 52.481 74.6547 54.7131 74.3892L54.7094 74.383ZM33.5609 48.464C33.5615 48.4619 33.5615 48.4598 33.5609 48.4577V48.464ZM21.4766 17.352C21.4766 20.7806 18.6963 23.56 15.2666 23.56C11.837 23.56 9.05664 20.7806 9.05664 17.352C9.05664 13.9235 11.837 11.1441 15.2666 11.1441C18.6963 11.1441 21.4766 13.9235 21.4766 17.352ZM18.8688 102.603C18.8688 104.102 18.6408 105.437 18.1848 106.609C17.7657 107.724 17.1078 108.733 16.2577 109.564C15.4078 110.375 14.3949 110.994 13.2874 111.377C12.0476 111.804 10.7445 112.014 9.43439 111.999C8.12157 112.017 6.81626 111.797 5.58138 111.348C4.47325 110.941 3.46159 110.306 2.61107 109.483C1.76597 108.648 1.10878 107.64 0.683943 106.527C-0.227981 104.01 -0.227981 101.249 0.683943 98.7316C1.10873 97.6191 1.76594 96.6114 2.61107 95.7768C3.46195 94.9545 4.47351 94.3195 5.58138 93.9122C6.81626 93.4631 8.12157 93.2424 9.43439 93.2608C10.7488 93.243 12.0551 93.4701 13.2874 93.9308C14.3934 94.346 15.404 94.9833 16.2577 95.8042C17.1022 96.6393 17.7593 97.6468 18.1848 98.7589C18.6525 99.985 18.8846 101.289 18.8688 102.603ZM6.26532 102.603C6.26532 104.078 6.54762 105.208 7.11221 105.992C7.67681 106.777 8.46281 107.17 9.47019 107.171C10.4784 107.171 11.2525 106.772 11.7924 105.975C12.3323 105.178 12.6026 104.054 12.6035 102.603C12.6035 101.151 12.3273 100.033 11.7751 99.2462C11.2228 98.4598 10.441 98.067 9.42945 98.0678C8.42124 98.0678 7.63936 98.4606 7.08382 99.2462C6.52828 100.032 6.25544 101.151 6.26532 102.603ZM26.8518 111.594C27.2345 111.548 27.6135 111.476 27.9864 111.377L27.9802 99.0125C28.3449 98.849 28.7244 98.7212 29.1135 98.6309C29.5579 98.5223 30.032 98.4196 30.5357 98.3226C31.0419 98.2256 31.5583 98.1531 32.085 98.1051C32.6118 98.057 33.1278 98.033 33.6332 98.033C33.7836 97.7507 33.904 97.4532 33.9924 97.1454C34.088 96.8227 34.1366 96.4877 34.1369 96.1509C34.136 95.1349 33.7998 94.4036 33.1282 93.9569C32.4566 93.5102 31.5447 93.2869 30.3925 93.2869C29.6931 93.2873 28.9948 93.3418 28.3036 93.4497C27.6224 93.5556 26.949 93.7067 26.2876 93.9022C25.6677 94.0861 25.0602 94.3103 24.4691 94.5735C23.9611 94.7947 23.4842 95.0823 23.0506 95.4287C22.6853 95.7189 22.3846 96.0831 22.1679 96.4978C21.9531 96.9434 21.8481 97.4346 21.8618 97.9298V108.803C21.8442 109.303 21.9234 109.802 22.0951 110.271C22.2335 110.622 22.4639 110.929 22.7618 111.159C23.076 111.388 23.4407 111.537 23.8247 111.594C24.2948 111.671 24.7706 111.707 25.2469 111.703C25.7837 111.704 26.32 111.668 26.8518 111.594ZM44.8448 98.1061C44.2625 98.1033 43.6842 98.2013 43.1349 98.3958C42.6131 98.5791 42.1347 98.8695 41.73 99.2485C41.3202 99.6431 40.9954 100.118 40.7757 100.645C40.5229 101.265 40.4002 101.932 40.4152 102.602C40.4152 104.102 40.8416 105.226 41.6942 105.975C42.5469 106.724 43.5851 107.097 44.809 107.094C45.4418 107.107 46.0729 107.024 46.6805 106.845C47.1602 106.695 47.6295 106.513 48.0854 106.301C48.5176 106.59 48.8855 106.967 49.1657 107.407C49.4149 107.842 49.5396 108.337 49.5262 108.839C49.5262 109.833 49.0578 110.601 48.1212 111.141C47.1846 111.681 45.8884 111.953 44.2324 111.957C42.8358 111.976 41.4467 111.749 40.1276 111.286C38.9631 110.876 37.8919 110.234 36.977 109.401C36.0973 108.587 35.4032 107.592 34.9425 106.482C34.45 105.288 34.2047 104.005 34.2215 102.712C34.2215 101.116 34.4795 99.7197 34.9956 98.5238C35.4664 97.3903 36.187 96.3795 37.1029 95.5678C38.0038 94.7875 39.0501 94.1959 40.1807 93.8275C41.3724 93.4368 42.6187 93.2413 43.8719 93.2482C45.6003 93.2482 46.9328 93.5623 47.8694 94.1904C48.806 94.8186 49.2743 95.6283 49.2743 96.6194C49.2765 97.0695 49.1648 97.5127 48.9496 97.9072C48.7483 98.2866 48.4933 98.6345 48.1928 98.9402C47.7121 98.7197 47.2172 98.532 46.7114 98.3784C46.1065 98.1928 45.4771 98.101 44.8448 98.1061ZM68.1901 111.593C68.5728 111.547 68.9519 111.475 69.3247 111.377L69.3235 100.388C69.3243 98.021 68.658 96.2394 67.3247 95.0428C65.9914 93.8462 64.1371 93.2479 61.7619 93.2479C61.0526 93.2411 60.3451 93.3199 59.6545 93.4828C59.1731 93.5949 58.6983 93.7339 58.2323 93.8992V90.348C58.2477 89.8484 58.1659 89.3505 57.9916 88.8825C57.8533 88.5313 57.6234 88.2243 57.3261 87.9937C57.0112 87.7658 56.6468 87.6166 56.2632 87.5587C55.793 87.4826 55.3172 87.4465 54.841 87.4506C54.3163 87.4494 53.7924 87.491 53.2744 87.5749C52.7583 87.6594 52.3682 87.7265 52.104 87.7737V108.803C52.0861 109.303 52.1658 109.802 52.3386 110.271C52.4761 110.622 52.7067 110.929 53.0052 111.158C53.3191 111.387 53.6834 111.537 54.067 111.593C54.5371 111.67 55.0129 111.707 55.4892 111.703C56.026 111.704 56.5623 111.668 57.0941 111.593C57.4767 111.547 57.8558 111.475 58.2286 111.377V98.6873C58.554 98.4921 58.9058 98.3455 59.273 98.2522C59.7187 98.1296 60.1789 98.0685 60.6409 98.0707C61.2979 98.0494 61.9415 98.261 62.4594 98.6686C62.9532 99.0639 63.2001 99.7587 63.2001 100.753V108.803C63.1822 109.303 63.2619 109.802 63.4347 110.271C63.5722 110.622 63.8023 110.929 64.1001 111.158C64.4144 111.387 64.7791 111.537 65.163 111.593C65.6332 111.67 66.1089 111.707 66.5852 111.703C67.1221 111.704 67.6584 111.668 68.1901 111.593ZM72.9619 88.8963C72.9516 88.4674 73.0275 88.0409 73.1852 87.6423C73.3428 87.2437 73.5789 86.8813 73.8792 86.5769C74.4915 85.9496 75.3018 85.6351 76.31 85.6335C77.3182 85.6318 78.1284 85.9463 78.7408 86.5769C79.3306 87.2034 79.6594 88.0337 79.6594 88.897C79.6594 89.7602 79.3306 90.5905 78.7408 91.217C78.1284 91.846 77.3182 92.1605 76.31 92.1605C75.3018 92.1605 74.4915 91.846 73.8792 91.217C73.5787 90.9125 73.3426 90.5499 73.1849 90.1511C73.0273 89.7523 72.9514 89.3254 72.9619 88.8963ZM79.3704 111.376C79.1062 111.423 78.7161 111.49 78.2 111.575C77.6824 111.659 77.1589 111.7 76.6347 111.699C76.1584 111.704 75.6826 111.667 75.2125 111.59C74.8284 111.533 74.4637 111.384 74.1495 111.155C73.8517 110.925 73.6213 110.618 73.4829 110.267C73.3112 109.798 73.2319 109.299 73.2495 108.799V94.0461C73.5125 93.9964 73.9026 93.9305 74.4199 93.846C74.9375 93.7622 75.461 93.7206 75.9853 93.7217C76.4619 93.7176 76.9381 93.7538 77.4087 93.8298C77.792 93.8875 78.156 94.0367 78.4704 94.2649C78.7676 94.4958 78.9978 94.8027 79.1371 95.1536C79.3085 95.6231 79.3878 96.1217 79.3704 96.6216V111.376ZM82.6768 98.4513C82.1969 99.6239 81.957 101.008 81.957 102.603C81.9562 104.054 82.1776 105.353 82.6212 106.5C83.044 107.618 83.7081 108.627 84.5656 109.456C85.4621 110.305 86.5306 110.948 87.6977 111.341C88.9322 111.775 90.3314 111.993 91.8951 111.993C93.3362 111.993 94.6086 111.819 95.7123 111.468C96.816 111.118 97.7164 110.712 98.4135 110.252C99.4694 109.576 99.9974 108.67 99.9974 107.534V90.3482C100.014 89.8506 99.9405 89.3541 99.7814 88.8827C99.6546 88.5299 99.4296 88.2214 99.1332 87.994C98.8188 87.7658 98.4548 87.6167 98.0715 87.5589C97.6009 87.4829 97.1247 87.4468 96.6481 87.4508C96.1058 87.4492 95.5642 87.4908 95.0284 87.5751C94.64 87.6299 94.2553 87.7088 93.8765 87.8113V93.6819C93.5156 93.5409 93.1412 93.4376 92.7593 93.3737C92.2961 93.2893 91.8263 93.2477 91.3556 93.2494C90.1034 93.2384 88.8574 93.4281 87.6643 93.8112C86.5585 94.1661 85.5398 94.7528 84.6755 95.5328C83.7997 96.3419 83.1165 97.3395 82.6768 98.4513ZM89.1927 99.1897C89.889 98.4439 90.8852 98.071 92.1815 98.071C92.7863 98.0541 93.3841 98.2046 93.9099 98.506V106.482C93.6696 106.679 93.3973 106.833 93.105 106.936C92.7301 107.074 92.3335 107.141 91.9346 107.135C90.7058 107.131 89.7676 106.748 89.1199 105.988C88.4721 105.227 88.1483 104.097 88.1483 102.598C88.1483 101.072 88.4964 99.9355 89.1927 99.1897Z"
          fill="url(#paint0_linear)"/>
</svg>
