<svg width="200" height="178" viewBox="0 0 200 178" fill="none" xmlns="http://www.w3.org/2000/svg">
  <defs>
    <linearGradient id="paint0_linear" x1="4" y1="4" x2="197" y2="174" gradientUnits="userSpaceOnUse">
      <stop stop-color="#39C4DA"/>
      <stop offset="0.526042" stop-color="#B88DFC"/>
      <stop offset="1" stop-color="#FF67B9"/>
    </linearGradient>
  </defs>
  <path fill-rule="evenodd" clip-rule="evenodd" d="M11.6422 6.8999C9.03891 6.8999 6.92999 9.00947 6.92999 11.6099C6.92999 14.2103 9.03891 16.3199 11.6422 16.3199C14.2456 16.3199 16.3545 14.2103 16.3545 11.6099C16.3545 9.00947 14.2456 6.8999 11.6422 6.8999ZM0.929993 11.6099C0.929993 5.69411 5.72686 0.899902 11.6422 0.899902C17.5576 0.899902 22.3545 5.69411 22.3545 11.6099C22.3545 17.5257 17.5576 22.3199 11.6422 22.3199C5.72686 22.3199 0.929993 17.5257 0.929993 11.6099ZM46.1468 6.90234C41.7747 6.90234 38.2292 10.4476 38.2292 14.8223C38.2292 19.1971 41.7747 22.7423 46.1468 22.7423C50.5189 22.7423 54.0643 19.1971 54.0643 14.8223C54.0643 10.4476 50.5189 6.90234 46.1468 6.90234ZM32.2292 14.8223C32.2292 7.13518 38.4597 0.902344 46.1468 0.902344C53.8339 0.902344 60.0643 7.13518 60.0643 14.8223C60.0643 22.5095 53.8339 28.7423 46.1468 28.7423C38.4597 28.7423 32.2292 22.5095 32.2292 14.8223ZM100.544 1.98639C106.167 1.2519 111.847 1.05941 117.507 1.41162L117.509 1.41176C165.982 4.46424 202.804 46.2283 199.751 94.697C197.041 137.779 163.739 171.62 122.336 176.483C117.069 177.108 111.757 177.259 106.464 176.934L106.46 176.934C58.6889 173.928 22.2628 133.315 24.1357 85.7575C24.1197 85.3711 24.1318 84.8804 24.1453 84.472C24.1656 83.8604 24.2037 83.1038 24.2582 82.3182C24.3593 80.8618 24.5387 78.9417 24.8509 77.7837C26.268 72.4971 29.5376 67.8956 34.0637 64.8178C38.5907 61.7394 44.0733 60.3903 49.5119 61.0163C54.9506 61.6423 59.9833 64.2017 63.6924 68.228C67.4015 72.2544 69.5401 77.4795 69.7182 82.9509C69.7238 83.1474 69.7061 83.4726 69.6816 83.9252C69.5931 85.5546 69.415 88.8362 69.9106 93.7178C70.5198 99.7193 72.1362 106.974 76.0056 112.85C78.7649 117.041 82.0824 121.302 90.5219 126.194C96.254 129.516 102.68 131.461 109.293 131.872L109.296 131.873C132.88 133.366 153.202 115.445 154.686 91.8614C155.128 84.8207 153.821 77.7801 150.884 71.366C147.946 64.9517 143.469 59.3629 137.849 55.0969C132.23 50.8308 125.643 48.0199 118.674 46.9142C111.706 45.8085 104.572 46.4423 97.9078 48.7592L97.9055 48.76C97.096 49.0407 95.0819 49.6889 93.0313 50.2692C92.0046 50.5598 90.9356 50.8428 89.9854 51.0557C89.1208 51.2494 88.0858 51.4495 87.2578 51.4495C81.207 51.4495 75.404 49.046 71.1254 44.7678C66.8467 40.4896 64.4429 34.687 64.4429 28.6366C64.4429 18.8019 70.3395 11.6054 78.7841 7.48095L78.8257 7.46064L78.8679 7.44162L80.1007 10.1766C78.8679 7.44162 78.8685 7.44138 78.869 7.44113L78.8703 7.44055L78.8827 7.435L78.9113 7.42224C78.935 7.41173 78.9678 7.39725 79.0095 7.37903C79.093 7.34259 79.212 7.29119 79.3648 7.22671C79.6704 7.09777 80.1112 6.91638 80.672 6.69769C81.793 6.26058 83.3976 5.67277 85.3632 5.05641C89.2646 3.83305 94.6545 2.4761 100.544 1.98639ZM81.3686 12.8961C74.4744 16.2793 70.4429 21.6558 70.4429 28.6366C70.4429 33.0955 72.2144 37.3719 75.3678 40.525C78.5212 43.678 82.7981 45.4495 87.2578 45.4495C87.2692 45.4489 87.3925 45.443 87.6668 45.3995C87.9359 45.3567 88.274 45.2904 88.6737 45.2008C89.4729 45.0218 90.4244 44.7713 91.3975 44.496C93.3465 43.9444 95.2492 43.3306 95.9397 43.0912C103.537 40.4501 111.67 39.7277 119.615 40.9883C127.56 42.249 135.07 45.4539 141.477 50.3179C147.884 55.1819 152.99 61.5542 156.339 68.8678C159.688 76.1814 161.178 84.2094 160.675 92.2375C158.982 119.125 135.813 139.562 108.92 137.861C101.379 137.391 94.05 135.174 87.5129 131.385C78.1191 125.939 74.1612 120.959 70.9944 116.15C66.3638 109.117 64.5948 100.762 63.9412 94.3238C63.317 88.1739 63.6969 82.5362 63.7222 83.1684L63.7217 83.1572L63.7214 83.1461C63.5901 79.113 62.0137 75.2613 59.2795 72.2933C56.5452 69.3252 52.8353 67.4384 48.8259 66.9769C44.8165 66.5155 40.7748 67.5101 37.4376 69.7794C34.1004 72.0487 31.69 75.4415 30.6457 79.3393L30.6442 79.3451C30.5089 79.8459 30.3514 81.1835 30.2438 82.7337C30.194 83.4521 30.1598 84.1364 30.142 84.6711C30.1295 85.0466 30.1283 85.2722 30.1277 85.3775C30.1273 85.4496 30.1272 85.4651 30.1241 85.4337L30.1452 85.6445L30.1365 85.8563C28.316 130.227 62.282 168.142 106.836 170.945C111.77 171.249 116.721 171.108 121.63 170.524L121.634 170.524C160.213 165.994 191.239 134.454 193.763 94.3201C196.608 49.1597 162.299 10.2448 117.133 7.39997C111.835 7.07031 106.517 7.25274 101.254 7.94472L101.181 7.95431L101.107 7.96031C95.7702 8.39721 90.8078 9.63719 87.1584 10.7815C85.3405 11.3516 83.8651 11.8926 82.8519 12.2877C82.3456 12.4851 81.9558 12.6457 81.6976 12.7547C81.5684 12.8092 81.4723 12.8507 81.411 12.8775L81.3686 12.8961ZM31.989 32.2783C25.8279 32.2783 20.8335 37.2727 20.8335 43.4333C20.8335 49.594 25.8279 54.5883 31.989 54.5883C38.1501 54.5883 43.1445 49.594 43.1445 43.4333C43.1445 37.2727 38.1501 32.2783 31.989 32.2783ZM14.8335 43.4333C14.8335 33.9588 22.5144 26.2783 31.989 26.2783C41.4636 26.2783 49.1445 33.9588 49.1445 43.4333C49.1445 52.9079 41.4636 60.5883 31.989 60.5883C22.5144 60.5883 14.8335 52.9079 14.8335 43.4333Z" fill="url(#paint0_linear)"/>
</svg>
