<svg width="24" height="22" viewBox="0 0 24 22" fill="none" xmlns="http://www.w3.org/2000/svg">
    <path d="M5.14307 3.32227C5.91783 3.32227 6.5459 2.6942 6.5459 1.91944C6.5459 1.14467 5.91783 0.516602 5.14307 0.516602C4.3683 0.516602 3.74023 1.14467 3.74023 1.91944C3.74023 2.6942 4.3683 3.32227 5.14307 3.32227Z" fill="#CBAAFF"/>
    <path d="M0.935223 2.5057C1.45173 2.5057 1.87045 2.08699 1.87045 1.57048C1.87045 1.05397 1.45173 0.635254 0.935223 0.635254C0.418714 0.635254 0 1.05397 0 1.57048C0 2.08699 0.418714 2.5057 0.935223 2.5057Z" fill="#CBAAFF"/>
    <path d="M21.2761 4.02389C19.4056 1.91964 16.8338 0.633708 13.9112 0.399902C13.2098 0.399902 12.5083 0.399902 11.8069 0.516805C11.5731 0.516805 11.3393 0.516805 11.1055 0.633708H10.8717C10.0534 0.867514 9.35197 1.21822 9.23507 1.21822C8.18294 1.68583 7.59843 2.62106 7.59843 3.67318C7.59843 5.19292 8.76746 6.36195 10.2872 6.36195C10.6379 6.36195 11.5731 6.01124 11.5731 6.01124C12.2745 5.77743 12.976 5.66053 13.6774 5.77743C15.5478 5.89434 17.1845 6.94646 18.1197 8.5831C18.5873 9.51832 18.8211 10.5705 18.8211 11.5057C18.5873 14.5451 16.0154 16.7663 13.0929 16.5325C11.3393 16.4156 9.93648 15.5973 8.88436 14.1944L8.65055 13.8437C7.94914 12.5578 7.94914 10.8043 8.06604 10.4535C8.06604 9.05071 6.89701 7.88169 5.37727 7.88169C4.20824 7.88169 3.15612 8.70001 2.80541 9.86903C2.68851 10.1028 2.68851 10.6874 2.68851 10.8043C2.4547 16.5325 6.89701 21.5593 12.7422 21.91C12.976 21.91 13.2098 21.91 13.4436 21.91C13.7943 21.91 14.2619 21.91 14.6126 21.7931L15.4309 21.6762H15.314C20.107 20.741 23.6141 16.7663 23.9648 11.8564C24.1986 8.93381 23.2634 6.12814 21.2761 4.02389Z" fill="#CBAAFF"/>
    <path d="M3.50745 7.17896C4.4759 7.17896 5.26099 6.39387 5.26099 5.42542C5.26099 4.45696 4.4759 3.67188 3.50745 3.67188C2.53899 3.67188 1.75391 4.45696 1.75391 5.42542C1.75391 6.39387 2.53899 7.17896 3.50745 7.17896Z" fill="#CBAAFF"/>
</svg>
