<svg width="366" height="457" viewBox="0 0 366 457" fill="none" xmlns="http://www.w3.org/2000/svg">
  <defs>
    <filter id="filter0_df" x="-3" y="0.697266" width="372" height="417.12" filterUnits="userSpaceOnUse" color-interpolation-filters="sRGB">
      <feFlood flood-opacity="0" result="BackgroundImageFix"/>
      <feColorMatrix in="SourceAlpha" type="matrix" values="0 0 0 0 0 0 0 0 0 0 0 0 0 0 0 0 0 0 127 0" result="hardAlpha"/>
      <feOffset/>
      <feGaussianBlur stdDeviation="3"/>
      <feColorMatrix type="matrix" values="0 0 0 0 0.295833 0 0 0 0 0.324 0 0 0 0 1 0 0 0 1 0"/>
      <feBlend mode="normal" in2="BackgroundImageFix" result="effect1_dropShadow"/>
      <feBlend mode="normal" in="SourceGraphic" in2="effect1_dropShadow" result="shape"/>
      <feGaussianBlur stdDeviation="0.5" result="effect2_foregroundBlur"/>
    </filter>
    <filter id="filter1_d" x="-3" y="5.49707" width="372" height="419.04" filterUnits="userSpaceOnUse" color-interpolation-filters="sRGB">
      <feFlood flood-opacity="0" result="BackgroundImageFix"/>
      <feColorMatrix in="SourceAlpha" type="matrix" values="0 0 0 0 0 0 0 0 0 0 0 0 0 0 0 0 0 0 127 0" result="hardAlpha"/>
      <feOffset/>
      <feGaussianBlur stdDeviation="3"/>
      <feColorMatrix type="matrix" values="0 0 0 0 0.54902 0 0 0 0 0.380392 0 0 0 0 0.882353 0 0 0 1 0"/>
      <feBlend mode="normal" in2="BackgroundImageFix" result="effect1_dropShadow"/>
      <feBlend mode="normal" in="SourceGraphic" in2="effect1_dropShadow" result="shape"/>
    </filter>
    <filter id="filter2_f" x="0.999878" y="16.2173" width="364" height="386.08" filterUnits="userSpaceOnUse" color-interpolation-filters="sRGB">
      <feFlood flood-opacity="0" result="BackgroundImageFix"/>
      <feBlend mode="normal" in="SourceGraphic" in2="BackgroundImageFix" result="shape"/>
      <feGaussianBlur stdDeviation="1" result="effect1_foregroundBlur"/>
    </filter>
    <filter id="filter3_f" x="2" y="10.4976" width="362" height="397.52" filterUnits="userSpaceOnUse" color-interpolation-filters="sRGB">
      <feFlood flood-opacity="0" result="BackgroundImageFix"/>
      <feBlend mode="normal" in="SourceGraphic" in2="BackgroundImageFix" result="shape"/>
      <feGaussianBlur stdDeviation="0.5" result="effect1_foregroundBlur"/>
    </filter>
    <filter id="filter4_d" x="-5" y="3.49756" width="376" height="411.52" filterUnits="userSpaceOnUse" color-interpolation-filters="sRGB">
      <feFlood flood-opacity="0" result="BackgroundImageFix"/>
      <feColorMatrix in="SourceAlpha" type="matrix" values="0 0 0 0 0 0 0 0 0 0 0 0 0 0 0 0 0 0 127 0" result="hardAlpha"/>
      <feOffset/>
      <feGaussianBlur stdDeviation="4"/>
      <feColorMatrix type="matrix" values="0 0 0 0 0.560784 0 0 0 0 0.294118 0 0 0 0 0.905882 0 0 0 1 0"/>
      <feBlend mode="normal" in2="BackgroundImageFix" result="effect1_dropShadow"/>
      <feBlend mode="normal" in="SourceGraphic" in2="effect1_dropShadow" result="shape"/>
    </filter>
    <filter id="filter5_f" x="20.2004" y="9.49707" width="325.6" height="392.8" filterUnits="userSpaceOnUse" color-interpolation-filters="sRGB">
      <feFlood flood-opacity="0" result="BackgroundImageFix"/>
      <feBlend mode="normal" in="SourceGraphic" in2="BackgroundImageFix" result="shape"/>
      <feGaussianBlur stdDeviation="1" result="effect1_foregroundBlur"/>
    </filter>
    <filter id="filter6_d" x="-7.07909" y="-0.50293" width="380.159" height="426.503" filterUnits="userSpaceOnUse" color-interpolation-filters="sRGB">
      <feFlood flood-opacity="0" result="BackgroundImageFix"/>
      <feColorMatrix in="SourceAlpha" type="matrix" values="0 0 0 0 0 0 0 0 0 0 0 0 0 0 0 0 0 0 127 0" result="hardAlpha"/>
      <feOffset/>
      <feGaussianBlur stdDeviation="6"/>
      <feColorMatrix type="matrix" values="0 0 0 0 0.6625 0 0 0 0 1 0 0 0 0 0.845924 0 0 0 1 0"/>
      <feBlend mode="normal" in2="BackgroundImageFix" result="effect1_dropShadow"/>
      <feBlend mode="normal" in="SourceGraphic" in2="effect1_dropShadow" result="shape"/>
    </filter>
    <radialGradient id="paint0_radial" cx="0" cy="0" r="1" gradientUnits="userSpaceOnUse" gradientTransform="translate(183 210) rotate(90.1026) scale(268.08 236.991)">
      <stop stop-opacity="0.05"/>
      <stop offset="0.290291" stop-opacity="0.25"/>
      <stop offset="0.335883" stop-opacity="0.75"/>
      <stop offset="0.421414" stop-opacity="0.4"/>
      <stop offset="0.592958" stop-opacity="0"/>
    </radialGradient>
    <linearGradient id="paint1_linear" x1="12.0452" y1="123.534" x2="353.05" y2="123.534" gradientUnits="userSpaceOnUse">
      <stop stop-color="#0061F2"/>
      <stop offset="0.505208" stop-color="#87C5FF"/>
      <stop offset="1" stop-color="#0061F2"/>
    </linearGradient>
    <radialGradient id="paint2_radial" cx="0" cy="0" r="1" gradientUnits="userSpaceOnUse" gradientTransform="translate(183 210) rotate(90.1026) scale(268.08 236.991)">
      <stop stop-opacity="0.05"/>
      <stop offset="0.290291" stop-opacity="0.25"/>
      <stop offset="0.335883" stop-opacity="0.75"/>
      <stop offset="0.467602" stop-opacity="0.4"/>
      <stop offset="0.671359" stop-opacity="0"/>
    </radialGradient>
    <linearGradient id="paint3_linear" x1="3.00012" y1="240.257" x2="363" y2="240.257" gradientUnits="userSpaceOnUse">
      <stop stop-color="#4818CF"/>
      <stop offset="0.496" stop-color="#8B42FF"/>
      <stop offset="1" stop-color="#9039FF"/>
      <stop offset="1" stop-color="#4818CF"/>
    </linearGradient>
    <radialGradient id="paint4_radial" cx="0" cy="0" r="1" gradientUnits="userSpaceOnUse" gradientTransform="translate(183 207) rotate(90) scale(172.5 157)">
      <stop stop-color="#010101" stop-opacity="0"/>
      <stop offset="0.452174" stop-opacity="0.2"/>
      <stop offset="0.550725" stop-opacity="0.6"/>
      <stop offset="0.747826" stop-opacity="0"/>
    </radialGradient>
    <linearGradient id="paint5_linear" x1="12.0451" y1="128.41" x2="353.05" y2="128.41" gradientUnits="userSpaceOnUse">
      <stop stop-color="#00C6F2"/>
      <stop offset="0.505208" stop-color="#87E2FF"/>
      <stop offset="1" stop-color="#00C6F2"/>
    </linearGradient>
    <radialGradient id="paint6_radial" cx="0" cy="0" r="1" gradientUnits="userSpaceOnUse" gradientTransform="translate(183 207) rotate(90) scale(172.5 139)">
      <stop stop-color="#010101" stop-opacity="0"/>
      <stop offset="0.44058" stop-opacity="0.2"/>
      <stop offset="0.53913" stop-opacity="0.6"/>
      <stop offset="0.753623" stop-opacity="0"/>
    </radialGradient>
    <linearGradient id="paint7_linear" x1="3.00012" y1="233.783" x2="363" y2="233.783" gradientUnits="userSpaceOnUse">
      <stop stop-color="#9039FF"/>
      <stop offset="0.496" stop-color="#E542FF"/>
      <stop offset="1" stop-color="#9039FF"/>
    </linearGradient>
    <radialGradient id="paint8_radial" cx="0" cy="0" r="1" gradientUnits="userSpaceOnUse" gradientTransform="translate(183 206) rotate(89.8541) scale(168.578 167.317)">
      <stop stop-opacity="0"/>
      <stop offset="0.439966" stop-opacity="0"/>
      <stop offset="0.541078" stop-opacity="0.3"/>
      <stop offset="0.779487" stop-opacity="0"/>
    </radialGradient>
    <linearGradient id="paint9_linear" x1="12.0455" y1="120.212" x2="353.05" y2="120.212" gradientUnits="userSpaceOnUse">
      <stop stop-color="#0061F2"/>
      <stop offset="0.505208" stop-color="#87C5FF"/>
      <stop offset="1" stop-color="#0061F2"/>
    </linearGradient>
    <linearGradient id="paint10_linear" x1="359.404" y1="21.6102" x2="359.404" y2="402.876" gradientUnits="userSpaceOnUse">
      <stop stop-color="#39F8B3"/>
      <stop offset="0.505208" stop-color="#B1FF74"/>
      <stop offset="0.9999" stop-color="#39F8B3"/>
    </linearGradient>
  </defs>
  <mask id="mask0" mask-type="alpha" maskUnits="userSpaceOnUse" x="3" y="0" width="360" height="457">
    <path d="M363 228.48C363 354.666 282.411 456.96 183 456.96C83.5887 456.96 3 354.666 3 228.48C3 102.294 83.5887 0 183 0C282.411 0 363 102.294 363 228.48Z" fill="url(#paint0_radial)"/>
  </mask>
  <g mask="url(#mask0)">
    <g filter="url(#filter0_df)">
      <path fill-rule="evenodd" clip-rule="evenodd" d="M3 6.69727V8.61727H363V6.69727H3ZM3 20.1372V18.2172H363V20.1372H3ZM3 29.7372V31.6572H363V29.7372H3ZM3 43.1772V41.2572H363V43.1772H3ZM3 52.7772V54.6972H363V52.7772H3ZM3 66.2172V64.2972H363V66.2172H3ZM3 75.8172V77.7372H363V75.8172H3ZM3 89.2573V87.3373H363V89.2573H3ZM3 98.8571V100.777H363V98.8571H3ZM3 112.297V110.377H363V112.297H3ZM3 121.897V123.817H363V121.897H3ZM3 133.417V135.337H363V133.417H3ZM3 144.937V146.857H363V144.937H3ZM3 158.377V156.457H363V158.377H3ZM3 167.977V169.897H363V167.977H3ZM3 181.417V179.497H363V181.417H3ZM3 191.017V192.937H363V191.017H3ZM3 204.457V202.537H363V204.457H3ZM3 214.057V215.977H363V214.057H3ZM3 227.497V225.577H363V227.497H3ZM3 237.097V239.017H363V237.097H3ZM3 250.537V248.617H363V250.537H3ZM3 260.137V262.057H363V260.137H3ZM3 273.577V271.657H363V273.577H3ZM3 283.177V285.097H363V283.177H3ZM3 296.617V294.697H363V296.617H3ZM3 306.217V308.137H363V306.217H3ZM3 319.657V317.737H363V319.657H3ZM3 329.257V331.177H363V329.257H3ZM3 342.697V340.777H363V342.697H3ZM3 352.297V354.217H363V352.297H3ZM3 365.737V363.817H363V365.737H3ZM3 375.337V377.257H363V375.337H3ZM3 388.777V386.857H363V388.777H3ZM3 398.377V400.297H363V398.377H3ZM3 411.817V409.897H363V411.817H3Z" fill="url(#paint1_linear)"/>
    </g>
  </g>
  <mask id="mask1" mask-type="alpha" maskUnits="userSpaceOnUse" x="3" y="0" width="360" height="457">
    <path d="M363 228.48C363 354.666 282.411 456.96 183 456.96C83.5887 456.96 3 354.666 3 228.48C3 102.294 83.5887 0 183 0C282.411 0 363 102.294 363 228.48Z" fill="url(#paint2_radial)"/>
  </mask>
  <g mask="url(#mask1)">
    <g filter="url(#filter1_d)">
      <path fill-rule="evenodd" clip-rule="evenodd" d="M3 11.4971V15.3371H363V11.4971H3ZM3 26.857V23.017H363V26.857H3ZM3 34.537V38.377H363V34.537H3ZM3 49.897V46.057H363V49.897H3ZM3 57.5769V61.4169H363V57.5769H3ZM3 72.9371V69.0971H363V72.9371H3ZM3 80.6171V84.4571H363V80.6171H3ZM3 95.9771V92.1371H363V95.9771H3ZM3 103.657V107.497H363V103.657H3ZM3 119.017V115.177H363V119.017H3ZM3 126.697V130.537H363V126.697H3ZM3 142.057V138.217H363V142.057H3ZM3 149.737V153.577H363V149.737H3ZM3 165.097V161.257H363V165.097H3ZM3 172.777V176.617H363V172.777H3ZM3 188.137V184.297H363V188.137H3ZM3 195.817V199.657H363V195.817H3ZM3 211.177V207.337H363V211.177H3ZM3 218.857V222.697H363V218.857H3ZM3 234.217V230.377H363V234.217H3ZM3 241.897V245.737H363V241.897H3ZM3 253.417V257.257H363V253.417H3ZM3 264.937V268.777H363V264.937H3ZM3 280.297V276.457H363V280.297H3ZM3 287.977V291.817H363V287.977H3ZM3 303.337V299.497H363V303.337H3ZM3 311.017V314.857H363V311.017H3ZM3 326.377V322.537H363V326.377H3ZM3 334.057V337.897H363V334.057H3ZM3 349.417V345.577H363V349.417H3ZM3 357.097V360.937H363V357.097H3ZM3 372.457V368.617H363V372.457H3ZM3 380.137V383.977H363V380.137H3ZM3 395.497V391.657H363V395.497H3ZM3 403.177V407.017H363V403.177H3ZM3 418.537V414.697H363V418.537H3Z" fill="url(#paint3_linear)"/>
    </g>
  </g>
  <g filter="url(#filter2_f)">
    <mask id="mask2" mask-type="alpha" maskUnits="userSpaceOnUse" x="0" y="0" width="366" height="414">
      <path d="M366 207C366 321.323 284.068 414 183 414C81.9319 414 0 321.323 0 207C0 92.6771 81.9319 0 183 0C284.068 0 366 92.6771 366 207Z" fill="url(#paint4_radial)"/>
    </mask>
    <g mask="url(#mask2)">
      <path fill-rule="evenodd" clip-rule="evenodd" d="M2.99988 18.2173V20.1373H363V18.2173H2.99988ZM2.99988 31.6573V29.7373H363V31.6573H2.99988ZM2.99988 41.2572V43.1772H363V41.2572H2.99988ZM2.99988 54.6973V52.7773H363V54.6973H2.99988ZM2.99988 64.2973V66.2173H363V64.2973H2.99988ZM2.99988 77.7372V75.8172H363V77.7372H2.99988ZM2.99988 87.3373V89.2573H363V87.3373H2.99988ZM2.99988 100.777V98.8572H363V100.777H2.99988ZM2.99988 110.377V112.297H363V110.377H2.99988ZM2.99988 123.817V121.897H363V123.817H2.99988ZM2.99988 133.417V135.337H363V133.417H2.99988ZM2.99988 144.937V146.857H363V144.937H2.99988ZM2.99988 158.377V156.457H363V158.377H2.99988ZM2.99988 167.977V169.897H363V167.977H2.99988ZM2.99988 181.417V179.497H363V181.417H2.99988ZM2.99988 191.017V192.937H363V191.017H2.99988ZM2.99988 204.457V202.537H363V204.457H2.99988ZM2.99988 214.057V215.977H363V214.057H2.99988ZM2.99988 227.497V225.577H363V227.497H2.99988ZM2.99988 237.097V239.017H363V237.097H2.99988ZM2.99988 250.537V248.617H363V250.537H2.99988ZM2.99988 260.137V262.057H363V260.137H2.99988ZM2.99988 273.577V271.657H363V273.577H2.99988ZM2.99988 283.177V285.097H363V283.177H2.99988ZM2.99988 296.617V294.697H363V296.617H2.99988ZM2.99988 306.217V308.137H363V306.217H2.99988ZM2.99988 319.657V317.737H363V319.657H2.99988ZM2.99988 329.257V331.177H363V329.257H2.99988ZM2.99988 342.697V340.777H363V342.697H2.99988ZM2.99988 352.297V354.217H363V352.297H2.99988ZM2.99988 365.737V363.817H363V365.737H2.99988ZM2.99988 375.337V377.257H363V375.337H2.99988ZM2.99988 388.777V386.857H363V388.777H2.99988ZM2.99988 398.377V400.297H363V398.377H2.99988Z" fill="url(#paint5_linear)"/>
    </g>
  </g>
  <g filter="url(#filter3_f)">
    <mask id="mask3" mask-type="alpha" maskUnits="userSpaceOnUse" x="0" y="0" width="366" height="414">
      <path d="M366 207C366 321.323 284.068 414 183 414C81.9319 414 0 321.323 0 207C0 92.6771 81.9319 0 183 0C284.068 0 366 92.6771 366 207Z" fill="url(#paint6_radial)"/>
    </mask>
    <g mask="url(#mask3)">
      <g filter="url(#filter4_d)">
        <path fill-rule="evenodd" clip-rule="evenodd" d="M3 11.4976V15.3376H363V11.4976H3ZM3 26.8575V23.0175H363V26.8575H3ZM3 34.5375V38.3775H363V34.5375H3ZM3 49.8975V46.0575H363V49.8975H3ZM3 57.5774V61.4174H363V57.5774H3ZM3 72.9376V69.0976H363V72.9376H3ZM3 80.6176V84.4576H363V80.6176H3ZM3 95.9775V92.1376H363V95.9775H3ZM3 103.658V107.498H363V103.658H3ZM3 119.017V115.177H363V119.017H3ZM3 126.698V130.538H363V126.698H3ZM3 142.058V138.218H363V142.058H3ZM3 149.738V153.577H363V149.738H3ZM3 165.098V161.258H363V165.098H3ZM3 172.777V176.617H363V172.777H3ZM3 188.137V184.298H363V188.137H3ZM3 195.817V199.657H363V195.817H3ZM3 211.177V207.337H363V211.177H3ZM3 218.858V222.698H363V218.858H3ZM3 234.217V230.377H363V234.217H3ZM3 241.897V245.737H363V241.897H3ZM3 257.258V253.418H363V257.258H3ZM3 268.778V264.938H363V268.778H3ZM3 276.458V280.298H363V276.458H3ZM3 291.818V287.978H363V291.818H3ZM3 299.497V303.337H363V299.497H3ZM3 314.858V311.018H363V314.858H3ZM3 322.537V326.377H363V322.537H3ZM3 337.897V334.057H363V337.897H3ZM3 345.578V349.418H363V345.578H3ZM3 360.937V357.097H363V360.937H3ZM3 368.618V372.458H363V368.618H3ZM3 383.977V380.137H363V383.977H3ZM3 391.657V395.497H363V391.657H3ZM3 407.018V403.178H363V407.018H3Z" fill="url(#paint7_linear)"/>
      </g>
    </g>
  </g>
  <g filter="url(#filter5_f)">
    <mask id="mask4" mask-type="alpha" maskUnits="userSpaceOnUse" x="22" y="0" width="322" height="413">
      <path d="M343.8 206.4C343.8 320.392 271.808 412.8 183 412.8C94.1931 412.8 22.2004 320.392 22.2004 206.4C22.2004 92.4084 94.1931 0 183 0C271.808 0 343.8 92.4084 343.8 206.4Z" fill="url(#paint8_radial)"/>
    </mask>
    <g mask="url(#mask4)">
      <mask id="mask5" mask-type="alpha" maskUnits="userSpaceOnUse" x="3" y="6" width="361" height="395">
        <path fill-rule="evenodd" clip-rule="evenodd" d="M3.00024 6.69727V8.61727H363V6.69727H3.00024ZM3.00024 20.1372V18.2172H363V20.1372H3.00024ZM3.00024 29.7372V31.6572H363V29.7372H3.00024ZM3.00024 43.1772V41.2572H363V43.1772H3.00024ZM3.00024 52.7772V54.6972H363V52.7772H3.00024ZM3.00024 66.2172V64.2972H363V66.2172H3.00024ZM3.00024 75.8172V77.7372H363V75.8172H3.00024ZM3.00024 89.2573V87.3373H363V89.2573H3.00024ZM3.00024 98.8571V100.777H363V98.8571H3.00024ZM3.00024 112.297V110.377H363V112.297H3.00024ZM3.00024 121.897V123.817H363V121.897H3.00024ZM3.00024 135.337V133.417H363V135.337H3.00024ZM3.00024 146.857V144.937H363V146.857H3.00024ZM3.00024 156.457V158.377H363V156.457H3.00024ZM3.00024 169.897V167.977H363V169.897H3.00024ZM3.00024 179.497V181.417H363V179.497H3.00024ZM3.00024 192.937V191.017H363V192.937H3.00024ZM3.00024 202.537V204.457H363V202.537H3.00024ZM3.00024 215.977V214.057H363V215.977H3.00024ZM3.00024 225.577V227.497H363V225.577H3.00024ZM3.00024 239.017V237.097H363V239.017H3.00024ZM3.00024 248.617V250.537H363V248.617H3.00024ZM3.00024 262.057V260.137H363V262.057H3.00024ZM3.00024 271.657V273.577H363V271.657H3.00024ZM3.00024 285.097V283.177H363V285.097H3.00024ZM3.00024 294.697V296.617H363V294.697H3.00024ZM3.00024 308.137V306.217H363V308.137H3.00024ZM3.00024 317.737V319.657H363V317.737H3.00024ZM3.00024 331.177V329.257H363V331.177H3.00024ZM3.00024 340.777V342.697H363V340.777H3.00024ZM3.00024 354.217V352.297H363V354.217H3.00024ZM3.00024 363.817V365.737H363V363.817H3.00024ZM3.00024 377.257V375.337H363V377.257H3.00024ZM3.00024 386.857V388.777H363V386.857H3.00024ZM3.00024 400.297V398.377H363V400.297H3.00024Z" fill="url(#paint9_linear)"/>
      </mask>
      <g mask="url(#mask5)">
        <g filter="url(#filter6_d)">
          <path fill-rule="evenodd" clip-rule="evenodd" d="M361.08 11.4971L359.16 11.4971L359.16 414L361.08 414L361.08 11.4971ZM350.521 11.4971L352.441 11.4971L352.441 414L350.521 414L350.521 11.4971ZM343.8 11.4971L341.88 11.4971L341.88 414L343.8 414L343.8 11.4971ZM333.241 11.4971L335.161 11.4971L335.161 414L333.241 414L333.241 11.4971ZM326.52 11.4971L324.6 11.4971L324.6 414L326.52 414L326.52 11.4971ZM315.96 11.4971L317.88 11.4971L317.88 414L315.96 414L315.96 11.4971ZM309.241 11.4971L307.321 11.4971L307.321 414L309.241 414L309.241 11.4971ZM298.68 11.4971L300.6 11.4971L300.6 414L298.68 414L298.68 11.4971ZM291.96 11.4971L290.04 11.4971L290.04 414L291.96 414L291.96 11.4971ZM281.4 11.4971L283.32 11.4971L283.32 414L281.4 414L281.4 11.4971ZM274.68 11.4971L272.76 11.4971L272.76 414L274.68 414L274.68 11.4971ZM266.04 11.4971L264.12 11.4971L264.12 414L266.04 414L266.04 11.4971ZM257.4 11.4971L255.48 11.4971L255.48 414L257.4 414L257.4 11.4971ZM246.84 11.4971L248.76 11.4971L248.76 414L246.84 414L246.84 11.4971ZM240.121 11.4971L238.201 11.4971L238.201 414L240.121 414L240.121 11.4971ZM229.56 11.4971L231.48 11.4971L231.48 414L229.56 414L229.56 11.4971ZM222.841 11.4971L220.921 11.4971L220.921 414L222.841 414L222.841 11.4971ZM212.28 11.4971L214.2 11.4971L214.2 414L212.28 414L212.28 11.4971ZM205.561 11.4971L203.641 11.4971L203.641 414L205.561 414L205.561 11.4971ZM195 11.4971L196.92 11.4971L196.92 414L195 414L195 11.4971ZM188.281 11.4971L186.361 11.4971L186.361 414L188.281 414L188.281 11.4971ZM177.72 11.4971L179.64 11.4971L179.64 414L177.72 414L177.72 11.4971ZM171 11.4971L169.08 11.4971L169.08 414L171 414L171 11.4971ZM160.44 11.4971L162.36 11.4971L162.36 414L160.44 414L160.44 11.4971ZM153.72 11.4971L151.8 11.4971L151.8 414L153.72 414L153.72 11.4971ZM143.16 11.4971L145.08 11.4971L145.08 414L143.16 414L143.16 11.4971ZM136.44 11.4971L134.52 11.4971L134.52 414L136.44 414L136.44 11.4971ZM125.88 11.4971L127.799 11.4971L127.799 414L125.879 414L125.88 11.4971ZM119.16 11.4971L117.24 11.4971L117.24 414L119.16 414L119.16 11.4971ZM108.601 11.4971L110.521 11.4971L110.521 414L108.601 414L108.601 11.4971ZM101.88 11.4971L99.96 11.4971L99.96 414L101.88 414L101.88 11.4971ZM91.3211 11.4971L93.2411 11.4971L93.2411 414L91.3211 414L91.3211 11.4971ZM84.5994 11.4971L82.6794 11.4971L82.6794 414L84.5994 414L84.5994 11.4971ZM74.0405 11.4971L75.9605 11.4971L75.9605 414L74.0405 414L74.0405 11.4971ZM67.3198 11.4971L65.3997 11.4971L65.3997 414L67.3197 414L67.3198 11.4971ZM56.7608 11.4971L58.6808 11.4971L58.6808 414L56.7608 414L56.7608 11.4971ZM50.0401 11.4971L48.1201 11.4971L48.1201 414L50.0401 414L50.0401 11.4971ZM39.4812 11.4971L41.4012 11.4971L41.4012 414L39.4812 414L39.4812 11.4971ZM32.7595 11.4971L30.8395 11.4971L30.8395 414L32.7595 414L32.7595 11.4971ZM22.2006 11.4971L24.1206 11.4971L24.1206 414L22.2006 414L22.2006 11.4971ZM15.4799 11.4971L13.5598 11.4971L13.5598 414L15.4798 414L15.4799 11.4971ZM4.92093 11.4971L6.84094 11.4971L6.84092 414L4.92091 414L4.92093 11.4971Z" fill="url(#paint10_linear)"/>
        </g>
      </g>
    </g>
  </g>
</svg>
