<svg width="235" height="218" viewBox="0 0 235 218" fill="none" xmlns="http://www.w3.org/2000/svg">
  <defs>
    <filter id="filter0_f" x="-4.07001" y="0.899902" width="238.998" height="216.201"
        filterUnits="userSpaceOnUse" color-interpolation-filters="sRGB">
      <feFlood flood-opacity="0" result="BackgroundImageFix"/>
      <feBlend mode="normal" in="SourceGraphic" in2="BackgroundImageFix" result="shape"/>
      <feGaussianBlur stdDeviation="10"/>
    </filter>
    <linearGradient id="paint0_linear" x1="19" y1="24" x2="212" y2="194"
        gradientUnits="userSpaceOnUse">
      <stop stop-color="#39C4DA"/>
      <stop offset="0.526042" stop-color="#B88DFC"/>
      <stop offset="1" stop-color="#FF67B9"/>
    </linearGradient>
  </defs>
  <g filter="url(#filter0_f)">
    <path fill-rule="evenodd" clip-rule="evenodd"
        d="M26.6422 26.8999C24.0389 26.8999 21.93 29.0095 21.93 31.6099C21.93 34.2103 24.0389 36.3199 26.6422 36.3199C29.2456 36.3199 31.3545 34.2103 31.3545 31.6099C31.3545 29.0095 29.2456 26.8999 26.6422 26.8999ZM15.93 31.6099C15.93 25.6941 20.7269 20.8999 26.6422 20.8999C32.5576 20.8999 37.3545 25.6941 37.3545 31.6099C37.3545 37.5257 32.5576 42.3199 26.6422 42.3199C20.7269 42.3199 15.93 37.5257 15.93 31.6099ZM61.1468 26.9023C56.7747 26.9023 53.2292 30.4476 53.2292 34.8223C53.2292 39.1971 56.7747 42.7423 61.1468 42.7423C65.5189 42.7423 69.0643 39.1971 69.0643 34.8223C69.0643 30.4476 65.5189 26.9023 61.1468 26.9023ZM47.2292 34.8223C47.2292 27.1352 53.4597 20.9023 61.1468 20.9023C68.8339 20.9023 75.0643 27.1352 75.0643 34.8223C75.0643 42.5095 68.8339 48.7423 61.1468 48.7423C53.4597 48.7423 47.2292 42.5095 47.2292 34.8223ZM115.544 21.9864C121.167 21.2519 126.847 21.0594 132.507 21.4116L132.509 21.4118C180.982 24.4642 217.804 66.2283 214.751 114.697C212.041 157.779 178.739 191.62 137.336 196.483C132.069 197.108 126.757 197.259 121.464 196.934L121.46 196.934C73.6889 193.928 37.2628 153.315 39.1357 105.757C39.1197 105.371 39.1318 104.88 39.1453 104.472C39.1656 103.86 39.2037 103.104 39.2582 102.318C39.3593 100.862 39.5387 98.9417 39.8509 97.7837C41.268 92.4971 44.5376 87.8956 49.0637 84.8178C53.5907 81.7394 59.0733 80.3903 64.5119 81.0163C69.9506 81.6423 74.9833 84.2017 78.6924 88.228C82.4015 92.2544 84.5401 97.4795 84.7182 102.951C84.7238 103.147 84.7061 103.473 84.6816 103.925C84.5931 105.555 84.415 108.836 84.9106 113.718C85.5198 119.719 87.1362 126.974 91.0056 132.85C93.7649 137.041 97.0824 141.302 105.522 146.194C111.254 149.516 117.68 151.461 124.293 151.872L124.296 151.873C147.88 153.366 168.202 135.445 169.686 111.861C170.128 104.821 168.821 97.7801 165.884 91.366C162.946 84.9517 158.469 79.3629 152.849 75.0969C147.23 70.8308 140.643 68.0199 133.674 66.9142C126.706 65.8085 119.572 66.4423 112.908 68.7592L112.906 68.76C112.096 69.0407 110.082 69.6889 108.031 70.2692C107.005 70.5598 105.936 70.8428 104.985 71.0557C104.121 71.2494 103.086 71.4495 102.258 71.4495C96.207 71.4495 90.404 69.046 86.1254 64.7678C81.8467 60.4896 79.4429 54.687 79.4429 48.6366C79.4429 38.8019 85.3395 31.6054 93.7841 27.481L93.8257 27.4606L93.8679 27.4416L95.1007 30.1766C93.8679 27.4416 93.8685 27.4414 93.869 27.4411L93.8703 27.4405L93.8827 27.435L93.9113 27.4222C93.935 27.4117 93.9678 27.3973 94.0095 27.379C94.093 27.3426 94.212 27.2912 94.3648 27.2267C94.6704 27.0978 95.1112 26.9164 95.672 26.6977C96.793 26.2606 98.3976 25.6728 100.363 25.0564C104.265 23.833 109.654 22.4761 115.544 21.9864ZM96.3686 32.8961C89.4744 36.2793 85.4429 41.6558 85.4429 48.6366C85.4429 53.0955 87.2144 57.3719 90.3678 60.525C93.5212 63.678 97.7981 65.4495 102.258 65.4495C102.269 65.4489 102.392 65.443 102.667 65.3995C102.936 65.3567 103.274 65.2904 103.674 65.2008C104.473 65.0218 105.424 64.7713 106.398 64.496C108.347 63.9444 110.249 63.3306 110.94 63.0912C118.537 60.4501 126.67 59.7277 134.615 60.9883C142.56 62.249 150.07 65.4539 156.477 70.3179C162.884 75.1819 167.99 81.5542 171.339 88.8678C174.688 96.1814 176.178 104.209 175.675 112.238C173.982 139.125 150.813 159.562 123.92 157.861C116.379 157.391 109.05 155.174 102.513 151.385C93.1191 145.939 89.1612 140.959 85.9944 136.15C81.3638 129.117 79.5948 120.762 78.9412 114.324C78.317 108.174 78.6969 102.536 78.7222 103.168L78.7217 103.157L78.7214 103.146C78.5901 99.113 77.0137 95.2613 74.2795 92.2933C71.5452 89.3252 67.8353 87.4384 63.8259 86.9769C59.8165 86.5155 55.7748 87.5101 52.4376 89.7794C49.1004 92.0487 46.69 95.4415 45.6457 99.3393L45.6442 99.3451C45.5089 99.8459 45.3514 101.184 45.2438 102.734C45.194 103.452 45.1598 104.136 45.142 104.671C45.1295 105.047 45.1283 105.272 45.1277 105.377C45.1273 105.45 45.1272 105.465 45.1241 105.434L45.1452 105.645L45.1365 105.856C43.316 150.227 77.282 188.142 121.836 190.945C126.77 191.249 131.721 191.108 136.63 190.524L136.634 190.524C175.213 185.994 206.239 154.454 208.763 114.32C211.608 69.1597 177.299 30.2448 132.133 27.4C126.835 27.0703 121.517 27.2527 116.254 27.9447L116.181 27.9543L116.107 27.9603C110.77 28.3972 105.808 29.6372 102.158 30.7815C100.341 31.3516 98.8651 31.8926 97.8519 32.2877C97.3456 32.4851 96.9558 32.6457 96.6976 32.7547C96.5684 32.8092 96.4723 32.8507 96.411 32.8775L96.3686 32.8961ZM46.989 52.2783C40.8279 52.2783 35.8335 57.2727 35.8335 63.4333C35.8335 69.594 40.8279 74.5883 46.989 74.5883C53.1501 74.5883 58.1445 69.594 58.1445 63.4333C58.1445 57.2727 53.1501 52.2783 46.989 52.2783ZM29.8335 63.4333C29.8335 53.9588 37.5144 46.2783 46.989 46.2783C56.4636 46.2783 64.1445 53.9588 64.1445 63.4333C64.1445 72.9079 56.4636 80.5883 46.989 80.5883C37.5144 80.5883 29.8335 72.9079 29.8335 63.4333Z"
        fill="url(#paint0_linear)"/>
  </g>
</svg>
