<svg width="254" height="254" viewBox="0 0 254 254" fill="none" xmlns="http://www.w3.org/2000/svg">
  <path d="M61.1468 63.7423C67.1764 63.7423 72.0643 58.8533 72.0643 52.8223C72.0643 46.7914 67.1764 41.9023 61.1468 41.9023C55.1172 41.9023 50.2292 46.7914 50.2292 52.8223C50.2292 58.8533 55.1172 63.7423 61.1468 63.7423Z" stroke="white" stroke-width="2"/>
  <path d="M26.6422 57.3199C30.9016 57.3199 34.3545 53.868 34.3545 49.6099C34.3545 45.3518 30.9016 41.8999 26.6422 41.8999C22.3829 41.8999 18.93 45.3518 18.93 49.6099C18.93 53.868 22.3829 57.3199 26.6422 57.3199Z" stroke="white" stroke-width="2"/>
  <path d="M211.757 132.508C209.14 174.117 176.975 206.808 136.984 211.503C131.895 212.108 126.763 212.254 121.648 211.939C75.4608 209.033 40.2518 169.729 42.1391 123.733C42.0737 123.082 42.3 118.221 42.7479 116.563C43.9784 111.97 46.8186 107.972 50.7507 105.299C54.6827 102.625 59.4449 101.453 64.1689 101.997C68.8929 102.54 73.2642 104.763 76.4859 108.261C79.7076 111.758 81.5651 116.296 81.7198 121.048C81.7291 121.282 80 139.591 88.5 152.5C91.463 157 95.1007 161.62 104.017 166.789C110.152 170.345 117.03 172.426 124.107 172.867C149.345 174.464 171.092 155.286 172.681 130.05C173.153 122.515 171.755 114.981 168.612 108.117C165.468 101.253 160.677 95.2724 154.663 90.7074C148.65 86.1424 141.601 83.1344 134.144 81.9512C126.688 80.768 119.054 81.4463 111.923 83.9256C110.423 84.4458 104.089 86.4495 102.258 86.4495C97.0026 86.4495 91.9626 84.362 88.2466 80.6464C84.5306 76.9308 82.4429 71.8913 82.4429 66.6366C82.4429 58.2207 87.4165 51.9297 95.1007 48.1766C95.1007 48.1766 104.607 43.8917 115.863 42.9703C121.318 42.2531 126.829 42.0641 132.321 42.4058C179.14 45.3542 214.706 85.6937 211.757 132.508Z" stroke="white" stroke-width="2"/>
  <path d="M46.989 95.5883C54.8068 95.5883 61.1445 89.2509 61.1445 81.4333C61.1445 73.6157 54.8068 67.2783 46.989 67.2783C39.1711 67.2783 32.8335 73.6157 32.8335 81.4333C32.8335 89.2509 39.1711 95.5883 46.989 95.5883Z" stroke="white" stroke-width="2"/>
</svg>

