<svg width="93" height="24" viewBox="0 0 93 24" fill="none" xmlns="http://www.w3.org/2000/svg">
    <g clip-path="url(#clip0_1019_5987)">
        <path d="M43.5996 11.0998C43.0996 11.0998 42.5996 11.1998 42.0996 11.3998C41.5996 11.5998 41.1996 11.7998 40.7996 12.1998C40.3996 12.4998 40.1996 12.8998 39.8996 13.3998C39.6996 13.8998 39.5996 14.4998 39.5996 15.0998C39.5996 16.3998 39.9996 17.3998 40.6996 18.0998C41.4996 18.7998 42.3996 19.0998 43.4996 19.0998C44.0996 19.0998 44.6996 18.9998 45.1996 18.8998C45.6996 18.6998 46.0996 18.5998 46.4996 18.3998C46.8996 18.6998 47.2996 18.9998 47.4996 19.3998C47.6996 19.7998 47.7996 20.1998 47.7996 20.6998C47.7996 21.5998 47.3996 22.2998 46.4996 22.6998C45.6996 23.1998 44.4996 23.3998 42.9996 23.3998C41.5996 23.3998 40.3996 23.1998 39.2996 22.7998C38.1996 22.3998 37.2996 21.7998 36.4996 21.0998C35.6996 20.3998 35.0996 19.4998 34.6996 18.4998C34.2996 17.4998 34.0996 16.3998 34.0996 15.0998C34.0996 13.6998 34.2996 12.3998 34.7996 11.3998C35.2996 10.2998 35.8996 9.4998 36.6996 8.7998C37.4996 8.0998 38.3996 7.5998 39.4996 7.2998C40.4996 6.9998 41.5996 6.7998 42.7996 6.7998C44.2996 6.7998 45.4996 7.0998 46.3996 7.5998C47.1996 8.1998 47.6996 8.8998 47.6996 9.7998C47.6996 10.1998 47.5996 10.5998 47.3996 10.8998C47.1996 11.2998 46.9996 11.5998 46.6996 11.7998C46.2996 11.5998 45.8996 11.4998 45.3996 11.2998C44.6996 11.1998 44.1996 11.0998 43.5996 11.0998Z" fill="#CBAAFF"/>
        <path d="M28.4 22.9002C28.2 23.0002 27.8 23.0002 27.4 23.1002C26.9 23.2002 26.5 23.2002 26 23.2002C25.5 23.2002 25.1 23.2002 24.7 23.1002C24.3 23.0002 24 22.9002 23.7 22.7002C23.4 22.5002 23.2 22.2002 23.1 21.9002C23 21.6002 23 21.2002 23 20.6002V10.9002C23 10.4002 23.1 10.0002 23.3 9.6002C23.5 9.2002 23.7 8.9002 24.1 8.6002C24.4 8.3002 24.9 8.1002 25.4 7.8002C25.9 7.6002 26.4 7.4002 27 7.2002C27.6 7.0002 28.2 6.9002 28.8 6.8002C29.4 6.7002 30 6.7002 30.7 6.7002C31.7 6.7002 32.6 6.9002 33.2 7.3002C33.8 7.7002 34.1 8.3002 34.1 9.3002C34.1 9.6002 34.1 9.9002 34 10.2002C33.9 10.5002 33.8 10.8002 33.7 11.0002C33.2 11.0002 32.8 11.0002 32.3 11.1002C31.8 11.1002 31.4 11.2002 30.9 11.3002C30.4 11.4002 30 11.5002 29.6 11.6002C29.2 11.7002 28.9 11.8002 28.6 11.9002V22.9002H28.4Z" fill="#CBAAFF"/>
        <path d="M65.4996 22.9001C65.2996 23.0001 64.8996 23.0001 64.4996 23.1001C63.9996 23.2001 63.5996 23.2001 63.0996 23.2001C62.5996 23.2001 62.1996 23.2001 61.7996 23.1001C61.3996 23.0001 61.0996 22.9001 60.7996 22.7001C60.4996 22.5001 60.2996 22.2001 60.1996 21.9001C60.0996 21.6001 59.9996 21.1001 59.9996 20.6001V13.4001C59.9996 12.5001 59.7996 11.9001 59.2996 11.5001C58.8996 11.1001 58.2996 11.0001 57.6996 11.0001C57.2996 11.0001 56.8996 11.1001 56.4996 11.2001C56.0996 11.3001 55.7996 11.4001 55.5996 11.6001V22.9001C55.3996 23.0001 54.9996 23.0001 54.5996 23.1001C54.0996 23.2001 53.6996 23.2001 53.1996 23.2001C52.6996 23.2001 52.2996 23.2001 51.8996 23.1001C51.4996 23.0001 51.1996 22.9001 50.8996 22.7001C50.5996 22.5001 50.3996 22.2001 50.2996 21.9001C50.1996 21.6001 50.0996 21.1001 50.0996 20.6001V1.9001C50.2996 1.9001 50.6996 1.8001 51.0996 1.7001C51.5996 1.6001 51.9996 1.6001 52.4996 1.6001C52.9996 1.6001 53.3996 1.6001 53.7996 1.7001C54.1996 1.8001 54.4996 1.9001 54.7996 2.1001C55.0996 2.3001 55.2996 2.6001 55.3996 2.9001C55.4996 3.2001 55.5996 3.7001 55.5996 4.2001V7.4001C55.8996 7.3001 56.2996 7.2001 56.8996 7.0001C57.4996 6.9001 58.0996 6.8001 58.7996 6.8001C60.8996 6.8001 62.5996 7.3001 63.7996 8.4001C64.9996 9.5001 65.5996 11.1001 65.5996 13.2001V22.9001H65.4996Z" fill="#CBAAFF"/>
        <path d="M68.8008 2.9C68.8008 2.1 69.1008 1.4 69.6008 0.8C70.1008 0.3 70.9008 0 71.8008 0C72.7008 0 73.4008 0.3 74.0008 0.8C74.5008 1.4 74.8008 2 74.8008 2.9C74.8008 3.7 74.5008 4.4 74.0008 5C73.5008 5.6 72.7008 5.8 71.8008 5.8C70.9008 5.8 70.2008 5.5 69.6008 5C69.0008 4.4 68.8008 3.7 68.8008 2.9ZM74.5008 22.9C74.3008 22.9 73.9008 23 73.5008 23.1C73.0008 23.2 72.6008 23.2 72.1008 23.2C71.6008 23.2 71.2008 23.2 70.8008 23.1C70.4008 23 70.1008 22.9 69.8008 22.7C69.5008 22.5 69.3008 22.2 69.2008 21.9C69.1008 21.6 69.0008 21.1 69.0008 20.6V7.5C69.2008 7.5 69.6008 7.4 70.0008 7.3C70.5008 7.2 70.9008 7.2 71.4008 7.2C71.9008 7.2 72.3008 7.2 72.7008 7.3C73.1008 7.4 73.4008 7.5 73.7008 7.7C74.0008 7.9 74.2008 8.2 74.3008 8.5C74.4008 8.8 74.5008 9.3 74.5008 9.8V22.9Z" fill="#CBAAFF"/>
        <path d="M76.8008 15.1001C76.8008 13.7001 77.0008 12.4001 77.4008 11.4001C77.8008 10.4001 78.4008 9.5001 79.2008 8.8001C80.0008 8.1001 80.9008 7.6001 81.9008 7.3001C82.9008 7.0001 84.0008 6.8001 85.2008 6.8001C85.6008 6.8001 86.0008 6.8001 86.5008 6.9001C86.9008 7.0001 87.2008 7.1001 87.5008 7.2001V1.9001C87.7008 1.8001 88.1008 1.8001 88.5008 1.7001C89.0008 1.6001 89.5008 1.6001 90.0008 1.6001C90.5008 1.6001 90.9008 1.6001 91.3008 1.7001C91.7008 1.8001 92.0008 1.9001 92.3008 2.1001C92.6008 2.3001 92.8008 2.6001 92.9008 2.9001C92.9008 3.2001 93.0008 3.7001 93.0008 4.2001V19.5001C93.0008 20.5001 92.5008 21.3001 91.6008 21.9001C91.0008 22.3001 90.2008 22.7001 89.2008 23.0001C88.2008 23.3001 87.1008 23.5001 85.8008 23.5001C84.4008 23.5001 83.1008 23.3001 82.0008 22.9001C80.9008 22.5001 80.0008 22.0001 79.2008 21.2001C78.4008 20.5001 77.9008 19.6001 77.5008 18.6001C77.0008 17.6001 76.8008 16.4001 76.8008 15.1001ZM86.0008 11.1001C84.8008 11.1001 83.9008 11.4001 83.3008 12.1001C82.7008 12.8001 82.4008 13.8001 82.4008 15.1001C82.4008 16.4001 82.7008 17.4001 83.3008 18.1001C83.9008 18.8001 84.7008 19.1001 85.8008 19.1001C86.2008 19.1001 86.5008 19.0001 86.8008 18.9001C87.1008 18.8001 87.4008 18.6001 87.5008 18.5001V11.4001C87.1008 11.2001 86.6008 11.1001 86.0008 11.1001Z" fill="#CBAAFF"/>
        <path d="M4.39922 7.9C5.06196 7.9 5.59922 7.36274 5.59922 6.7C5.59922 6.03726 5.06196 5.5 4.39922 5.5C3.73648 5.5 3.19922 6.03726 3.19922 6.7C3.19922 7.36274 3.73648 7.9 4.39922 7.9Z" fill="#CBAAFF"/>
        <path d="M0.8 7.2001C1.24183 7.2001 1.6 6.84193 1.6 6.4001C1.6 5.95827 1.24183 5.6001 0.8 5.6001C0.358172 5.6001 0 5.95827 0 6.4001C0 6.84193 0.358172 7.2001 0.8 7.2001Z" fill="#CBAAFF"/>
        <path d="M18.2005 8.4999C16.6005 6.6999 14.4005 5.5999 11.9005 5.3999C11.3005 5.3999 10.7005 5.3999 10.1005 5.4999C9.90051 5.4999 9.70051 5.4999 9.50051 5.5999H9.30051C8.60051 5.7999 8.00051 6.0999 7.90051 6.0999C7.00051 6.4999 6.50051 7.2999 6.50051 8.1999C6.50051 9.4999 7.50051 10.4999 8.80051 10.4999C9.10051 10.4999 9.90051 10.1999 9.90051 10.1999C10.5005 9.9999 11.1005 9.8999 11.7005 9.9999C13.3005 10.0999 14.7005 10.9999 15.5005 12.3999C15.9005 13.1999 16.1005 14.0999 16.1005 14.8999C15.9005 17.4999 13.7005 19.3999 11.2005 19.1999C9.70051 19.0999 8.50051 18.3999 7.60051 17.1999L7.40051 16.8999C6.80051 15.7999 6.80051 14.2999 6.90051 13.9999C6.90051 12.7999 5.90051 11.7999 4.60051 11.7999C3.60051 11.7999 2.70051 12.4999 2.40051 13.4999C2.30051 13.6999 2.30051 14.1999 2.30051 14.2999C2.10051 19.1999 5.90051 23.4999 10.9005 23.7999C11.1005 23.7999 11.3005 23.7999 11.5005 23.7999C11.8005 23.7999 12.2005 23.7999 12.5005 23.6999L13.2005 23.5999H13.1005C17.2005 22.7999 20.2005 19.3999 20.5005 15.1999C20.7005 12.6999 19.9005 10.2999 18.2005 8.4999Z" fill="#CBAAFF"/>
        <path d="M3 11.2002C3.82843 11.2002 4.5 10.5286 4.5 9.7002C4.5 8.87177 3.82843 8.2002 3 8.2002C2.17157 8.2002 1.5 8.87177 1.5 9.7002C1.5 10.5286 2.17157 11.2002 3 11.2002Z" fill="#CBAAFF"/>
    </g>
    <defs>
        <clipPath id="clip0_1019_5987">
            <rect width="93" height="23.7" fill="white"/>
        </clipPath>
    </defs>
</svg>
