<svg width="20" height="20" viewBox="0 0 20 20" fill="none" xmlns="http://www.w3.org/2000/svg">
<path fill-rule="evenodd" clip-rule="evenodd" d="M-4.37114e-07 10.0005C-1.95718e-07 4.47799 4.4775 0.000488477 10 0.000488718C15.5225 0.00048896 20 4.47799 20 10.0005C20 15.5238 15.5225 19.9997 10 19.9997C4.4775 19.9997 -6.78546e-07 15.5238 -4.37114e-07 10.0005Z" fill="#3A3149"/>
<path fill-rule="evenodd" clip-rule="evenodd" d="M3.75292 5.41629C3.8187 5.6618 4.07058 5.80654 4.31528 5.74097C4.55998 5.6754 4.70494 5.42433 4.63916 5.17883C4.57359 4.93412 4.3223 4.78836 4.0776 4.85393C3.8329 4.9195 3.68735 5.17159 3.75292 5.41629ZM5.08393 7.86585C4.7362 7.95903 4.37898 7.75279 4.28581 7.40505C4.19242 7.05651 4.39887 6.7001 4.7466 6.60693C5.09434 6.51375 5.45134 6.71919 5.54473 7.06772C5.63791 7.41546 5.43167 7.77268 5.08393 7.86585ZM11.843 14.6979C14.204 13.9014 15.5958 11.539 15.2465 9.16001C15.2019 8.86139 15.1358 8.56334 15.0321 8.27622C14.1517 5.65389 11.3379 4.23206 8.71208 5.05124C8.67296 5.05655 8.39468 5.14492 8.30638 5.19532C7.8574 5.45798 7.61541 5.99732 7.75755 6.52777C7.92298 7.14516 8.55185 7.51845 9.1698 7.37444L9.17893 7.37124C9.28607 7.33279 10.2947 6.97085 11.089 7.29586C11.8782 7.55891 12.5362 8.17287 12.8209 9.0197C13.3026 10.4539 12.5329 12.0051 11.0995 12.4867C10.586 12.6597 10.0561 12.6688 9.56608 12.5464C8.69079 12.3289 7.94005 11.6811 7.63255 10.7654C7.5099 10.4074 7.47065 10.0452 7.49605 9.69246C7.50173 9.59776 7.51973 9.20126 7.49104 9.0942C7.32216 8.46393 6.67122 8.08879 6.04095 8.25767C5.55638 8.38751 5.2689 8.76995 5.17202 9.27127C5.17202 9.27127 5.07076 9.88506 5.19089 10.5491C5.2312 10.867 5.30476 11.1898 5.41137 11.5072C6.30563 14.162 9.18796 15.5914 11.843 14.6979ZM6.56852 6.79366C6.11775 6.91444 5.65439 6.64692 5.53361 6.19616C5.41261 5.74459 5.68013 5.28122 6.1309 5.16044C6.58166 5.03966 7.04422 5.3074 7.16522 5.75897C7.286 6.20973 7.01928 6.67288 6.56852 6.79366Z" fill="white"/>
</svg>
