<svg width="40" height="40" viewBox="0 0 40 40" fill="none" xmlns="http://www.w3.org/2000/svg">
<path d="M21.8158 34.8892C29.0753 34.0545 34.9089 28.3066 35.3788 20.9682C35.9136 12.7164 29.4642 5.61416 20.9732 5.09448C19.9523 5.03149 18.9638 5.06299 17.9915 5.18897C15.9498 5.34645 14.2321 6.10234 14.2321 6.10234C12.8386 6.76374 11.9311 7.86608 11.9311 9.36211C11.9311 11.2833 13.5353 12.8581 15.5285 12.8581C15.8526 12.8581 17.0031 12.5117 17.2786 12.4172C18.2994 12.0707 19.3851 11.9132 20.5356 11.992C23.4686 12.1652 25.9479 13.8187 27.2766 16.1336C28.022 17.4407 28.411 18.9525 28.2975 20.543C28.0058 24.9838 24.0682 28.3696 19.4823 28.0861C16.7762 27.9129 14.459 26.5114 13.0654 24.4799C11.4126 22.3697 11.7853 18.9997 11.7853 18.9525C11.7205 17.0785 10.1324 15.5825 8.18791 15.5825C6.51886 15.5825 5.12528 16.6848 4.72017 18.1651C4.63915 18.4643 4.59054 19.3147 4.60674 19.4249C4.26645 27.535 10.651 34.464 19.0286 34.9679C19.9847 35.0309 20.9083 34.9994 21.8158 34.8892Z" fill="#B88DFC"/>
<path d="M8.05859 8.84244C9.15042 8.84244 10.0355 7.98228 10.0355 6.92122C10.0355 5.86016 9.15042 5 8.05859 5C6.96676 5 6.08166 5.86016 6.08166 6.92122C6.08166 7.98228 6.96676 8.84244 8.05859 8.84244Z" fill="#B88DFC"/>
<path d="M1.80373 7.70861C2.57338 7.70861 3.19731 7.10226 3.19731 6.3543C3.19731 5.60634 2.57338 5 1.80373 5C1.03408 5 0.410156 5.60634 0.410156 6.3543C0.410156 7.10226 1.03408 7.70861 1.80373 7.70861Z" fill="#B88DFC"/>
<path d="M5.4983 14.4644C6.91231 14.4644 8.05859 13.3504 8.05859 11.9762C8.05859 10.6021 6.91231 9.4881 5.4983 9.4881C4.08429 9.4881 2.93801 10.6021 2.93801 11.9762C2.93801 13.3504 4.08429 14.4644 5.4983 14.4644Z" fill="#B88DFC"/>
</svg>
