<svg width="20" height="20" viewBox="0 0 20 20" fill="none" xmlns="http://www.w3.org/2000/svg">
<path fill-rule="evenodd" clip-rule="evenodd" d="M14.046 1.64436C16.9141 1.64436 20 2.43324 20 4.16556C20 4.17059 19.9984 4.17501 19.9968 4.17942C19.9953 4.18381 19.9937 4.18819 19.9937 4.1932H20V12.4728C20 14.1888 16.9775 14.9764 14.1348 14.9928V17.4775C14.1348 19.2111 11.0489 20 8.18088 20C5.31282 20 2.22693 19.2111 2.22697 17.4775V14.7101C2.22697 12.9942 5.25088 12.2065 8.09478 12.1902V10.4302C7.40184 10.532 6.67088 10.581 5.95395 10.581C3.08589 10.581 0 9.79209 0 8.05978V2.52244C0 0.788889 3.08584 0 5.95395 0C8.40377 0 10.9767 0.586667 11.6797 1.83782C12.4397 1.71218 13.248 1.64436 14.046 1.64436ZM10.2888 2.16822C9.67954 1.77124 8.20365 1.28636 5.95395 1.28636C2.92884 1.28636 1.29711 2.16316 1.29716 2.52244C1.29716 2.88044 2.92884 3.75729 5.95395 3.75729C6.84074 3.75729 7.59178 3.67693 8.23292 3.56133C8.53056 2.93827 9.30333 2.48351 10.2888 2.16822ZM1.29711 4.15804C2.46138 4.75476 4.23993 5.04364 5.95391 5.04364C6.6759 5.04364 7.40053 4.98084 8.09474 4.87658V6.35636C7.48408 6.45813 6.77468 6.52596 5.95391 6.52596C2.9288 6.52596 1.29711 5.64911 1.29711 5.28987V4.15804ZM1.29716 8.05978C1.29716 8.41778 2.92884 9.29462 5.95395 9.29462C6.77468 9.29462 7.48408 9.2268 8.09478 9.12502V7.64524C7.40058 7.74947 6.67594 7.81231 5.95395 7.81231C4.23998 7.81231 2.46142 7.52338 1.29716 6.92667V8.05978ZM12.8375 17.4775C12.8375 17.8368 11.206 18.7136 8.18093 18.7136C5.15581 18.7136 3.52408 17.8368 3.52408 17.4775V16.3457C4.68835 16.9424 6.46691 17.2313 8.18088 17.2313C9.89485 17.2313 11.6735 16.9424 12.8375 16.3457V17.4775H12.8375ZM8.18088 15.945C10.703 15.945 12.2396 15.3382 12.6868 14.9274C12.7756 14.8458 12.8375 14.7692 12.8375 14.7102C12.8375 14.366 11.3251 13.5544 8.53804 13.4866C8.48605 13.4856 8.43637 13.4831 8.3866 13.4807H8.38659H8.38657H8.38656H8.38654C8.32003 13.4774 8.25337 13.4741 8.18088 13.4741C5.15577 13.4741 3.52408 14.3509 3.52408 14.7102C3.52408 15.0681 5.15577 15.945 8.18088 15.945ZM18.7029 12.4728C18.7029 12.8321 17.0712 13.7089 14.0461 13.7089C13.9744 13.7089 13.9081 13.7056 13.842 13.7023C13.7924 13.6999 13.743 13.6974 13.6914 13.6964C12.92 12.856 11.215 12.3824 9.39189 12.2392V11.3398C10.5562 11.9352 12.3335 12.2241 14.0461 12.2241C15.7601 12.2241 17.5387 11.9352 18.7029 11.3384V12.4728ZM14.0461 10.9377C17.0712 10.9377 18.7029 10.0609 18.7029 9.70289V8.57231C17.5387 9.16898 15.7601 9.45791 14.0461 9.45791C13.1303 9.45791 12.2043 9.36871 11.3556 9.2004C10.7437 9.07982 10.1901 8.90773 9.70496 8.69667C9.66436 8.67935 9.62066 8.66348 9.57679 8.64755L9.57677 8.64754L9.57676 8.64754L9.57675 8.64753C9.51242 8.62418 9.44773 8.60069 9.39194 8.57231V9.70289C9.39194 9.79462 9.50224 9.92022 9.71249 10.0572C10.3217 10.4528 11.7964 10.9377 14.0461 10.9377ZM18.7029 6.93547C18.7029 7.29476 17.0712 8.17156 14.0461 8.17156C13.2254 8.17156 12.5159 8.10373 11.9053 8.00196C11.401 7.91907 10.9628 7.81227 10.6082 7.69418C10.2116 7.56356 9.91014 7.42031 9.70617 7.28716C9.49959 7.15151 9.39189 7.02711 9.39189 6.93542V5.80231C9.4465 5.83009 9.50964 5.85318 9.57287 5.87631L9.57289 5.87632L9.5729 5.87632C9.61832 5.89293 9.66379 5.90956 9.70617 5.92796C10.3331 6.20053 11.0844 6.39778 11.9053 6.52089C12.5994 6.62516 13.3241 6.68796 14.0461 6.68796C15.7601 6.68796 17.5387 6.39902 18.7029 5.80231V6.93547ZM11.9052 5.23209C12.5159 5.33387 13.2253 5.40169 14.046 5.40169C17.0712 5.40169 18.7029 4.52484 18.7028 4.16556C18.7028 3.80756 17.0712 2.93071 14.046 2.93071C13.2253 2.93071 12.5159 2.99853 11.9052 3.10031C10.2672 3.37164 9.39185 3.90427 9.39185 4.16556C9.39185 4.25724 9.50094 4.38289 9.70733 4.51729C9.9113 4.65044 10.2128 4.79369 10.6081 4.92431C10.9628 5.0424 11.401 5.1492 11.9052 5.23209Z" fill="white"/>
</svg>
