<svg width="40" height="40" viewBox="0 0 40 40" fill="none" xmlns="http://www.w3.org/2000/svg">
<path fill-rule="evenodd" clip-rule="evenodd" d="M3.82329 13.8887V6.43448C3.82329 4.99488 4.99488 3.82285 6.43492 3.82285H13.8887V1.6665H6.43492C3.80539 1.6665 1.6665 3.80539 1.6665 6.43448V13.8887H3.82329ZM26.111 3.82303H33.5648C35.0048 3.82303 36.1764 4.99505 36.1764 6.43422V13.8889H38.3332V6.43422C38.3332 3.80557 36.1943 1.66668 33.5648 1.66668H26.111V3.82303ZM6.43496 36.1762H13.8888V38.333H6.43496C3.80544 38.333 1.66655 36.1937 1.66655 33.565V26.1108H3.82333V33.565C3.82333 35.0042 4.99492 36.1762 6.43496 36.1762ZM36.1763 26.1109V33.5648C36.1763 35.0044 35.0047 36.1764 33.5651 36.1764H26.1108V38.3332H33.5651C36.1942 38.3332 38.333 36.1938 38.333 33.5648V26.1109H36.1763ZM14.4979 8.33317H10.3881C9.25275 8.33317 8.33317 9.25275 8.33317 10.3881V14.4979C8.33317 15.6333 9.25275 16.5529 10.3881 16.5529H14.4979C15.6333 16.5529 16.5529 15.6333 16.5529 14.4979V10.3881C16.5529 9.25275 15.6333 8.33317 14.4979 8.33317ZM14.4979 14.4979H10.3881V10.3881H14.4979V14.4979ZM11.4156 13.4705H13.4705V11.4156H11.4156V13.4705ZM14.4979 23.4468H10.3881C9.25275 23.4468 8.33317 24.3664 8.33317 25.5017V29.6116C8.33317 30.7469 9.25275 31.6665 10.3881 31.6665H14.4979C15.6333 31.6665 16.5529 30.7469 16.5529 29.6116V25.5017C16.5529 24.3664 15.6333 23.4468 14.4979 23.4468ZM25.5017 8.33317H29.6116C30.7469 8.33317 31.6665 9.25275 31.6665 10.3881V14.4979C31.6665 15.6333 30.7469 16.5529 29.6116 16.5529H25.5017C24.3664 16.5529 23.4468 15.6333 23.4468 14.4979V10.3881C23.4468 9.25275 24.3664 8.33317 25.5017 8.33317ZM18.9392 10.4544H21.0604V12.5756H18.9392V10.4544ZM21.0604 14.6968H18.9392V16.818H21.0604V14.6968ZM18.9392 18.9392H21.0604V21.0604H18.9392V18.9392ZM16.818 18.9392H14.6968V21.0604H16.818V18.9392ZM10.4544 18.9392H12.5756V21.0604H10.4544V18.9392ZM25.568 18.9392H23.4468V21.0604H25.568V18.9392ZM27.4241 18.9392H29.5453V21.0604H27.4241V18.9392ZM23.1817 21.0604H21.0604V23.1817H23.1817V21.0604ZM25.3029 21.0604H27.4241V23.1817H25.3029V21.0604ZM25.568 23.4468H23.4468V25.568H25.3029V27.4241L23.4468 27.4241V29.5453H25.3029V31.6665H27.4241V29.5453H29.5453V27.4241H31.6665V25.3029H29.5453V23.4468H27.4241L27.4241 25.3029H25.568V23.4468ZM27.4241 27.4241L27.4241 25.568H29.5453V27.4241H27.4241ZM27.4241 27.4241L25.568 27.4241V29.5453H27.4241V27.4241ZM18.9392 23.4468H21.0604V25.568H18.9392V23.4468ZM23.1817 25.3029H21.0604V27.4241H23.1817V25.3029ZM23.1817 29.5453H21.0604V31.6665H23.1817V29.5453ZM29.5453 21.0604H31.6665V23.1817H29.5453V21.0604ZM18.9392 27.4241H21.0604V29.5453H18.9392V27.4241Z" fill="#B88DFC"/>
</svg>
