<svg width="40" height="40" viewBox="0 0 40 40" fill="none" xmlns="http://www.w3.org/2000/svg">
<path fill-rule="evenodd" clip-rule="evenodd" d="M3.82378 6.43448V13.8887H1.66699V6.43448C1.66699 3.80539 3.80588 1.6665 6.4354 1.6665H13.8892V3.82285H6.4354C4.99536 3.82285 3.82378 4.99488 3.82378 6.43448ZM33.5653 3.82303H26.1115V1.66668H33.5653C36.1948 1.66668 38.3337 3.80557 38.3337 6.43422V13.8889H36.1769V6.43422C36.1769 4.99505 35.0053 3.82303 33.5653 3.82303ZM13.8893 36.1762H6.43545C4.99541 36.1762 3.82382 35.0042 3.82382 33.565V26.1108H1.66704V33.565C1.66704 36.1937 3.80592 38.333 6.43545 38.333H13.8893V36.1762ZM36.1767 33.5648V26.1109H38.3335V33.5648C38.3335 36.1938 36.1946 38.3332 33.5656 38.3332H26.1113V36.1764H33.5656C35.0052 36.1764 36.1767 35.0044 36.1767 33.5648Z" fill="#B88DFC"/>
</svg>
