<svg width="25" height="25" viewBox="0 0 25 25" fill="none" xmlns="http://www.w3.org/2000/svg">
<path d="M10 5C4.48 5 0 9.48 0 15C0 20.52 4.48 25 10 25C15.52 25 20 20.52 20 15C20 9.48 15.52 5 10 5ZM10 23C5.58 23 2 19.42 2 15C2 10.58 5.58 7 10 7C14.42 7 18 10.58 18 15C18 19.42 14.42 23 10 23Z" fill="#FC7EFF"/>
<path d="M6.53708 11.2927L5.83247 10.5881L5.12537 11.2902L3.70537 12.7002L2.99326 13.4073L3.70287 14.117L9.29287 19.707L9.99997 20.4141L10.7071 19.707L22.7071 7.70695L23.4142 6.99984L22.7071 6.29274L21.2971 4.88274L20.5903 4.17596L19.8832 4.8824L10.0003 14.756L6.53708 11.2927Z" fill="#FC7EFF" stroke="#312346" stroke-width="2"/>
</svg>
