<svg width="22" height="22" viewBox="0 0 22 22" fill="none" xmlns="http://www.w3.org/2000/svg">
<path d="M21.9811 10.6745C21.9811 10.6745 22.4897 0 10.7583 0C0.382921 0 0.0590771 10.2398 0.0590771 10.2398C0.0590771 10.2398 -1.4673 22.0003 10.9972 22.0003C22.9517 22.0003 21.9811 10.6745 21.9811 10.6745ZM7.47582 6.94505C9.67717 5.5982 12.4897 6.42145 13.5431 8.44679C13.7424 8.83092 13.7683 9.42141 13.6416 9.82401C13.2051 11.214 12.1738 11.9937 10.7587 12.325C11.1758 11.9677 11.508 11.5629 11.6136 11.0032C11.725 10.4669 11.604 9.90849 11.2806 9.46629C10.7653 8.75876 9.84349 8.4776 9.02112 8.77768C8.14991 9.10856 7.6725 9.90366 7.7583 10.8813C7.83794 11.7886 8.52743 12.3778 9.81621 12.6013L9.33 12.8592C8.73952 13.1821 8.22603 13.6292 7.82342 14.1695C7.69274 14.3464 7.60254 14.3605 7.40322 14.2382C4.81114 12.6568 4.64526 8.67604 7.47186 6.94505H7.47582ZM5.53627 16.7374C5.12355 16.843 4.71654 16.9992 4.29105 17.1396C4.49918 15.7355 6.14744 14.4419 7.53478 14.5888C7.13173 15.1441 6.89677 15.8028 6.85673 16.4879C6.39472 16.5733 5.96264 16.63 5.53627 16.7374ZM14.394 3.02504C14.8054 3.04 15.2177 3.03384 15.6291 3.04352C15.7321 3.05012 15.8342 3.06464 15.9349 3.0862C15.843 3.22348 15.7391 3.3612 15.6243 3.48485C15.4773 3.62213 15.311 3.75985 15.0985 3.54777C15.0474 3.49761 14.9264 3.50905 14.8384 3.50773C14.4257 3.50245 14.0191 3.48925 13.6104 3.50421C13.2557 3.51565 12.9024 3.55173 12.5526 3.61201C12.484 3.62389 12.3889 3.84169 12.4193 3.92221C12.4906 4.11186 12.594 4.32086 12.7475 4.44186C13.3147 4.88979 13.9188 5.29239 14.4891 5.73724C15.043 6.16976 15.5587 6.64321 15.8733 7.29574C16.2861 8.14583 16.2949 9.03684 16.118 9.93226C15.8232 11.4265 15.0668 12.6651 13.8423 13.5641C13.349 13.9262 12.7379 14.1321 12.1724 14.3891C11.6752 14.6179 11.1639 14.8154 10.6654 15.042C9.76737 15.4504 9.26224 16.4254 9.41052 17.4392C9.54649 18.3694 10.3627 19.1455 11.3012 19.3057C12.4224 19.4984 13.5796 18.7693 13.8541 17.6293C14.1626 16.3471 13.4665 15.2031 12.1628 14.8564L11.9278 14.7961C12.2763 14.6403 12.5808 14.5294 12.8558 14.3768C13.3411 14.1097 13.8172 13.8272 14.2845 13.5289C14.4222 13.4409 14.4961 13.4409 14.6136 13.5425C15.5103 14.3178 16.0449 15.2818 16.195 16.4646C16.4431 18.4217 15.5169 20.2192 13.7697 21.1405C11.0667 22.5661 7.75874 20.9434 7.16209 17.9434C6.65037 15.3764 8.46231 13.0484 10.6425 12.5987C11.5802 12.4055 12.4378 12.0148 13.1044 11.2923C13.5343 10.8263 13.7433 10.4259 13.8137 10.2464C13.9461 9.90849 14.0134 9.54813 14.013 9.18513C13.9985 8.87096 13.925 8.56252 13.7952 8.27607C13.5677 7.76038 12.6952 6.93538 12.4796 6.75761L10.4265 5.15027C10.3579 5.09087 10.2725 5.09527 10.0956 5.10715C9.88925 5.12079 9.3498 5.15115 9.11792 5.08999C9.30536 4.94831 9.81577 4.74195 10.0349 4.57606C9.36916 4.12638 8.61015 4.28918 7.91274 4.15454C8.07423 3.85401 8.87548 3.39245 9.32208 3.34141C9.29524 3.08796 9.25388 2.83628 9.19844 2.58768C9.17116 2.48559 9.05676 2.38659 8.95776 2.32851C8.71708 2.19123 8.46143 2.07067 8.18423 1.92987C8.43239 1.7697 8.71971 1.68038 9.01496 1.6729C9.2948 1.66278 9.57465 1.68962 9.84701 1.75386C10.3411 1.86739 10.7358 1.79302 11.1292 1.45686C10.8199 1.3319 10.5105 1.21838 10.2096 1.08373C9.91477 0.949973 9.62789 0.800371 9.34936 0.635369C10.1282 0.74361 10.8819 1.03533 11.6783 0.928853C11.6854 0.892772 11.692 0.856252 11.699 0.820171L9.84261 0.392485C10.9461 0.291724 11.9722 0.275004 12.9451 0.74845C13.2188 0.881772 13.5052 0.989134 13.7675 1.14358C13.8955 1.21794 13.9817 1.36446 14.0865 1.47798C14.1696 1.56818 14.2365 1.68918 14.339 1.74418C14.7276 1.95055 15.1552 1.95891 15.5913 1.94879L15.601 1.8027C16.0397 1.93999 16.5333 2.44555 16.5289 2.81516C15.8183 2.81516 15.1082 2.81252 14.3976 2.81868C14.3219 2.81956 14.2462 2.87456 14.1705 2.90448C14.2392 2.94628 14.3126 3.02152 14.3866 3.0246L14.394 3.02504ZM13.4775 1.97299C13.4485 1.99103 13.4295 2.02227 13.4269 2.05659C13.4243 2.09091 13.4379 2.12435 13.4639 2.14679C13.4854 2.18463 13.5215 2.21279 13.5637 2.22423C13.6055 2.23567 13.6509 2.22951 13.6887 2.20707L13.9069 2.09223L13.7349 1.94307C13.6385 1.86343 13.558 1.91359 13.4806 1.97299H13.4775Z" fill="#88171A"/>
</svg>
