<svg width="18" height="22" viewBox="0 0 18 22" fill="none" xmlns="http://www.w3.org/2000/svg">
<path fill-rule="evenodd" clip-rule="evenodd" d="M8.19 0.173983L1.19 3.31072C0.47 3.63347 0 4.35966 0 5.15645V9.89685C0 15.4946 3.84 20.7292 9 22C14.16 20.7292 18 15.4946 18 9.89685V5.15645C18 4.35966 17.53 3.63347 16.81 3.31072L9.81 0.173983C9.3 -0.0579943 8.7 -0.0579943 8.19 0.173983ZM8.95243 9.571H9.037L10.4799 14.7526H11.9757L14 7.06017H12.351L11.1723 12.5563H11.0877L9.67125 7.06017H8.32347L6.9334 12.5563H6.84884L5.65962 7.06017H4L6.01903 14.7526H7.52537L8.95243 9.571ZM16 5.15645V10.8954V10.9054H15.9987C15.4655 15.0568 12.717 18.7533 9 19.9122C5.28301 18.7533 2.53445 15.0568 2.00129 10.9054H2V10.8954V5.15645L9 2.01972L16 5.15645Z" fill="#5F45BA"/>
</svg>
