<svg xmlns="http://www.w3.org/2000/svg" xmlns:xlink="http://www.w3.org/1999/xlink" width="32" height="32" viewBox="0 0 32 32">
    <defs>
        <path id="a" d="M0 12.999c0 7.117 5.727 12.905 12.823 13h.353c7.095-.095 12.823-5.883 12.823-13 0-7.176-5.824-12.999-13-12.999C5.82 0 0 5.823 0 12.999zm6.499 0c0-.714.585-1.3 1.3-1.3H11.7v-3.9c0-.714.584-1.299 1.299-1.299.716 0 1.3.585 1.3 1.299v3.9h3.9c.714 0 1.301.586 1.301 1.3 0 .716-.587 1.301-1.301 1.301h-3.9v3.9c0 .715-.584 1.3-1.3 1.3a1.303 1.303 0 0 1-1.299-1.3v-3.9H7.799c-.715 0-1.3-.585-1.3-1.301z"/>
    </defs>
    <g fill="none" fill-rule="evenodd" transform="translate(3 3)">
        <mask id="b" fill="#fff">
            <use xlink:href="#a"/>
        </mask>
        <use fill="#5F45BA" xlink:href="#a"/>
        <g fill="#5F45BA" mask="url(#b)">
            <path d="M-3-3h32v32H-3z"/>
        </g>
    </g>
</svg>
