<svg xmlns="http://www.w3.org/2000/svg" xmlns:xlink="http://www.w3.org/1999/xlink" width="82" height="93" viewBox="0 0 82 93">
    <defs>
        <path id="a" d="M.385.014h7.292v5.653H.385z"/>
    </defs>
    <g fill="none" fill-rule="evenodd">
        <g transform="translate(53)">
            <mask id="b" fill="#fff">
                <use xlink:href="#a"/>
            </mask>
            <path fill="#87766B" d="M.385 2.24L2.645.694s2.53-2.478 4.118 2.016l.914 2.956L.385 2.239z" mask="url(#b)"/>
        </g>
        <path fill="#C6A893" d="M29.677 4.006s-5.171 3.403-.809 10.682l-13.51 19.365S9.602 43.099 10.022 56.4l.554 13.629s-.288 10.09 15.86 4.036c0 0 8.225-3.964 9.506-6.237 1.282-2.274 10.039 1.386 10.039 1.386s10.645 1.749 15.143-5.339c4.499-7.087 7.522-11.44 7.522-11.44s7.956-12.99-5.387-35.637l1.768-5.554s1.807-2.945-4.846-6.13c0 0-13.345-7.956-23.337 1.562 0 0-2.997-2.278-7.167-2.671"/>
        <path fill="#87766B" d="M36 7.744L33.057 11S29.134 7.444 29 5c0 0 5.54.438 7 2.744M27 74.32s4.364 5.506 8.211 5.66c3.846.154 5.813-.49 4.25-4.64 0 0-2.58-3.87-5.539-5.34 0 0-4.952 3.579-6.922 4.32M56 67.917s5.732 4.95 7.942 3.95c2.211-1 .828-4.123-2.96-7.867 0 0-1.373 2.883-4.982 3.917"/>
        <path fill="#1E1933" d="M60.995 8.688c.08.525-.749 1.09-1.85 1.262-1.102.172-2.06-.113-2.14-.638-.08-.524.748-1.09 1.85-1.262 1.102-.172 2.06.113 2.14.638"/>
        <path fill="#FFF" d="M58.189 17.037L58 19.593a.374.374 0 0 0 .414.404l.906-.115a.405.405 0 0 0 .348-.375L60 15s-.533 1.592-1.811 2.037"/>
        <path fill="#F4F1EF" d="M60.453 19.997l.953-.106a.425.425 0 0 0 .366-.404l.228-3.23s-1.615-.583-1.626-1.808c-.011-1.224-.18.443-.18.443L60 19.542c-.01.268.203.484.453.455"/>
        <path fill="#87766B" d="M7.32 65.894S-.832 71.317.07 84.204c0 0-.193 8.635 7.71 6.438 7.904-2.197 7.204-11.55 7.204-11.55s-.232-4.154-2.363-8.25c0 0-1.075-8.574-5.3-4.948"/>
        <path stroke="#B5A396" stroke-linecap="round" stroke-linejoin="round" stroke-width="1.159" d="M8.586 65s2.803 3.41 5.414 5.127c0 0-6.303.018-12 5.068 0 0 1.963 8.73 8.736 14.805M4 69s-.202 7.657 9 18M6 92c-2.835-1.907-5-7-5-7M15 79S6.458 87.057 3 91M14 75S4.682 81.871 1 88M14 73S4.757 77.837 1 83M13 68.338S7.99 66.354 3 72"/>
        <path stroke="#271C47" stroke-linecap="round" stroke-linejoin="round" stroke-width="1.159" d="M53 17.701s6.973 1.754 7.618-3.235c0 0 .57-3.241.317-4.466M63 16.926s-2.655.654-3-1.926"/>
        <path stroke="#6D5E56" stroke-linecap="round" stroke-linejoin="round" stroke-width="1.159" d="M40 19.332c6.045-3.725 10-1.87 10-1.87S45.961 19.197 45.618 22"/>
        <path fill="#271C47" d="M45.794 10.609c-.419 1.052-1.338 1.632-2.052 1.295-.715-.336-.955-1.461-.536-2.513.419-1.052 1.337-1.632 2.052-1.295.715.336.955 1.462.536 2.513"/>
        <path fill="#FFF" d="M45.999 10.537a.5.5 0 1 1-.997-.074.5.5 0 0 1 .997.074"/>
        <path fill="#5F45BA" d="M75.757 37.098L43.625 42.75 43 50l31.934-3.367s4.78-.973 3.974-7.66c0 0 .357-2.492-3.151-1.875"/>
        <path fill="#7565C9" d="M43.946 46.074c-.178 1.656-.745 2.966-1.268 2.925-.523-.04-.802-1.416-.624-3.073.178-1.656.745-2.966 1.268-2.925.523.04.802 1.417.624 3.073"/>
        <path fill="#613ABF" d="M77.471 30.004l-35.844 9.144L41 46l37.351-8.132a3.164 3.164 0 0 0 2.463-2.55c.107-.624.183-1.393.186-2.326.008-3.232-3.529-2.988-3.529-2.988"/>
        <path fill="#945CE5" d="M42.89 42.355c-.36 1.645-1.497 2.82-2.542 2.624-1.044-.196-1.598-1.69-1.238-3.334.36-1.645 1.497-2.82 2.542-2.624 1.044.196 1.598 1.69 1.238 3.334"/>
        <path fill="#87766B" d="M49.353 47.376s2.65-8.86 7.822-5.691c0 0 4.492 4.213-.618 7.599 0 0-9.48 2.525-7.204-1.908"/>
        <path fill="#7565C9" d="M63.439 46.868s2.49-3.203 2.806-5.256c.317-2.052 4.723-3 5.751 2.508 0 0 .377 5.619-6.304 4.798-6.681-.82-2.253-2.05-2.253-2.05"/>
        <path fill="#B88DFC" d="M71.809 22.39L44.639 34.21 44 43l36.6-17.04s2.343-2.317.967-4.752c-1.376-2.436-4.757-.373-4.757-.373l.424-5.842s-.856-3.574-3.133 2.839l-2.292 4.558z"/>
        <path fill="#D7CDF9" d="M45.972 38.652c-.184 2.484-1.217 4.43-2.305 4.345-1.089-.083-1.823-2.165-1.639-4.648.185-2.484 1.216-4.43 2.305-4.346 1.089.084 1.823 2.165 1.639 4.649"/>
    </g>
</svg>
