<svg xmlns="http://www.w3.org/2000/svg" xmlns:xlink="http://www.w3.org/1999/xlink" width="32" height="32" viewBox="0 0 32 32">
    <defs>
        <path id="a" d="M19.202 15.69a1.69 1.69 0 1 1 0-3.384 1.69 1.69 0 0 1 0 3.385m-6.201 0a1.69 1.69 0 1 1 0-3.384 1.69 1.69 0 0 1 0 3.384m-6.202 0a1.691 1.691 0 1 1 0-3.383 1.691 1.691 0 0 1 0 3.383M22.193 4.807A13 13 0 1 0 13 26.999c7.18 0 13-5.82 13-13a13 13 0 0 0-3.808-9.192"/>
    </defs>
    <g fill="none" fill-rule="evenodd" transform="translate(3 2)">
        <mask id="b" fill="#fff">
            <use xlink:href="#a"/>
        </mask>
        <use fill="#5F45BA" xlink:href="#a"/>
        <g fill="#5F45BA" mask="url(#b)">
            <path d="M-3-2h32v32H-3z"/>
        </g>
    </g>
</svg>
