<svg xmlns="http://www.w3.org/2000/svg" xmlns:xlink="http://www.w3.org/1999/xlink" width="32" height="32" viewBox="0 0 32 32">
    <defs>
        <path id="a" d="M13 .024l.307.004C20.343.19 26 5.95 26 13.024l-.004.309c-.162 6.975-5.827 12.598-12.82 12.691h-.353l-.308-.008C5.565 25.761 0 20.038 0 13.024c0-7.176 5.825-13 13-13zm0 2.925l-.277.004C7.297 3.1 2.925 7.561 2.925 13.024 2.925 18.579 7.447 23.1 13 23.1l.277-.004c5.428-.147 9.798-4.61 9.798-10.072l-.004-.277C22.924 7.32 18.463 2.95 13 2.95zm6.196 8.386l.146.006a1.69 1.69 0 0 1 1.545 1.683l-.007.146a1.69 1.69 0 0 1-1.684 1.542l-.146-.006a1.69 1.69 0 0 1 .146-3.371zm-6.199-.002l.146.007a1.69 1.69 0 0 1 1.544 1.684l-.007.146a1.689 1.689 0 0 1-1.683 1.542l-.145-.006a1.69 1.69 0 0 1 .145-3.373zm-6.197.002l.146.006a1.69 1.69 0 0 1 1.543 1.683l-.006.146A1.69 1.69 0 0 1 6.8 14.712l-.146-.006a1.689 1.689 0 0 1 .146-3.371z"/>
    </defs>
    <g fill="none" fill-rule="evenodd" transform="translate(3 3)">
        <mask id="b" fill="#fff">
            <use xlink:href="#a"/>
        </mask>
        <use fill="#D8D8D8" xlink:href="#a"/>
        <g fill="#766D86" mask="url(#b)">
            <path d="M-3-3h32v32H-3z"/>
        </g>
    </g>
</svg>
