<svg xmlns="http://www.w3.org/2000/svg" xmlns:xlink="http://www.w3.org/1999/xlink" width="130" height="55" viewBox="0 0 130 55">
    <defs>
        <path id="a" d="M.121.493h8.393v32.441H.12z"/>
        <path id="c" d="M.395.749H23v30.546H.395z"/>
        <path id="e" d="M.361.998h8.921V11H.362z"/>
    </defs>
    <g fill="none" fill-rule="evenodd">
        <path fill="#5F45BA" d="M60.889 15.522a6.39 6.39 0 0 0-2.143.36 4.996 4.996 0 0 0-1.76 1.061 5.194 5.194 0 0 0-1.196 1.737c-.3.692-.451 1.505-.451 2.437 0 1.865.534 3.263 1.602 4.196 1.068.933 2.369 1.398 3.903 1.398.902 0 1.684-.105 2.346-.315a14.541 14.541 0 0 0 1.76-.677c.602.421 1.052.88 1.354 1.376.3.496.45 1.091.45 1.782 0 1.234-.586 2.189-1.76 2.865-1.172.677-2.796 1.015-4.872 1.015-1.895 0-3.61-.278-5.144-.834-1.533-.556-2.85-1.338-3.948-2.346a10.377 10.377 0 0 1-2.55-3.633c-.601-1.413-.902-2.977-.902-4.692 0-1.986.323-3.723.97-5.211.647-1.489 1.527-2.714 2.64-3.678a11.191 11.191 0 0 1 3.858-2.166 14.678 14.678 0 0 1 4.625-.721c2.166 0 3.835.391 5.009 1.172 1.173.783 1.759 1.791 1.759 3.023 0 .572-.135 1.106-.406 1.602a5.56 5.56 0 0 1-.948 1.286 14.807 14.807 0 0 0-1.85-.699 7.843 7.843 0 0 0-2.346-.338M39.758 32.036c-.302.09-.776.18-1.422.27-.646.09-1.316.136-2.008.136-.662 0-1.257-.045-1.782-.135-.526-.09-.97-.271-1.33-.542a2.587 2.587 0 0 1-.836-1.106c-.196-.465-.294-1.075-.294-1.827V15.296c0-.691.129-1.285.385-1.782.255-.497.623-.94 1.106-1.331.48-.391 1.075-.745 1.782-1.06a18.694 18.694 0 0 1 2.277-.836 19.652 19.652 0 0 1 2.527-.563 16.953 16.953 0 0 1 2.618-.203c1.444 0 2.587.278 3.428.834.842.557 1.264 1.467 1.264 2.73 0 .422-.06.835-.18 1.242a5.66 5.66 0 0 1-.451 1.104 21.472 21.472 0 0 0-3.88.36c-.633.122-1.227.25-1.784.385a7.757 7.757 0 0 0-1.42.474v15.386zM91.565 32.036c-.302.09-.774.18-1.422.27a14.55 14.55 0 0 1-2.008.136c-.662 0-1.256-.045-1.782-.135-.526-.09-.97-.271-1.331-.542-.36-.27-.64-.638-.835-1.106-.195-.465-.293-1.075-.293-1.827V18.815c0-1.233-.308-2.097-.925-2.593-.617-.497-1.376-.745-2.278-.745-.603 0-1.174.076-1.715.226-.541.15-.978.33-1.308.54v15.793c-.301.09-.776.18-1.421.27-.648.09-1.317.136-2.008.136-.662 0-1.257-.045-1.783-.135-.527-.09-.97-.271-1.33-.542-.362-.27-.64-.638-.835-1.106-.197-.465-.293-1.075-.293-1.827V2.662c.33-.06.818-.142 1.465-.248a12.231 12.231 0 0 1 1.963-.158c.66 0 1.255.045 1.783.135.525.09.969.27 1.33.542.36.27.639.639.836 1.105.195.468.293 1.077.293 1.829v4.42c.39-.15.985-.322 1.782-.52a11.16 11.16 0 0 1 2.639-.291c2.978 0 5.302.744 6.97 2.233 1.67 1.49 2.506 3.707 2.506 6.656v13.67z"/>
        <g transform="translate(96 -.493)">
            <mask id="b" fill="#fff">
                <use xlink:href="#a"/>
            </mask>
            <path fill="#5F45BA" d="M8.152 32.528c-.33.06-.82.143-1.465.248-.647.106-1.303.158-1.964.158-.662 0-1.256-.045-1.781-.135-.528-.09-.972-.27-1.332-.542a2.587 2.587 0 0 1-.835-1.106c-.196-.465-.293-1.075-.293-1.827V10.961c.33-.06.819-.143 1.466-.249a12.222 12.222 0 0 1 1.964-.158c.66 0 1.256.045 1.782.136.526.09.97.271 1.33.541.362.271.64.64.835 1.106.196.466.293 1.076.293 1.827v18.364zM.123 4.553c0-1.143.383-2.105 1.15-2.888C2.038.885 3.054.492 4.316.492c1.264 0 2.279.392 3.045 1.173.768.783 1.152 1.745 1.152 2.888 0 1.143-.383 2.106-1.151 2.888-.768.783-1.782 1.173-3.046 1.173-1.264 0-2.279-.39-3.046-1.173C.507 6.66.122 5.696.122 4.553z" mask="url(#b)"/>
        </g>
        <g transform="translate(107 1.507)">
            <mask id="d" fill="#fff">
                <use xlink:href="#c"/>
            </mask>
            <path fill="#5F45BA" d="M13.21 13.97c-1.625 0-2.874.466-3.746 1.398-.873.933-1.309 2.346-1.309 4.242 0 1.865.407 3.27 1.22 4.218.811.948 1.983 1.422 3.518 1.422.542 0 1.03-.083 1.466-.25.436-.163.775-.352 1.015-.563v-9.925c-.602-.362-1.323-.542-2.165-.542M.395 19.61c0-1.986.3-3.707.902-5.167.601-1.458 1.435-2.67 2.504-3.632 1.067-.963 2.316-1.676 3.745-2.143 1.43-.467 2.971-.7 4.625-.7a9.74 9.74 0 0 1 1.76.158c.571.106 1.038.234 1.398.384V1.2c.301-.09.782-.188 1.444-.293a12.937 12.937 0 0 1 2.031-.158c.661 0 1.256.045 1.782.135.526.09.97.27 1.331.542.361.27.632.639.812 1.105.181.467.271 1.076.271 1.828v21.386c0 1.415-.662 2.543-1.985 3.384-.873.572-2 1.076-3.384 1.512-1.385.436-2.979.654-4.783.654-1.955 0-3.708-.27-5.257-.811-1.55-.541-2.858-1.325-3.925-2.346A10.065 10.065 0 0 1 1.23 24.46c-.558-1.43-.835-3.046-.835-4.85" mask="url(#d)"/>
        </g>
        <path fill="#5F45BA" d="M7.6 10.225A1.608 1.608 0 1 1 4.833 8.58 1.608 1.608 0 0 1 7.6 10.225M2.112 9.511A1.136 1.136 0 1 1 .16 8.351a1.136 1.136 0 0 1 1.952 1.16M25.494 11.908a12.69 12.69 0 0 0-8.78-4.302 12.903 12.903 0 0 0-2.474.085 9.289 9.289 0 0 0-.82.108l-.241.03.024.01a10.64 10.64 0 0 0-2.094.64l-.007.003c-1.298.634-2.013 1.684-2.013 2.957a3.186 3.186 0 0 0 3.183 3.182c.365 0 1.499-.382 1.51-.386a6.398 6.398 0 0 1 2.538-.346 6.454 6.454 0 0 1 5.256 3.323l.003.005a6.45 6.45 0 0 1 .799 3.545 6.482 6.482 0 0 1-6.873 6.058 6.427 6.427 0 0 1-4.968-2.855v-.002l-.038-.05-.257-.39c-.883-1.511-.77-3.592-.733-4.024l.003-.042-.001-.015a3.175 3.175 0 0 0-3.184-3.076 3.194 3.194 0 0 0-3.075 2.356c-.076.28-.11 1.029-.098 1.114-.283 6.883 5.08 12.834 11.956 13.266.259.017.52.026.783.026.48 0 .966-.03 1.45-.084l.005.002.068-.008 1.013-.12-.073-.03A12.756 12.756 0 0 0 28.66 21.157a12.693 12.693 0 0 0-3.167-9.25"/>
        <path fill="#5F45BA" d="M5.925 14.687a2.085 2.085 0 1 1-3.585-2.13 2.085 2.085 0 0 1 3.585 2.13M7.218 53.233c.885 0 1.58-.239 2.087-.717.507-.477.76-1.155.76-2.034v-.87l-1.423.061c-1.108.041-1.915.217-2.422.528-.506.31-.76.8-.76 1.468 0 .503.154.89.462 1.16.307.269.739.404 1.296.404zm3.26 1.099l-.307-1.371h-.07c-.481.603-.96 1.011-1.437 1.225-.478.214-1.08.321-1.806.321-.95 0-1.694-.249-2.233-.747-.54-.498-.808-1.201-.808-2.109 0-1.957 1.544-2.982 4.63-3.076l1.636-.062v-.571c0-.732-.158-1.273-.474-1.622-.317-.349-.824-.523-1.521-.523-.51 0-.992.077-1.446.229-.454.152-.88.322-1.278.51l-.484-1.187a7.128 7.128 0 0 1 1.59-.606 6.855 6.855 0 0 1 1.706-.22c1.166 0 2.033.258 2.602.773.568.516.852 1.336.852 2.461v6.575h-1.151zM18.485 54.507c-1.389 0-2.47-.427-3.242-1.279-.774-.853-1.16-2.075-1.16-3.669 0-1.617.39-2.864 1.172-3.74.783-.876 1.897-1.314 3.344-1.314.47 0 .933.048 1.393.145.46.096.84.221 1.14.374l-.485 1.318c-.813-.305-1.508-.457-2.082-.457-.974 0-1.69.306-2.154.918-.463.612-.695 1.525-.695 2.738 0 1.166.232 2.058.696 2.676.463.618 1.148.928 2.056.928.85 0 1.684-.188 2.505-.563v1.406c-.668.346-1.497.52-2.488.52M27.125 54.507c-1.389 0-2.47-.427-3.243-1.279-.774-.853-1.16-2.075-1.16-3.669 0-1.617.391-2.864 1.173-3.74.782-.876 1.897-1.314 3.344-1.314.47 0 .933.048 1.393.145.46.096.84.221 1.14.374l-.485 1.318c-.814-.305-1.509-.457-2.083-.457-.973 0-1.69.306-2.153.918-.463.612-.695 1.525-.695 2.738 0 1.166.232 2.058.695 2.676.463.618 1.148.928 2.056.928.85 0 1.685-.188 2.505-.563v1.406c-.668.346-1.497.52-2.487.52"/>
        <g transform="translate(31 43.507)">
            <mask id="f" fill="#fff">
                <use xlink:href="#e"/>
            </mask>
            <path fill="#5F45BA" d="M1.996 5.981c0 1.213.24 2.134.716 2.764.478.63 1.182.945 2.114.945.92 0 1.62-.315 2.101-.945.48-.63.72-1.55.72-2.764 0-1.213-.24-2.126-.725-2.738-.483-.613-1.19-.918-2.122-.918-1.869 0-2.804 1.218-2.804 3.656m7.286 0c0 1.576-.398 2.807-1.195 3.691C7.29 10.557 6.188 11 4.782 11c-.873 0-1.646-.205-2.32-.612-.674-.407-1.193-.99-1.556-1.753C.543 7.875.361 6.99.361 5.981c0-1.57.393-2.794 1.178-3.67C2.324 1.435 3.426.998 4.844.998c1.36 0 2.44.446 3.238 1.34.8.893 1.2 2.108 1.2 3.643" mask="url(#f)"/>
        </g>
        <path fill="#5F45BA" d="M44.281 44.681v6.214c0 .78.174 1.357.523 1.735.35.378.89.568 1.622.568.99 0 1.71-.276 2.162-.827.451-.55.676-1.438.676-2.663v-5.027h1.591v9.65h-1.3l-.229-1.274h-.079c-.287.463-.695.82-1.222 1.072-.527.252-1.14.378-1.837.378-1.16 0-2.034-.278-2.623-.835-.589-.556-.884-1.447-.884-2.672v-6.319h1.6zM60.488 54.332v-6.17c0-.785-.174-1.37-.523-1.754-.349-.384-.895-.575-1.639-.575-.99 0-1.71.273-2.158.82-.448.549-.672 1.442-.672 2.678v5h-1.582v-9.65h1.274L55.426 46h.087a2.982 2.982 0 0 1 1.257-1.104 4.053 4.053 0 0 1 1.784-.39c1.184 0 2.063.287 2.637.86.574.575.861 1.469.861 2.682v6.284h-1.564zM68.267 53.215c.205 0 .445-.02.72-.062.276-.04.484-.087.625-.14v1.213a3.542 3.542 0 0 1-.682.188 4.714 4.714 0 0 1-.935.093c-1.887 0-2.831-.993-2.831-2.979v-5.617h-1.362v-.756l1.38-.632.633-2.057h.94v2.215h2.786v1.23h-2.786v5.573c0 .556.133.984.4 1.283.266.3.637.448 1.112.448"/>
    </g>
</svg>
