<svg xmlns="http://www.w3.org/2000/svg" width="24" height="24" viewBox="0 0 24 24">
    <defs>
        <linearGradient id="a" x1="50.002%" x2="50.002%" y1="0%" y2="100%">
            <stop offset="0%" stop-color="#8C60E1"/>
            <stop offset="100%" stop-color="#5E44BA"/>
        </linearGradient>
    </defs>
    <g fill="none" fill-rule="evenodd">
        <path fill="url(#a)" d="M12 0C5.373 0 0 5.373 0 12s5.373 12 12 12c6.628 0 11.999-5.373 11.999-12S18.628 0 12 0z"/>
        <path fill="#FFF" d="M11.978 5.963l.3.01a6.092 6.092 0 1 1 .334 12.129 5.52 5.52 0 0 1-1.09.027 6.087 6.087 0 0 1-5.702-6.324 2.82 2.82 0 0 1 .041-.515 1.427 1.427 0 0 1 1.374-1.05c.767 0 1.395.613 1.42 1.374 0 .02-.149 1.389.505 2.249a3.283 3.283 0 1 0 5.613-3.396 3.279 3.279 0 0 0-3.95-1.513c-.109.036-.563.18-.696.18-.783 0-1.42-.638-1.42-1.421 0-.602.354-1.054.905-1.322 0 0 .68-.308 1.487-.375a5.988 5.988 0 0 1 1.18-.042zM6.16 7.765a1.014 1.014 0 1 1 0 2.028 1.014 1.014 0 0 1 0-2.028zm1.014-1.822a.782.782 0 1 1 0 1.564.782.782 0 0 1 0-1.564zm-2.471 0a.55.55 0 1 1 0 1.102.55.55 0 0 1 0-1.102z"/>
    </g>
</svg>
