<svg xmlns="http://www.w3.org/2000/svg" xmlns:xlink="http://www.w3.org/1999/xlink" width="32" height="32" viewBox="0 0 32 32">
    <defs>
        <path id="a" d="M13.92 1.012L.47 13.092c-.546.483-.209 1.399.533 1.399h2.734v11.261c0 .884.723 1.608 1.608 1.608h5.986c.884 0 1.608-.724 1.608-1.608v-8.044h4.112v8.044c0 .884.724 1.608 1.608 1.608h5.992c.882 0 1.608-.724 1.608-1.608V14.491h2.733c.74 0 1.095-.916.532-1.399l-13.45-12.08c-.305-.27-.69-.372-1.078-.372-.385 0-.77.101-1.076.372z"/>
    </defs>
    <g fill="none" fill-rule="evenodd" transform="translate(1 2)">
        <mask id="b" fill="#fff">
            <use xlink:href="#a"/>
        </mask>
        <use fill="#5F45BA" xlink:href="#a"/>
        <g fill="#5F45BA" mask="url(#b)">
            <path d="M-1-2h32v32H-1z"/>
        </g>
    </g>
</svg>
