<svg xmlns="http://www.w3.org/2000/svg" xmlns:xlink="http://www.w3.org/1999/xlink" width="32" height="32" viewBox="0 0 32 32">
    <defs>
        <path id="a" d="M12.999.024l.306.004C20.34.19 26 5.95 26 13.024l-.004.307C25.833 20.365 20.072 26.024 13 26.024l-.307-.004C5.659 25.857 0 20.097 0 13.024c0-7.176 5.824-13 12.999-13zm0 2.925l-.277.004C7.295 3.1 2.925 7.561 2.925 13.024 2.925 18.579 7.444 23.1 13 23.1l.277-.004c5.428-.147 9.799-4.61 9.799-10.072l-.004-.277C22.924 7.32 18.462 2.95 12.999 2.95zm5.136 8.752l.13.007c.646.069 1.154.636 1.154 1.317l-.007.135c-.066.664-.615 1.187-1.277 1.187H7.863l-.131-.007c-.645-.068-1.152-.633-1.152-1.315l.007-.134c.066-.665.614-1.19 1.276-1.19h10.272z"/>
    </defs>
    <g fill="none" fill-rule="evenodd" transform="translate(3 3)">
        <mask id="b" fill="#fff">
            <use xlink:href="#a"/>
        </mask>
        <use fill="#D8D8D8" xlink:href="#a"/>
        <g fill="#766D86" mask="url(#b)">
            <path d="M-3-3h32v32H-3z"/>
        </g>
    </g>
</svg>
