<svg xmlns="http://www.w3.org/2000/svg" xmlns:xlink="http://www.w3.org/1999/xlink" width="32" height="32" viewBox="0 0 32 32">
    <defs>
        <path id="a" d="M12.999.023l.306.003C20.34.19 26 5.951 26 13.024l-.004.309c-.163 6.975-5.827 12.598-12.819 12.691h-.353l-.308-.008C5.563 25.761 0 20.038 0 13.024 0 5.848 5.823.023 12.999.023zm.074 3l-.277.003C7.37 3.174 3 7.636 3 13.1c0 5.556 4.519 10.076 10.073 10.076l.277-.004c5.429-.147 9.798-4.609 9.798-10.072l-.004-.277c-.147-5.429-4.607-9.8-10.07-9.8zM13 6.537l.131.007c.648.066 1.16.618 1.16 1.281v3.91h3.927l.132.006c.648.067 1.159.618 1.159 1.283l-.007.131a1.31 1.31 0 0 1-1.297 1.16h-3.915v3.913l-.006.131a1.296 1.296 0 0 1-1.284 1.158l-.132-.006a1.295 1.295 0 0 1-1.158-1.283v-3.913H7.793l-.131-.007a1.295 1.295 0 0 1-1.158-1.284l.007-.131a1.294 1.294 0 0 1 1.282-1.158h3.916v-3.91c0-.708.582-1.288 1.29-1.288z"/>
    </defs>
    <g fill="none" fill-rule="evenodd" transform="translate(3 3)">
        <mask id="b" fill="#fff">
            <use xlink:href="#a"/>
        </mask>
        <use fill="#D8D8D8" xlink:href="#a"/>
        <g fill="#766D86" mask="url(#b)">
            <path d="M-3-3h32v32H-3z"/>
        </g>
    </g>
</svg>
