<svg width="148" height="87" viewBox="0 0 148 87" fill="none" xmlns="http://www.w3.org/2000/svg">
  <mask id="mask0" mask-type="alpha" maskUnits="userSpaceOnUse" x="1" y="49" width="140" height="38">
    <path fill-rule="evenodd" clip-rule="evenodd" d="M71.4999 49.0017C109.884 49.0017 141 57.2844 141 67.5017C141 77.719 109.884 86.0017 71.4999 86.0017C33.1161 86.0017 1.99988 77.719 1.99988 67.5017C1.99988 57.2844 33.1161 49.0017 71.4999 49.0017Z" fill="white"/>
  </mask>
  <g mask="url(#mask0)">
    <path fill-rule="evenodd" clip-rule="evenodd" d="M-3.00012 44.0017H146V91.0017H-3.00012V44.0017Z" fill="#309E74"/>
  </g>
  <mask id="mask1" mask-type="alpha" maskUnits="userSpaceOnUse" x="86" y="15" width="58" height="52">
    <path fill-rule="evenodd" clip-rule="evenodd" d="M105.45 17.0427C105.763 21.0969 105.703 25.1254 104.597 29.0764C104.537 29.2885 104.552 29.363 104.802 29.363C105.164 29.3867 105.523 29.4394 105.877 29.5205C106.312 29.6122 106.781 29.9016 107.16 29.8071C107.538 29.7125 107.629 29.0879 107.913 28.7441L107.939 28.7097C109.384 26.3287 110.416 23.816 110.467 20.9737C110.467 20.6872 110.484 20.5382 110.092 20.5841C109.648 20.6285 109.205 20.4891 108.865 20.1979C108.524 19.9066 108.317 19.4885 108.289 19.0398C108.289 18.2461 108.917 17.845 109.967 17.9567C109.967 17.9567 109.992 17.9567 110.004 17.9395C110.279 18.0141 110.532 18.1558 110.74 18.3521C111.309 18.9595 111.383 19.7217 111.397 20.5067C111.463 23.8704 110.26 26.8244 108.499 29.595C108.053 30.2999 108.036 30.2712 108.71 30.7268C109.468 31.2252 110.081 31.9173 110.487 32.7324C110.598 32.953 110.635 32.9616 110.791 32.7582C112.72 30.2397 115.234 29.2398 118.317 30.0019C120.549 30.5577 122.096 32.0075 123.015 34.1306C123.075 34.271 123.061 34.5317 123.356 34.2939C125.811 32.3485 128.646 31.8786 131.661 32.1937C133.449 32.347 135.193 32.8327 136.806 33.6263C136.962 33.7066 137.659 33.9272 137.807 33.9902C137.807 34.0733 138.197 34.7122 138.225 34.781C139.059 36.6924 139.453 38.7687 139.38 40.8552C139.38 43.3564 138.307 45.9093 136.763 47.8805C134.568 50.6827 132.406 51.8918 129.019 52.5766C128.706 52.6396 128.223 52.7513 127.91 52.8115C128.046 53.1181 127.935 52.8115 128.163 53.0178C128.39 53.2241 128.001 53.1926 128.467 53.1267C130.353 52.8602 132.113 52.1067 133.834 51.2844C136.814 49.8518 137.79 48.9005 138.802 45.6428C139.755 42.5685 140.094 39.2593 139.041 36.2881C138.844 35.6891 138.711 35.0705 138.646 34.4429C139.954 35.2715 141.198 36.1996 142.366 37.2193C142.5 37.4749 142.648 37.7227 142.81 37.9613C143.595 39.8867 143.663 41.3995 143.663 43.4882C143.613 46.2894 142.575 48.9812 140.733 51.0809C138.526 53.6166 135.745 54.5793 132.514 55.1982C131.849 55.3243 131.283 55.1208 130.643 55.3758C129.558 54.8097 128.512 54.1693 127.514 53.459C127.23 53.2499 127.167 53.3416 127.108 53.6367C126.565 56.4268 126.166 59.2431 125.91 62.0746C125.785 63.3926 125.706 64.7134 125.626 66.0371C125.609 66.3064 125.626 66.401 125.299 66.252C124.804 66.0199 124.667 65.7162 124.71 65.169C125.023 61.1577 125.41 57.178 126.272 53.2499C126.337 52.9634 126.596 52.6367 126.169 52.3588C125.976 52.2299 125.919 52.2184 125.805 52.4218C124.719 54.3558 123.652 56.2984 122.677 58.2926C121.917 59.8541 121.215 61.4443 120.484 63.0144C120.427 63.1376 120.362 63.3381 120.199 63.1748C120.037 63.0115 119.452 63.0545 119.653 62.5502C119.921 61.8826 120.222 61.2294 120.529 60.5761C121.912 57.5744 123.447 54.6461 125.128 51.803C125.282 51.5422 125.171 51.4391 125.017 51.2786C123.026 49.2071 121.511 46.8519 120.734 44.0498C120.672 43.8206 120.618 43.5914 120.535 43.2734C119.469 46.2474 118.513 49.3045 117.637 52.2413C117.338 52.1668 117.043 52.0551 116.741 51.9806C117.569 49.1527 118.47 46.2503 119.551 43.3221C117.276 45.8205 115.333 48.5739 113.505 51.2041C113.22 51.1039 112.936 50.9978 112.634 50.9004C113.655 49.2415 114.91 47.5625 116.09 46.0296C116.622 45.3391 117.182 44.6716 117.728 43.9925C117.774 43.9233 117.815 43.8505 117.85 43.7748C117.77 43.7677 117.689 43.7677 117.609 43.7748C114.214 44.0935 111.797 42.8127 110.255 39.8627L110.142 39.6408L110.067 39.6515C108.781 39.8139 107.302 39.7807 106.306 39.7807C101.187 39.2077 91.8018 37.4886 88.3889 36.056C87.2513 35.7695 86.6825 35.5861 86.3981 35.483C86.0142 35.3368 86.5887 33.9329 86.6825 33.7639C91.5174 35.7695 94.0002 36.3855 99.4807 37.4886C103.747 38.3481 109.435 38.9212 109.435 37.7751C108.866 37.4886 108.297 37.7121 108.405 37.5717C106.824 38.1062 105.11 38.082 103.545 37.5029C102.194 37.0811 101.024 36.2118 100.226 35.036C100.009 34.7097 99.8391 34.3536 99.7224 33.9787C99.2304 32.38 99.93 30.7812 101.597 29.9503C102.013 29.7127 102.472 29.5599 102.948 29.5005C103.471 29.4661 103.61 29.214 103.735 28.7441C104.668 25.3059 104.791 21.8218 104.614 18.3005C104.614 18.014 104.523 17.9281 104.236 17.8994C103.245 17.846 102.444 17.065 102.359 16.0686C102.444 15.8537 102.447 15.7334 102.606 15.6245C103.744 15.0514 105.365 15.8508 105.45 17.0427ZM112.238 38.9518L112.191 38.9703C111.752 39.1105 109.847 39.1819 109.893 39.1303L109.893 39.1318L109.94 39.2191L109.984 39.308C110.027 39.4035 110.072 39.4975 110.117 39.59L110.142 39.6408L110.339 39.6137C111.056 39.5043 111.694 39.3257 112.127 39.0354L112.238 38.9518Z" fill="white"/>
  </mask>
  <g mask="url(#mask1)">
    <path fill-rule="evenodd" clip-rule="evenodd" d="M81.2673 10.4349H148.663V71.3225H81.2673V10.4349Z" fill="#424251"/>
  </g>
  <mask id="mask2" mask-type="alpha" maskUnits="userSpaceOnUse" x="132" y="38" width="16" height="20">
    <path fill-rule="evenodd" clip-rule="evenodd" d="M143.99 38.8094C146.14 41.4339 147.909 44.8865 147.94 48.3505C147.974 52.1325 145.847 55.2269 142.306 56.5047C139.07 57.6823 135.481 57.2783 132.295 56.1265C132.482 55.9124 132.72 55.7497 132.986 55.6538C135.33 55.2956 137.537 54.1753 139.59 52.9061C142.019 51.3961 142.829 50.3274 143.612 47.531C144.254 45.2389 144.559 42.6602 143.99 40.3509C143.9 39.841 143.9 39.3193 143.99 38.8094Z" fill="white"/>
  </mask>
  <g mask="url(#mask2)">
    <path fill-rule="evenodd" clip-rule="evenodd" d="M127.295 33.8094H152.941V62.2133H127.295V33.8094Z" fill="#424251"/>
  </g>
  <mask id="mask3" mask-type="alpha" maskUnits="userSpaceOnUse" x="126" y="33" width="15" height="21">
    <path fill-rule="evenodd" clip-rule="evenodd" d="M137.304 33.801C137.972 34.0355 138.601 34.3686 139.172 34.7895C139.215 35.3052 139.482 35.7436 139.647 36.2221C140.702 39.1933 141.069 42.1931 140.122 45.2646C139.109 48.5194 136.868 50.6425 133.891 52.0751C132.164 52.8578 130.328 53.3699 128.447 53.5936C127.984 53.6595 127.83 53.3472 127.594 53.1237C127.358 52.9002 127.065 52.7742 126.926 52.4705L127.864 52.2814C131.251 51.5995 134.272 50.2328 136.467 47.4335C138.015 45.4623 138.697 43.1644 138.708 40.6631C138.697 38.3831 138.218 36.13 137.304 34.0446C137.289 33.964 137.289 33.8816 137.304 33.801Z" fill="white"/>
  </mask>
  <g mask="url(#mask3)">
    <path fill-rule="evenodd" clip-rule="evenodd" d="M121.926 28.801H145.668V58.6026H121.926V28.801Z" fill="#5D5D69"/>
  </g>
  <mask id="mask4" mask-type="alpha" maskUnits="userSpaceOnUse" x="130" y="36" width="16" height="21">
    <path fill-rule="evenodd" clip-rule="evenodd" d="M141.911 36.7894C142.85 37.5084 143.68 38.3617 144.374 39.3222C144.291 39.7663 144.527 40.1445 144.627 40.5485C145.231 42.809 145.231 45.1903 144.627 47.4507C143.845 50.2471 142.107 52.2986 139.678 53.8085C137.633 55.0778 135.378 55.6881 133.035 56.0462C132.895 56.0691 132.75 56.0663 132.668 56.2181C131.797 55.9615 130.959 55.6008 130.174 55.1437C130.813 54.8887 131.505 54.9002 132.164 54.7741C135.395 54.1552 138.296 52.8917 140.503 50.356C142.301 48.2902 143.103 45.829 143.1 43.0928C143.099 41.028 142.695 38.9836 141.911 37.0759C141.895 36.9811 141.895 36.8843 141.911 36.7894Z" fill="white"/>
  </mask>
  <g mask="url(#mask4)">
    <path fill-rule="evenodd" clip-rule="evenodd" d="M125.174 31.7894H150.08V61.2181H125.174V31.7894Z" fill="#5D5D69"/>
  </g>
  <mask id="mask5" mask-type="alpha" maskUnits="userSpaceOnUse" x="114" y="53" width="4" height="8">
    <path fill-rule="evenodd" clip-rule="evenodd" d="M116.414 53.204C116.698 53.3444 117.008 53.3988 117.29 53.5249C116.753 55.7225 116.218 58.1235 115.868 60.3612C115.828 60.6076 115.751 60.5961 115.544 60.5044C115.338 60.45 115.166 60.3105 115.068 60.1204C114.97 59.9304 114.957 59.7077 115.032 59.5073C115.464 57.4444 115.834 55.2468 116.414 53.204Z" fill="white"/>
  </mask>
  <g mask="url(#mask5)">
    <path fill-rule="evenodd" clip-rule="evenodd" d="M109.984 48.204H122.29V65.5646H109.984V48.204Z" fill="#424251"/>
  </g>
  <mask id="mask6" mask-type="alpha" maskUnits="userSpaceOnUse" x="109" y="50" width="5" height="8">
    <path fill-rule="evenodd" clip-rule="evenodd" d="M112.606 50.9348C112.899 51.0781 113.155 51.1669 113.448 51.2987C112.595 52.9204 111.042 55.1294 109.978 57.029C109.748 57.4387 109.557 57.029 109.364 56.9689C109.17 56.9087 108.963 56.8199 109.148 56.519C110.069 55.0177 110.976 53.5049 111.889 52.0007C112.089 51.6203 112.33 51.263 112.606 50.9348Z" fill="white"/>
  </mask>
  <g mask="url(#mask6)">
    <path fill-rule="evenodd" clip-rule="evenodd" d="M104.076 45.9348H118.448V62.209H104.076V45.9348Z" fill="#424251"/>
  </g>
  <mask id="mask7" mask-type="alpha" maskUnits="userSpaceOnUse" x="116" y="51" width="2" height="2">
    <path fill-rule="evenodd" clip-rule="evenodd" d="M116.761 51.8803L117.665 52.1009L117.483 52.78C117.176 52.8096 116.868 52.7499 116.593 52.6081L116.761 51.8803Z" fill="white"/>
  </mask>
  <g mask="url(#mask7)">
    <path fill-rule="evenodd" clip-rule="evenodd" d="M111.593 46.8804H122.665V57.7874H111.593V46.8804Z" fill="#5D5D69"/>
  </g>
  <mask id="mask8" mask-type="alpha" maskUnits="userSpaceOnUse" x="116" y="52" width="2" height="2">
    <path fill-rule="evenodd" clip-rule="evenodd" d="M117.483 52.78C117.441 52.9375 117.361 53.2011 117.321 53.353C117.018 53.3872 116.713 53.3043 116.468 53.1209L116.593 52.608C116.929 52.4562 117.202 52.6424 117.483 52.78Z" fill="white"/>
  </mask>
  <g mask="url(#mask8)">
    <path fill-rule="evenodd" clip-rule="evenodd" d="M111.468 47.5514H122.483V58.3606H111.468V47.5514Z" fill="#424251"/>
  </g>
  <mask id="mask9" mask-type="alpha" maskUnits="userSpaceOnUse" x="112" y="50" width="2" height="2">
    <path fill-rule="evenodd" clip-rule="evenodd" d="M112.725 50.7772L113.601 51.0637L113.385 51.4448L112.506 51.0494L112.725 50.7772Z" fill="white"/>
  </mask>
  <g mask="url(#mask9)">
    <path fill-rule="evenodd" clip-rule="evenodd" d="M107.506 45.7772H118.601V56.4448H107.506V45.7772Z" fill="#5D5D69"/>
  </g>
  <mask id="mask10" mask-type="alpha" maskUnits="userSpaceOnUse" x="116" y="53" width="2" height="1">
    <path fill-rule="evenodd" clip-rule="evenodd" d="M116.502 53.0034C116.746 53.1893 117.05 53.2771 117.355 53.2498C117.37 53.4141 117.332 53.5788 117.247 53.7197L116.394 53.3415C116.354 53.204 116.442 53.1066 116.502 53.0034Z" fill="white"/>
  </mask>
  <g mask="url(#mask10)">
    <path fill-rule="evenodd" clip-rule="evenodd" d="M111.384 48.0034H122.359V58.7197H111.384V48.0034Z" fill="#5D5D69"/>
  </g>
  <mask id="mask11" mask-type="alpha" maskUnits="userSpaceOnUse" x="105" y="32" width="2" height="2">
    <path fill-rule="evenodd" clip-rule="evenodd" d="M106.019 32.1106C106.352 32.337 106.338 32.6464 106.184 32.9702C106.13 33.112 106.017 33.2232 105.875 33.2748C105.733 33.3265 105.576 33.3136 105.445 33.2395C105.098 33.0504 105.123 32.7009 105.274 32.38C105.33 32.2384 105.444 32.128 105.586 32.0765C105.729 32.025 105.886 32.0374 106.019 32.1106Z" fill="white"/>
  </mask>
  <g mask="url(#mask11)">
    <path fill-rule="evenodd" clip-rule="evenodd" d="M100.169 27.0452H111.288V38.3061H100.169V27.0452Z" fill="#030304"/>
  </g>
  <mask id="mask12" mask-type="alpha" maskUnits="userSpaceOnUse" x="102" y="30" width="2" height="3">
    <path fill-rule="evenodd" clip-rule="evenodd" d="M103.607 31.0047C103.744 31.0684 103.848 31.1864 103.894 31.3305C103.94 31.4746 103.925 31.6317 103.852 31.7639C103.664 32.0304 103.428 32.2138 103.11 32.0189C102.977 31.9477 102.88 31.8253 102.839 31.6799C102.798 31.5345 102.818 31.3786 102.893 31.2482C102.949 31.1137 103.059 31.0098 103.195 30.9632C103.332 30.9165 103.482 30.9316 103.607 31.0047Z" fill="white"/>
  </mask>
  <g mask="url(#mask12)">
    <path fill-rule="evenodd" clip-rule="evenodd" d="M97.818 25.9365H108.92V37.1002H97.818V25.9365Z" fill="#030304"/>
  </g>
  <mask id="mask13" mask-type="alpha" maskUnits="userSpaceOnUse" x="93" y="29" width="7" height="5">
    <path fill-rule="evenodd" clip-rule="evenodd" d="M95.1427 29.401C96.4627 30.681 98.0884 31.3839 99.837 31.8553L99.9999 33.401C97.6199 32.341 95.4284 31.2867 93.9999 30.2581L95.1427 29.401Z" fill="white"/>
  </mask>
  <g mask="url(#mask13)">
    <path fill-rule="evenodd" clip-rule="evenodd" d="M88.9999 24.401H105V38.401H88.9999V24.401Z" fill="#424251"/>
  </g>
  <mask id="mask14" mask-type="alpha" maskUnits="userSpaceOnUse" x="55" y="0" width="38" height="21">
    <path fill-rule="evenodd" clip-rule="evenodd" d="M74.9907 6.42258L75.0818 6.67013H88.9985C90.8318 6.67013 92.3318 8.17013 92.3318 10.0035C92.3318 11.7757 90.9301 13.2364 89.1807 13.3318L88.9985 13.3368V16.6701C88.9985 18.5035 87.4985 20.0035 85.6651 20.0035C83.8929 20.0035 82.4322 18.6018 82.3368 16.8523L82.3318 16.6701V13.3368H75.0818C73.7151 17.2201 70.0151 20.0035 65.6651 20.0035C59.4318 20.0035 54.5318 14.2868 55.8985 7.83679C56.6985 4.02013 59.7985 0.970126 63.6151 0.203456C68.7352 -0.810738 73.3254 2.07645 74.9907 6.42258ZM65.6651 6.67013C63.8318 6.67013 62.3318 8.17013 62.3318 10.0035C62.3318 11.8368 63.8318 13.3368 65.6651 13.3368C67.4985 13.3368 68.9985 11.8368 68.9985 10.0035C68.9985 8.17013 67.4985 6.67013 65.6651 6.67013Z" fill="white"/>
  </mask>
  <g mask="url(#mask14)">
    <path fill-rule="evenodd" clip-rule="evenodd" d="M49 -14.9983H99V35.0017H49V-14.9983Z" fill="#FFB969"/>
  </g>
  <mask id="mask15" mask-type="alpha" maskUnits="userSpaceOnUse" x="4" y="14" width="58" height="52">
    <path fill-rule="evenodd" clip-rule="evenodd" d="M43.0188 16.1183C43.1298 14.9196 44.7509 14.1474 45.8885 14.741C46.0449 14.8534 46.0477 14.9744 46.1274 15.1934C46.0249 16.1912 45.2141 16.961 44.2247 17C43.9346 17.0259 43.855 17.1095 43.8379 17.3976C43.6019 20.9359 43.6644 24.4541 44.5404 27.9117C44.657 28.3756 44.7935 28.6435 45.3111 28.6868C45.7847 28.7557 46.2406 28.9172 46.6535 29.1622C48.3059 30.0266 48.9742 31.6459 48.4595 33.2451C48.335 33.6292 48.1548 33.9924 47.9248 34.3227C47.1091 35.4907 45.9273 36.3447 44.5717 36.7459C42.9991 37.3016 41.2863 37.2966 39.7169 36.7315C39.8221 36.8756 39.2533 36.6307 38.6845 36.9188C38.6845 38.0713 44.3726 37.593 48.6387 36.8007C54.1276 35.7864 56.6162 35.2102 61.4795 33.2768C61.5705 33.441 62.1194 34.8644 61.7326 35.0056C61.4482 35.1035 60.8794 35.2793 59.7418 35.5473C56.2948 36.9274 46.9095 38.4949 41.7902 38.9819C40.7965 38.965 39.3159 38.9727 38.0339 38.7876L37.9609 38.7768L37.8458 38.9988C36.3108 41.8479 33.9761 43.1084 30.7504 42.8329L30.4453 42.8025C30.3659 42.7954 30.2859 42.7954 30.2064 42.8025C30.239 42.8788 30.278 42.9521 30.3231 43.0215C30.8549 43.7159 31.4038 44.3959 31.9214 45.099C33.1266 46.6962 34.2515 48.3542 35.2916 50.0664L34.4185 50.3546C32.6353 47.6778 30.7468 44.8771 28.5142 42.3242C29.5438 45.2747 30.3942 48.2195 31.1706 51.0807C30.8691 51.1498 30.5733 51.2564 30.2719 51.3256C29.4499 48.3578 28.5455 45.2661 27.5302 42.2608C27.442 42.5778 27.3852 42.8083 27.3169 43.0359C26.4978 45.8481 24.9393 48.1907 22.92 50.2393C22.7636 50.3978 22.6498 50.5015 22.8034 50.7666C24.432 53.6553 25.9147 56.626 27.2458 59.6671C27.5501 60.3269 27.8431 60.9896 28.099 61.6668C28.281 62.1768 27.6952 62.122 27.5302 62.2834C27.3653 62.4447 27.2998 62.243 27.2458 62.1191C26.5433 60.5229 25.8664 58.9151 25.1384 57.3332C24.1913 55.3163 23.1618 53.3281 22.1095 51.3746C21.9986 51.17 21.9417 51.1815 21.7454 51.3054C21.316 51.5763 21.5691 51.9105 21.6288 52.1986C22.4166 56.1634 22.7437 60.1771 22.9854 64.211C23.0196 64.7642 22.8774 65.0668 22.3825 65.2886C22.0583 65.4356 22.0725 65.3549 22.0583 65.0668C21.9986 63.7385 21.9417 62.4073 21.8393 61.079C21.631 58.2242 21.2769 55.3823 20.7785 52.5646C20.7244 52.2678 20.6619 52.1756 20.3775 52.3802C19.3703 53.0779 18.3164 53.7037 17.2234 54.253C16.5892 53.988 16.0204 54.1839 15.3577 54.0427C12.144 53.3656 9.38241 52.3542 7.22094 49.761C5.42175 47.6161 4.43209 44.8941 4.4281 42.0793C4.46792 39.9903 4.55039 38.4574 5.36663 36.5327C5.53263 36.2962 5.68458 36.0499 5.82168 35.7951C7.00544 34.7919 8.26229 33.8807 9.5815 33.0693C9.50381 33.686 9.36176 34.2925 9.15773 34.8788C8.05709 37.8495 8.33865 41.1832 9.24021 44.2893C10.193 47.5885 11.1514 48.571 14.1035 50.052C15.8099 50.9107 17.5533 51.7117 19.4304 51.9998C19.894 52.0747 19.5072 52.0949 19.7375 51.8932C19.9679 51.6915 19.8513 51.9969 19.9935 51.6915C19.6835 51.6224 19.2 51.5042 18.89 51.4351C15.5198 50.6888 13.3811 49.4354 11.2367 46.5829C9.72654 44.5717 8.71406 41.9871 8.7425 39.4688C8.70892 37.3776 9.13745 35.3052 9.99672 33.4035C10.154 33.149 10.2983 32.8865 10.429 32.6169C10.594 32.5535 11.2765 32.3432 11.433 32.2654C13.0569 31.4821 14.8099 31.0103 16.6034 30.8737C19.6124 30.6115 22.4337 31.1302 24.8511 33.1298C25.1441 33.3719 25.1327 33.1125 25.1953 32.9713C26.148 30.8478 27.7179 29.4215 29.959 28.9029C33.0505 28.1883 35.5419 29.2371 37.4246 31.8015C37.5753 32.009 37.6123 32.0032 37.7261 31.7785C38.1479 30.9719 38.7729 30.2929 39.5377 29.8105C40.2175 29.3639 40.2004 29.3898 39.7653 28.6752C38.056 25.8602 36.9042 22.8664 37.0264 19.4866C37.0549 18.7 37.1345 17.9335 37.7175 17.3342C37.9289 17.1399 38.1836 17.0005 38.4598 16.928C38.4702 16.9379 38.4829 16.9449 38.4968 16.9481C39.5463 16.853 40.1549 17.2651 40.1549 18.0661C40.12 18.5165 39.9057 18.9331 39.5613 19.2201C39.2168 19.5071 38.772 19.6397 38.329 19.5874C37.9451 19.5356 37.9451 19.6825 37.9451 19.9707C37.9479 22.8319 38.9376 25.3761 40.3426 27.7935L40.3653 27.8281C40.6441 28.1796 40.7237 28.8078 41.0991 28.9115C41.4745 29.0152 41.9495 28.7329 42.3846 28.6493C42.7385 28.5724 43.0981 28.5252 43.4597 28.5081C43.7128 28.5081 43.727 28.4361 43.6701 28.22C42.6292 24.2408 42.6406 20.1896 43.0188 16.1183ZM35.8779 38.0468L35.8405 38.0166C36.2575 38.384 36.9589 38.6075 37.7625 38.7449L37.9609 38.7768L37.9874 38.727C38.0338 38.6349 38.0794 38.5412 38.1242 38.4459C38.1527 38.3854 38.1868 38.3249 38.2181 38.2673C38.2642 38.3191 36.3636 38.2146 35.9271 38.0672L35.8779 38.0468Z" fill="white"/>
  </mask>
  <g mask="url(#mask15)">
    <path fill-rule="evenodd" clip-rule="evenodd" d="M-0.571899 9.53662H66.8691V70.3605H-0.571899V9.53662Z" fill="#424251"/>
  </g>
  <mask id="mask16" mask-type="alpha" maskUnits="userSpaceOnUse" x="0" y="37" width="16" height="19">
    <path fill-rule="evenodd" clip-rule="evenodd" d="M4.17497 37.3683C4.25415 37.875 4.24549 38.3917 4.14938 38.8954C3.55213 41.2005 3.80525 43.8168 4.40534 46.1218C5.1391 48.9485 5.93259 50.0347 8.33296 51.5964C10.3494 52.9132 12.5421 54.0773 14.8742 54.4778C15.1392 54.5796 15.3741 54.7482 15.5568 54.9676C12.3658 56.0683 8.76809 56.414 5.55718 55.1722C2.04195 53.8151 -0.0285118 50.6801 0.0681854 46.8768C0.159195 43.4191 1.98222 39.9615 4.17497 37.3683Z" fill="white"/>
  </mask>
  <g mask="url(#mask16)">
    <path fill-rule="evenodd" clip-rule="evenodd" d="M-4.93506 32.3683H20.5568V60.9603H-4.93506V32.3683Z" fill="#424251"/>
  </g>
  <mask id="mask17" mask-type="alpha" maskUnits="userSpaceOnUse" x="7" y="32" width="14" height="21">
    <path fill-rule="evenodd" clip-rule="evenodd" d="M10.9125 32.4526C10.927 32.5336 10.927 32.6166 10.9125 32.6976C9.96735 34.7788 9.45338 37.0343 9.40233 39.3247C9.37389 41.8487 10.0166 44.1538 11.5268 46.1708C13.6712 49.0233 16.666 50.4467 20.0362 51.193L20.969 51.4004C20.8268 51.703 20.5254 51.8269 20.2921 52.0459C20.0589 52.2648 19.9025 52.576 19.4389 52.504C17.5667 52.245 15.7445 51.698 14.0353 50.8818C11.086 49.4037 8.88187 47.2225 7.92627 43.9291C7.02756 40.8201 7.45132 37.812 8.55196 34.8413C8.72829 34.3716 9.00132 33.9337 9.05251 33.4179C9.62207 33.0049 10.2489 32.6796 10.9125 32.4526Z" fill="white"/>
  </mask>
  <g mask="url(#mask17)">
    <path fill-rule="evenodd" clip-rule="evenodd" d="M2.43909 27.4526H25.969V57.5146H2.43909V27.4526Z" fill="#5D5D69"/>
  </g>
  <mask id="mask18" mask-type="alpha" maskUnits="userSpaceOnUse" x="2" y="35" width="16" height="21">
    <path fill-rule="evenodd" clip-rule="evenodd" d="M6.25686 35.3772C6.27277 35.4726 6.27277 35.57 6.25686 35.6653C5.44207 37.5678 5.00432 39.6139 4.96851 41.6874C4.91732 44.4247 5.67952 46.9286 7.43713 49.0348C9.59576 51.6252 12.4711 52.9448 15.6848 53.6219C16.3503 53.7602 17.0414 53.7602 17.6757 54.0282C16.8838 54.475 16.0415 54.8233 15.1672 55.0655C15.0876 54.9099 14.9425 54.9128 14.8032 54.8869C12.4739 54.4863 10.2271 53.8352 8.20787 52.5213C5.81034 50.9624 4.10677 48.8706 3.373 46.0469C2.80962 43.7625 2.85279 41.3677 3.49814 39.1057C3.61475 38.6994 3.85649 38.3219 3.78255 37.8782C4.48348 36.9276 5.31695 36.0851 6.25686 35.3772Z" fill="white"/>
  </mask>
  <g mask="url(#mask18)">
    <path fill-rule="evenodd" clip-rule="evenodd" d="M-2.0199 30.3772H22.6757V60.0655H-2.0199V30.3772Z" fill="#5D5D69"/>
  </g>
  <mask id="mask19" mask-type="alpha" maskUnits="userSpaceOnUse" x="30" y="52" width="3" height="8">
    <path fill-rule="evenodd" clip-rule="evenodd" d="M31.4578 52.3369C32.0039 54.3798 32.3338 56.5956 32.732 58.6759C32.8024 58.8783 32.7854 59.1014 32.6853 59.2905C32.5852 59.4797 32.4112 59.6174 32.2058 59.67C31.9954 59.7593 31.9186 59.7679 31.8844 59.5201C31.5773 57.264 31.0853 54.8408 30.5847 52.6222C30.8663 52.5012 31.1763 52.4522 31.4578 52.3369Z" fill="white"/>
  </mask>
  <g mask="url(#mask19)">
    <path fill-rule="evenodd" clip-rule="evenodd" d="M25.5847 47.3369H37.7748V64.7272H25.5847V47.3369Z" fill="#424251"/>
  </g>
  <mask id="mask20" mask-type="alpha" maskUnits="userSpaceOnUse" x="34" y="50" width="5" height="7">
    <path fill-rule="evenodd" clip-rule="evenodd" d="M35.3058 50.1096C35.5754 50.4446 35.809 50.8078 36.0026 51.193C36.8899 52.723 37.7687 54.2588 38.6617 55.7859C38.8409 56.0913 38.6333 56.1864 38.4399 56.2354C38.2465 56.2844 38.0474 56.6993 37.8256 56.2844C36.7961 54.3452 35.2688 52.0949 34.4583 50.4496C34.7512 50.3228 35.01 50.2364 35.3058 50.1096Z" fill="white"/>
  </mask>
  <g mask="url(#mask20)">
    <path fill-rule="evenodd" clip-rule="evenodd" d="M29.4583 45.1096H43.7302V61.467H29.4583V45.1096Z" fill="#424251"/>
  </g>
  <mask id="mask21" mask-type="alpha" maskUnits="userSpaceOnUse" x="30" y="50" width="2" height="2">
    <path fill-rule="evenodd" clip-rule="evenodd" d="M31.1393 50.9941L31.2957 51.7289C31.0196 51.8653 30.7108 51.9193 30.4055 51.8845L30.2349 51.1987L31.1393 50.9941Z" fill="white"/>
  </mask>
  <g mask="url(#mask21)">
    <path fill-rule="evenodd" clip-rule="evenodd" d="M25.2349 45.9941H36.2957V56.8948H25.2349V45.9941Z" fill="#5D5D69"/>
  </g>
  <mask id="mask22" mask-type="alpha" maskUnits="userSpaceOnUse" x="30" y="51" width="2" height="2">
    <path fill-rule="evenodd" clip-rule="evenodd" d="M30.4055 51.8701C30.6871 51.7376 30.9629 51.5532 31.2957 51.7145L31.4095 52.2274C31.1628 52.4075 30.8578 52.4858 30.5562 52.4464C30.5164 52.2937 30.4425 52.0286 30.4055 51.8701Z" fill="white"/>
  </mask>
  <g mask="url(#mask22)">
    <path fill-rule="evenodd" clip-rule="evenodd" d="M25.4055 46.6516H36.4095V57.4564H25.4055V46.6516Z" fill="#424251"/>
  </g>
  <mask id="mask23" mask-type="alpha" maskUnits="userSpaceOnUse" x="34" y="49" width="2" height="2">
    <path fill-rule="evenodd" clip-rule="evenodd" d="M35.192 49.9281L35.4082 50.2162L34.5237 50.5995L34.3132 50.2162L35.192 49.9281Z" fill="white"/>
  </mask>
  <g mask="url(#mask23)">
    <path fill-rule="evenodd" clip-rule="evenodd" d="M29.3132 44.9281H40.4082V55.5995H29.3132V44.9281Z" fill="#5D5D69"/>
  </g>
  <mask id="mask24" mask-type="alpha" maskUnits="userSpaceOnUse" x="30" y="52" width="2" height="1">
    <path fill-rule="evenodd" clip-rule="evenodd" d="M31.3953 52.1121C31.438 52.2187 31.5233 52.3167 31.4977 52.4521L30.6445 52.8181C30.5597 52.6763 30.5237 52.5102 30.5421 52.3455C30.8451 52.3762 31.1487 52.2932 31.3953 52.1121Z" fill="white"/>
  </mask>
  <g mask="url(#mask24)">
    <path fill-rule="evenodd" clip-rule="evenodd" d="M25.5374 47.1122H36.5023V57.8181H25.5374V47.1122Z" fill="#5D5D69"/>
  </g>
  <mask id="mask25" mask-type="alpha" maskUnits="userSpaceOnUse" x="41" y="31" width="3" height="2">
    <path fill-rule="evenodd" clip-rule="evenodd" d="M42.2026 31.2829C42.3371 31.2121 42.495 31.2032 42.6364 31.2583C42.7778 31.3134 42.8891 31.4272 42.9421 31.571C43.0871 31.8995 43.107 32.251 42.7572 32.4354C42.6238 32.5071 42.4662 32.5165 42.3254 32.4612C42.1845 32.4059 42.0744 32.2913 42.0235 32.1473C41.927 32.0108 41.8914 31.8395 41.9255 31.6752C41.9595 31.5109 42.0601 31.3685 42.2026 31.2829Z" fill="white"/>
  </mask>
  <g mask="url(#mask25)">
    <path fill-rule="evenodd" clip-rule="evenodd" d="M36.9128 26.2225H48.0405V37.4968H36.9128V26.2225Z" fill="#030304"/>
  </g>
  <mask id="mask26" mask-type="alpha" maskUnits="userSpaceOnUse" x="44" y="30" width="2" height="2">
    <path fill-rule="evenodd" clip-rule="evenodd" d="M44.6257 30.2138C44.7515 30.1431 44.9014 30.1306 45.037 30.1797C45.1726 30.2288 45.2807 30.3347 45.3338 30.4703C45.4778 30.7476 45.3767 31.0905 45.1063 31.2425C44.7849 31.4327 44.5517 31.2425 44.3668 30.9745C44.2971 30.8396 44.2854 30.6816 44.3344 30.5377C44.3833 30.3937 44.4887 30.2766 44.6257 30.2138Z" fill="white"/>
  </mask>
  <g mask="url(#mask26)">
    <path fill-rule="evenodd" clip-rule="evenodd" d="M39.3046 25.1501H50.3993V36.3194H39.3046V25.1501Z" fill="#030304"/>
  </g>
  <mask id="mask27" mask-type="alpha" maskUnits="userSpaceOnUse" x="47" y="28" width="7" height="5">
    <path fill-rule="evenodd" clip-rule="evenodd" d="M52.8798 28.401L53.9999 29.2967C52.5821 30.3237 50.3761 31.3623 47.9999 32.401L48.187 30.8226C49.928 30.3762 51.55 29.6847 52.8798 28.401Z" fill="white"/>
  </mask>
  <g mask="url(#mask27)">
    <path fill-rule="evenodd" clip-rule="evenodd" d="M42.9999 23.401H58.9999V37.401H42.9999V23.401Z" fill="#424251"/>
  </g>
</svg>
