<svg xmlns="http://www.w3.org/2000/svg" xmlns:xlink="http://www.w3.org/1999/xlink" width="32" height="32" viewBox="0 0 32 32">
    <defs>
        <path id="a" d="M14.939.64a1.71 1.71 0 0 0-1.087.439L.469 13.123a.794.794 0 0 0-.269.574v.036c.01.408.327.799.812.799h2.721v11.29c0 .877.711 1.586 1.587 1.586h6.023a1.6 1.6 0 0 0 1.6-1.601v-8.055h4.113v8.055c0 .885.717 1.601 1.601 1.601h6.023c.877 0 1.588-.71 1.588-1.587V14.532h2.723c.482 0 .8-.39.81-.795V13.7a.775.775 0 0 0-.269-.567L16.149 1.087A1.712 1.712 0 0 0 15.053.64h-.114zM6.953 23.515V12.112c0-.313.134-.615.367-.825l7.23-6.508a.681.681 0 0 1 .902 0l7.228 6.508c.235.21.368.512.368.825v11.403a.674.674 0 0 1-.673.674h-1.426a.674.674 0 0 1-.673-.674v-8.31a.673.673 0 0 0-.675-.673h-9.204a.674.674 0 0 0-.673.673v8.31a.674.674 0 0 1-.673.674H7.627a.674.674 0 0 1-.674-.674z"/>
    </defs>
    <g fill="none" fill-rule="evenodd" transform="translate(1 2)">
        <mask id="b" fill="#fff">
            <use xlink:href="#a"/>
        </mask>
        <use fill="#D8D8D8" xlink:href="#a"/>
        <g fill="#766D86" mask="url(#b)">
            <path d="M-1-2h32v32H-1z"/>
        </g>
    </g>
</svg>
