<svg xmlns="http://www.w3.org/2000/svg" xmlns:xlink="http://www.w3.org/1999/xlink" width="32" height="32" viewBox="0 0 32 32">
    <defs>
        <path id="a" d="M18.12 14.3H7.879A1.294 1.294 0 0 1 6.6 12.998c0-.713.576-1.298 1.279-1.298H18.12c.704 0 1.28.585 1.28 1.298 0 .716-.576 1.302-1.28 1.302M13 0C5.824 0 0 5.824 0 12.998 0 20.176 5.824 26 13 26s13-5.824 13-13.002C26 5.824 20.176 0 13 0"/>
    </defs>
    <g fill="none" fill-rule="evenodd" transform="translate(3 3)">
        <mask id="b" fill="#fff">
            <use xlink:href="#a"/>
        </mask>
        <use fill="#5F45BA" xlink:href="#a"/>
        <g fill="#5F45BA" mask="url(#b)">
            <path d="M-3-3h32v32H-3z"/>
        </g>
    </g>
</svg>
